G04 #@! TF.GenerationSoftware,KiCad,Pcbnew,(5.1.0-0)*
G04 #@! TF.CreationDate,2019-10-12T10:13:56-07:00*
G04 #@! TF.ProjectId,BB-Mainboard-0,42422d4d-6169-46e6-926f-6172642d302e,rev?*
G04 #@! TF.SameCoordinates,Original*
G04 #@! TF.FileFunction,Paste,Bot*
G04 #@! TF.FilePolarity,Positive*
%FSLAX46Y46*%
G04 Gerber Fmt 4.6, Leading zero omitted, Abs format (unit mm)*
G04 Created by KiCad (PCBNEW (5.1.0-0)) date 2019-10-12 10:13:56*
%MOMM*%
%LPD*%
G04 APERTURE LIST*
%ADD10R,0.900000X0.800000*%
%ADD11C,0.100000*%
%ADD12C,0.975000*%
%ADD13C,1.250000*%
G04 APERTURE END LIST*
D10*
X122450000Y-53000000D03*
X120450000Y-52050000D03*
X120450000Y-53950000D03*
X118000000Y-53000000D03*
X116000000Y-52050000D03*
X116000000Y-53950000D03*
D11*
G36*
X108767642Y-46801174D02*
G01*
X108791303Y-46804684D01*
X108814507Y-46810496D01*
X108837029Y-46818554D01*
X108858653Y-46828782D01*
X108879170Y-46841079D01*
X108898383Y-46855329D01*
X108916107Y-46871393D01*
X108932171Y-46889117D01*
X108946421Y-46908330D01*
X108958718Y-46928847D01*
X108968946Y-46950471D01*
X108977004Y-46972993D01*
X108982816Y-46996197D01*
X108986326Y-47019858D01*
X108987500Y-47043750D01*
X108987500Y-47956250D01*
X108986326Y-47980142D01*
X108982816Y-48003803D01*
X108977004Y-48027007D01*
X108968946Y-48049529D01*
X108958718Y-48071153D01*
X108946421Y-48091670D01*
X108932171Y-48110883D01*
X108916107Y-48128607D01*
X108898383Y-48144671D01*
X108879170Y-48158921D01*
X108858653Y-48171218D01*
X108837029Y-48181446D01*
X108814507Y-48189504D01*
X108791303Y-48195316D01*
X108767642Y-48198826D01*
X108743750Y-48200000D01*
X108256250Y-48200000D01*
X108232358Y-48198826D01*
X108208697Y-48195316D01*
X108185493Y-48189504D01*
X108162971Y-48181446D01*
X108141347Y-48171218D01*
X108120830Y-48158921D01*
X108101617Y-48144671D01*
X108083893Y-48128607D01*
X108067829Y-48110883D01*
X108053579Y-48091670D01*
X108041282Y-48071153D01*
X108031054Y-48049529D01*
X108022996Y-48027007D01*
X108017184Y-48003803D01*
X108013674Y-47980142D01*
X108012500Y-47956250D01*
X108012500Y-47043750D01*
X108013674Y-47019858D01*
X108017184Y-46996197D01*
X108022996Y-46972993D01*
X108031054Y-46950471D01*
X108041282Y-46928847D01*
X108053579Y-46908330D01*
X108067829Y-46889117D01*
X108083893Y-46871393D01*
X108101617Y-46855329D01*
X108120830Y-46841079D01*
X108141347Y-46828782D01*
X108162971Y-46818554D01*
X108185493Y-46810496D01*
X108208697Y-46804684D01*
X108232358Y-46801174D01*
X108256250Y-46800000D01*
X108743750Y-46800000D01*
X108767642Y-46801174D01*
X108767642Y-46801174D01*
G37*
D12*
X108500000Y-47500000D03*
D11*
G36*
X110642642Y-46801174D02*
G01*
X110666303Y-46804684D01*
X110689507Y-46810496D01*
X110712029Y-46818554D01*
X110733653Y-46828782D01*
X110754170Y-46841079D01*
X110773383Y-46855329D01*
X110791107Y-46871393D01*
X110807171Y-46889117D01*
X110821421Y-46908330D01*
X110833718Y-46928847D01*
X110843946Y-46950471D01*
X110852004Y-46972993D01*
X110857816Y-46996197D01*
X110861326Y-47019858D01*
X110862500Y-47043750D01*
X110862500Y-47956250D01*
X110861326Y-47980142D01*
X110857816Y-48003803D01*
X110852004Y-48027007D01*
X110843946Y-48049529D01*
X110833718Y-48071153D01*
X110821421Y-48091670D01*
X110807171Y-48110883D01*
X110791107Y-48128607D01*
X110773383Y-48144671D01*
X110754170Y-48158921D01*
X110733653Y-48171218D01*
X110712029Y-48181446D01*
X110689507Y-48189504D01*
X110666303Y-48195316D01*
X110642642Y-48198826D01*
X110618750Y-48200000D01*
X110131250Y-48200000D01*
X110107358Y-48198826D01*
X110083697Y-48195316D01*
X110060493Y-48189504D01*
X110037971Y-48181446D01*
X110016347Y-48171218D01*
X109995830Y-48158921D01*
X109976617Y-48144671D01*
X109958893Y-48128607D01*
X109942829Y-48110883D01*
X109928579Y-48091670D01*
X109916282Y-48071153D01*
X109906054Y-48049529D01*
X109897996Y-48027007D01*
X109892184Y-48003803D01*
X109888674Y-47980142D01*
X109887500Y-47956250D01*
X109887500Y-47043750D01*
X109888674Y-47019858D01*
X109892184Y-46996197D01*
X109897996Y-46972993D01*
X109906054Y-46950471D01*
X109916282Y-46928847D01*
X109928579Y-46908330D01*
X109942829Y-46889117D01*
X109958893Y-46871393D01*
X109976617Y-46855329D01*
X109995830Y-46841079D01*
X110016347Y-46828782D01*
X110037971Y-46818554D01*
X110060493Y-46810496D01*
X110083697Y-46804684D01*
X110107358Y-46801174D01*
X110131250Y-46800000D01*
X110618750Y-46800000D01*
X110642642Y-46801174D01*
X110642642Y-46801174D01*
G37*
D12*
X110375000Y-47500000D03*
D11*
G36*
X108767642Y-42301174D02*
G01*
X108791303Y-42304684D01*
X108814507Y-42310496D01*
X108837029Y-42318554D01*
X108858653Y-42328782D01*
X108879170Y-42341079D01*
X108898383Y-42355329D01*
X108916107Y-42371393D01*
X108932171Y-42389117D01*
X108946421Y-42408330D01*
X108958718Y-42428847D01*
X108968946Y-42450471D01*
X108977004Y-42472993D01*
X108982816Y-42496197D01*
X108986326Y-42519858D01*
X108987500Y-42543750D01*
X108987500Y-43456250D01*
X108986326Y-43480142D01*
X108982816Y-43503803D01*
X108977004Y-43527007D01*
X108968946Y-43549529D01*
X108958718Y-43571153D01*
X108946421Y-43591670D01*
X108932171Y-43610883D01*
X108916107Y-43628607D01*
X108898383Y-43644671D01*
X108879170Y-43658921D01*
X108858653Y-43671218D01*
X108837029Y-43681446D01*
X108814507Y-43689504D01*
X108791303Y-43695316D01*
X108767642Y-43698826D01*
X108743750Y-43700000D01*
X108256250Y-43700000D01*
X108232358Y-43698826D01*
X108208697Y-43695316D01*
X108185493Y-43689504D01*
X108162971Y-43681446D01*
X108141347Y-43671218D01*
X108120830Y-43658921D01*
X108101617Y-43644671D01*
X108083893Y-43628607D01*
X108067829Y-43610883D01*
X108053579Y-43591670D01*
X108041282Y-43571153D01*
X108031054Y-43549529D01*
X108022996Y-43527007D01*
X108017184Y-43503803D01*
X108013674Y-43480142D01*
X108012500Y-43456250D01*
X108012500Y-42543750D01*
X108013674Y-42519858D01*
X108017184Y-42496197D01*
X108022996Y-42472993D01*
X108031054Y-42450471D01*
X108041282Y-42428847D01*
X108053579Y-42408330D01*
X108067829Y-42389117D01*
X108083893Y-42371393D01*
X108101617Y-42355329D01*
X108120830Y-42341079D01*
X108141347Y-42328782D01*
X108162971Y-42318554D01*
X108185493Y-42310496D01*
X108208697Y-42304684D01*
X108232358Y-42301174D01*
X108256250Y-42300000D01*
X108743750Y-42300000D01*
X108767642Y-42301174D01*
X108767642Y-42301174D01*
G37*
D12*
X108500000Y-43000000D03*
D11*
G36*
X110642642Y-42301174D02*
G01*
X110666303Y-42304684D01*
X110689507Y-42310496D01*
X110712029Y-42318554D01*
X110733653Y-42328782D01*
X110754170Y-42341079D01*
X110773383Y-42355329D01*
X110791107Y-42371393D01*
X110807171Y-42389117D01*
X110821421Y-42408330D01*
X110833718Y-42428847D01*
X110843946Y-42450471D01*
X110852004Y-42472993D01*
X110857816Y-42496197D01*
X110861326Y-42519858D01*
X110862500Y-42543750D01*
X110862500Y-43456250D01*
X110861326Y-43480142D01*
X110857816Y-43503803D01*
X110852004Y-43527007D01*
X110843946Y-43549529D01*
X110833718Y-43571153D01*
X110821421Y-43591670D01*
X110807171Y-43610883D01*
X110791107Y-43628607D01*
X110773383Y-43644671D01*
X110754170Y-43658921D01*
X110733653Y-43671218D01*
X110712029Y-43681446D01*
X110689507Y-43689504D01*
X110666303Y-43695316D01*
X110642642Y-43698826D01*
X110618750Y-43700000D01*
X110131250Y-43700000D01*
X110107358Y-43698826D01*
X110083697Y-43695316D01*
X110060493Y-43689504D01*
X110037971Y-43681446D01*
X110016347Y-43671218D01*
X109995830Y-43658921D01*
X109976617Y-43644671D01*
X109958893Y-43628607D01*
X109942829Y-43610883D01*
X109928579Y-43591670D01*
X109916282Y-43571153D01*
X109906054Y-43549529D01*
X109897996Y-43527007D01*
X109892184Y-43503803D01*
X109888674Y-43480142D01*
X109887500Y-43456250D01*
X109887500Y-42543750D01*
X109888674Y-42519858D01*
X109892184Y-42496197D01*
X109897996Y-42472993D01*
X109906054Y-42450471D01*
X109916282Y-42428847D01*
X109928579Y-42408330D01*
X109942829Y-42389117D01*
X109958893Y-42371393D01*
X109976617Y-42355329D01*
X109995830Y-42341079D01*
X110016347Y-42328782D01*
X110037971Y-42318554D01*
X110060493Y-42310496D01*
X110083697Y-42304684D01*
X110107358Y-42301174D01*
X110131250Y-42300000D01*
X110618750Y-42300000D01*
X110642642Y-42301174D01*
X110642642Y-42301174D01*
G37*
D12*
X110375000Y-43000000D03*
D11*
G36*
X108767642Y-49801174D02*
G01*
X108791303Y-49804684D01*
X108814507Y-49810496D01*
X108837029Y-49818554D01*
X108858653Y-49828782D01*
X108879170Y-49841079D01*
X108898383Y-49855329D01*
X108916107Y-49871393D01*
X108932171Y-49889117D01*
X108946421Y-49908330D01*
X108958718Y-49928847D01*
X108968946Y-49950471D01*
X108977004Y-49972993D01*
X108982816Y-49996197D01*
X108986326Y-50019858D01*
X108987500Y-50043750D01*
X108987500Y-50956250D01*
X108986326Y-50980142D01*
X108982816Y-51003803D01*
X108977004Y-51027007D01*
X108968946Y-51049529D01*
X108958718Y-51071153D01*
X108946421Y-51091670D01*
X108932171Y-51110883D01*
X108916107Y-51128607D01*
X108898383Y-51144671D01*
X108879170Y-51158921D01*
X108858653Y-51171218D01*
X108837029Y-51181446D01*
X108814507Y-51189504D01*
X108791303Y-51195316D01*
X108767642Y-51198826D01*
X108743750Y-51200000D01*
X108256250Y-51200000D01*
X108232358Y-51198826D01*
X108208697Y-51195316D01*
X108185493Y-51189504D01*
X108162971Y-51181446D01*
X108141347Y-51171218D01*
X108120830Y-51158921D01*
X108101617Y-51144671D01*
X108083893Y-51128607D01*
X108067829Y-51110883D01*
X108053579Y-51091670D01*
X108041282Y-51071153D01*
X108031054Y-51049529D01*
X108022996Y-51027007D01*
X108017184Y-51003803D01*
X108013674Y-50980142D01*
X108012500Y-50956250D01*
X108012500Y-50043750D01*
X108013674Y-50019858D01*
X108017184Y-49996197D01*
X108022996Y-49972993D01*
X108031054Y-49950471D01*
X108041282Y-49928847D01*
X108053579Y-49908330D01*
X108067829Y-49889117D01*
X108083893Y-49871393D01*
X108101617Y-49855329D01*
X108120830Y-49841079D01*
X108141347Y-49828782D01*
X108162971Y-49818554D01*
X108185493Y-49810496D01*
X108208697Y-49804684D01*
X108232358Y-49801174D01*
X108256250Y-49800000D01*
X108743750Y-49800000D01*
X108767642Y-49801174D01*
X108767642Y-49801174D01*
G37*
D12*
X108500000Y-50500000D03*
D11*
G36*
X110642642Y-49801174D02*
G01*
X110666303Y-49804684D01*
X110689507Y-49810496D01*
X110712029Y-49818554D01*
X110733653Y-49828782D01*
X110754170Y-49841079D01*
X110773383Y-49855329D01*
X110791107Y-49871393D01*
X110807171Y-49889117D01*
X110821421Y-49908330D01*
X110833718Y-49928847D01*
X110843946Y-49950471D01*
X110852004Y-49972993D01*
X110857816Y-49996197D01*
X110861326Y-50019858D01*
X110862500Y-50043750D01*
X110862500Y-50956250D01*
X110861326Y-50980142D01*
X110857816Y-51003803D01*
X110852004Y-51027007D01*
X110843946Y-51049529D01*
X110833718Y-51071153D01*
X110821421Y-51091670D01*
X110807171Y-51110883D01*
X110791107Y-51128607D01*
X110773383Y-51144671D01*
X110754170Y-51158921D01*
X110733653Y-51171218D01*
X110712029Y-51181446D01*
X110689507Y-51189504D01*
X110666303Y-51195316D01*
X110642642Y-51198826D01*
X110618750Y-51200000D01*
X110131250Y-51200000D01*
X110107358Y-51198826D01*
X110083697Y-51195316D01*
X110060493Y-51189504D01*
X110037971Y-51181446D01*
X110016347Y-51171218D01*
X109995830Y-51158921D01*
X109976617Y-51144671D01*
X109958893Y-51128607D01*
X109942829Y-51110883D01*
X109928579Y-51091670D01*
X109916282Y-51071153D01*
X109906054Y-51049529D01*
X109897996Y-51027007D01*
X109892184Y-51003803D01*
X109888674Y-50980142D01*
X109887500Y-50956250D01*
X109887500Y-50043750D01*
X109888674Y-50019858D01*
X109892184Y-49996197D01*
X109897996Y-49972993D01*
X109906054Y-49950471D01*
X109916282Y-49928847D01*
X109928579Y-49908330D01*
X109942829Y-49889117D01*
X109958893Y-49871393D01*
X109976617Y-49855329D01*
X109995830Y-49841079D01*
X110016347Y-49828782D01*
X110037971Y-49818554D01*
X110060493Y-49810496D01*
X110083697Y-49804684D01*
X110107358Y-49801174D01*
X110131250Y-49800000D01*
X110618750Y-49800000D01*
X110642642Y-49801174D01*
X110642642Y-49801174D01*
G37*
D12*
X110375000Y-50500000D03*
D11*
G36*
X132642642Y-48051174D02*
G01*
X132666303Y-48054684D01*
X132689507Y-48060496D01*
X132712029Y-48068554D01*
X132733653Y-48078782D01*
X132754170Y-48091079D01*
X132773383Y-48105329D01*
X132791107Y-48121393D01*
X132807171Y-48139117D01*
X132821421Y-48158330D01*
X132833718Y-48178847D01*
X132843946Y-48200471D01*
X132852004Y-48222993D01*
X132857816Y-48246197D01*
X132861326Y-48269858D01*
X132862500Y-48293750D01*
X132862500Y-49206250D01*
X132861326Y-49230142D01*
X132857816Y-49253803D01*
X132852004Y-49277007D01*
X132843946Y-49299529D01*
X132833718Y-49321153D01*
X132821421Y-49341670D01*
X132807171Y-49360883D01*
X132791107Y-49378607D01*
X132773383Y-49394671D01*
X132754170Y-49408921D01*
X132733653Y-49421218D01*
X132712029Y-49431446D01*
X132689507Y-49439504D01*
X132666303Y-49445316D01*
X132642642Y-49448826D01*
X132618750Y-49450000D01*
X132131250Y-49450000D01*
X132107358Y-49448826D01*
X132083697Y-49445316D01*
X132060493Y-49439504D01*
X132037971Y-49431446D01*
X132016347Y-49421218D01*
X131995830Y-49408921D01*
X131976617Y-49394671D01*
X131958893Y-49378607D01*
X131942829Y-49360883D01*
X131928579Y-49341670D01*
X131916282Y-49321153D01*
X131906054Y-49299529D01*
X131897996Y-49277007D01*
X131892184Y-49253803D01*
X131888674Y-49230142D01*
X131887500Y-49206250D01*
X131887500Y-48293750D01*
X131888674Y-48269858D01*
X131892184Y-48246197D01*
X131897996Y-48222993D01*
X131906054Y-48200471D01*
X131916282Y-48178847D01*
X131928579Y-48158330D01*
X131942829Y-48139117D01*
X131958893Y-48121393D01*
X131976617Y-48105329D01*
X131995830Y-48091079D01*
X132016347Y-48078782D01*
X132037971Y-48068554D01*
X132060493Y-48060496D01*
X132083697Y-48054684D01*
X132107358Y-48051174D01*
X132131250Y-48050000D01*
X132618750Y-48050000D01*
X132642642Y-48051174D01*
X132642642Y-48051174D01*
G37*
D12*
X132375000Y-48750000D03*
D11*
G36*
X130767642Y-48051174D02*
G01*
X130791303Y-48054684D01*
X130814507Y-48060496D01*
X130837029Y-48068554D01*
X130858653Y-48078782D01*
X130879170Y-48091079D01*
X130898383Y-48105329D01*
X130916107Y-48121393D01*
X130932171Y-48139117D01*
X130946421Y-48158330D01*
X130958718Y-48178847D01*
X130968946Y-48200471D01*
X130977004Y-48222993D01*
X130982816Y-48246197D01*
X130986326Y-48269858D01*
X130987500Y-48293750D01*
X130987500Y-49206250D01*
X130986326Y-49230142D01*
X130982816Y-49253803D01*
X130977004Y-49277007D01*
X130968946Y-49299529D01*
X130958718Y-49321153D01*
X130946421Y-49341670D01*
X130932171Y-49360883D01*
X130916107Y-49378607D01*
X130898383Y-49394671D01*
X130879170Y-49408921D01*
X130858653Y-49421218D01*
X130837029Y-49431446D01*
X130814507Y-49439504D01*
X130791303Y-49445316D01*
X130767642Y-49448826D01*
X130743750Y-49450000D01*
X130256250Y-49450000D01*
X130232358Y-49448826D01*
X130208697Y-49445316D01*
X130185493Y-49439504D01*
X130162971Y-49431446D01*
X130141347Y-49421218D01*
X130120830Y-49408921D01*
X130101617Y-49394671D01*
X130083893Y-49378607D01*
X130067829Y-49360883D01*
X130053579Y-49341670D01*
X130041282Y-49321153D01*
X130031054Y-49299529D01*
X130022996Y-49277007D01*
X130017184Y-49253803D01*
X130013674Y-49230142D01*
X130012500Y-49206250D01*
X130012500Y-48293750D01*
X130013674Y-48269858D01*
X130017184Y-48246197D01*
X130022996Y-48222993D01*
X130031054Y-48200471D01*
X130041282Y-48178847D01*
X130053579Y-48158330D01*
X130067829Y-48139117D01*
X130083893Y-48121393D01*
X130101617Y-48105329D01*
X130120830Y-48091079D01*
X130141347Y-48078782D01*
X130162971Y-48068554D01*
X130185493Y-48060496D01*
X130208697Y-48054684D01*
X130232358Y-48051174D01*
X130256250Y-48050000D01*
X130743750Y-48050000D01*
X130767642Y-48051174D01*
X130767642Y-48051174D01*
G37*
D12*
X130500000Y-48750000D03*
D11*
G36*
X132642642Y-50551174D02*
G01*
X132666303Y-50554684D01*
X132689507Y-50560496D01*
X132712029Y-50568554D01*
X132733653Y-50578782D01*
X132754170Y-50591079D01*
X132773383Y-50605329D01*
X132791107Y-50621393D01*
X132807171Y-50639117D01*
X132821421Y-50658330D01*
X132833718Y-50678847D01*
X132843946Y-50700471D01*
X132852004Y-50722993D01*
X132857816Y-50746197D01*
X132861326Y-50769858D01*
X132862500Y-50793750D01*
X132862500Y-51706250D01*
X132861326Y-51730142D01*
X132857816Y-51753803D01*
X132852004Y-51777007D01*
X132843946Y-51799529D01*
X132833718Y-51821153D01*
X132821421Y-51841670D01*
X132807171Y-51860883D01*
X132791107Y-51878607D01*
X132773383Y-51894671D01*
X132754170Y-51908921D01*
X132733653Y-51921218D01*
X132712029Y-51931446D01*
X132689507Y-51939504D01*
X132666303Y-51945316D01*
X132642642Y-51948826D01*
X132618750Y-51950000D01*
X132131250Y-51950000D01*
X132107358Y-51948826D01*
X132083697Y-51945316D01*
X132060493Y-51939504D01*
X132037971Y-51931446D01*
X132016347Y-51921218D01*
X131995830Y-51908921D01*
X131976617Y-51894671D01*
X131958893Y-51878607D01*
X131942829Y-51860883D01*
X131928579Y-51841670D01*
X131916282Y-51821153D01*
X131906054Y-51799529D01*
X131897996Y-51777007D01*
X131892184Y-51753803D01*
X131888674Y-51730142D01*
X131887500Y-51706250D01*
X131887500Y-50793750D01*
X131888674Y-50769858D01*
X131892184Y-50746197D01*
X131897996Y-50722993D01*
X131906054Y-50700471D01*
X131916282Y-50678847D01*
X131928579Y-50658330D01*
X131942829Y-50639117D01*
X131958893Y-50621393D01*
X131976617Y-50605329D01*
X131995830Y-50591079D01*
X132016347Y-50578782D01*
X132037971Y-50568554D01*
X132060493Y-50560496D01*
X132083697Y-50554684D01*
X132107358Y-50551174D01*
X132131250Y-50550000D01*
X132618750Y-50550000D01*
X132642642Y-50551174D01*
X132642642Y-50551174D01*
G37*
D12*
X132375000Y-51250000D03*
D11*
G36*
X130767642Y-50551174D02*
G01*
X130791303Y-50554684D01*
X130814507Y-50560496D01*
X130837029Y-50568554D01*
X130858653Y-50578782D01*
X130879170Y-50591079D01*
X130898383Y-50605329D01*
X130916107Y-50621393D01*
X130932171Y-50639117D01*
X130946421Y-50658330D01*
X130958718Y-50678847D01*
X130968946Y-50700471D01*
X130977004Y-50722993D01*
X130982816Y-50746197D01*
X130986326Y-50769858D01*
X130987500Y-50793750D01*
X130987500Y-51706250D01*
X130986326Y-51730142D01*
X130982816Y-51753803D01*
X130977004Y-51777007D01*
X130968946Y-51799529D01*
X130958718Y-51821153D01*
X130946421Y-51841670D01*
X130932171Y-51860883D01*
X130916107Y-51878607D01*
X130898383Y-51894671D01*
X130879170Y-51908921D01*
X130858653Y-51921218D01*
X130837029Y-51931446D01*
X130814507Y-51939504D01*
X130791303Y-51945316D01*
X130767642Y-51948826D01*
X130743750Y-51950000D01*
X130256250Y-51950000D01*
X130232358Y-51948826D01*
X130208697Y-51945316D01*
X130185493Y-51939504D01*
X130162971Y-51931446D01*
X130141347Y-51921218D01*
X130120830Y-51908921D01*
X130101617Y-51894671D01*
X130083893Y-51878607D01*
X130067829Y-51860883D01*
X130053579Y-51841670D01*
X130041282Y-51821153D01*
X130031054Y-51799529D01*
X130022996Y-51777007D01*
X130017184Y-51753803D01*
X130013674Y-51730142D01*
X130012500Y-51706250D01*
X130012500Y-50793750D01*
X130013674Y-50769858D01*
X130017184Y-50746197D01*
X130022996Y-50722993D01*
X130031054Y-50700471D01*
X130041282Y-50678847D01*
X130053579Y-50658330D01*
X130067829Y-50639117D01*
X130083893Y-50621393D01*
X130101617Y-50605329D01*
X130120830Y-50591079D01*
X130141347Y-50578782D01*
X130162971Y-50568554D01*
X130185493Y-50560496D01*
X130208697Y-50554684D01*
X130232358Y-50551174D01*
X130256250Y-50550000D01*
X130743750Y-50550000D01*
X130767642Y-50551174D01*
X130767642Y-50551174D01*
G37*
D12*
X130500000Y-51250000D03*
D11*
G36*
X125649504Y-51976204D02*
G01*
X125673773Y-51979804D01*
X125697571Y-51985765D01*
X125720671Y-51994030D01*
X125742849Y-52004520D01*
X125763893Y-52017133D01*
X125783598Y-52031747D01*
X125801777Y-52048223D01*
X125818253Y-52066402D01*
X125832867Y-52086107D01*
X125845480Y-52107151D01*
X125855970Y-52129329D01*
X125864235Y-52152429D01*
X125870196Y-52176227D01*
X125873796Y-52200496D01*
X125875000Y-52225000D01*
X125875000Y-52975000D01*
X125873796Y-52999504D01*
X125870196Y-53023773D01*
X125864235Y-53047571D01*
X125855970Y-53070671D01*
X125845480Y-53092849D01*
X125832867Y-53113893D01*
X125818253Y-53133598D01*
X125801777Y-53151777D01*
X125783598Y-53168253D01*
X125763893Y-53182867D01*
X125742849Y-53195480D01*
X125720671Y-53205970D01*
X125697571Y-53214235D01*
X125673773Y-53220196D01*
X125649504Y-53223796D01*
X125625000Y-53225000D01*
X124375000Y-53225000D01*
X124350496Y-53223796D01*
X124326227Y-53220196D01*
X124302429Y-53214235D01*
X124279329Y-53205970D01*
X124257151Y-53195480D01*
X124236107Y-53182867D01*
X124216402Y-53168253D01*
X124198223Y-53151777D01*
X124181747Y-53133598D01*
X124167133Y-53113893D01*
X124154520Y-53092849D01*
X124144030Y-53070671D01*
X124135765Y-53047571D01*
X124129804Y-53023773D01*
X124126204Y-52999504D01*
X124125000Y-52975000D01*
X124125000Y-52225000D01*
X124126204Y-52200496D01*
X124129804Y-52176227D01*
X124135765Y-52152429D01*
X124144030Y-52129329D01*
X124154520Y-52107151D01*
X124167133Y-52086107D01*
X124181747Y-52066402D01*
X124198223Y-52048223D01*
X124216402Y-52031747D01*
X124236107Y-52017133D01*
X124257151Y-52004520D01*
X124279329Y-51994030D01*
X124302429Y-51985765D01*
X124326227Y-51979804D01*
X124350496Y-51976204D01*
X124375000Y-51975000D01*
X125625000Y-51975000D01*
X125649504Y-51976204D01*
X125649504Y-51976204D01*
G37*
D13*
X125000000Y-52600000D03*
D11*
G36*
X125649504Y-54776204D02*
G01*
X125673773Y-54779804D01*
X125697571Y-54785765D01*
X125720671Y-54794030D01*
X125742849Y-54804520D01*
X125763893Y-54817133D01*
X125783598Y-54831747D01*
X125801777Y-54848223D01*
X125818253Y-54866402D01*
X125832867Y-54886107D01*
X125845480Y-54907151D01*
X125855970Y-54929329D01*
X125864235Y-54952429D01*
X125870196Y-54976227D01*
X125873796Y-55000496D01*
X125875000Y-55025000D01*
X125875000Y-55775000D01*
X125873796Y-55799504D01*
X125870196Y-55823773D01*
X125864235Y-55847571D01*
X125855970Y-55870671D01*
X125845480Y-55892849D01*
X125832867Y-55913893D01*
X125818253Y-55933598D01*
X125801777Y-55951777D01*
X125783598Y-55968253D01*
X125763893Y-55982867D01*
X125742849Y-55995480D01*
X125720671Y-56005970D01*
X125697571Y-56014235D01*
X125673773Y-56020196D01*
X125649504Y-56023796D01*
X125625000Y-56025000D01*
X124375000Y-56025000D01*
X124350496Y-56023796D01*
X124326227Y-56020196D01*
X124302429Y-56014235D01*
X124279329Y-56005970D01*
X124257151Y-55995480D01*
X124236107Y-55982867D01*
X124216402Y-55968253D01*
X124198223Y-55951777D01*
X124181747Y-55933598D01*
X124167133Y-55913893D01*
X124154520Y-55892849D01*
X124144030Y-55870671D01*
X124135765Y-55847571D01*
X124129804Y-55823773D01*
X124126204Y-55799504D01*
X124125000Y-55775000D01*
X124125000Y-55025000D01*
X124126204Y-55000496D01*
X124129804Y-54976227D01*
X124135765Y-54952429D01*
X124144030Y-54929329D01*
X124154520Y-54907151D01*
X124167133Y-54886107D01*
X124181747Y-54866402D01*
X124198223Y-54848223D01*
X124216402Y-54831747D01*
X124236107Y-54817133D01*
X124257151Y-54804520D01*
X124279329Y-54794030D01*
X124302429Y-54785765D01*
X124326227Y-54779804D01*
X124350496Y-54776204D01*
X124375000Y-54775000D01*
X125625000Y-54775000D01*
X125649504Y-54776204D01*
X125649504Y-54776204D01*
G37*
D13*
X125000000Y-55400000D03*
D11*
G36*
X130980142Y-61489087D02*
G01*
X131003803Y-61492597D01*
X131027007Y-61498409D01*
X131049529Y-61506467D01*
X131071153Y-61516695D01*
X131091670Y-61528992D01*
X131110883Y-61543242D01*
X131128607Y-61559306D01*
X131144671Y-61577030D01*
X131158921Y-61596243D01*
X131171218Y-61616760D01*
X131181446Y-61638384D01*
X131189504Y-61660906D01*
X131195316Y-61684110D01*
X131198826Y-61707771D01*
X131200000Y-61731663D01*
X131200000Y-62219163D01*
X131198826Y-62243055D01*
X131195316Y-62266716D01*
X131189504Y-62289920D01*
X131181446Y-62312442D01*
X131171218Y-62334066D01*
X131158921Y-62354583D01*
X131144671Y-62373796D01*
X131128607Y-62391520D01*
X131110883Y-62407584D01*
X131091670Y-62421834D01*
X131071153Y-62434131D01*
X131049529Y-62444359D01*
X131027007Y-62452417D01*
X131003803Y-62458229D01*
X130980142Y-62461739D01*
X130956250Y-62462913D01*
X130043750Y-62462913D01*
X130019858Y-62461739D01*
X129996197Y-62458229D01*
X129972993Y-62452417D01*
X129950471Y-62444359D01*
X129928847Y-62434131D01*
X129908330Y-62421834D01*
X129889117Y-62407584D01*
X129871393Y-62391520D01*
X129855329Y-62373796D01*
X129841079Y-62354583D01*
X129828782Y-62334066D01*
X129818554Y-62312442D01*
X129810496Y-62289920D01*
X129804684Y-62266716D01*
X129801174Y-62243055D01*
X129800000Y-62219163D01*
X129800000Y-61731663D01*
X129801174Y-61707771D01*
X129804684Y-61684110D01*
X129810496Y-61660906D01*
X129818554Y-61638384D01*
X129828782Y-61616760D01*
X129841079Y-61596243D01*
X129855329Y-61577030D01*
X129871393Y-61559306D01*
X129889117Y-61543242D01*
X129908330Y-61528992D01*
X129928847Y-61516695D01*
X129950471Y-61506467D01*
X129972993Y-61498409D01*
X129996197Y-61492597D01*
X130019858Y-61489087D01*
X130043750Y-61487913D01*
X130956250Y-61487913D01*
X130980142Y-61489087D01*
X130980142Y-61489087D01*
G37*
D12*
X130500000Y-61975413D03*
D11*
G36*
X130980142Y-63364087D02*
G01*
X131003803Y-63367597D01*
X131027007Y-63373409D01*
X131049529Y-63381467D01*
X131071153Y-63391695D01*
X131091670Y-63403992D01*
X131110883Y-63418242D01*
X131128607Y-63434306D01*
X131144671Y-63452030D01*
X131158921Y-63471243D01*
X131171218Y-63491760D01*
X131181446Y-63513384D01*
X131189504Y-63535906D01*
X131195316Y-63559110D01*
X131198826Y-63582771D01*
X131200000Y-63606663D01*
X131200000Y-64094163D01*
X131198826Y-64118055D01*
X131195316Y-64141716D01*
X131189504Y-64164920D01*
X131181446Y-64187442D01*
X131171218Y-64209066D01*
X131158921Y-64229583D01*
X131144671Y-64248796D01*
X131128607Y-64266520D01*
X131110883Y-64282584D01*
X131091670Y-64296834D01*
X131071153Y-64309131D01*
X131049529Y-64319359D01*
X131027007Y-64327417D01*
X131003803Y-64333229D01*
X130980142Y-64336739D01*
X130956250Y-64337913D01*
X130043750Y-64337913D01*
X130019858Y-64336739D01*
X129996197Y-64333229D01*
X129972993Y-64327417D01*
X129950471Y-64319359D01*
X129928847Y-64309131D01*
X129908330Y-64296834D01*
X129889117Y-64282584D01*
X129871393Y-64266520D01*
X129855329Y-64248796D01*
X129841079Y-64229583D01*
X129828782Y-64209066D01*
X129818554Y-64187442D01*
X129810496Y-64164920D01*
X129804684Y-64141716D01*
X129801174Y-64118055D01*
X129800000Y-64094163D01*
X129800000Y-63606663D01*
X129801174Y-63582771D01*
X129804684Y-63559110D01*
X129810496Y-63535906D01*
X129818554Y-63513384D01*
X129828782Y-63491760D01*
X129841079Y-63471243D01*
X129855329Y-63452030D01*
X129871393Y-63434306D01*
X129889117Y-63418242D01*
X129908330Y-63403992D01*
X129928847Y-63391695D01*
X129950471Y-63381467D01*
X129972993Y-63373409D01*
X129996197Y-63367597D01*
X130019858Y-63364087D01*
X130043750Y-63362913D01*
X130956250Y-63362913D01*
X130980142Y-63364087D01*
X130980142Y-63364087D01*
G37*
D12*
X130500000Y-63850413D03*
D11*
G36*
X130980142Y-59701174D02*
G01*
X131003803Y-59704684D01*
X131027007Y-59710496D01*
X131049529Y-59718554D01*
X131071153Y-59728782D01*
X131091670Y-59741079D01*
X131110883Y-59755329D01*
X131128607Y-59771393D01*
X131144671Y-59789117D01*
X131158921Y-59808330D01*
X131171218Y-59828847D01*
X131181446Y-59850471D01*
X131189504Y-59872993D01*
X131195316Y-59896197D01*
X131198826Y-59919858D01*
X131200000Y-59943750D01*
X131200000Y-60431250D01*
X131198826Y-60455142D01*
X131195316Y-60478803D01*
X131189504Y-60502007D01*
X131181446Y-60524529D01*
X131171218Y-60546153D01*
X131158921Y-60566670D01*
X131144671Y-60585883D01*
X131128607Y-60603607D01*
X131110883Y-60619671D01*
X131091670Y-60633921D01*
X131071153Y-60646218D01*
X131049529Y-60656446D01*
X131027007Y-60664504D01*
X131003803Y-60670316D01*
X130980142Y-60673826D01*
X130956250Y-60675000D01*
X130043750Y-60675000D01*
X130019858Y-60673826D01*
X129996197Y-60670316D01*
X129972993Y-60664504D01*
X129950471Y-60656446D01*
X129928847Y-60646218D01*
X129908330Y-60633921D01*
X129889117Y-60619671D01*
X129871393Y-60603607D01*
X129855329Y-60585883D01*
X129841079Y-60566670D01*
X129828782Y-60546153D01*
X129818554Y-60524529D01*
X129810496Y-60502007D01*
X129804684Y-60478803D01*
X129801174Y-60455142D01*
X129800000Y-60431250D01*
X129800000Y-59943750D01*
X129801174Y-59919858D01*
X129804684Y-59896197D01*
X129810496Y-59872993D01*
X129818554Y-59850471D01*
X129828782Y-59828847D01*
X129841079Y-59808330D01*
X129855329Y-59789117D01*
X129871393Y-59771393D01*
X129889117Y-59755329D01*
X129908330Y-59741079D01*
X129928847Y-59728782D01*
X129950471Y-59718554D01*
X129972993Y-59710496D01*
X129996197Y-59704684D01*
X130019858Y-59701174D01*
X130043750Y-59700000D01*
X130956250Y-59700000D01*
X130980142Y-59701174D01*
X130980142Y-59701174D01*
G37*
D12*
X130500000Y-60187500D03*
D11*
G36*
X130980142Y-57826174D02*
G01*
X131003803Y-57829684D01*
X131027007Y-57835496D01*
X131049529Y-57843554D01*
X131071153Y-57853782D01*
X131091670Y-57866079D01*
X131110883Y-57880329D01*
X131128607Y-57896393D01*
X131144671Y-57914117D01*
X131158921Y-57933330D01*
X131171218Y-57953847D01*
X131181446Y-57975471D01*
X131189504Y-57997993D01*
X131195316Y-58021197D01*
X131198826Y-58044858D01*
X131200000Y-58068750D01*
X131200000Y-58556250D01*
X131198826Y-58580142D01*
X131195316Y-58603803D01*
X131189504Y-58627007D01*
X131181446Y-58649529D01*
X131171218Y-58671153D01*
X131158921Y-58691670D01*
X131144671Y-58710883D01*
X131128607Y-58728607D01*
X131110883Y-58744671D01*
X131091670Y-58758921D01*
X131071153Y-58771218D01*
X131049529Y-58781446D01*
X131027007Y-58789504D01*
X131003803Y-58795316D01*
X130980142Y-58798826D01*
X130956250Y-58800000D01*
X130043750Y-58800000D01*
X130019858Y-58798826D01*
X129996197Y-58795316D01*
X129972993Y-58789504D01*
X129950471Y-58781446D01*
X129928847Y-58771218D01*
X129908330Y-58758921D01*
X129889117Y-58744671D01*
X129871393Y-58728607D01*
X129855329Y-58710883D01*
X129841079Y-58691670D01*
X129828782Y-58671153D01*
X129818554Y-58649529D01*
X129810496Y-58627007D01*
X129804684Y-58603803D01*
X129801174Y-58580142D01*
X129800000Y-58556250D01*
X129800000Y-58068750D01*
X129801174Y-58044858D01*
X129804684Y-58021197D01*
X129810496Y-57997993D01*
X129818554Y-57975471D01*
X129828782Y-57953847D01*
X129841079Y-57933330D01*
X129855329Y-57914117D01*
X129871393Y-57896393D01*
X129889117Y-57880329D01*
X129908330Y-57866079D01*
X129928847Y-57853782D01*
X129950471Y-57843554D01*
X129972993Y-57835496D01*
X129996197Y-57829684D01*
X130019858Y-57826174D01*
X130043750Y-57825000D01*
X130956250Y-57825000D01*
X130980142Y-57826174D01*
X130980142Y-57826174D01*
G37*
D12*
X130500000Y-58312500D03*
M02*
