G04 #@! TF.GenerationSoftware,KiCad,Pcbnew,(5.1.0-0)*
G04 #@! TF.CreationDate,2019-10-12T10:13:56-07:00*
G04 #@! TF.ProjectId,BB-Mainboard-0,42422d4d-6169-46e6-926f-6172642d302e,rev?*
G04 #@! TF.SameCoordinates,Original*
G04 #@! TF.FileFunction,Soldermask,Bot*
G04 #@! TF.FilePolarity,Negative*
%FSLAX46Y46*%
G04 Gerber Fmt 4.6, Leading zero omitted, Abs format (unit mm)*
G04 Created by KiCad (PCBNEW (5.1.0-0)) date 2019-10-12 10:13:56*
%MOMM*%
%LPD*%
G04 APERTURE LIST*
%ADD10C,0.100000*%
G04 APERTURE END LIST*
D10*
G36*
X133335675Y-76893424D02*
G01*
X133422425Y-76929357D01*
X133545108Y-76980174D01*
X133733592Y-77106115D01*
X133893885Y-77266408D01*
X134019826Y-77454892D01*
X134070643Y-77577575D01*
X134106576Y-77664325D01*
X134150800Y-77886655D01*
X134150800Y-78113345D01*
X134106576Y-78335675D01*
X134078687Y-78403005D01*
X134019826Y-78545108D01*
X133893885Y-78733592D01*
X133733592Y-78893885D01*
X133545108Y-79019826D01*
X133422425Y-79070643D01*
X133335675Y-79106576D01*
X133113345Y-79150800D01*
X132886655Y-79150800D01*
X132664325Y-79106576D01*
X132577575Y-79070643D01*
X132454892Y-79019826D01*
X132266408Y-78893885D01*
X132106115Y-78733592D01*
X131980174Y-78545108D01*
X131921313Y-78403005D01*
X131893424Y-78335675D01*
X131849200Y-78113345D01*
X131849200Y-77886655D01*
X131893424Y-77664325D01*
X131929357Y-77577575D01*
X131980174Y-77454892D01*
X132106115Y-77266408D01*
X132266408Y-77106115D01*
X132454892Y-76980174D01*
X132577575Y-76929357D01*
X132664325Y-76893424D01*
X132886655Y-76849200D01*
X133113345Y-76849200D01*
X133335675Y-76893424D01*
X133335675Y-76893424D01*
G37*
G36*
X127868169Y-77181895D02*
G01*
X128023005Y-77246031D01*
X128162354Y-77339140D01*
X128280860Y-77457646D01*
X128373969Y-77596995D01*
X128438105Y-77751831D01*
X128470800Y-77916203D01*
X128470800Y-78083797D01*
X128438105Y-78248169D01*
X128373969Y-78403005D01*
X128280860Y-78542354D01*
X128162354Y-78660860D01*
X128023005Y-78753969D01*
X127868169Y-78818105D01*
X127703797Y-78850800D01*
X127536203Y-78850800D01*
X127371831Y-78818105D01*
X127216995Y-78753969D01*
X127077646Y-78660860D01*
X126959140Y-78542354D01*
X126866031Y-78403005D01*
X126801895Y-78248169D01*
X126769200Y-78083797D01*
X126769200Y-77916203D01*
X126801895Y-77751831D01*
X126866031Y-77596995D01*
X126959140Y-77457646D01*
X127077646Y-77339140D01*
X127216995Y-77246031D01*
X127371831Y-77181895D01*
X127536203Y-77149200D01*
X127703797Y-77149200D01*
X127868169Y-77181895D01*
X127868169Y-77181895D01*
G37*
G36*
X125328169Y-77181895D02*
G01*
X125483005Y-77246031D01*
X125622354Y-77339140D01*
X125740860Y-77457646D01*
X125833969Y-77596995D01*
X125898105Y-77751831D01*
X125930800Y-77916203D01*
X125930800Y-78083797D01*
X125898105Y-78248169D01*
X125833969Y-78403005D01*
X125740860Y-78542354D01*
X125622354Y-78660860D01*
X125483005Y-78753969D01*
X125328169Y-78818105D01*
X125163797Y-78850800D01*
X124996203Y-78850800D01*
X124831831Y-78818105D01*
X124676995Y-78753969D01*
X124537646Y-78660860D01*
X124419140Y-78542354D01*
X124326031Y-78403005D01*
X124261895Y-78248169D01*
X124229200Y-78083797D01*
X124229200Y-77916203D01*
X124261895Y-77751831D01*
X124326031Y-77596995D01*
X124419140Y-77457646D01*
X124537646Y-77339140D01*
X124676995Y-77246031D01*
X124831831Y-77181895D01*
X124996203Y-77149200D01*
X125163797Y-77149200D01*
X125328169Y-77181895D01*
X125328169Y-77181895D01*
G37*
G36*
X122788169Y-77181895D02*
G01*
X122943005Y-77246031D01*
X123082354Y-77339140D01*
X123200860Y-77457646D01*
X123293969Y-77596995D01*
X123358105Y-77751831D01*
X123390800Y-77916203D01*
X123390800Y-78083797D01*
X123358105Y-78248169D01*
X123293969Y-78403005D01*
X123200860Y-78542354D01*
X123082354Y-78660860D01*
X122943005Y-78753969D01*
X122788169Y-78818105D01*
X122623797Y-78850800D01*
X122456203Y-78850800D01*
X122291831Y-78818105D01*
X122136995Y-78753969D01*
X121997646Y-78660860D01*
X121879140Y-78542354D01*
X121786031Y-78403005D01*
X121721895Y-78248169D01*
X121689200Y-78083797D01*
X121689200Y-77916203D01*
X121721895Y-77751831D01*
X121786031Y-77596995D01*
X121879140Y-77457646D01*
X121997646Y-77339140D01*
X122136995Y-77246031D01*
X122291831Y-77181895D01*
X122456203Y-77149200D01*
X122623797Y-77149200D01*
X122788169Y-77181895D01*
X122788169Y-77181895D01*
G37*
G36*
X120248169Y-77181895D02*
G01*
X120403005Y-77246031D01*
X120542354Y-77339140D01*
X120660860Y-77457646D01*
X120753969Y-77596995D01*
X120818105Y-77751831D01*
X120850800Y-77916203D01*
X120850800Y-78083797D01*
X120818105Y-78248169D01*
X120753969Y-78403005D01*
X120660860Y-78542354D01*
X120542354Y-78660860D01*
X120403005Y-78753969D01*
X120248169Y-78818105D01*
X120083797Y-78850800D01*
X119916203Y-78850800D01*
X119751831Y-78818105D01*
X119596995Y-78753969D01*
X119457646Y-78660860D01*
X119339140Y-78542354D01*
X119246031Y-78403005D01*
X119181895Y-78248169D01*
X119149200Y-78083797D01*
X119149200Y-77916203D01*
X119181895Y-77751831D01*
X119246031Y-77596995D01*
X119339140Y-77457646D01*
X119457646Y-77339140D01*
X119596995Y-77246031D01*
X119751831Y-77181895D01*
X119916203Y-77149200D01*
X120083797Y-77149200D01*
X120248169Y-77181895D01*
X120248169Y-77181895D01*
G37*
G36*
X117708169Y-77181895D02*
G01*
X117863005Y-77246031D01*
X118002354Y-77339140D01*
X118120860Y-77457646D01*
X118213969Y-77596995D01*
X118278105Y-77751831D01*
X118310800Y-77916203D01*
X118310800Y-78083797D01*
X118278105Y-78248169D01*
X118213969Y-78403005D01*
X118120860Y-78542354D01*
X118002354Y-78660860D01*
X117863005Y-78753969D01*
X117708169Y-78818105D01*
X117543797Y-78850800D01*
X117376203Y-78850800D01*
X117211831Y-78818105D01*
X117056995Y-78753969D01*
X116917646Y-78660860D01*
X116799140Y-78542354D01*
X116706031Y-78403005D01*
X116641895Y-78248169D01*
X116609200Y-78083797D01*
X116609200Y-77916203D01*
X116641895Y-77751831D01*
X116706031Y-77596995D01*
X116799140Y-77457646D01*
X116917646Y-77339140D01*
X117056995Y-77246031D01*
X117211831Y-77181895D01*
X117376203Y-77149200D01*
X117543797Y-77149200D01*
X117708169Y-77181895D01*
X117708169Y-77181895D01*
G37*
G36*
X115168169Y-77181895D02*
G01*
X115323005Y-77246031D01*
X115462354Y-77339140D01*
X115580860Y-77457646D01*
X115673969Y-77596995D01*
X115738105Y-77751831D01*
X115770800Y-77916203D01*
X115770800Y-78083797D01*
X115738105Y-78248169D01*
X115673969Y-78403005D01*
X115580860Y-78542354D01*
X115462354Y-78660860D01*
X115323005Y-78753969D01*
X115168169Y-78818105D01*
X115003797Y-78850800D01*
X114836203Y-78850800D01*
X114671831Y-78818105D01*
X114516995Y-78753969D01*
X114377646Y-78660860D01*
X114259140Y-78542354D01*
X114166031Y-78403005D01*
X114101895Y-78248169D01*
X114069200Y-78083797D01*
X114069200Y-77916203D01*
X114101895Y-77751831D01*
X114166031Y-77596995D01*
X114259140Y-77457646D01*
X114377646Y-77339140D01*
X114516995Y-77246031D01*
X114671831Y-77181895D01*
X114836203Y-77149200D01*
X115003797Y-77149200D01*
X115168169Y-77181895D01*
X115168169Y-77181895D01*
G37*
G36*
X112628169Y-77181895D02*
G01*
X112783005Y-77246031D01*
X112922354Y-77339140D01*
X113040860Y-77457646D01*
X113133969Y-77596995D01*
X113198105Y-77751831D01*
X113230800Y-77916203D01*
X113230800Y-78083797D01*
X113198105Y-78248169D01*
X113133969Y-78403005D01*
X113040860Y-78542354D01*
X112922354Y-78660860D01*
X112783005Y-78753969D01*
X112628169Y-78818105D01*
X112463797Y-78850800D01*
X112296203Y-78850800D01*
X112131831Y-78818105D01*
X111976995Y-78753969D01*
X111837646Y-78660860D01*
X111719140Y-78542354D01*
X111626031Y-78403005D01*
X111561895Y-78248169D01*
X111529200Y-78083797D01*
X111529200Y-77916203D01*
X111561895Y-77751831D01*
X111626031Y-77596995D01*
X111719140Y-77457646D01*
X111837646Y-77339140D01*
X111976995Y-77246031D01*
X112131831Y-77181895D01*
X112296203Y-77149200D01*
X112463797Y-77149200D01*
X112628169Y-77181895D01*
X112628169Y-77181895D01*
G37*
G36*
X110335675Y-73893424D02*
G01*
X110422425Y-73929357D01*
X110545108Y-73980174D01*
X110733592Y-74106115D01*
X110893885Y-74266408D01*
X111019826Y-74454892D01*
X111070643Y-74577575D01*
X111106576Y-74664325D01*
X111150800Y-74886655D01*
X111150800Y-75113345D01*
X111106576Y-75335675D01*
X111070643Y-75422425D01*
X111019826Y-75545108D01*
X110893885Y-75733592D01*
X110733592Y-75893885D01*
X110545108Y-76019826D01*
X110422425Y-76070643D01*
X110335675Y-76106576D01*
X110113345Y-76150800D01*
X109886655Y-76150800D01*
X109664325Y-76106576D01*
X109577575Y-76070643D01*
X109454892Y-76019826D01*
X109266408Y-75893885D01*
X109106115Y-75733592D01*
X108980174Y-75545108D01*
X108929357Y-75422425D01*
X108893424Y-75335675D01*
X108849200Y-75113345D01*
X108849200Y-74886655D01*
X108893424Y-74664325D01*
X108929357Y-74577575D01*
X108980174Y-74454892D01*
X109106115Y-74266408D01*
X109266408Y-74106115D01*
X109454892Y-73980174D01*
X109577575Y-73929357D01*
X109664325Y-73893424D01*
X109886655Y-73849200D01*
X110113345Y-73849200D01*
X110335675Y-73893424D01*
X110335675Y-73893424D01*
G37*
G36*
X133588362Y-69643545D02*
G01*
X133676588Y-69652234D01*
X133846389Y-69703743D01*
X133846392Y-69703744D01*
X134002878Y-69787388D01*
X134140044Y-69899956D01*
X134252612Y-70037122D01*
X134336256Y-70193608D01*
X134336257Y-70193611D01*
X134387766Y-70363412D01*
X134405158Y-70540000D01*
X134387766Y-70716588D01*
X134336257Y-70886389D01*
X134336256Y-70886392D01*
X134252612Y-71042878D01*
X134140044Y-71180044D01*
X134002878Y-71292612D01*
X133846392Y-71376256D01*
X133846389Y-71376257D01*
X133676588Y-71427766D01*
X133588362Y-71436455D01*
X133544250Y-71440800D01*
X133455750Y-71440800D01*
X133411638Y-71436455D01*
X133323412Y-71427766D01*
X133153611Y-71376257D01*
X133153608Y-71376256D01*
X132997122Y-71292612D01*
X132859956Y-71180044D01*
X132747388Y-71042878D01*
X132663744Y-70886392D01*
X132663743Y-70886389D01*
X132612234Y-70716588D01*
X132594842Y-70540000D01*
X132612234Y-70363412D01*
X132663743Y-70193611D01*
X132663744Y-70193608D01*
X132747388Y-70037122D01*
X132859956Y-69899956D01*
X132997122Y-69787388D01*
X133153608Y-69703744D01*
X133153611Y-69703743D01*
X133323412Y-69652234D01*
X133411638Y-69643545D01*
X133455750Y-69639200D01*
X133544250Y-69639200D01*
X133588362Y-69643545D01*
X133588362Y-69643545D01*
G37*
G36*
X109588362Y-69643545D02*
G01*
X109676588Y-69652234D01*
X109846389Y-69703743D01*
X109846392Y-69703744D01*
X110002878Y-69787388D01*
X110140044Y-69899956D01*
X110252612Y-70037122D01*
X110336256Y-70193608D01*
X110336257Y-70193611D01*
X110387766Y-70363412D01*
X110405158Y-70540000D01*
X110387766Y-70716588D01*
X110336257Y-70886389D01*
X110336256Y-70886392D01*
X110252612Y-71042878D01*
X110140044Y-71180044D01*
X110002878Y-71292612D01*
X109846392Y-71376256D01*
X109846389Y-71376257D01*
X109676588Y-71427766D01*
X109588362Y-71436455D01*
X109544250Y-71440800D01*
X109455750Y-71440800D01*
X109411638Y-71436455D01*
X109323412Y-71427766D01*
X109153611Y-71376257D01*
X109153608Y-71376256D01*
X108997122Y-71292612D01*
X108859956Y-71180044D01*
X108747388Y-71042878D01*
X108663744Y-70886392D01*
X108663743Y-70886389D01*
X108612234Y-70716588D01*
X108594842Y-70540000D01*
X108612234Y-70363412D01*
X108663743Y-70193611D01*
X108663744Y-70193608D01*
X108747388Y-70037122D01*
X108859956Y-69899956D01*
X108997122Y-69787388D01*
X109153608Y-69703744D01*
X109153611Y-69703743D01*
X109323412Y-69652234D01*
X109411638Y-69643545D01*
X109455750Y-69639200D01*
X109544250Y-69639200D01*
X109588362Y-69643545D01*
X109588362Y-69643545D01*
G37*
G36*
X127868169Y-69661895D02*
G01*
X128023005Y-69726031D01*
X128162354Y-69819140D01*
X128280860Y-69937646D01*
X128373969Y-70076995D01*
X128438105Y-70231831D01*
X128470800Y-70396203D01*
X128470800Y-70563797D01*
X128438105Y-70728169D01*
X128373969Y-70883005D01*
X128280860Y-71022354D01*
X128162354Y-71140860D01*
X128023005Y-71233969D01*
X127868169Y-71298105D01*
X127703797Y-71330800D01*
X127536203Y-71330800D01*
X127371831Y-71298105D01*
X127216995Y-71233969D01*
X127077646Y-71140860D01*
X126959140Y-71022354D01*
X126866031Y-70883005D01*
X126801895Y-70728169D01*
X126769200Y-70563797D01*
X126769200Y-70396203D01*
X126801895Y-70231831D01*
X126866031Y-70076995D01*
X126959140Y-69937646D01*
X127077646Y-69819140D01*
X127216995Y-69726031D01*
X127371831Y-69661895D01*
X127536203Y-69629200D01*
X127703797Y-69629200D01*
X127868169Y-69661895D01*
X127868169Y-69661895D01*
G37*
G36*
X115168169Y-69661895D02*
G01*
X115323005Y-69726031D01*
X115462354Y-69819140D01*
X115580860Y-69937646D01*
X115673969Y-70076995D01*
X115738105Y-70231831D01*
X115770800Y-70396203D01*
X115770800Y-70563797D01*
X115738105Y-70728169D01*
X115673969Y-70883005D01*
X115580860Y-71022354D01*
X115462354Y-71140860D01*
X115323005Y-71233969D01*
X115168169Y-71298105D01*
X115003797Y-71330800D01*
X114836203Y-71330800D01*
X114671831Y-71298105D01*
X114516995Y-71233969D01*
X114377646Y-71140860D01*
X114259140Y-71022354D01*
X114166031Y-70883005D01*
X114101895Y-70728169D01*
X114069200Y-70563797D01*
X114069200Y-70396203D01*
X114101895Y-70231831D01*
X114166031Y-70076995D01*
X114259140Y-69937646D01*
X114377646Y-69819140D01*
X114516995Y-69726031D01*
X114671831Y-69661895D01*
X114836203Y-69629200D01*
X115003797Y-69629200D01*
X115168169Y-69661895D01*
X115168169Y-69661895D01*
G37*
G36*
X125328169Y-69661895D02*
G01*
X125483005Y-69726031D01*
X125622354Y-69819140D01*
X125740860Y-69937646D01*
X125833969Y-70076995D01*
X125898105Y-70231831D01*
X125930800Y-70396203D01*
X125930800Y-70563797D01*
X125898105Y-70728169D01*
X125833969Y-70883005D01*
X125740860Y-71022354D01*
X125622354Y-71140860D01*
X125483005Y-71233969D01*
X125328169Y-71298105D01*
X125163797Y-71330800D01*
X124996203Y-71330800D01*
X124831831Y-71298105D01*
X124676995Y-71233969D01*
X124537646Y-71140860D01*
X124419140Y-71022354D01*
X124326031Y-70883005D01*
X124261895Y-70728169D01*
X124229200Y-70563797D01*
X124229200Y-70396203D01*
X124261895Y-70231831D01*
X124326031Y-70076995D01*
X124419140Y-69937646D01*
X124537646Y-69819140D01*
X124676995Y-69726031D01*
X124831831Y-69661895D01*
X124996203Y-69629200D01*
X125163797Y-69629200D01*
X125328169Y-69661895D01*
X125328169Y-69661895D01*
G37*
G36*
X122788169Y-69661895D02*
G01*
X122943005Y-69726031D01*
X123082354Y-69819140D01*
X123200860Y-69937646D01*
X123293969Y-70076995D01*
X123358105Y-70231831D01*
X123390800Y-70396203D01*
X123390800Y-70563797D01*
X123358105Y-70728169D01*
X123293969Y-70883005D01*
X123200860Y-71022354D01*
X123082354Y-71140860D01*
X122943005Y-71233969D01*
X122788169Y-71298105D01*
X122623797Y-71330800D01*
X122456203Y-71330800D01*
X122291831Y-71298105D01*
X122136995Y-71233969D01*
X121997646Y-71140860D01*
X121879140Y-71022354D01*
X121786031Y-70883005D01*
X121721895Y-70728169D01*
X121689200Y-70563797D01*
X121689200Y-70396203D01*
X121721895Y-70231831D01*
X121786031Y-70076995D01*
X121879140Y-69937646D01*
X121997646Y-69819140D01*
X122136995Y-69726031D01*
X122291831Y-69661895D01*
X122456203Y-69629200D01*
X122623797Y-69629200D01*
X122788169Y-69661895D01*
X122788169Y-69661895D01*
G37*
G36*
X120248169Y-69661895D02*
G01*
X120403005Y-69726031D01*
X120542354Y-69819140D01*
X120660860Y-69937646D01*
X120753969Y-70076995D01*
X120818105Y-70231831D01*
X120850800Y-70396203D01*
X120850800Y-70563797D01*
X120818105Y-70728169D01*
X120753969Y-70883005D01*
X120660860Y-71022354D01*
X120542354Y-71140860D01*
X120403005Y-71233969D01*
X120248169Y-71298105D01*
X120083797Y-71330800D01*
X119916203Y-71330800D01*
X119751831Y-71298105D01*
X119596995Y-71233969D01*
X119457646Y-71140860D01*
X119339140Y-71022354D01*
X119246031Y-70883005D01*
X119181895Y-70728169D01*
X119149200Y-70563797D01*
X119149200Y-70396203D01*
X119181895Y-70231831D01*
X119246031Y-70076995D01*
X119339140Y-69937646D01*
X119457646Y-69819140D01*
X119596995Y-69726031D01*
X119751831Y-69661895D01*
X119916203Y-69629200D01*
X120083797Y-69629200D01*
X120248169Y-69661895D01*
X120248169Y-69661895D01*
G37*
G36*
X117708169Y-69661895D02*
G01*
X117863005Y-69726031D01*
X118002354Y-69819140D01*
X118120860Y-69937646D01*
X118213969Y-70076995D01*
X118278105Y-70231831D01*
X118310800Y-70396203D01*
X118310800Y-70563797D01*
X118278105Y-70728169D01*
X118213969Y-70883005D01*
X118120860Y-71022354D01*
X118002354Y-71140860D01*
X117863005Y-71233969D01*
X117708169Y-71298105D01*
X117543797Y-71330800D01*
X117376203Y-71330800D01*
X117211831Y-71298105D01*
X117056995Y-71233969D01*
X116917646Y-71140860D01*
X116799140Y-71022354D01*
X116706031Y-70883005D01*
X116641895Y-70728169D01*
X116609200Y-70563797D01*
X116609200Y-70396203D01*
X116641895Y-70231831D01*
X116706031Y-70076995D01*
X116799140Y-69937646D01*
X116917646Y-69819140D01*
X117056995Y-69726031D01*
X117211831Y-69661895D01*
X117376203Y-69629200D01*
X117543797Y-69629200D01*
X117708169Y-69661895D01*
X117708169Y-69661895D01*
G37*
G36*
X112628169Y-69661895D02*
G01*
X112783005Y-69726031D01*
X112922354Y-69819140D01*
X113040860Y-69937646D01*
X113133969Y-70076995D01*
X113198105Y-70231831D01*
X113230800Y-70396203D01*
X113230800Y-70563797D01*
X113198105Y-70728169D01*
X113133969Y-70883005D01*
X113040860Y-71022354D01*
X112922354Y-71140860D01*
X112783005Y-71233969D01*
X112628169Y-71298105D01*
X112463797Y-71330800D01*
X112296203Y-71330800D01*
X112131831Y-71298105D01*
X111976995Y-71233969D01*
X111837646Y-71140860D01*
X111719140Y-71022354D01*
X111626031Y-70883005D01*
X111561895Y-70728169D01*
X111529200Y-70563797D01*
X111529200Y-70396203D01*
X111561895Y-70231831D01*
X111626031Y-70076995D01*
X111719140Y-69937646D01*
X111837646Y-69819140D01*
X111976995Y-69726031D01*
X112131831Y-69661895D01*
X112296203Y-69629200D01*
X112463797Y-69629200D01*
X112628169Y-69661895D01*
X112628169Y-69661895D01*
G37*
G36*
X110400800Y-68900800D02*
G01*
X108599200Y-68900800D01*
X108599200Y-67099200D01*
X110400800Y-67099200D01*
X110400800Y-68900800D01*
X110400800Y-68900800D01*
G37*
G36*
X134400800Y-68900800D02*
G01*
X132599200Y-68900800D01*
X132599200Y-67099200D01*
X134400800Y-67099200D01*
X134400800Y-68900800D01*
X134400800Y-68900800D01*
G37*
G36*
X120248169Y-66691895D02*
G01*
X120403005Y-66756031D01*
X120542354Y-66849140D01*
X120660860Y-66967646D01*
X120753969Y-67106995D01*
X120818105Y-67261831D01*
X120850800Y-67426203D01*
X120850800Y-67593797D01*
X120818105Y-67758169D01*
X120753969Y-67913005D01*
X120660860Y-68052354D01*
X120542354Y-68170860D01*
X120403005Y-68263969D01*
X120248169Y-68328105D01*
X120083797Y-68360800D01*
X119916203Y-68360800D01*
X119751831Y-68328105D01*
X119596995Y-68263969D01*
X119457646Y-68170860D01*
X119339140Y-68052354D01*
X119246031Y-67913005D01*
X119181895Y-67758169D01*
X119149200Y-67593797D01*
X119149200Y-67426203D01*
X119181895Y-67261831D01*
X119246031Y-67106995D01*
X119339140Y-66967646D01*
X119457646Y-66849140D01*
X119596995Y-66756031D01*
X119751831Y-66691895D01*
X119916203Y-66659200D01*
X120083797Y-66659200D01*
X120248169Y-66691895D01*
X120248169Y-66691895D01*
G37*
G36*
X122788169Y-66691895D02*
G01*
X122943005Y-66756031D01*
X123082354Y-66849140D01*
X123200860Y-66967646D01*
X123293969Y-67106995D01*
X123358105Y-67261831D01*
X123390800Y-67426203D01*
X123390800Y-67593797D01*
X123358105Y-67758169D01*
X123293969Y-67913005D01*
X123200860Y-68052354D01*
X123082354Y-68170860D01*
X122943005Y-68263969D01*
X122788169Y-68328105D01*
X122623797Y-68360800D01*
X122456203Y-68360800D01*
X122291831Y-68328105D01*
X122136995Y-68263969D01*
X121997646Y-68170860D01*
X121879140Y-68052354D01*
X121786031Y-67913005D01*
X121721895Y-67758169D01*
X121689200Y-67593797D01*
X121689200Y-67426203D01*
X121721895Y-67261831D01*
X121786031Y-67106995D01*
X121879140Y-66967646D01*
X121997646Y-66849140D01*
X122136995Y-66756031D01*
X122291831Y-66691895D01*
X122456203Y-66659200D01*
X122623797Y-66659200D01*
X122788169Y-66691895D01*
X122788169Y-66691895D01*
G37*
G36*
X125328169Y-66691895D02*
G01*
X125483005Y-66756031D01*
X125622354Y-66849140D01*
X125740860Y-66967646D01*
X125833969Y-67106995D01*
X125898105Y-67261831D01*
X125930800Y-67426203D01*
X125930800Y-67593797D01*
X125898105Y-67758169D01*
X125833969Y-67913005D01*
X125740860Y-68052354D01*
X125622354Y-68170860D01*
X125483005Y-68263969D01*
X125328169Y-68328105D01*
X125163797Y-68360800D01*
X124996203Y-68360800D01*
X124831831Y-68328105D01*
X124676995Y-68263969D01*
X124537646Y-68170860D01*
X124419140Y-68052354D01*
X124326031Y-67913005D01*
X124261895Y-67758169D01*
X124229200Y-67593797D01*
X124229200Y-67426203D01*
X124261895Y-67261831D01*
X124326031Y-67106995D01*
X124419140Y-66967646D01*
X124537646Y-66849140D01*
X124676995Y-66756031D01*
X124831831Y-66691895D01*
X124996203Y-66659200D01*
X125163797Y-66659200D01*
X125328169Y-66691895D01*
X125328169Y-66691895D01*
G37*
G36*
X117708169Y-66691895D02*
G01*
X117863005Y-66756031D01*
X118002354Y-66849140D01*
X118120860Y-66967646D01*
X118213969Y-67106995D01*
X118278105Y-67261831D01*
X118310800Y-67426203D01*
X118310800Y-67593797D01*
X118278105Y-67758169D01*
X118213969Y-67913005D01*
X118120860Y-68052354D01*
X118002354Y-68170860D01*
X117863005Y-68263969D01*
X117708169Y-68328105D01*
X117543797Y-68360800D01*
X117376203Y-68360800D01*
X117211831Y-68328105D01*
X117056995Y-68263969D01*
X116917646Y-68170860D01*
X116799140Y-68052354D01*
X116706031Y-67913005D01*
X116641895Y-67758169D01*
X116609200Y-67593797D01*
X116609200Y-67426203D01*
X116641895Y-67261831D01*
X116706031Y-67106995D01*
X116799140Y-66967646D01*
X116917646Y-66849140D01*
X117056995Y-66756031D01*
X117211831Y-66691895D01*
X117376203Y-66659200D01*
X117543797Y-66659200D01*
X117708169Y-66691895D01*
X117708169Y-66691895D01*
G37*
G36*
X115168169Y-66691895D02*
G01*
X115323005Y-66756031D01*
X115462354Y-66849140D01*
X115580860Y-66967646D01*
X115673969Y-67106995D01*
X115738105Y-67261831D01*
X115770800Y-67426203D01*
X115770800Y-67593797D01*
X115738105Y-67758169D01*
X115673969Y-67913005D01*
X115580860Y-68052354D01*
X115462354Y-68170860D01*
X115323005Y-68263969D01*
X115168169Y-68328105D01*
X115003797Y-68360800D01*
X114836203Y-68360800D01*
X114671831Y-68328105D01*
X114516995Y-68263969D01*
X114377646Y-68170860D01*
X114259140Y-68052354D01*
X114166031Y-67913005D01*
X114101895Y-67758169D01*
X114069200Y-67593797D01*
X114069200Y-67426203D01*
X114101895Y-67261831D01*
X114166031Y-67106995D01*
X114259140Y-66967646D01*
X114377646Y-66849140D01*
X114516995Y-66756031D01*
X114671831Y-66691895D01*
X114836203Y-66659200D01*
X115003797Y-66659200D01*
X115168169Y-66691895D01*
X115168169Y-66691895D01*
G37*
G36*
X112628169Y-66691895D02*
G01*
X112783005Y-66756031D01*
X112922354Y-66849140D01*
X113040860Y-66967646D01*
X113133969Y-67106995D01*
X113198105Y-67261831D01*
X113230800Y-67426203D01*
X113230800Y-67593797D01*
X113198105Y-67758169D01*
X113133969Y-67913005D01*
X113040860Y-68052354D01*
X112922354Y-68170860D01*
X112783005Y-68263969D01*
X112628169Y-68328105D01*
X112463797Y-68360800D01*
X112296203Y-68360800D01*
X112131831Y-68328105D01*
X111976995Y-68263969D01*
X111837646Y-68170860D01*
X111719140Y-68052354D01*
X111626031Y-67913005D01*
X111561895Y-67758169D01*
X111529200Y-67593797D01*
X111529200Y-67426203D01*
X111561895Y-67261831D01*
X111626031Y-67106995D01*
X111719140Y-66967646D01*
X111837646Y-66849140D01*
X111976995Y-66756031D01*
X112131831Y-66691895D01*
X112296203Y-66659200D01*
X112463797Y-66659200D01*
X112628169Y-66691895D01*
X112628169Y-66691895D01*
G37*
G36*
X127868169Y-66691895D02*
G01*
X128023005Y-66756031D01*
X128162354Y-66849140D01*
X128280860Y-66967646D01*
X128373969Y-67106995D01*
X128438105Y-67261831D01*
X128470800Y-67426203D01*
X128470800Y-67593797D01*
X128438105Y-67758169D01*
X128373969Y-67913005D01*
X128280860Y-68052354D01*
X128162354Y-68170860D01*
X128023005Y-68263969D01*
X127868169Y-68328105D01*
X127703797Y-68360800D01*
X127536203Y-68360800D01*
X127371831Y-68328105D01*
X127216995Y-68263969D01*
X127077646Y-68170860D01*
X126959140Y-68052354D01*
X126866031Y-67913005D01*
X126801895Y-67758169D01*
X126769200Y-67593797D01*
X126769200Y-67426203D01*
X126801895Y-67261831D01*
X126866031Y-67106995D01*
X126959140Y-66967646D01*
X127077646Y-66849140D01*
X127216995Y-66756031D01*
X127371831Y-66691895D01*
X127536203Y-66659200D01*
X127703797Y-66659200D01*
X127868169Y-66691895D01*
X127868169Y-66691895D01*
G37*
G36*
X127868169Y-64151895D02*
G01*
X128023005Y-64216031D01*
X128162354Y-64309140D01*
X128280860Y-64427646D01*
X128373969Y-64566995D01*
X128438105Y-64721831D01*
X128470800Y-64886203D01*
X128470800Y-65053797D01*
X128438105Y-65218169D01*
X128373969Y-65373005D01*
X128280860Y-65512354D01*
X128162354Y-65630860D01*
X128023005Y-65723969D01*
X127868169Y-65788105D01*
X127703797Y-65820800D01*
X127536203Y-65820800D01*
X127371831Y-65788105D01*
X127216995Y-65723969D01*
X127077646Y-65630860D01*
X126959140Y-65512354D01*
X126866031Y-65373005D01*
X126801895Y-65218169D01*
X126769200Y-65053797D01*
X126769200Y-64886203D01*
X126801895Y-64721831D01*
X126866031Y-64566995D01*
X126959140Y-64427646D01*
X127077646Y-64309140D01*
X127216995Y-64216031D01*
X127371831Y-64151895D01*
X127536203Y-64119200D01*
X127703797Y-64119200D01*
X127868169Y-64151895D01*
X127868169Y-64151895D01*
G37*
G36*
X112628169Y-64151895D02*
G01*
X112783005Y-64216031D01*
X112922354Y-64309140D01*
X113040860Y-64427646D01*
X113133969Y-64566995D01*
X113198105Y-64721831D01*
X113230800Y-64886203D01*
X113230800Y-65053797D01*
X113198105Y-65218169D01*
X113133969Y-65373005D01*
X113040860Y-65512354D01*
X112922354Y-65630860D01*
X112783005Y-65723969D01*
X112628169Y-65788105D01*
X112463797Y-65820800D01*
X112296203Y-65820800D01*
X112131831Y-65788105D01*
X111976995Y-65723969D01*
X111837646Y-65630860D01*
X111719140Y-65512354D01*
X111626031Y-65373005D01*
X111561895Y-65218169D01*
X111529200Y-65053797D01*
X111529200Y-64886203D01*
X111561895Y-64721831D01*
X111626031Y-64566995D01*
X111719140Y-64427646D01*
X111837646Y-64309140D01*
X111976995Y-64216031D01*
X112131831Y-64151895D01*
X112296203Y-64119200D01*
X112463797Y-64119200D01*
X112628169Y-64151895D01*
X112628169Y-64151895D01*
G37*
G36*
X131084348Y-63316677D02*
G01*
X131123000Y-63328402D01*
X131158623Y-63347443D01*
X131189846Y-63373067D01*
X131215470Y-63404290D01*
X131234511Y-63439913D01*
X131246236Y-63478565D01*
X131250800Y-63524904D01*
X131250800Y-64175922D01*
X131246236Y-64222261D01*
X131234511Y-64260913D01*
X131215470Y-64296536D01*
X131189846Y-64327759D01*
X131158623Y-64353383D01*
X131123000Y-64372424D01*
X131084348Y-64384149D01*
X131038009Y-64388713D01*
X129961991Y-64388713D01*
X129915652Y-64384149D01*
X129877000Y-64372424D01*
X129841377Y-64353383D01*
X129810154Y-64327759D01*
X129784530Y-64296536D01*
X129765489Y-64260913D01*
X129753764Y-64222261D01*
X129749200Y-64175922D01*
X129749200Y-63524904D01*
X129753764Y-63478565D01*
X129765489Y-63439913D01*
X129784530Y-63404290D01*
X129810154Y-63373067D01*
X129841377Y-63347443D01*
X129877000Y-63328402D01*
X129915652Y-63316677D01*
X129961991Y-63312113D01*
X131038009Y-63312113D01*
X131084348Y-63316677D01*
X131084348Y-63316677D01*
G37*
G36*
X127868169Y-61611895D02*
G01*
X128023005Y-61676031D01*
X128162354Y-61769140D01*
X128280860Y-61887646D01*
X128373969Y-62026995D01*
X128438105Y-62181831D01*
X128470800Y-62346203D01*
X128470800Y-62513797D01*
X128438105Y-62678169D01*
X128373969Y-62833005D01*
X128280860Y-62972354D01*
X128162354Y-63090860D01*
X128023005Y-63183969D01*
X127868169Y-63248105D01*
X127703797Y-63280800D01*
X127536203Y-63280800D01*
X127371831Y-63248105D01*
X127216995Y-63183969D01*
X127077646Y-63090860D01*
X126959140Y-62972354D01*
X126866031Y-62833005D01*
X126801895Y-62678169D01*
X126769200Y-62513797D01*
X126769200Y-62346203D01*
X126801895Y-62181831D01*
X126866031Y-62026995D01*
X126959140Y-61887646D01*
X127077646Y-61769140D01*
X127216995Y-61676031D01*
X127371831Y-61611895D01*
X127536203Y-61579200D01*
X127703797Y-61579200D01*
X127868169Y-61611895D01*
X127868169Y-61611895D01*
G37*
G36*
X112628169Y-61611895D02*
G01*
X112783005Y-61676031D01*
X112922354Y-61769140D01*
X113040860Y-61887646D01*
X113133969Y-62026995D01*
X113198105Y-62181831D01*
X113230800Y-62346203D01*
X113230800Y-62513797D01*
X113198105Y-62678169D01*
X113133969Y-62833005D01*
X113040860Y-62972354D01*
X112922354Y-63090860D01*
X112783005Y-63183969D01*
X112628169Y-63248105D01*
X112463797Y-63280800D01*
X112296203Y-63280800D01*
X112131831Y-63248105D01*
X111976995Y-63183969D01*
X111837646Y-63090860D01*
X111719140Y-62972354D01*
X111626031Y-62833005D01*
X111561895Y-62678169D01*
X111529200Y-62513797D01*
X111529200Y-62346203D01*
X111561895Y-62181831D01*
X111626031Y-62026995D01*
X111719140Y-61887646D01*
X111837646Y-61769140D01*
X111976995Y-61676031D01*
X112131831Y-61611895D01*
X112296203Y-61579200D01*
X112463797Y-61579200D01*
X112628169Y-61611895D01*
X112628169Y-61611895D01*
G37*
G36*
X131084348Y-61441677D02*
G01*
X131123000Y-61453402D01*
X131158623Y-61472443D01*
X131189846Y-61498067D01*
X131215470Y-61529290D01*
X131234511Y-61564913D01*
X131246236Y-61603565D01*
X131250800Y-61649904D01*
X131250800Y-62300922D01*
X131246236Y-62347261D01*
X131234511Y-62385913D01*
X131215470Y-62421536D01*
X131189846Y-62452759D01*
X131158623Y-62478383D01*
X131123000Y-62497424D01*
X131084348Y-62509149D01*
X131038009Y-62513713D01*
X129961991Y-62513713D01*
X129915652Y-62509149D01*
X129877000Y-62497424D01*
X129841377Y-62478383D01*
X129810154Y-62452759D01*
X129784530Y-62421536D01*
X129765489Y-62385913D01*
X129753764Y-62347261D01*
X129749200Y-62300922D01*
X129749200Y-61649904D01*
X129753764Y-61603565D01*
X129765489Y-61564913D01*
X129784530Y-61529290D01*
X129810154Y-61498067D01*
X129841377Y-61472443D01*
X129877000Y-61453402D01*
X129915652Y-61441677D01*
X129961991Y-61437113D01*
X131038009Y-61437113D01*
X131084348Y-61441677D01*
X131084348Y-61441677D01*
G37*
G36*
X133588362Y-60643545D02*
G01*
X133676588Y-60652234D01*
X133846389Y-60703743D01*
X133846392Y-60703744D01*
X134002878Y-60787388D01*
X134140044Y-60899956D01*
X134252612Y-61037122D01*
X134336256Y-61193608D01*
X134336257Y-61193611D01*
X134387766Y-61363412D01*
X134405158Y-61540000D01*
X134387766Y-61716588D01*
X134371824Y-61769140D01*
X134336256Y-61886392D01*
X134252612Y-62042878D01*
X134140044Y-62180044D01*
X134002878Y-62292612D01*
X133846392Y-62376256D01*
X133846389Y-62376257D01*
X133676588Y-62427766D01*
X133588362Y-62436455D01*
X133544250Y-62440800D01*
X133455750Y-62440800D01*
X133411638Y-62436455D01*
X133323412Y-62427766D01*
X133153611Y-62376257D01*
X133153608Y-62376256D01*
X132997122Y-62292612D01*
X132859956Y-62180044D01*
X132747388Y-62042878D01*
X132663744Y-61886392D01*
X132628176Y-61769140D01*
X132612234Y-61716588D01*
X132594842Y-61540000D01*
X132612234Y-61363412D01*
X132663743Y-61193611D01*
X132663744Y-61193608D01*
X132747388Y-61037122D01*
X132859956Y-60899956D01*
X132997122Y-60787388D01*
X133153608Y-60703744D01*
X133153611Y-60703743D01*
X133323412Y-60652234D01*
X133411638Y-60643545D01*
X133455750Y-60639200D01*
X133544250Y-60639200D01*
X133588362Y-60643545D01*
X133588362Y-60643545D01*
G37*
G36*
X109088362Y-60643545D02*
G01*
X109176588Y-60652234D01*
X109346389Y-60703743D01*
X109346392Y-60703744D01*
X109502878Y-60787388D01*
X109640044Y-60899956D01*
X109752612Y-61037122D01*
X109836256Y-61193608D01*
X109836257Y-61193611D01*
X109887766Y-61363412D01*
X109905158Y-61540000D01*
X109887766Y-61716588D01*
X109871824Y-61769140D01*
X109836256Y-61886392D01*
X109752612Y-62042878D01*
X109640044Y-62180044D01*
X109502878Y-62292612D01*
X109346392Y-62376256D01*
X109346389Y-62376257D01*
X109176588Y-62427766D01*
X109088362Y-62436455D01*
X109044250Y-62440800D01*
X108955750Y-62440800D01*
X108911638Y-62436455D01*
X108823412Y-62427766D01*
X108653611Y-62376257D01*
X108653608Y-62376256D01*
X108497122Y-62292612D01*
X108359956Y-62180044D01*
X108247388Y-62042878D01*
X108163744Y-61886392D01*
X108128176Y-61769140D01*
X108112234Y-61716588D01*
X108094842Y-61540000D01*
X108112234Y-61363412D01*
X108163743Y-61193611D01*
X108163744Y-61193608D01*
X108247388Y-61037122D01*
X108359956Y-60899956D01*
X108497122Y-60787388D01*
X108653608Y-60703744D01*
X108653611Y-60703743D01*
X108823412Y-60652234D01*
X108911638Y-60643545D01*
X108955750Y-60639200D01*
X109044250Y-60639200D01*
X109088362Y-60643545D01*
X109088362Y-60643545D01*
G37*
G36*
X127868169Y-59071895D02*
G01*
X128023005Y-59136031D01*
X128162354Y-59229140D01*
X128280860Y-59347646D01*
X128373969Y-59486995D01*
X128438105Y-59641831D01*
X128470800Y-59806203D01*
X128470800Y-59973797D01*
X128438105Y-60138169D01*
X128373969Y-60293005D01*
X128280860Y-60432354D01*
X128162354Y-60550860D01*
X128023005Y-60643969D01*
X127868169Y-60708105D01*
X127703797Y-60740800D01*
X127536203Y-60740800D01*
X127371831Y-60708105D01*
X127216995Y-60643969D01*
X127077646Y-60550860D01*
X126959140Y-60432354D01*
X126866031Y-60293005D01*
X126801895Y-60138169D01*
X126769200Y-59973797D01*
X126769200Y-59806203D01*
X126801895Y-59641831D01*
X126866031Y-59486995D01*
X126959140Y-59347646D01*
X127077646Y-59229140D01*
X127216995Y-59136031D01*
X127371831Y-59071895D01*
X127536203Y-59039200D01*
X127703797Y-59039200D01*
X127868169Y-59071895D01*
X127868169Y-59071895D01*
G37*
G36*
X112628169Y-59071895D02*
G01*
X112783005Y-59136031D01*
X112922354Y-59229140D01*
X113040860Y-59347646D01*
X113133969Y-59486995D01*
X113198105Y-59641831D01*
X113230800Y-59806203D01*
X113230800Y-59973797D01*
X113198105Y-60138169D01*
X113133969Y-60293005D01*
X113040860Y-60432354D01*
X112922354Y-60550860D01*
X112783005Y-60643969D01*
X112628169Y-60708105D01*
X112463797Y-60740800D01*
X112296203Y-60740800D01*
X112131831Y-60708105D01*
X111976995Y-60643969D01*
X111837646Y-60550860D01*
X111719140Y-60432354D01*
X111626031Y-60293005D01*
X111561895Y-60138169D01*
X111529200Y-59973797D01*
X111529200Y-59806203D01*
X111561895Y-59641831D01*
X111626031Y-59486995D01*
X111719140Y-59347646D01*
X111837646Y-59229140D01*
X111976995Y-59136031D01*
X112131831Y-59071895D01*
X112296203Y-59039200D01*
X112463797Y-59039200D01*
X112628169Y-59071895D01*
X112628169Y-59071895D01*
G37*
G36*
X131084348Y-59653764D02*
G01*
X131123000Y-59665489D01*
X131158623Y-59684530D01*
X131189846Y-59710154D01*
X131215470Y-59741377D01*
X131234511Y-59777000D01*
X131246236Y-59815652D01*
X131250800Y-59861991D01*
X131250800Y-60513009D01*
X131246236Y-60559348D01*
X131234511Y-60598000D01*
X131215470Y-60633623D01*
X131189846Y-60664846D01*
X131158623Y-60690470D01*
X131123000Y-60709511D01*
X131084348Y-60721236D01*
X131038009Y-60725800D01*
X129961991Y-60725800D01*
X129915652Y-60721236D01*
X129877000Y-60709511D01*
X129841377Y-60690470D01*
X129810154Y-60664846D01*
X129784530Y-60633623D01*
X129765489Y-60598000D01*
X129753764Y-60559348D01*
X129749200Y-60513009D01*
X129749200Y-59861991D01*
X129753764Y-59815652D01*
X129765489Y-59777000D01*
X129784530Y-59741377D01*
X129810154Y-59710154D01*
X129841377Y-59684530D01*
X129877000Y-59665489D01*
X129915652Y-59653764D01*
X129961991Y-59649200D01*
X131038009Y-59649200D01*
X131084348Y-59653764D01*
X131084348Y-59653764D01*
G37*
G36*
X134400800Y-59900800D02*
G01*
X132599200Y-59900800D01*
X132599200Y-58099200D01*
X134400800Y-58099200D01*
X134400800Y-59900800D01*
X134400800Y-59900800D01*
G37*
G36*
X109900800Y-59900800D02*
G01*
X108099200Y-59900800D01*
X108099200Y-58099200D01*
X109900800Y-58099200D01*
X109900800Y-59900800D01*
X109900800Y-59900800D01*
G37*
G36*
X131084348Y-57778764D02*
G01*
X131123000Y-57790489D01*
X131158623Y-57809530D01*
X131189846Y-57835154D01*
X131215470Y-57866377D01*
X131234511Y-57902000D01*
X131246236Y-57940652D01*
X131250800Y-57986991D01*
X131250800Y-58638009D01*
X131246236Y-58684348D01*
X131234511Y-58723000D01*
X131215470Y-58758623D01*
X131189846Y-58789846D01*
X131158623Y-58815470D01*
X131123000Y-58834511D01*
X131084348Y-58846236D01*
X131038009Y-58850800D01*
X129961991Y-58850800D01*
X129915652Y-58846236D01*
X129877000Y-58834511D01*
X129841377Y-58815470D01*
X129810154Y-58789846D01*
X129784530Y-58758623D01*
X129765489Y-58723000D01*
X129753764Y-58684348D01*
X129749200Y-58638009D01*
X129749200Y-57986991D01*
X129753764Y-57940652D01*
X129765489Y-57902000D01*
X129784530Y-57866377D01*
X129810154Y-57835154D01*
X129841377Y-57809530D01*
X129877000Y-57790489D01*
X129915652Y-57778764D01*
X129961991Y-57774200D01*
X131038009Y-57774200D01*
X131084348Y-57778764D01*
X131084348Y-57778764D01*
G37*
G36*
X127868169Y-56531895D02*
G01*
X128023005Y-56596031D01*
X128162354Y-56689140D01*
X128280860Y-56807646D01*
X128373969Y-56946995D01*
X128438105Y-57101831D01*
X128470800Y-57266203D01*
X128470800Y-57433797D01*
X128438105Y-57598169D01*
X128373969Y-57753005D01*
X128280860Y-57892354D01*
X128162354Y-58010860D01*
X128023005Y-58103969D01*
X127868169Y-58168105D01*
X127703797Y-58200800D01*
X127536203Y-58200800D01*
X127371831Y-58168105D01*
X127216995Y-58103969D01*
X127077646Y-58010860D01*
X126959140Y-57892354D01*
X126866031Y-57753005D01*
X126801895Y-57598169D01*
X126769200Y-57433797D01*
X126769200Y-57266203D01*
X126801895Y-57101831D01*
X126866031Y-56946995D01*
X126959140Y-56807646D01*
X127077646Y-56689140D01*
X127216995Y-56596031D01*
X127371831Y-56531895D01*
X127536203Y-56499200D01*
X127703797Y-56499200D01*
X127868169Y-56531895D01*
X127868169Y-56531895D01*
G37*
G36*
X112628169Y-56531895D02*
G01*
X112783005Y-56596031D01*
X112922354Y-56689140D01*
X113040860Y-56807646D01*
X113133969Y-56946995D01*
X113198105Y-57101831D01*
X113230800Y-57266203D01*
X113230800Y-57433797D01*
X113198105Y-57598169D01*
X113133969Y-57753005D01*
X113040860Y-57892354D01*
X112922354Y-58010860D01*
X112783005Y-58103969D01*
X112628169Y-58168105D01*
X112463797Y-58200800D01*
X112296203Y-58200800D01*
X112131831Y-58168105D01*
X111976995Y-58103969D01*
X111837646Y-58010860D01*
X111719140Y-57892354D01*
X111626031Y-57753005D01*
X111561895Y-57598169D01*
X111529200Y-57433797D01*
X111529200Y-57266203D01*
X111561895Y-57101831D01*
X111626031Y-56946995D01*
X111719140Y-56807646D01*
X111837646Y-56689140D01*
X111976995Y-56596031D01*
X112131831Y-56531895D01*
X112296203Y-56499200D01*
X112463797Y-56499200D01*
X112628169Y-56531895D01*
X112628169Y-56531895D01*
G37*
G36*
X125768465Y-54728546D02*
G01*
X125804996Y-54739628D01*
X125838660Y-54757621D01*
X125868165Y-54781835D01*
X125892379Y-54811340D01*
X125910372Y-54845004D01*
X125921454Y-54881535D01*
X125925800Y-54925660D01*
X125925800Y-55874340D01*
X125921454Y-55918465D01*
X125910372Y-55954996D01*
X125892379Y-55988660D01*
X125868165Y-56018165D01*
X125838660Y-56042379D01*
X125804996Y-56060372D01*
X125768465Y-56071454D01*
X125724340Y-56075800D01*
X124275660Y-56075800D01*
X124231535Y-56071454D01*
X124195004Y-56060372D01*
X124161340Y-56042379D01*
X124131835Y-56018165D01*
X124107621Y-55988660D01*
X124089628Y-55954996D01*
X124078546Y-55918465D01*
X124074200Y-55874340D01*
X124074200Y-54925660D01*
X124078546Y-54881535D01*
X124089628Y-54845004D01*
X124107621Y-54811340D01*
X124131835Y-54781835D01*
X124161340Y-54757621D01*
X124195004Y-54739628D01*
X124231535Y-54728546D01*
X124275660Y-54724200D01*
X125724340Y-54724200D01*
X125768465Y-54728546D01*
X125768465Y-54728546D01*
G37*
G36*
X112628169Y-53991895D02*
G01*
X112783005Y-54056031D01*
X112922354Y-54149140D01*
X113040860Y-54267646D01*
X113133969Y-54406995D01*
X113198105Y-54561831D01*
X113230800Y-54726203D01*
X113230800Y-54893797D01*
X113198105Y-55058169D01*
X113133969Y-55213005D01*
X113040860Y-55352354D01*
X112922354Y-55470860D01*
X112783005Y-55563969D01*
X112628169Y-55628105D01*
X112463797Y-55660800D01*
X112296203Y-55660800D01*
X112131831Y-55628105D01*
X111976995Y-55563969D01*
X111837646Y-55470860D01*
X111719140Y-55352354D01*
X111626031Y-55213005D01*
X111561895Y-55058169D01*
X111529200Y-54893797D01*
X111529200Y-54726203D01*
X111561895Y-54561831D01*
X111626031Y-54406995D01*
X111719140Y-54267646D01*
X111837646Y-54149140D01*
X111976995Y-54056031D01*
X112131831Y-53991895D01*
X112296203Y-53959200D01*
X112463797Y-53959200D01*
X112628169Y-53991895D01*
X112628169Y-53991895D01*
G37*
G36*
X127868169Y-53991895D02*
G01*
X128023005Y-54056031D01*
X128162354Y-54149140D01*
X128280860Y-54267646D01*
X128373969Y-54406995D01*
X128438105Y-54561831D01*
X128470800Y-54726203D01*
X128470800Y-54893797D01*
X128438105Y-55058169D01*
X128373969Y-55213005D01*
X128280860Y-55352354D01*
X128162354Y-55470860D01*
X128023005Y-55563969D01*
X127868169Y-55628105D01*
X127703797Y-55660800D01*
X127536203Y-55660800D01*
X127371831Y-55628105D01*
X127216995Y-55563969D01*
X127077646Y-55470860D01*
X126959140Y-55352354D01*
X126866031Y-55213005D01*
X126801895Y-55058169D01*
X126769200Y-54893797D01*
X126769200Y-54726203D01*
X126801895Y-54561831D01*
X126866031Y-54406995D01*
X126959140Y-54267646D01*
X127077646Y-54149140D01*
X127216995Y-54056031D01*
X127371831Y-53991895D01*
X127536203Y-53959200D01*
X127703797Y-53959200D01*
X127868169Y-53991895D01*
X127868169Y-53991895D01*
G37*
G36*
X120950800Y-54400800D02*
G01*
X119949200Y-54400800D01*
X119949200Y-53499200D01*
X120950800Y-53499200D01*
X120950800Y-54400800D01*
X120950800Y-54400800D01*
G37*
G36*
X116500800Y-54400800D02*
G01*
X115499200Y-54400800D01*
X115499200Y-53499200D01*
X116500800Y-53499200D01*
X116500800Y-54400800D01*
X116500800Y-54400800D01*
G37*
G36*
X122950800Y-53450800D02*
G01*
X121949200Y-53450800D01*
X121949200Y-52549200D01*
X122950800Y-52549200D01*
X122950800Y-53450800D01*
X122950800Y-53450800D01*
G37*
G36*
X118500800Y-53450800D02*
G01*
X117499200Y-53450800D01*
X117499200Y-52549200D01*
X118500800Y-52549200D01*
X118500800Y-53450800D01*
X118500800Y-53450800D01*
G37*
G36*
X125768465Y-51928546D02*
G01*
X125804996Y-51939628D01*
X125838660Y-51957621D01*
X125868165Y-51981835D01*
X125892379Y-52011340D01*
X125910372Y-52045004D01*
X125921454Y-52081535D01*
X125925800Y-52125660D01*
X125925800Y-53074340D01*
X125921454Y-53118465D01*
X125910372Y-53154996D01*
X125892379Y-53188660D01*
X125868165Y-53218165D01*
X125838660Y-53242379D01*
X125804996Y-53260372D01*
X125768465Y-53271454D01*
X125724340Y-53275800D01*
X124275660Y-53275800D01*
X124231535Y-53271454D01*
X124195004Y-53260372D01*
X124161340Y-53242379D01*
X124131835Y-53218165D01*
X124107621Y-53188660D01*
X124089628Y-53154996D01*
X124078546Y-53118465D01*
X124074200Y-53074340D01*
X124074200Y-52125660D01*
X124078546Y-52081535D01*
X124089628Y-52045004D01*
X124107621Y-52011340D01*
X124131835Y-51981835D01*
X124161340Y-51957621D01*
X124195004Y-51939628D01*
X124231535Y-51928546D01*
X124275660Y-51924200D01*
X125724340Y-51924200D01*
X125768465Y-51928546D01*
X125768465Y-51928546D01*
G37*
G36*
X127868169Y-51451895D02*
G01*
X128023005Y-51516031D01*
X128162354Y-51609140D01*
X128280860Y-51727646D01*
X128373969Y-51866995D01*
X128438105Y-52021831D01*
X128470800Y-52186203D01*
X128470800Y-52353797D01*
X128438105Y-52518169D01*
X128373969Y-52673005D01*
X128280860Y-52812354D01*
X128162354Y-52930860D01*
X128023005Y-53023969D01*
X127868169Y-53088105D01*
X127703797Y-53120800D01*
X127536203Y-53120800D01*
X127371831Y-53088105D01*
X127216995Y-53023969D01*
X127077646Y-52930860D01*
X126959140Y-52812354D01*
X126866031Y-52673005D01*
X126801895Y-52518169D01*
X126769200Y-52353797D01*
X126769200Y-52186203D01*
X126801895Y-52021831D01*
X126866031Y-51866995D01*
X126959140Y-51727646D01*
X127077646Y-51609140D01*
X127216995Y-51516031D01*
X127371831Y-51451895D01*
X127536203Y-51419200D01*
X127703797Y-51419200D01*
X127868169Y-51451895D01*
X127868169Y-51451895D01*
G37*
G36*
X112628169Y-51451895D02*
G01*
X112783005Y-51516031D01*
X112922354Y-51609140D01*
X113040860Y-51727646D01*
X113133969Y-51866995D01*
X113198105Y-52021831D01*
X113230800Y-52186203D01*
X113230800Y-52353797D01*
X113198105Y-52518169D01*
X113133969Y-52673005D01*
X113040860Y-52812354D01*
X112922354Y-52930860D01*
X112783005Y-53023969D01*
X112628169Y-53088105D01*
X112463797Y-53120800D01*
X112296203Y-53120800D01*
X112131831Y-53088105D01*
X111976995Y-53023969D01*
X111837646Y-52930860D01*
X111719140Y-52812354D01*
X111626031Y-52673005D01*
X111561895Y-52518169D01*
X111529200Y-52353797D01*
X111529200Y-52186203D01*
X111561895Y-52021831D01*
X111626031Y-51866995D01*
X111719140Y-51727646D01*
X111837646Y-51609140D01*
X111976995Y-51516031D01*
X112131831Y-51451895D01*
X112296203Y-51419200D01*
X112463797Y-51419200D01*
X112628169Y-51451895D01*
X112628169Y-51451895D01*
G37*
G36*
X120950800Y-52500800D02*
G01*
X119949200Y-52500800D01*
X119949200Y-51599200D01*
X120950800Y-51599200D01*
X120950800Y-52500800D01*
X120950800Y-52500800D01*
G37*
G36*
X116500800Y-52500800D02*
G01*
X115499200Y-52500800D01*
X115499200Y-51599200D01*
X116500800Y-51599200D01*
X116500800Y-52500800D01*
X116500800Y-52500800D01*
G37*
G36*
X132746848Y-50503764D02*
G01*
X132785500Y-50515489D01*
X132821123Y-50534530D01*
X132852346Y-50560154D01*
X132877970Y-50591377D01*
X132897011Y-50627000D01*
X132908736Y-50665652D01*
X132913300Y-50711991D01*
X132913300Y-51788009D01*
X132908736Y-51834348D01*
X132897011Y-51873000D01*
X132877970Y-51908623D01*
X132852346Y-51939846D01*
X132821123Y-51965470D01*
X132785500Y-51984511D01*
X132746848Y-51996236D01*
X132700509Y-52000800D01*
X132049491Y-52000800D01*
X132003152Y-51996236D01*
X131964500Y-51984511D01*
X131928877Y-51965470D01*
X131897654Y-51939846D01*
X131872030Y-51908623D01*
X131852989Y-51873000D01*
X131841264Y-51834348D01*
X131836700Y-51788009D01*
X131836700Y-50711991D01*
X131841264Y-50665652D01*
X131852989Y-50627000D01*
X131872030Y-50591377D01*
X131897654Y-50560154D01*
X131928877Y-50534530D01*
X131964500Y-50515489D01*
X132003152Y-50503764D01*
X132049491Y-50499200D01*
X132700509Y-50499200D01*
X132746848Y-50503764D01*
X132746848Y-50503764D01*
G37*
G36*
X130871848Y-50503764D02*
G01*
X130910500Y-50515489D01*
X130946123Y-50534530D01*
X130977346Y-50560154D01*
X131002970Y-50591377D01*
X131022011Y-50627000D01*
X131033736Y-50665652D01*
X131038300Y-50711991D01*
X131038300Y-51788009D01*
X131033736Y-51834348D01*
X131022011Y-51873000D01*
X131002970Y-51908623D01*
X130977346Y-51939846D01*
X130946123Y-51965470D01*
X130910500Y-51984511D01*
X130871848Y-51996236D01*
X130825509Y-52000800D01*
X130174491Y-52000800D01*
X130128152Y-51996236D01*
X130089500Y-51984511D01*
X130053877Y-51965470D01*
X130022654Y-51939846D01*
X129997030Y-51908623D01*
X129977989Y-51873000D01*
X129966264Y-51834348D01*
X129961700Y-51788009D01*
X129961700Y-50711991D01*
X129966264Y-50665652D01*
X129977989Y-50627000D01*
X129997030Y-50591377D01*
X130022654Y-50560154D01*
X130053877Y-50534530D01*
X130089500Y-50515489D01*
X130128152Y-50503764D01*
X130174491Y-50499200D01*
X130825509Y-50499200D01*
X130871848Y-50503764D01*
X130871848Y-50503764D01*
G37*
G36*
X110746848Y-49753764D02*
G01*
X110785500Y-49765489D01*
X110821123Y-49784530D01*
X110852346Y-49810154D01*
X110877970Y-49841377D01*
X110897011Y-49877000D01*
X110908736Y-49915652D01*
X110913300Y-49961991D01*
X110913300Y-51038009D01*
X110908736Y-51084348D01*
X110897011Y-51123000D01*
X110877970Y-51158623D01*
X110852346Y-51189846D01*
X110821123Y-51215470D01*
X110785500Y-51234511D01*
X110746848Y-51246236D01*
X110700509Y-51250800D01*
X110049491Y-51250800D01*
X110003152Y-51246236D01*
X109964500Y-51234511D01*
X109928877Y-51215470D01*
X109897654Y-51189846D01*
X109872030Y-51158623D01*
X109852989Y-51123000D01*
X109841264Y-51084348D01*
X109836700Y-51038009D01*
X109836700Y-49961991D01*
X109841264Y-49915652D01*
X109852989Y-49877000D01*
X109872030Y-49841377D01*
X109897654Y-49810154D01*
X109928877Y-49784530D01*
X109964500Y-49765489D01*
X110003152Y-49753764D01*
X110049491Y-49749200D01*
X110700509Y-49749200D01*
X110746848Y-49753764D01*
X110746848Y-49753764D01*
G37*
G36*
X108871848Y-49753764D02*
G01*
X108910500Y-49765489D01*
X108946123Y-49784530D01*
X108977346Y-49810154D01*
X109002970Y-49841377D01*
X109022011Y-49877000D01*
X109033736Y-49915652D01*
X109038300Y-49961991D01*
X109038300Y-51038009D01*
X109033736Y-51084348D01*
X109022011Y-51123000D01*
X109002970Y-51158623D01*
X108977346Y-51189846D01*
X108946123Y-51215470D01*
X108910500Y-51234511D01*
X108871848Y-51246236D01*
X108825509Y-51250800D01*
X108174491Y-51250800D01*
X108128152Y-51246236D01*
X108089500Y-51234511D01*
X108053877Y-51215470D01*
X108022654Y-51189846D01*
X107997030Y-51158623D01*
X107977989Y-51123000D01*
X107966264Y-51084348D01*
X107961700Y-51038009D01*
X107961700Y-49961991D01*
X107966264Y-49915652D01*
X107977989Y-49877000D01*
X107997030Y-49841377D01*
X108022654Y-49810154D01*
X108053877Y-49784530D01*
X108089500Y-49765489D01*
X108128152Y-49753764D01*
X108174491Y-49749200D01*
X108825509Y-49749200D01*
X108871848Y-49753764D01*
X108871848Y-49753764D01*
G37*
G36*
X127868169Y-48911895D02*
G01*
X128023005Y-48976031D01*
X128162354Y-49069140D01*
X128280860Y-49187646D01*
X128373969Y-49326995D01*
X128438105Y-49481831D01*
X128470800Y-49646203D01*
X128470800Y-49813797D01*
X128438105Y-49978169D01*
X128373969Y-50133005D01*
X128280860Y-50272354D01*
X128162354Y-50390860D01*
X128023005Y-50483969D01*
X127868169Y-50548105D01*
X127703797Y-50580800D01*
X127536203Y-50580800D01*
X127371831Y-50548105D01*
X127216995Y-50483969D01*
X127077646Y-50390860D01*
X126959140Y-50272354D01*
X126866031Y-50133005D01*
X126801895Y-49978169D01*
X126769200Y-49813797D01*
X126769200Y-49646203D01*
X126801895Y-49481831D01*
X126866031Y-49326995D01*
X126959140Y-49187646D01*
X127077646Y-49069140D01*
X127216995Y-48976031D01*
X127371831Y-48911895D01*
X127536203Y-48879200D01*
X127703797Y-48879200D01*
X127868169Y-48911895D01*
X127868169Y-48911895D01*
G37*
G36*
X112628169Y-48911895D02*
G01*
X112783005Y-48976031D01*
X112922354Y-49069140D01*
X113040860Y-49187646D01*
X113133969Y-49326995D01*
X113198105Y-49481831D01*
X113230800Y-49646203D01*
X113230800Y-49813797D01*
X113198105Y-49978169D01*
X113133969Y-50133005D01*
X113040860Y-50272354D01*
X112922354Y-50390860D01*
X112783005Y-50483969D01*
X112628169Y-50548105D01*
X112463797Y-50580800D01*
X112296203Y-50580800D01*
X112131831Y-50548105D01*
X111976995Y-50483969D01*
X111837646Y-50390860D01*
X111719140Y-50272354D01*
X111626031Y-50133005D01*
X111561895Y-49978169D01*
X111529200Y-49813797D01*
X111529200Y-49646203D01*
X111561895Y-49481831D01*
X111626031Y-49326995D01*
X111719140Y-49187646D01*
X111837646Y-49069140D01*
X111976995Y-48976031D01*
X112131831Y-48911895D01*
X112296203Y-48879200D01*
X112463797Y-48879200D01*
X112628169Y-48911895D01*
X112628169Y-48911895D01*
G37*
G36*
X130871848Y-48003764D02*
G01*
X130910500Y-48015489D01*
X130946123Y-48034530D01*
X130977346Y-48060154D01*
X131002970Y-48091377D01*
X131022011Y-48127000D01*
X131033736Y-48165652D01*
X131038300Y-48211991D01*
X131038300Y-49288009D01*
X131033736Y-49334348D01*
X131022011Y-49373000D01*
X131002970Y-49408623D01*
X130977346Y-49439846D01*
X130946123Y-49465470D01*
X130910500Y-49484511D01*
X130871848Y-49496236D01*
X130825509Y-49500800D01*
X130174491Y-49500800D01*
X130128152Y-49496236D01*
X130089500Y-49484511D01*
X130053877Y-49465470D01*
X130022654Y-49439846D01*
X129997030Y-49408623D01*
X129977989Y-49373000D01*
X129966264Y-49334348D01*
X129961700Y-49288009D01*
X129961700Y-48211991D01*
X129966264Y-48165652D01*
X129977989Y-48127000D01*
X129997030Y-48091377D01*
X130022654Y-48060154D01*
X130053877Y-48034530D01*
X130089500Y-48015489D01*
X130128152Y-48003764D01*
X130174491Y-47999200D01*
X130825509Y-47999200D01*
X130871848Y-48003764D01*
X130871848Y-48003764D01*
G37*
G36*
X132746848Y-48003764D02*
G01*
X132785500Y-48015489D01*
X132821123Y-48034530D01*
X132852346Y-48060154D01*
X132877970Y-48091377D01*
X132897011Y-48127000D01*
X132908736Y-48165652D01*
X132913300Y-48211991D01*
X132913300Y-49288009D01*
X132908736Y-49334348D01*
X132897011Y-49373000D01*
X132877970Y-49408623D01*
X132852346Y-49439846D01*
X132821123Y-49465470D01*
X132785500Y-49484511D01*
X132746848Y-49496236D01*
X132700509Y-49500800D01*
X132049491Y-49500800D01*
X132003152Y-49496236D01*
X131964500Y-49484511D01*
X131928877Y-49465470D01*
X131897654Y-49439846D01*
X131872030Y-49408623D01*
X131852989Y-49373000D01*
X131841264Y-49334348D01*
X131836700Y-49288009D01*
X131836700Y-48211991D01*
X131841264Y-48165652D01*
X131852989Y-48127000D01*
X131872030Y-48091377D01*
X131897654Y-48060154D01*
X131928877Y-48034530D01*
X131964500Y-48015489D01*
X132003152Y-48003764D01*
X132049491Y-47999200D01*
X132700509Y-47999200D01*
X132746848Y-48003764D01*
X132746848Y-48003764D01*
G37*
G36*
X110746848Y-46753764D02*
G01*
X110785500Y-46765489D01*
X110821123Y-46784530D01*
X110852346Y-46810154D01*
X110877970Y-46841377D01*
X110897011Y-46877000D01*
X110908736Y-46915652D01*
X110913300Y-46961991D01*
X110913300Y-48038009D01*
X110908736Y-48084348D01*
X110897011Y-48123000D01*
X110877970Y-48158623D01*
X110852346Y-48189846D01*
X110821123Y-48215470D01*
X110785500Y-48234511D01*
X110746848Y-48246236D01*
X110700509Y-48250800D01*
X110049491Y-48250800D01*
X110003152Y-48246236D01*
X109964500Y-48234511D01*
X109928877Y-48215470D01*
X109897654Y-48189846D01*
X109872030Y-48158623D01*
X109852989Y-48123000D01*
X109841264Y-48084348D01*
X109836700Y-48038009D01*
X109836700Y-46961991D01*
X109841264Y-46915652D01*
X109852989Y-46877000D01*
X109872030Y-46841377D01*
X109897654Y-46810154D01*
X109928877Y-46784530D01*
X109964500Y-46765489D01*
X110003152Y-46753764D01*
X110049491Y-46749200D01*
X110700509Y-46749200D01*
X110746848Y-46753764D01*
X110746848Y-46753764D01*
G37*
G36*
X108871848Y-46753764D02*
G01*
X108910500Y-46765489D01*
X108946123Y-46784530D01*
X108977346Y-46810154D01*
X109002970Y-46841377D01*
X109022011Y-46877000D01*
X109033736Y-46915652D01*
X109038300Y-46961991D01*
X109038300Y-48038009D01*
X109033736Y-48084348D01*
X109022011Y-48123000D01*
X109002970Y-48158623D01*
X108977346Y-48189846D01*
X108946123Y-48215470D01*
X108910500Y-48234511D01*
X108871848Y-48246236D01*
X108825509Y-48250800D01*
X108174491Y-48250800D01*
X108128152Y-48246236D01*
X108089500Y-48234511D01*
X108053877Y-48215470D01*
X108022654Y-48189846D01*
X107997030Y-48158623D01*
X107977989Y-48123000D01*
X107966264Y-48084348D01*
X107961700Y-48038009D01*
X107961700Y-46961991D01*
X107966264Y-46915652D01*
X107977989Y-46877000D01*
X107997030Y-46841377D01*
X108022654Y-46810154D01*
X108053877Y-46784530D01*
X108089500Y-46765489D01*
X108128152Y-46753764D01*
X108174491Y-46749200D01*
X108825509Y-46749200D01*
X108871848Y-46753764D01*
X108871848Y-46753764D01*
G37*
G36*
X127868169Y-46371895D02*
G01*
X128023005Y-46436031D01*
X128162354Y-46529140D01*
X128280860Y-46647646D01*
X128373969Y-46786995D01*
X128438105Y-46941831D01*
X128470800Y-47106203D01*
X128470800Y-47273797D01*
X128438105Y-47438169D01*
X128373969Y-47593005D01*
X128280860Y-47732354D01*
X128162354Y-47850860D01*
X128023005Y-47943969D01*
X127868169Y-48008105D01*
X127703797Y-48040800D01*
X127536203Y-48040800D01*
X127371831Y-48008105D01*
X127216995Y-47943969D01*
X127077646Y-47850860D01*
X126959140Y-47732354D01*
X126866031Y-47593005D01*
X126801895Y-47438169D01*
X126769200Y-47273797D01*
X126769200Y-47106203D01*
X126801895Y-46941831D01*
X126866031Y-46786995D01*
X126959140Y-46647646D01*
X127077646Y-46529140D01*
X127216995Y-46436031D01*
X127371831Y-46371895D01*
X127536203Y-46339200D01*
X127703797Y-46339200D01*
X127868169Y-46371895D01*
X127868169Y-46371895D01*
G37*
G36*
X112628169Y-46371895D02*
G01*
X112783005Y-46436031D01*
X112922354Y-46529140D01*
X113040860Y-46647646D01*
X113133969Y-46786995D01*
X113198105Y-46941831D01*
X113230800Y-47106203D01*
X113230800Y-47273797D01*
X113198105Y-47438169D01*
X113133969Y-47593005D01*
X113040860Y-47732354D01*
X112922354Y-47850860D01*
X112783005Y-47943969D01*
X112628169Y-48008105D01*
X112463797Y-48040800D01*
X112296203Y-48040800D01*
X112131831Y-48008105D01*
X111976995Y-47943969D01*
X111837646Y-47850860D01*
X111719140Y-47732354D01*
X111626031Y-47593005D01*
X111561895Y-47438169D01*
X111529200Y-47273797D01*
X111529200Y-47106203D01*
X111561895Y-46941831D01*
X111626031Y-46786995D01*
X111719140Y-46647646D01*
X111837646Y-46529140D01*
X111976995Y-46436031D01*
X112131831Y-46371895D01*
X112296203Y-46339200D01*
X112463797Y-46339200D01*
X112628169Y-46371895D01*
X112628169Y-46371895D01*
G37*
G36*
X132360800Y-46980800D02*
G01*
X130559200Y-46980800D01*
X130559200Y-45179200D01*
X132360800Y-45179200D01*
X132360800Y-46980800D01*
X132360800Y-46980800D01*
G37*
G36*
X134088362Y-45183545D02*
G01*
X134176588Y-45192234D01*
X134346389Y-45243743D01*
X134346392Y-45243744D01*
X134502878Y-45327388D01*
X134640044Y-45439956D01*
X134752612Y-45577122D01*
X134836256Y-45733608D01*
X134836257Y-45733611D01*
X134887766Y-45903412D01*
X134905158Y-46080000D01*
X134887766Y-46256588D01*
X134852787Y-46371896D01*
X134836256Y-46426392D01*
X134752612Y-46582878D01*
X134640044Y-46720044D01*
X134502878Y-46832612D01*
X134346392Y-46916256D01*
X134346389Y-46916257D01*
X134176588Y-46967766D01*
X134088362Y-46976455D01*
X134044250Y-46980800D01*
X133955750Y-46980800D01*
X133911638Y-46976455D01*
X133823412Y-46967766D01*
X133653611Y-46916257D01*
X133653608Y-46916256D01*
X133497122Y-46832612D01*
X133359956Y-46720044D01*
X133247388Y-46582878D01*
X133163744Y-46426392D01*
X133147213Y-46371896D01*
X133112234Y-46256588D01*
X133094842Y-46080000D01*
X133112234Y-45903412D01*
X133163743Y-45733611D01*
X133163744Y-45733608D01*
X133247388Y-45577122D01*
X133359956Y-45439956D01*
X133497122Y-45327388D01*
X133653608Y-45243744D01*
X133653611Y-45243743D01*
X133823412Y-45192234D01*
X133911638Y-45183545D01*
X133955750Y-45179200D01*
X134044250Y-45179200D01*
X134088362Y-45183545D01*
X134088362Y-45183545D01*
G37*
G36*
X127868169Y-43831895D02*
G01*
X128023005Y-43896031D01*
X128162354Y-43989140D01*
X128280860Y-44107646D01*
X128373969Y-44246995D01*
X128438105Y-44401831D01*
X128470800Y-44566203D01*
X128470800Y-44733797D01*
X128438105Y-44898169D01*
X128373969Y-45053005D01*
X128280860Y-45192354D01*
X128162354Y-45310860D01*
X128023005Y-45403969D01*
X127868169Y-45468105D01*
X127703797Y-45500800D01*
X127536203Y-45500800D01*
X127371831Y-45468105D01*
X127216995Y-45403969D01*
X127077646Y-45310860D01*
X126959140Y-45192354D01*
X126866031Y-45053005D01*
X126801895Y-44898169D01*
X126769200Y-44733797D01*
X126769200Y-44566203D01*
X126801895Y-44401831D01*
X126866031Y-44246995D01*
X126959140Y-44107646D01*
X127077646Y-43989140D01*
X127216995Y-43896031D01*
X127371831Y-43831895D01*
X127536203Y-43799200D01*
X127703797Y-43799200D01*
X127868169Y-43831895D01*
X127868169Y-43831895D01*
G37*
G36*
X112628169Y-43831895D02*
G01*
X112783005Y-43896031D01*
X112922354Y-43989140D01*
X113040860Y-44107646D01*
X113133969Y-44246995D01*
X113198105Y-44401831D01*
X113230800Y-44566203D01*
X113230800Y-44733797D01*
X113198105Y-44898169D01*
X113133969Y-45053005D01*
X113040860Y-45192354D01*
X112922354Y-45310860D01*
X112783005Y-45403969D01*
X112628169Y-45468105D01*
X112463797Y-45500800D01*
X112296203Y-45500800D01*
X112131831Y-45468105D01*
X111976995Y-45403969D01*
X111837646Y-45310860D01*
X111719140Y-45192354D01*
X111626031Y-45053005D01*
X111561895Y-44898169D01*
X111529200Y-44733797D01*
X111529200Y-44566203D01*
X111561895Y-44401831D01*
X111626031Y-44246995D01*
X111719140Y-44107646D01*
X111837646Y-43989140D01*
X111976995Y-43896031D01*
X112131831Y-43831895D01*
X112296203Y-43799200D01*
X112463797Y-43799200D01*
X112628169Y-43831895D01*
X112628169Y-43831895D01*
G37*
G36*
X134088362Y-42643545D02*
G01*
X134176588Y-42652234D01*
X134346389Y-42703743D01*
X134346392Y-42703744D01*
X134502878Y-42787388D01*
X134640044Y-42899956D01*
X134752612Y-43037122D01*
X134836256Y-43193608D01*
X134836257Y-43193611D01*
X134887766Y-43363412D01*
X134905158Y-43540000D01*
X134887766Y-43716588D01*
X134852787Y-43831896D01*
X134836256Y-43886392D01*
X134752612Y-44042878D01*
X134640044Y-44180044D01*
X134502878Y-44292612D01*
X134346392Y-44376256D01*
X134346389Y-44376257D01*
X134176588Y-44427766D01*
X134088362Y-44436455D01*
X134044250Y-44440800D01*
X133955750Y-44440800D01*
X133911638Y-44436455D01*
X133823412Y-44427766D01*
X133653611Y-44376257D01*
X133653608Y-44376256D01*
X133497122Y-44292612D01*
X133359956Y-44180044D01*
X133247388Y-44042878D01*
X133163744Y-43886392D01*
X133147213Y-43831896D01*
X133112234Y-43716588D01*
X133094842Y-43540000D01*
X133112234Y-43363412D01*
X133163743Y-43193611D01*
X133163744Y-43193608D01*
X133247388Y-43037122D01*
X133359956Y-42899956D01*
X133497122Y-42787388D01*
X133653608Y-42703744D01*
X133653611Y-42703743D01*
X133823412Y-42652234D01*
X133911638Y-42643545D01*
X133955750Y-42639200D01*
X134044250Y-42639200D01*
X134088362Y-42643545D01*
X134088362Y-42643545D01*
G37*
G36*
X131548362Y-42643545D02*
G01*
X131636588Y-42652234D01*
X131806389Y-42703743D01*
X131806392Y-42703744D01*
X131962878Y-42787388D01*
X132100044Y-42899956D01*
X132212612Y-43037122D01*
X132296256Y-43193608D01*
X132296257Y-43193611D01*
X132347766Y-43363412D01*
X132365158Y-43540000D01*
X132347766Y-43716588D01*
X132312787Y-43831896D01*
X132296256Y-43886392D01*
X132212612Y-44042878D01*
X132100044Y-44180044D01*
X131962878Y-44292612D01*
X131806392Y-44376256D01*
X131806389Y-44376257D01*
X131636588Y-44427766D01*
X131548362Y-44436455D01*
X131504250Y-44440800D01*
X131415750Y-44440800D01*
X131371638Y-44436455D01*
X131283412Y-44427766D01*
X131113611Y-44376257D01*
X131113608Y-44376256D01*
X130957122Y-44292612D01*
X130819956Y-44180044D01*
X130707388Y-44042878D01*
X130623744Y-43886392D01*
X130607213Y-43831896D01*
X130572234Y-43716588D01*
X130554842Y-43540000D01*
X130572234Y-43363412D01*
X130623743Y-43193611D01*
X130623744Y-43193608D01*
X130707388Y-43037122D01*
X130819956Y-42899956D01*
X130957122Y-42787388D01*
X131113608Y-42703744D01*
X131113611Y-42703743D01*
X131283412Y-42652234D01*
X131371638Y-42643545D01*
X131415750Y-42639200D01*
X131504250Y-42639200D01*
X131548362Y-42643545D01*
X131548362Y-42643545D01*
G37*
G36*
X110746848Y-42253764D02*
G01*
X110785500Y-42265489D01*
X110821123Y-42284530D01*
X110852346Y-42310154D01*
X110877970Y-42341377D01*
X110897011Y-42377000D01*
X110908736Y-42415652D01*
X110913300Y-42461991D01*
X110913300Y-43538009D01*
X110908736Y-43584348D01*
X110897011Y-43623000D01*
X110877970Y-43658623D01*
X110852346Y-43689846D01*
X110821123Y-43715470D01*
X110785500Y-43734511D01*
X110746848Y-43746236D01*
X110700509Y-43750800D01*
X110049491Y-43750800D01*
X110003152Y-43746236D01*
X109964500Y-43734511D01*
X109928877Y-43715470D01*
X109897654Y-43689846D01*
X109872030Y-43658623D01*
X109852989Y-43623000D01*
X109841264Y-43584348D01*
X109836700Y-43538009D01*
X109836700Y-42461991D01*
X109841264Y-42415652D01*
X109852989Y-42377000D01*
X109872030Y-42341377D01*
X109897654Y-42310154D01*
X109928877Y-42284530D01*
X109964500Y-42265489D01*
X110003152Y-42253764D01*
X110049491Y-42249200D01*
X110700509Y-42249200D01*
X110746848Y-42253764D01*
X110746848Y-42253764D01*
G37*
G36*
X108871848Y-42253764D02*
G01*
X108910500Y-42265489D01*
X108946123Y-42284530D01*
X108977346Y-42310154D01*
X109002970Y-42341377D01*
X109022011Y-42377000D01*
X109033736Y-42415652D01*
X109038300Y-42461991D01*
X109038300Y-43538009D01*
X109033736Y-43584348D01*
X109022011Y-43623000D01*
X109002970Y-43658623D01*
X108977346Y-43689846D01*
X108946123Y-43715470D01*
X108910500Y-43734511D01*
X108871848Y-43746236D01*
X108825509Y-43750800D01*
X108174491Y-43750800D01*
X108128152Y-43746236D01*
X108089500Y-43734511D01*
X108053877Y-43715470D01*
X108022654Y-43689846D01*
X107997030Y-43658623D01*
X107977989Y-43623000D01*
X107966264Y-43584348D01*
X107961700Y-43538009D01*
X107961700Y-42461991D01*
X107966264Y-42415652D01*
X107977989Y-42377000D01*
X107997030Y-42341377D01*
X108022654Y-42310154D01*
X108053877Y-42284530D01*
X108089500Y-42265489D01*
X108128152Y-42253764D01*
X108174491Y-42249200D01*
X108825509Y-42249200D01*
X108871848Y-42253764D01*
X108871848Y-42253764D01*
G37*
G36*
X112628169Y-41291895D02*
G01*
X112783005Y-41356031D01*
X112922354Y-41449140D01*
X113040860Y-41567646D01*
X113133969Y-41706995D01*
X113198105Y-41861831D01*
X113230800Y-42026203D01*
X113230800Y-42193797D01*
X113198105Y-42358169D01*
X113133969Y-42513005D01*
X113040860Y-42652354D01*
X112922354Y-42770860D01*
X112783005Y-42863969D01*
X112628169Y-42928105D01*
X112463797Y-42960800D01*
X112296203Y-42960800D01*
X112131831Y-42928105D01*
X111976995Y-42863969D01*
X111837646Y-42770860D01*
X111719140Y-42652354D01*
X111626031Y-42513005D01*
X111561895Y-42358169D01*
X111529200Y-42193797D01*
X111529200Y-42026203D01*
X111561895Y-41861831D01*
X111626031Y-41706995D01*
X111719140Y-41567646D01*
X111837646Y-41449140D01*
X111976995Y-41356031D01*
X112131831Y-41291895D01*
X112296203Y-41259200D01*
X112463797Y-41259200D01*
X112628169Y-41291895D01*
X112628169Y-41291895D01*
G37*
G36*
X127868169Y-41291895D02*
G01*
X128023005Y-41356031D01*
X128162354Y-41449140D01*
X128280860Y-41567646D01*
X128373969Y-41706995D01*
X128438105Y-41861831D01*
X128470800Y-42026203D01*
X128470800Y-42193797D01*
X128438105Y-42358169D01*
X128373969Y-42513005D01*
X128280860Y-42652354D01*
X128162354Y-42770860D01*
X128023005Y-42863969D01*
X127868169Y-42928105D01*
X127703797Y-42960800D01*
X127536203Y-42960800D01*
X127371831Y-42928105D01*
X127216995Y-42863969D01*
X127077646Y-42770860D01*
X126959140Y-42652354D01*
X126866031Y-42513005D01*
X126801895Y-42358169D01*
X126769200Y-42193797D01*
X126769200Y-42026203D01*
X126801895Y-41861831D01*
X126866031Y-41706995D01*
X126959140Y-41567646D01*
X127077646Y-41449140D01*
X127216995Y-41356031D01*
X127371831Y-41291895D01*
X127536203Y-41259200D01*
X127703797Y-41259200D01*
X127868169Y-41291895D01*
X127868169Y-41291895D01*
G37*
G36*
X134088362Y-40103545D02*
G01*
X134176588Y-40112234D01*
X134346389Y-40163743D01*
X134346392Y-40163744D01*
X134502878Y-40247388D01*
X134640044Y-40359956D01*
X134752612Y-40497122D01*
X134836256Y-40653608D01*
X134836257Y-40653611D01*
X134887766Y-40823412D01*
X134905158Y-41000000D01*
X134887766Y-41176588D01*
X134852787Y-41291896D01*
X134836256Y-41346392D01*
X134752612Y-41502878D01*
X134640044Y-41640044D01*
X134502878Y-41752612D01*
X134346392Y-41836256D01*
X134346389Y-41836257D01*
X134176588Y-41887766D01*
X134088362Y-41896455D01*
X134044250Y-41900800D01*
X133955750Y-41900800D01*
X133911638Y-41896455D01*
X133823412Y-41887766D01*
X133653611Y-41836257D01*
X133653608Y-41836256D01*
X133497122Y-41752612D01*
X133359956Y-41640044D01*
X133247388Y-41502878D01*
X133163744Y-41346392D01*
X133147213Y-41291896D01*
X133112234Y-41176588D01*
X133094842Y-41000000D01*
X133112234Y-40823412D01*
X133163743Y-40653611D01*
X133163744Y-40653608D01*
X133247388Y-40497122D01*
X133359956Y-40359956D01*
X133497122Y-40247388D01*
X133653608Y-40163744D01*
X133653611Y-40163743D01*
X133823412Y-40112234D01*
X133911638Y-40103545D01*
X133955750Y-40099200D01*
X134044250Y-40099200D01*
X134088362Y-40103545D01*
X134088362Y-40103545D01*
G37*
G36*
X131548362Y-40103545D02*
G01*
X131636588Y-40112234D01*
X131806389Y-40163743D01*
X131806392Y-40163744D01*
X131962878Y-40247388D01*
X132100044Y-40359956D01*
X132212612Y-40497122D01*
X132296256Y-40653608D01*
X132296257Y-40653611D01*
X132347766Y-40823412D01*
X132365158Y-41000000D01*
X132347766Y-41176588D01*
X132312787Y-41291896D01*
X132296256Y-41346392D01*
X132212612Y-41502878D01*
X132100044Y-41640044D01*
X131962878Y-41752612D01*
X131806392Y-41836256D01*
X131806389Y-41836257D01*
X131636588Y-41887766D01*
X131548362Y-41896455D01*
X131504250Y-41900800D01*
X131415750Y-41900800D01*
X131371638Y-41896455D01*
X131283412Y-41887766D01*
X131113611Y-41836257D01*
X131113608Y-41836256D01*
X130957122Y-41752612D01*
X130819956Y-41640044D01*
X130707388Y-41502878D01*
X130623744Y-41346392D01*
X130607213Y-41291896D01*
X130572234Y-41176588D01*
X130554842Y-41000000D01*
X130572234Y-40823412D01*
X130623743Y-40653611D01*
X130623744Y-40653608D01*
X130707388Y-40497122D01*
X130819956Y-40359956D01*
X130957122Y-40247388D01*
X131113608Y-40163744D01*
X131113611Y-40163743D01*
X131283412Y-40112234D01*
X131371638Y-40103545D01*
X131415750Y-40099200D01*
X131504250Y-40099200D01*
X131548362Y-40103545D01*
X131548362Y-40103545D01*
G37*
G36*
X112628169Y-38751895D02*
G01*
X112783005Y-38816031D01*
X112922354Y-38909140D01*
X113040860Y-39027646D01*
X113133969Y-39166995D01*
X113198105Y-39321831D01*
X113230800Y-39486203D01*
X113230800Y-39653797D01*
X113198105Y-39818169D01*
X113133969Y-39973005D01*
X113040860Y-40112354D01*
X112922354Y-40230860D01*
X112783005Y-40323969D01*
X112628169Y-40388105D01*
X112463797Y-40420800D01*
X112296203Y-40420800D01*
X112131831Y-40388105D01*
X111976995Y-40323969D01*
X111837646Y-40230860D01*
X111719140Y-40112354D01*
X111626031Y-39973005D01*
X111561895Y-39818169D01*
X111529200Y-39653797D01*
X111529200Y-39486203D01*
X111561895Y-39321831D01*
X111626031Y-39166995D01*
X111719140Y-39027646D01*
X111837646Y-38909140D01*
X111976995Y-38816031D01*
X112131831Y-38751895D01*
X112296203Y-38719200D01*
X112463797Y-38719200D01*
X112628169Y-38751895D01*
X112628169Y-38751895D01*
G37*
G36*
X127868169Y-38751895D02*
G01*
X128023005Y-38816031D01*
X128162354Y-38909140D01*
X128280860Y-39027646D01*
X128373969Y-39166995D01*
X128438105Y-39321831D01*
X128470800Y-39486203D01*
X128470800Y-39653797D01*
X128438105Y-39818169D01*
X128373969Y-39973005D01*
X128280860Y-40112354D01*
X128162354Y-40230860D01*
X128023005Y-40323969D01*
X127868169Y-40388105D01*
X127703797Y-40420800D01*
X127536203Y-40420800D01*
X127371831Y-40388105D01*
X127216995Y-40323969D01*
X127077646Y-40230860D01*
X126959140Y-40112354D01*
X126866031Y-39973005D01*
X126801895Y-39818169D01*
X126769200Y-39653797D01*
X126769200Y-39486203D01*
X126801895Y-39321831D01*
X126866031Y-39166995D01*
X126959140Y-39027646D01*
X127077646Y-38909140D01*
X127216995Y-38816031D01*
X127371831Y-38751895D01*
X127536203Y-38719200D01*
X127703797Y-38719200D01*
X127868169Y-38751895D01*
X127868169Y-38751895D01*
G37*
G36*
X131548362Y-37563545D02*
G01*
X131636588Y-37572234D01*
X131806389Y-37623743D01*
X131806392Y-37623744D01*
X131962878Y-37707388D01*
X132100044Y-37819956D01*
X132212612Y-37957122D01*
X132296256Y-38113608D01*
X132296257Y-38113611D01*
X132347766Y-38283412D01*
X132365158Y-38460000D01*
X132347766Y-38636588D01*
X132312787Y-38751896D01*
X132296256Y-38806392D01*
X132212612Y-38962878D01*
X132100044Y-39100044D01*
X131962878Y-39212612D01*
X131806392Y-39296256D01*
X131806389Y-39296257D01*
X131636588Y-39347766D01*
X131548362Y-39356455D01*
X131504250Y-39360800D01*
X131415750Y-39360800D01*
X131371638Y-39356455D01*
X131283412Y-39347766D01*
X131113611Y-39296257D01*
X131113608Y-39296256D01*
X130957122Y-39212612D01*
X130819956Y-39100044D01*
X130707388Y-38962878D01*
X130623744Y-38806392D01*
X130607213Y-38751896D01*
X130572234Y-38636588D01*
X130554842Y-38460000D01*
X130572234Y-38283412D01*
X130623743Y-38113611D01*
X130623744Y-38113608D01*
X130707388Y-37957122D01*
X130819956Y-37819956D01*
X130957122Y-37707388D01*
X131113608Y-37623744D01*
X131113611Y-37623743D01*
X131283412Y-37572234D01*
X131371638Y-37563545D01*
X131415750Y-37559200D01*
X131504250Y-37559200D01*
X131548362Y-37563545D01*
X131548362Y-37563545D01*
G37*
G36*
X134088362Y-37563545D02*
G01*
X134176588Y-37572234D01*
X134346389Y-37623743D01*
X134346392Y-37623744D01*
X134502878Y-37707388D01*
X134640044Y-37819956D01*
X134752612Y-37957122D01*
X134836256Y-38113608D01*
X134836257Y-38113611D01*
X134887766Y-38283412D01*
X134905158Y-38460000D01*
X134887766Y-38636588D01*
X134852787Y-38751896D01*
X134836256Y-38806392D01*
X134752612Y-38962878D01*
X134640044Y-39100044D01*
X134502878Y-39212612D01*
X134346392Y-39296256D01*
X134346389Y-39296257D01*
X134176588Y-39347766D01*
X134088362Y-39356455D01*
X134044250Y-39360800D01*
X133955750Y-39360800D01*
X133911638Y-39356455D01*
X133823412Y-39347766D01*
X133653611Y-39296257D01*
X133653608Y-39296256D01*
X133497122Y-39212612D01*
X133359956Y-39100044D01*
X133247388Y-38962878D01*
X133163744Y-38806392D01*
X133147213Y-38751896D01*
X133112234Y-38636588D01*
X133094842Y-38460000D01*
X133112234Y-38283412D01*
X133163743Y-38113611D01*
X133163744Y-38113608D01*
X133247388Y-37957122D01*
X133359956Y-37819956D01*
X133497122Y-37707388D01*
X133653608Y-37623744D01*
X133653611Y-37623743D01*
X133823412Y-37572234D01*
X133911638Y-37563545D01*
X133955750Y-37559200D01*
X134044250Y-37559200D01*
X134088362Y-37563545D01*
X134088362Y-37563545D01*
G37*
G36*
X127868169Y-36211895D02*
G01*
X128023005Y-36276031D01*
X128162354Y-36369140D01*
X128280860Y-36487646D01*
X128373969Y-36626995D01*
X128438105Y-36781831D01*
X128470800Y-36946203D01*
X128470800Y-37113797D01*
X128438105Y-37278169D01*
X128373969Y-37433005D01*
X128280860Y-37572354D01*
X128162354Y-37690860D01*
X128023005Y-37783969D01*
X127868169Y-37848105D01*
X127703797Y-37880800D01*
X127536203Y-37880800D01*
X127371831Y-37848105D01*
X127216995Y-37783969D01*
X127077646Y-37690860D01*
X126959140Y-37572354D01*
X126866031Y-37433005D01*
X126801895Y-37278169D01*
X126769200Y-37113797D01*
X126769200Y-36946203D01*
X126801895Y-36781831D01*
X126866031Y-36626995D01*
X126959140Y-36487646D01*
X127077646Y-36369140D01*
X127216995Y-36276031D01*
X127371831Y-36211895D01*
X127536203Y-36179200D01*
X127703797Y-36179200D01*
X127868169Y-36211895D01*
X127868169Y-36211895D01*
G37*
G36*
X112628169Y-36211895D02*
G01*
X112783005Y-36276031D01*
X112922354Y-36369140D01*
X113040860Y-36487646D01*
X113133969Y-36626995D01*
X113198105Y-36781831D01*
X113230800Y-36946203D01*
X113230800Y-37113797D01*
X113198105Y-37278169D01*
X113133969Y-37433005D01*
X113040860Y-37572354D01*
X112922354Y-37690860D01*
X112783005Y-37783969D01*
X112628169Y-37848105D01*
X112463797Y-37880800D01*
X112296203Y-37880800D01*
X112131831Y-37848105D01*
X111976995Y-37783969D01*
X111837646Y-37690860D01*
X111719140Y-37572354D01*
X111626031Y-37433005D01*
X111561895Y-37278169D01*
X111529200Y-37113797D01*
X111529200Y-36946203D01*
X111561895Y-36781831D01*
X111626031Y-36626995D01*
X111719140Y-36487646D01*
X111837646Y-36369140D01*
X111976995Y-36276031D01*
X112131831Y-36211895D01*
X112296203Y-36179200D01*
X112463797Y-36179200D01*
X112628169Y-36211895D01*
X112628169Y-36211895D01*
G37*
G36*
X125328169Y-36211895D02*
G01*
X125483005Y-36276031D01*
X125622354Y-36369140D01*
X125740860Y-36487646D01*
X125833969Y-36626995D01*
X125898105Y-36781831D01*
X125930800Y-36946203D01*
X125930800Y-37113797D01*
X125898105Y-37278169D01*
X125833969Y-37433005D01*
X125740860Y-37572354D01*
X125622354Y-37690860D01*
X125483005Y-37783969D01*
X125328169Y-37848105D01*
X125163797Y-37880800D01*
X124996203Y-37880800D01*
X124831831Y-37848105D01*
X124676995Y-37783969D01*
X124537646Y-37690860D01*
X124419140Y-37572354D01*
X124326031Y-37433005D01*
X124261895Y-37278169D01*
X124229200Y-37113797D01*
X124229200Y-36946203D01*
X124261895Y-36781831D01*
X124326031Y-36626995D01*
X124419140Y-36487646D01*
X124537646Y-36369140D01*
X124676995Y-36276031D01*
X124831831Y-36211895D01*
X124996203Y-36179200D01*
X125163797Y-36179200D01*
X125328169Y-36211895D01*
X125328169Y-36211895D01*
G37*
G36*
X134088362Y-35023545D02*
G01*
X134176588Y-35032234D01*
X134346389Y-35083743D01*
X134346392Y-35083744D01*
X134502878Y-35167388D01*
X134640044Y-35279956D01*
X134752612Y-35417122D01*
X134836256Y-35573608D01*
X134836257Y-35573611D01*
X134887766Y-35743412D01*
X134905158Y-35920000D01*
X134887766Y-36096588D01*
X134852787Y-36211896D01*
X134836256Y-36266392D01*
X134752612Y-36422878D01*
X134640044Y-36560044D01*
X134502878Y-36672612D01*
X134346392Y-36756256D01*
X134346389Y-36756257D01*
X134176588Y-36807766D01*
X134088362Y-36816455D01*
X134044250Y-36820800D01*
X133955750Y-36820800D01*
X133911638Y-36816455D01*
X133823412Y-36807766D01*
X133653611Y-36756257D01*
X133653608Y-36756256D01*
X133497122Y-36672612D01*
X133359956Y-36560044D01*
X133247388Y-36422878D01*
X133163744Y-36266392D01*
X133147213Y-36211896D01*
X133112234Y-36096588D01*
X133094842Y-35920000D01*
X133112234Y-35743412D01*
X133163743Y-35573611D01*
X133163744Y-35573608D01*
X133247388Y-35417122D01*
X133359956Y-35279956D01*
X133497122Y-35167388D01*
X133653608Y-35083744D01*
X133653611Y-35083743D01*
X133823412Y-35032234D01*
X133911638Y-35023545D01*
X133955750Y-35019200D01*
X134044250Y-35019200D01*
X134088362Y-35023545D01*
X134088362Y-35023545D01*
G37*
G36*
X131548362Y-35023545D02*
G01*
X131636588Y-35032234D01*
X131806389Y-35083743D01*
X131806392Y-35083744D01*
X131962878Y-35167388D01*
X132100044Y-35279956D01*
X132212612Y-35417122D01*
X132296256Y-35573608D01*
X132296257Y-35573611D01*
X132347766Y-35743412D01*
X132365158Y-35920000D01*
X132347766Y-36096588D01*
X132312787Y-36211896D01*
X132296256Y-36266392D01*
X132212612Y-36422878D01*
X132100044Y-36560044D01*
X131962878Y-36672612D01*
X131806392Y-36756256D01*
X131806389Y-36756257D01*
X131636588Y-36807766D01*
X131548362Y-36816455D01*
X131504250Y-36820800D01*
X131415750Y-36820800D01*
X131371638Y-36816455D01*
X131283412Y-36807766D01*
X131113611Y-36756257D01*
X131113608Y-36756256D01*
X130957122Y-36672612D01*
X130819956Y-36560044D01*
X130707388Y-36422878D01*
X130623744Y-36266392D01*
X130607213Y-36211896D01*
X130572234Y-36096588D01*
X130554842Y-35920000D01*
X130572234Y-35743412D01*
X130623743Y-35573611D01*
X130623744Y-35573608D01*
X130707388Y-35417122D01*
X130819956Y-35279956D01*
X130957122Y-35167388D01*
X131113608Y-35083744D01*
X131113611Y-35083743D01*
X131283412Y-35032234D01*
X131371638Y-35023545D01*
X131415750Y-35019200D01*
X131504250Y-35019200D01*
X131548362Y-35023545D01*
X131548362Y-35023545D01*
G37*
G36*
X113230800Y-35340800D02*
G01*
X111529200Y-35340800D01*
X111529200Y-33639200D01*
X113230800Y-33639200D01*
X113230800Y-35340800D01*
X113230800Y-35340800D01*
G37*
G36*
X127868169Y-33671895D02*
G01*
X128023005Y-33736031D01*
X128162354Y-33829140D01*
X128280860Y-33947646D01*
X128373969Y-34086995D01*
X128438105Y-34241831D01*
X128470800Y-34406203D01*
X128470800Y-34573797D01*
X128438105Y-34738169D01*
X128373969Y-34893005D01*
X128280860Y-35032354D01*
X128162354Y-35150860D01*
X128023005Y-35243969D01*
X127868169Y-35308105D01*
X127703797Y-35340800D01*
X127536203Y-35340800D01*
X127371831Y-35308105D01*
X127216995Y-35243969D01*
X127077646Y-35150860D01*
X126959140Y-35032354D01*
X126866031Y-34893005D01*
X126801895Y-34738169D01*
X126769200Y-34573797D01*
X126769200Y-34406203D01*
X126801895Y-34241831D01*
X126866031Y-34086995D01*
X126959140Y-33947646D01*
X127077646Y-33829140D01*
X127216995Y-33736031D01*
X127371831Y-33671895D01*
X127536203Y-33639200D01*
X127703797Y-33639200D01*
X127868169Y-33671895D01*
X127868169Y-33671895D01*
G37*
G36*
X109335675Y-32893424D02*
G01*
X109422425Y-32929357D01*
X109545108Y-32980174D01*
X109733592Y-33106115D01*
X109893885Y-33266408D01*
X110019826Y-33454892D01*
X110070643Y-33577575D01*
X110106576Y-33664325D01*
X110150800Y-33886655D01*
X110150800Y-34113345D01*
X110106576Y-34335675D01*
X110077362Y-34406203D01*
X110019826Y-34545108D01*
X109893885Y-34733592D01*
X109733592Y-34893885D01*
X109545108Y-35019826D01*
X109422425Y-35070643D01*
X109335675Y-35106576D01*
X109113345Y-35150800D01*
X108886655Y-35150800D01*
X108664325Y-35106576D01*
X108577575Y-35070643D01*
X108454892Y-35019826D01*
X108266408Y-34893885D01*
X108106115Y-34733592D01*
X107980174Y-34545108D01*
X107922638Y-34406203D01*
X107893424Y-34335675D01*
X107849200Y-34113345D01*
X107849200Y-33886655D01*
X107893424Y-33664325D01*
X107929357Y-33577575D01*
X107980174Y-33454892D01*
X108106115Y-33266408D01*
X108266408Y-33106115D01*
X108454892Y-32980174D01*
X108577575Y-32929357D01*
X108664325Y-32893424D01*
X108886655Y-32849200D01*
X109113345Y-32849200D01*
X109335675Y-32893424D01*
X109335675Y-32893424D01*
G37*
M02*
