G04 #@! TF.GenerationSoftware,KiCad,Pcbnew,(5.1.0-0)*
G04 #@! TF.CreationDate,2019-10-12T10:13:56-07:00*
G04 #@! TF.ProjectId,BB-Mainboard-0,42422d4d-6169-46e6-926f-6172642d302e,rev?*
G04 #@! TF.SameCoordinates,Original*
G04 #@! TF.FileFunction,Legend,Top*
G04 #@! TF.FilePolarity,Positive*
%FSLAX46Y46*%
G04 Gerber Fmt 4.6, Leading zero omitted, Abs format (unit mm)*
G04 Created by KiCad (PCBNEW (5.1.0-0)) date 2019-10-12 10:13:56*
%MOMM*%
%LPD*%
G04 APERTURE LIST*
%ADD10C,0.200000*%
%ADD11C,0.150000*%
%ADD12C,0.300000*%
%ADD13C,0.010000*%
%ADD14C,0.120000*%
%ADD15C,0.203200*%
%ADD16C,0.080000*%
%ADD17C,0.100000*%
G04 APERTURE END LIST*
D10*
X125571428Y-50457142D02*
X125514285Y-50400000D01*
X125457142Y-50228571D01*
X125457142Y-50114285D01*
X125514285Y-49942857D01*
X125628571Y-49828571D01*
X125742857Y-49771428D01*
X125971428Y-49714285D01*
X126142857Y-49714285D01*
X126371428Y-49771428D01*
X126485714Y-49828571D01*
X126600000Y-49942857D01*
X126657142Y-50114285D01*
X126657142Y-50228571D01*
X126600000Y-50400000D01*
X126542857Y-50457142D01*
X126657142Y-50971428D02*
X125685714Y-50971428D01*
X125571428Y-51028571D01*
X125514285Y-51085714D01*
X125457142Y-51200000D01*
X125457142Y-51428571D01*
X125514285Y-51542857D01*
X125571428Y-51600000D01*
X125685714Y-51657142D01*
X126657142Y-51657142D01*
X126657142Y-52057142D02*
X126657142Y-52742857D01*
X125457142Y-52400000D02*
X126657142Y-52400000D01*
X126657142Y-53885714D02*
X125457142Y-54285714D01*
X126657142Y-54685714D01*
X125457142Y-55085714D02*
X126657142Y-55085714D01*
X125457142Y-55657142D02*
X126657142Y-55657142D01*
X125457142Y-56342857D01*
X126657142Y-56342857D01*
X126714285Y-57771428D02*
X125171428Y-56742857D01*
X126657142Y-58000000D02*
X125457142Y-58400000D01*
X126657142Y-58800000D01*
X126657142Y-59200000D02*
X125685714Y-59200000D01*
X125571428Y-59257142D01*
X125514285Y-59314285D01*
X125457142Y-59428571D01*
X125457142Y-59657142D01*
X125514285Y-59771428D01*
X125571428Y-59828571D01*
X125685714Y-59885714D01*
X126657142Y-59885714D01*
X125514285Y-60400000D02*
X125457142Y-60571428D01*
X125457142Y-60857142D01*
X125514285Y-60971428D01*
X125571428Y-61028571D01*
X125685714Y-61085714D01*
X125800000Y-61085714D01*
X125914285Y-61028571D01*
X125971428Y-60971428D01*
X126028571Y-60857142D01*
X126085714Y-60628571D01*
X126142857Y-60514285D01*
X126200000Y-60457142D01*
X126314285Y-60400000D01*
X126428571Y-60400000D01*
X126542857Y-60457142D01*
X126600000Y-60514285D01*
X126657142Y-60628571D01*
X126657142Y-60914285D01*
X126600000Y-61085714D01*
X126085714Y-62000000D02*
X126028571Y-62171428D01*
X125971428Y-62228571D01*
X125857142Y-62285714D01*
X125685714Y-62285714D01*
X125571428Y-62228571D01*
X125514285Y-62171428D01*
X125457142Y-62057142D01*
X125457142Y-61600000D01*
X126657142Y-61600000D01*
X126657142Y-62000000D01*
X126600000Y-62114285D01*
X126542857Y-62171428D01*
X126428571Y-62228571D01*
X126314285Y-62228571D01*
X126200000Y-62171428D01*
X126142857Y-62114285D01*
X126085714Y-62000000D01*
X126085714Y-61600000D01*
X124085714Y-49371428D02*
X124028571Y-49542857D01*
X123971428Y-49600000D01*
X123857142Y-49657142D01*
X123685714Y-49657142D01*
X123571428Y-49600000D01*
X123514285Y-49542857D01*
X123457142Y-49428571D01*
X123457142Y-48971428D01*
X124657142Y-48971428D01*
X124657142Y-49371428D01*
X124600000Y-49485714D01*
X124542857Y-49542857D01*
X124428571Y-49600000D01*
X124314285Y-49600000D01*
X124200000Y-49542857D01*
X124142857Y-49485714D01*
X124085714Y-49371428D01*
X124085714Y-48971428D01*
X124085714Y-50171428D02*
X124085714Y-50571428D01*
X123457142Y-50742857D02*
X123457142Y-50171428D01*
X124657142Y-50171428D01*
X124657142Y-50742857D01*
X124085714Y-51657142D02*
X124085714Y-51257142D01*
X123457142Y-51257142D02*
X124657142Y-51257142D01*
X124657142Y-51828571D01*
X124657142Y-52514285D02*
X124657142Y-52742857D01*
X124600000Y-52857142D01*
X124485714Y-52971428D01*
X124257142Y-53028571D01*
X123857142Y-53028571D01*
X123628571Y-52971428D01*
X123514285Y-52857142D01*
X123457142Y-52742857D01*
X123457142Y-52514285D01*
X123514285Y-52400000D01*
X123628571Y-52285714D01*
X123857142Y-52228571D01*
X124257142Y-52228571D01*
X124485714Y-52285714D01*
X124600000Y-52400000D01*
X124657142Y-52514285D01*
X123457142Y-54228571D02*
X124028571Y-53828571D01*
X123457142Y-53542857D02*
X124657142Y-53542857D01*
X124657142Y-54000000D01*
X124600000Y-54114285D01*
X124542857Y-54171428D01*
X124428571Y-54228571D01*
X124257142Y-54228571D01*
X124142857Y-54171428D01*
X124085714Y-54114285D01*
X124028571Y-54000000D01*
X124028571Y-53542857D01*
X124085714Y-54742857D02*
X124085714Y-55142857D01*
X123457142Y-55314285D02*
X123457142Y-54742857D01*
X124657142Y-54742857D01*
X124657142Y-55314285D01*
X123457142Y-56742857D02*
X124657142Y-56742857D01*
X123457142Y-57314285D02*
X124657142Y-57314285D01*
X123457142Y-58000000D01*
X124657142Y-58000000D01*
X123514285Y-58514285D02*
X123457142Y-58685714D01*
X123457142Y-58971428D01*
X123514285Y-59085714D01*
X123571428Y-59142857D01*
X123685714Y-59200000D01*
X123800000Y-59200000D01*
X123914285Y-59142857D01*
X123971428Y-59085714D01*
X124028571Y-58971428D01*
X124085714Y-58742857D01*
X124142857Y-58628571D01*
X124200000Y-58571428D01*
X124314285Y-58514285D01*
X124428571Y-58514285D01*
X124542857Y-58571428D01*
X124600000Y-58628571D01*
X124657142Y-58742857D01*
X124657142Y-59028571D01*
X124600000Y-59200000D01*
X124657142Y-59542857D02*
X124657142Y-60228571D01*
X123457142Y-59885714D02*
X124657142Y-59885714D01*
X123800000Y-60571428D02*
X123800000Y-61142857D01*
X123457142Y-60457142D02*
X124657142Y-60857142D01*
X123457142Y-61257142D01*
X123457142Y-62228571D02*
X123457142Y-61657142D01*
X124657142Y-61657142D01*
X123457142Y-63200000D02*
X123457142Y-62628571D01*
X124657142Y-62628571D01*
D11*
X114083333Y-34452380D02*
X114273809Y-34452380D01*
X114369047Y-34500000D01*
X114464285Y-34595238D01*
X114511904Y-34785714D01*
X114511904Y-35119047D01*
X114464285Y-35309523D01*
X114369047Y-35404761D01*
X114273809Y-35452380D01*
X114083333Y-35452380D01*
X113988095Y-35404761D01*
X113892857Y-35309523D01*
X113845238Y-35119047D01*
X113845238Y-34785714D01*
X113892857Y-34595238D01*
X113988095Y-34500000D01*
X114083333Y-34452380D01*
X114797619Y-34785714D02*
X115178571Y-34785714D01*
X114940476Y-35452380D02*
X114940476Y-34595238D01*
X114988095Y-34500000D01*
X115083333Y-34452380D01*
X115178571Y-34452380D01*
X115369047Y-34785714D02*
X115750000Y-34785714D01*
X115511904Y-35452380D02*
X115511904Y-34595238D01*
X115559523Y-34500000D01*
X115654761Y-34452380D01*
X115750000Y-34452380D01*
D10*
X114744285Y-73239285D02*
X114682380Y-73167857D01*
X114558571Y-73096428D01*
X114434761Y-73096428D01*
X114310952Y-73167857D01*
X114249047Y-73239285D01*
X114187142Y-73382142D01*
X114187142Y-73525000D01*
X114249047Y-73667857D01*
X114310952Y-73739285D01*
X114434761Y-73810714D01*
X114558571Y-73810714D01*
X114682380Y-73739285D01*
X114744285Y-73667857D01*
X114744285Y-73096428D02*
X114744285Y-73667857D01*
X114806190Y-73739285D01*
X114868095Y-73739285D01*
X114991904Y-73667857D01*
X115053809Y-73525000D01*
X115053809Y-73167857D01*
X114930000Y-72953571D01*
X114744285Y-72810714D01*
X114496666Y-72739285D01*
X114249047Y-72810714D01*
X114063333Y-72953571D01*
X113939523Y-73167857D01*
X113877619Y-73453571D01*
X113939523Y-73739285D01*
X114063333Y-73953571D01*
X114249047Y-74096428D01*
X114496666Y-74167857D01*
X114744285Y-74096428D01*
X114930000Y-73953571D01*
X115610952Y-73953571D02*
X115610952Y-72453571D01*
X115610952Y-73025000D02*
X115734761Y-72953571D01*
X115982380Y-72953571D01*
X116106190Y-73025000D01*
X116168095Y-73096428D01*
X116230000Y-73239285D01*
X116230000Y-73667857D01*
X116168095Y-73810714D01*
X116106190Y-73882142D01*
X115982380Y-73953571D01*
X115734761Y-73953571D01*
X115610952Y-73882142D01*
X116972857Y-73953571D02*
X116849047Y-73882142D01*
X116787142Y-73810714D01*
X116725238Y-73667857D01*
X116725238Y-73239285D01*
X116787142Y-73096428D01*
X116849047Y-73025000D01*
X116972857Y-72953571D01*
X117158571Y-72953571D01*
X117282380Y-73025000D01*
X117344285Y-73096428D01*
X117406190Y-73239285D01*
X117406190Y-73667857D01*
X117344285Y-73810714D01*
X117282380Y-73882142D01*
X117158571Y-73953571D01*
X116972857Y-73953571D01*
X117963333Y-73953571D02*
X117963333Y-72953571D01*
X117963333Y-73239285D02*
X118025238Y-73096428D01*
X118087142Y-73025000D01*
X118210952Y-72953571D01*
X118334761Y-72953571D01*
X119325238Y-72953571D02*
X119325238Y-74167857D01*
X119263333Y-74310714D01*
X119201428Y-74382142D01*
X119077619Y-74453571D01*
X118891904Y-74453571D01*
X118768095Y-74382142D01*
X119325238Y-73882142D02*
X119201428Y-73953571D01*
X118953809Y-73953571D01*
X118830000Y-73882142D01*
X118768095Y-73810714D01*
X118706190Y-73667857D01*
X118706190Y-73239285D01*
X118768095Y-73096428D01*
X118830000Y-73025000D01*
X118953809Y-72953571D01*
X119201428Y-72953571D01*
X119325238Y-73025000D01*
X120439523Y-73882142D02*
X120315714Y-73953571D01*
X120068095Y-73953571D01*
X119944285Y-73882142D01*
X119882380Y-73739285D01*
X119882380Y-73167857D01*
X119944285Y-73025000D01*
X120068095Y-72953571D01*
X120315714Y-72953571D01*
X120439523Y-73025000D01*
X120501428Y-73167857D01*
X120501428Y-73310714D01*
X119882380Y-73453571D01*
X121244285Y-73953571D02*
X121120476Y-73882142D01*
X121058571Y-73739285D01*
X121058571Y-72453571D01*
X114372857Y-75617857D02*
X114558571Y-75689285D01*
X114620476Y-75760714D01*
X114682380Y-75903571D01*
X114682380Y-76117857D01*
X114620476Y-76260714D01*
X114558571Y-76332142D01*
X114434761Y-76403571D01*
X113939523Y-76403571D01*
X113939523Y-74903571D01*
X114372857Y-74903571D01*
X114496666Y-74975000D01*
X114558571Y-75046428D01*
X114620476Y-75189285D01*
X114620476Y-75332142D01*
X114558571Y-75475000D01*
X114496666Y-75546428D01*
X114372857Y-75617857D01*
X113939523Y-75617857D01*
X115425238Y-76403571D02*
X115301428Y-76332142D01*
X115239523Y-76260714D01*
X115177619Y-76117857D01*
X115177619Y-75689285D01*
X115239523Y-75546428D01*
X115301428Y-75475000D01*
X115425238Y-75403571D01*
X115610952Y-75403571D01*
X115734761Y-75475000D01*
X115796666Y-75546428D01*
X115858571Y-75689285D01*
X115858571Y-76117857D01*
X115796666Y-76260714D01*
X115734761Y-76332142D01*
X115610952Y-76403571D01*
X115425238Y-76403571D01*
X116230000Y-75403571D02*
X116725238Y-75403571D01*
X116415714Y-74903571D02*
X116415714Y-76189285D01*
X116477619Y-76332142D01*
X116601428Y-76403571D01*
X116725238Y-76403571D01*
X118582380Y-75617857D02*
X118768095Y-75689285D01*
X118830000Y-75760714D01*
X118891904Y-75903571D01*
X118891904Y-76117857D01*
X118830000Y-76260714D01*
X118768095Y-76332142D01*
X118644285Y-76403571D01*
X118149047Y-76403571D01*
X118149047Y-74903571D01*
X118582380Y-74903571D01*
X118706190Y-74975000D01*
X118768095Y-75046428D01*
X118830000Y-75189285D01*
X118830000Y-75332142D01*
X118768095Y-75475000D01*
X118706190Y-75546428D01*
X118582380Y-75617857D01*
X118149047Y-75617857D01*
X120006190Y-76403571D02*
X120006190Y-75617857D01*
X119944285Y-75475000D01*
X119820476Y-75403571D01*
X119572857Y-75403571D01*
X119449047Y-75475000D01*
X120006190Y-76332142D02*
X119882380Y-76403571D01*
X119572857Y-76403571D01*
X119449047Y-76332142D01*
X119387142Y-76189285D01*
X119387142Y-76046428D01*
X119449047Y-75903571D01*
X119572857Y-75832142D01*
X119882380Y-75832142D01*
X120006190Y-75760714D01*
X120810952Y-76403571D02*
X120687142Y-76332142D01*
X120625238Y-76189285D01*
X120625238Y-74903571D01*
X121491904Y-76403571D02*
X121368095Y-76332142D01*
X121306190Y-76189285D01*
X121306190Y-74903571D01*
X122791904Y-74903571D02*
X123225238Y-76403571D01*
X123658571Y-74903571D01*
X124339523Y-74903571D02*
X124463333Y-74903571D01*
X124587142Y-74975000D01*
X124649047Y-75046428D01*
X124710952Y-75189285D01*
X124772857Y-75475000D01*
X124772857Y-75832142D01*
X124710952Y-76117857D01*
X124649047Y-76260714D01*
X124587142Y-76332142D01*
X124463333Y-76403571D01*
X124339523Y-76403571D01*
X124215714Y-76332142D01*
X124153809Y-76260714D01*
X124091904Y-76117857D01*
X124030000Y-75832142D01*
X124030000Y-75475000D01*
X124091904Y-75189285D01*
X124153809Y-75046428D01*
X124215714Y-74975000D01*
X124339523Y-74903571D01*
X125330000Y-76260714D02*
X125391904Y-76332142D01*
X125330000Y-76403571D01*
X125268095Y-76332142D01*
X125330000Y-76260714D01*
X125330000Y-76403571D01*
X126630000Y-76403571D02*
X125887142Y-76403571D01*
X126258571Y-76403571D02*
X126258571Y-74903571D01*
X126134761Y-75117857D01*
X126010952Y-75260714D01*
X125887142Y-75332142D01*
D12*
X108892857Y-56142857D02*
X108892857Y-57285714D01*
X108321428Y-56714285D02*
X109464285Y-56714285D01*
X108892857Y-63714285D02*
X108892857Y-64857142D01*
D11*
X130119047Y-33202380D02*
X130452380Y-34202380D01*
X130785714Y-33202380D01*
X131023809Y-33202380D02*
X131690476Y-34202380D01*
X131690476Y-33202380D02*
X131023809Y-34202380D01*
X132547619Y-34202380D02*
X132071428Y-34202380D01*
X132071428Y-33202380D01*
X133500000Y-33202380D02*
X134071428Y-33202380D01*
X133785714Y-34202380D02*
X133785714Y-33202380D01*
X134547619Y-34202380D02*
X134452380Y-34154761D01*
X134404761Y-34107142D01*
X134357142Y-34011904D01*
X134357142Y-33726190D01*
X134404761Y-33630952D01*
X134452380Y-33583333D01*
X134547619Y-33535714D01*
X134690476Y-33535714D01*
X134785714Y-33583333D01*
X134833333Y-33630952D01*
X134880952Y-33726190D01*
X134880952Y-34011904D01*
X134833333Y-34107142D01*
X134785714Y-34154761D01*
X134690476Y-34202380D01*
X134547619Y-34202380D01*
X135309523Y-33535714D02*
X135309523Y-34535714D01*
X135309523Y-33583333D02*
X135404761Y-33535714D01*
X135595238Y-33535714D01*
X135690476Y-33583333D01*
X135738095Y-33630952D01*
X135785714Y-33726190D01*
X135785714Y-34011904D01*
X135738095Y-34107142D01*
X135690476Y-34154761D01*
X135595238Y-34202380D01*
X135404761Y-34202380D01*
X135309523Y-34154761D01*
D13*
G36*
X130698647Y-71221047D02*
G01*
X131256241Y-71377069D01*
X131760081Y-71659760D01*
X132251076Y-72083591D01*
X132674307Y-72574561D01*
X132954113Y-73075211D01*
X133108880Y-73630368D01*
X133156994Y-74284857D01*
X133156999Y-74292334D01*
X133109896Y-74948090D01*
X132956331Y-75504048D01*
X132677918Y-76005034D01*
X132256271Y-76495874D01*
X132251076Y-76501076D01*
X131876647Y-76840435D01*
X131528476Y-77071658D01*
X131233255Y-77204216D01*
X130566383Y-77382903D01*
X129897487Y-77431448D01*
X129275876Y-77346571D01*
X129240053Y-77336854D01*
X128686296Y-77124902D01*
X129619000Y-77124902D01*
X130021167Y-77126784D01*
X130255703Y-77121724D01*
X130400631Y-77106737D01*
X130423334Y-77096071D01*
X130361069Y-77031475D01*
X130241271Y-76945071D01*
X130765278Y-76945071D01*
X130771317Y-77023793D01*
X130906864Y-77009486D01*
X131165500Y-76913055D01*
X131355554Y-76820490D01*
X131402343Y-76752290D01*
X131353281Y-76702685D01*
X131121018Y-76626629D01*
X130926562Y-76715494D01*
X130879860Y-76768834D01*
X130765278Y-76945071D01*
X130241271Y-76945071D01*
X130227810Y-76935363D01*
X130073935Y-76856298D01*
X129947146Y-76881516D01*
X129825643Y-76966076D01*
X129619000Y-77124902D01*
X128686296Y-77124902D01*
X128610549Y-77095910D01*
X128114425Y-76767840D01*
X128679673Y-76767840D01*
X128756832Y-76840439D01*
X128900994Y-76909572D01*
X129150023Y-77009448D01*
X129279486Y-77035851D01*
X129319795Y-76993930D01*
X129319974Y-76980500D01*
X129254808Y-76832811D01*
X129117236Y-76688738D01*
X128978255Y-76621999D01*
X128974666Y-76621963D01*
X128801468Y-76666393D01*
X128731661Y-76702515D01*
X128679673Y-76767840D01*
X128114425Y-76767840D01*
X128072251Y-76739952D01*
X127686019Y-76364747D01*
X127438730Y-76028000D01*
X127766986Y-76028000D01*
X128015660Y-76288226D01*
X128176191Y-76440656D01*
X128260504Y-76471166D01*
X128292661Y-76410280D01*
X128291066Y-76213502D01*
X128274151Y-76150055D01*
X128231288Y-76115014D01*
X128501487Y-76115014D01*
X128522825Y-76227420D01*
X128628747Y-76408403D01*
X128807013Y-76442413D01*
X128876916Y-76408582D01*
X129283153Y-76408582D01*
X129318255Y-76571008D01*
X129368618Y-76656640D01*
X129482674Y-76803996D01*
X129582219Y-76823200D01*
X129694001Y-76761408D01*
X129842080Y-76622244D01*
X129887570Y-76535587D01*
X130181224Y-76535587D01*
X130292863Y-76692085D01*
X130358791Y-76743766D01*
X130504508Y-76826209D01*
X130605328Y-76791249D01*
X130695452Y-76685067D01*
X130794469Y-76518625D01*
X130816440Y-76409000D01*
X130723182Y-76334332D01*
X130691445Y-76332800D01*
X130533884Y-76344241D01*
X130381000Y-76353967D01*
X130211224Y-76411989D01*
X130181224Y-76535587D01*
X129887570Y-76535587D01*
X129898405Y-76514949D01*
X129848911Y-76407502D01*
X129644405Y-76343646D01*
X129390919Y-76333873D01*
X129283153Y-76408582D01*
X128876916Y-76408582D01*
X129020404Y-76339139D01*
X129106309Y-76259679D01*
X129101889Y-76243211D01*
X130972704Y-76243211D01*
X131034977Y-76317161D01*
X131064263Y-76339139D01*
X131292855Y-76445015D01*
X131466426Y-76400029D01*
X131500981Y-76337517D01*
X131778000Y-76337517D01*
X131778000Y-76567681D01*
X132038226Y-76319007D01*
X132190656Y-76158476D01*
X132221166Y-76074163D01*
X132160280Y-76042006D01*
X131927988Y-76053243D01*
X131799678Y-76195057D01*
X131778000Y-76337517D01*
X131500981Y-76337517D01*
X131561842Y-76227420D01*
X131581196Y-76010919D01*
X131497365Y-75928517D01*
X131310939Y-75980506D01*
X131195752Y-76046544D01*
X131020144Y-76166695D01*
X130972704Y-76243211D01*
X129101889Y-76243211D01*
X129086941Y-76187531D01*
X128943843Y-76081625D01*
X128888915Y-76046544D01*
X128657242Y-75934944D01*
X128527903Y-75957865D01*
X128501487Y-76115014D01*
X128231288Y-76115014D01*
X128163608Y-76059685D01*
X127997150Y-76028000D01*
X127766986Y-76028000D01*
X127438730Y-76028000D01*
X127292776Y-75829247D01*
X127045611Y-75247720D01*
X127010001Y-75039316D01*
X127319796Y-75039316D01*
X127325024Y-75133928D01*
X127385038Y-75324049D01*
X127416652Y-75403630D01*
X127511250Y-75599297D01*
X127580372Y-75651815D01*
X127610368Y-75623606D01*
X127892863Y-75623606D01*
X127970909Y-75769050D01*
X128031500Y-75800304D01*
X128272429Y-75845879D01*
X128398147Y-75819306D01*
X128422887Y-75791442D01*
X128408656Y-75683411D01*
X128321205Y-75500108D01*
X128291131Y-75450503D01*
X128162387Y-75277862D01*
X128064438Y-75238732D01*
X128000580Y-75274095D01*
X127901322Y-75434269D01*
X127892863Y-75623606D01*
X127610368Y-75623606D01*
X127631982Y-75603281D01*
X127703635Y-75420600D01*
X127712704Y-75349866D01*
X127657482Y-75230875D01*
X127530950Y-75109037D01*
X127394894Y-75033185D01*
X127319796Y-75039316D01*
X127010001Y-75039316D01*
X126961336Y-74754508D01*
X127508458Y-74754508D01*
X127543418Y-74855328D01*
X127649600Y-74945452D01*
X127841473Y-75052161D01*
X127968834Y-75044287D01*
X128001867Y-74941445D01*
X127990426Y-74783884D01*
X127980700Y-74631000D01*
X127922678Y-74461224D01*
X127799080Y-74431224D01*
X127642582Y-74542863D01*
X127590901Y-74608791D01*
X127508458Y-74754508D01*
X126961336Y-74754508D01*
X126933058Y-74589020D01*
X126923865Y-74313500D01*
X127207883Y-74313500D01*
X127209765Y-74715667D01*
X127368591Y-74509024D01*
X127467217Y-74355081D01*
X128137224Y-74355081D01*
X128225244Y-74857432D01*
X128438416Y-75316796D01*
X128787629Y-75731906D01*
X129226272Y-76018608D01*
X129725230Y-76169414D01*
X130255389Y-76176833D01*
X130787633Y-76033375D01*
X130941525Y-75960756D01*
X131318065Y-75687107D01*
X131669638Y-75687107D01*
X131673506Y-75815542D01*
X131810646Y-75844795D01*
X132010834Y-75805303D01*
X132158894Y-75693777D01*
X132202542Y-75510429D01*
X132132349Y-75323620D01*
X132105502Y-75296070D01*
X132394280Y-75296070D01*
X132404349Y-75473340D01*
X132462786Y-75644059D01*
X132526551Y-75664377D01*
X132612279Y-75529458D01*
X132671320Y-75395720D01*
X132765937Y-75136665D01*
X132769940Y-75015628D01*
X132678188Y-75024447D01*
X132508569Y-75137366D01*
X132394280Y-75296070D01*
X132105502Y-75296070D01*
X132084087Y-75274095D01*
X131986774Y-75238705D01*
X131882057Y-75322624D01*
X131793536Y-75450503D01*
X131669638Y-75687107D01*
X131318065Y-75687107D01*
X131377898Y-75643624D01*
X131698527Y-75226247D01*
X131803548Y-74962878D01*
X132075316Y-74962878D01*
X132130351Y-75081432D01*
X132268185Y-75056827D01*
X132435067Y-74945575D01*
X132563521Y-74827278D01*
X132564513Y-74722015D01*
X132493766Y-74608791D01*
X132331903Y-74447174D01*
X132199131Y-74450074D01*
X132110033Y-74614366D01*
X132094024Y-74694500D01*
X132075316Y-74962878D01*
X131803548Y-74962878D01*
X131892020Y-74741014D01*
X131945270Y-74236578D01*
X132612970Y-74236578D01*
X132618914Y-74362160D01*
X132685363Y-74477810D01*
X132789281Y-74620567D01*
X132846071Y-74673334D01*
X132864725Y-74597354D01*
X132875566Y-74404073D01*
X132876784Y-74271167D01*
X132874902Y-73869000D01*
X132716076Y-74075643D01*
X132612970Y-74236578D01*
X131945270Y-74236578D01*
X131946987Y-74220314D01*
X131867250Y-73780466D01*
X132080166Y-73780466D01*
X132093646Y-73894405D01*
X132167921Y-74098208D01*
X132291447Y-74144246D01*
X132446940Y-74030465D01*
X132511408Y-73944001D01*
X132578725Y-73809475D01*
X132534590Y-73712307D01*
X132406640Y-73618618D01*
X132209945Y-73529834D01*
X132102198Y-73582834D01*
X132080166Y-73780466D01*
X131867250Y-73780466D01*
X131852034Y-73696537D01*
X131792064Y-73542407D01*
X131618189Y-73149334D01*
X129915334Y-73149334D01*
X129915334Y-74334667D01*
X130211667Y-74334667D01*
X130407534Y-74355932D01*
X130505441Y-74408222D01*
X130508000Y-74419334D01*
X130434428Y-74478781D01*
X130257160Y-74503994D01*
X130254000Y-74504000D01*
X130058190Y-74550195D01*
X129999098Y-74674443D01*
X130076466Y-74855242D01*
X130260496Y-75046807D01*
X130578996Y-75232249D01*
X130890145Y-75248997D01*
X131189441Y-75097177D01*
X131276513Y-75018513D01*
X131480360Y-74712206D01*
X131523387Y-74380544D01*
X131404466Y-74052775D01*
X131318223Y-73937221D01*
X131166741Y-73787912D01*
X131062876Y-73764883D01*
X131006113Y-73804344D01*
X130895841Y-73860319D01*
X130763063Y-73784991D01*
X130745537Y-73769435D01*
X130641349Y-73652745D01*
X130665920Y-73552634D01*
X130732104Y-73474258D01*
X130891886Y-73339705D01*
X130991480Y-73344024D01*
X131016000Y-73439961D01*
X131086448Y-73561109D01*
X131183125Y-73614299D01*
X131443105Y-73777146D01*
X131614963Y-74044650D01*
X131690356Y-74372108D01*
X131660940Y-74714814D01*
X131518372Y-75028064D01*
X131460500Y-75100559D01*
X131162202Y-75327578D01*
X130815806Y-75426210D01*
X130469746Y-75389348D01*
X130251963Y-75277881D01*
X130058566Y-75142540D01*
X129960051Y-75115495D01*
X129917002Y-75201896D01*
X129899791Y-75323907D01*
X129805400Y-75513550D01*
X129604832Y-75621234D01*
X129340518Y-75646174D01*
X129054888Y-75587586D01*
X128790374Y-75444686D01*
X128683794Y-75346387D01*
X128553655Y-75087794D01*
X128554306Y-74927334D01*
X128730000Y-74927334D01*
X128804612Y-75181399D01*
X129014810Y-75354777D01*
X129340139Y-75432539D01*
X129426172Y-75435334D01*
X129746000Y-75435334D01*
X129746000Y-74419334D01*
X129426172Y-74419334D01*
X129077996Y-74473778D01*
X128840396Y-74627161D01*
X128733829Y-74864555D01*
X128730000Y-74927334D01*
X128554306Y-74927334D01*
X128554868Y-74788828D01*
X128684901Y-74512793D01*
X128718709Y-74473685D01*
X128838543Y-74329454D01*
X128843926Y-74239412D01*
X128766334Y-74160354D01*
X128573991Y-73906874D01*
X128535960Y-73665655D01*
X128730000Y-73665655D01*
X128805301Y-73913450D01*
X129015831Y-74084535D01*
X129338537Y-74162364D01*
X129426172Y-74165334D01*
X129746000Y-74165334D01*
X129746000Y-73657334D01*
X129740516Y-73374460D01*
X129714197Y-73220580D01*
X129652238Y-73155462D01*
X129555500Y-73139584D01*
X129150662Y-73166038D01*
X128880451Y-73293216D01*
X128745992Y-73520400D01*
X128730000Y-73665655D01*
X128535960Y-73665655D01*
X128528325Y-73617233D01*
X128625591Y-73333041D01*
X128862048Y-73095907D01*
X128862083Y-73095884D01*
X128980296Y-73034879D01*
X129135354Y-72994596D01*
X129359160Y-72972077D01*
X129683615Y-72964364D01*
X130140622Y-72968500D01*
X130220529Y-72969921D01*
X130707190Y-72972871D01*
X131068265Y-72962103D01*
X131288773Y-72938449D01*
X131354667Y-72907026D01*
X131342030Y-72892897D01*
X131682186Y-72892897D01*
X131759833Y-73076893D01*
X131796544Y-73138915D01*
X131916695Y-73314523D01*
X131993211Y-73361963D01*
X132067161Y-73299690D01*
X132089139Y-73270404D01*
X132116953Y-73213649D01*
X132376629Y-73213649D01*
X132465494Y-73408105D01*
X132518834Y-73454807D01*
X132688571Y-73555646D01*
X132784584Y-73556785D01*
X132794000Y-73527614D01*
X132764238Y-73427867D01*
X132690111Y-73234892D01*
X132663055Y-73169167D01*
X132570490Y-72979113D01*
X132502290Y-72932324D01*
X132452685Y-72981386D01*
X132376629Y-73213649D01*
X132116953Y-73213649D01*
X132181213Y-73082531D01*
X132201334Y-72972996D01*
X132129513Y-72855237D01*
X131965307Y-72770032D01*
X131785601Y-72745319D01*
X131684825Y-72785309D01*
X131682186Y-72892897D01*
X131342030Y-72892897D01*
X131284451Y-72828522D01*
X131101862Y-72708796D01*
X130888572Y-72595082D01*
X130366743Y-72419918D01*
X129861879Y-72395277D01*
X129390914Y-72502350D01*
X128970781Y-72722328D01*
X128618412Y-73036399D01*
X128350741Y-73425755D01*
X128184700Y-73871586D01*
X128137224Y-74355081D01*
X127467217Y-74355081D01*
X127471697Y-74348089D01*
X127465753Y-74222507D01*
X127399304Y-74106857D01*
X127295386Y-73964100D01*
X127238596Y-73911334D01*
X127219942Y-73987313D01*
X127209101Y-74180594D01*
X127207883Y-74313500D01*
X126923865Y-74313500D01*
X126923158Y-74292334D01*
X126954507Y-73862688D01*
X127520168Y-73862688D01*
X127590901Y-73975876D01*
X127751027Y-74133223D01*
X127888705Y-74148336D01*
X127971262Y-74023076D01*
X127980700Y-73953667D01*
X127993849Y-73750574D01*
X128001867Y-73643222D01*
X127958839Y-73533841D01*
X127822695Y-73538718D01*
X127649600Y-73639215D01*
X127521137Y-73757436D01*
X127520168Y-73862688D01*
X126954507Y-73862688D01*
X126971047Y-73636020D01*
X127003907Y-73518581D01*
X127305296Y-73518581D01*
X127366281Y-73528862D01*
X127502334Y-73472595D01*
X127658435Y-73357052D01*
X127712704Y-73241577D01*
X127672524Y-73072850D01*
X127879256Y-73072850D01*
X127957784Y-73271075D01*
X127988035Y-73304835D01*
X128089247Y-73346970D01*
X128205557Y-73263594D01*
X128355350Y-73039411D01*
X128397766Y-72963972D01*
X128427192Y-72815619D01*
X128318425Y-72750919D01*
X128098894Y-72774922D01*
X127930491Y-72887396D01*
X127879256Y-73072850D01*
X127672524Y-73072850D01*
X127667370Y-73051210D01*
X127631982Y-72981386D01*
X127567581Y-72931444D01*
X127495687Y-73009705D01*
X127421612Y-73169167D01*
X127326176Y-73407840D01*
X127305296Y-73518581D01*
X127003907Y-73518581D01*
X127127069Y-73078426D01*
X127409760Y-72574586D01*
X127425227Y-72556667D01*
X127766986Y-72556667D01*
X127997150Y-72556667D01*
X128069770Y-72540947D01*
X128501659Y-72540947D01*
X128521593Y-72646608D01*
X128566088Y-72690186D01*
X128643633Y-72677933D01*
X128794080Y-72595623D01*
X128964314Y-72488576D01*
X129091952Y-72377005D01*
X129087892Y-72347545D01*
X130988899Y-72347545D01*
X131072439Y-72452197D01*
X131203732Y-72543176D01*
X131431670Y-72651566D01*
X131558362Y-72625007D01*
X131582489Y-72464184D01*
X131561842Y-72357247D01*
X131448588Y-72184027D01*
X131417131Y-72174387D01*
X131792006Y-72174387D01*
X131803243Y-72406679D01*
X131945057Y-72534989D01*
X132087517Y-72556667D01*
X132317681Y-72556667D01*
X132069007Y-72296441D01*
X131908476Y-72144011D01*
X131824163Y-72113501D01*
X131792006Y-72174387D01*
X131417131Y-72174387D01*
X131264985Y-72127762D01*
X131073946Y-72200930D01*
X131024095Y-72250580D01*
X130988899Y-72347545D01*
X129087892Y-72347545D01*
X129077627Y-72273068D01*
X129059780Y-72249626D01*
X129009079Y-72217618D01*
X129280098Y-72217618D01*
X129380786Y-72249316D01*
X129569261Y-72247668D01*
X129768660Y-72218884D01*
X129902123Y-72169175D01*
X129904626Y-72167157D01*
X129906434Y-72141146D01*
X130194996Y-72141146D01*
X130344557Y-72230029D01*
X130402167Y-72241353D01*
X130649999Y-72264468D01*
X130777072Y-72233295D01*
X130818203Y-72170375D01*
X130789403Y-72051948D01*
X130695452Y-71899600D01*
X130577231Y-71771137D01*
X130471979Y-71770168D01*
X130358791Y-71840901D01*
X130198884Y-72003534D01*
X130194996Y-72141146D01*
X129906434Y-72141146D01*
X129911436Y-72069201D01*
X129825648Y-71928674D01*
X129686971Y-71808686D01*
X129674771Y-71801858D01*
X129537844Y-71764114D01*
X129424763Y-71848529D01*
X129370136Y-71925711D01*
X129285787Y-72100678D01*
X129280098Y-72217618D01*
X129009079Y-72217618D01*
X128881070Y-72136806D01*
X128688950Y-72152977D01*
X128548014Y-72286151D01*
X128524922Y-72348894D01*
X128501659Y-72540947D01*
X128069770Y-72540947D01*
X128183003Y-72516436D01*
X128274151Y-72434612D01*
X128300177Y-72243073D01*
X128292661Y-72174387D01*
X128251618Y-72110775D01*
X128157591Y-72158848D01*
X128015660Y-72296441D01*
X127766986Y-72556667D01*
X127425227Y-72556667D01*
X127833591Y-72083591D01*
X128125014Y-71832377D01*
X128682324Y-71832377D01*
X128731386Y-71881982D01*
X128961324Y-71958833D01*
X129143024Y-71875262D01*
X129222595Y-71752334D01*
X129280909Y-71608916D01*
X129264238Y-71554141D01*
X129145107Y-71580698D01*
X128919167Y-71671612D01*
X128729113Y-71764177D01*
X128682324Y-71832377D01*
X128125014Y-71832377D01*
X128328537Y-71656936D01*
X128681493Y-71459765D01*
X129619000Y-71459765D01*
X129825643Y-71618591D01*
X129986578Y-71721697D01*
X130112160Y-71715753D01*
X130227810Y-71649304D01*
X130317964Y-71583677D01*
X130794325Y-71583677D01*
X130805022Y-71685259D01*
X130861167Y-71786422D01*
X131033591Y-71941497D01*
X131250577Y-71934161D01*
X131353281Y-71881982D01*
X131401899Y-71817983D01*
X131323199Y-71745582D01*
X131153630Y-71666652D01*
X130906990Y-71578924D01*
X130794325Y-71583677D01*
X130317964Y-71583677D01*
X130370567Y-71545386D01*
X130423334Y-71488596D01*
X130347354Y-71469942D01*
X130154073Y-71459101D01*
X130021167Y-71457883D01*
X129619000Y-71459765D01*
X128681493Y-71459765D01*
X128832630Y-71375336D01*
X129390837Y-71220256D01*
X130042334Y-71173158D01*
X130698647Y-71221047D01*
X130698647Y-71221047D01*
G37*
X130698647Y-71221047D02*
X131256241Y-71377069D01*
X131760081Y-71659760D01*
X132251076Y-72083591D01*
X132674307Y-72574561D01*
X132954113Y-73075211D01*
X133108880Y-73630368D01*
X133156994Y-74284857D01*
X133156999Y-74292334D01*
X133109896Y-74948090D01*
X132956331Y-75504048D01*
X132677918Y-76005034D01*
X132256271Y-76495874D01*
X132251076Y-76501076D01*
X131876647Y-76840435D01*
X131528476Y-77071658D01*
X131233255Y-77204216D01*
X130566383Y-77382903D01*
X129897487Y-77431448D01*
X129275876Y-77346571D01*
X129240053Y-77336854D01*
X128686296Y-77124902D01*
X129619000Y-77124902D01*
X130021167Y-77126784D01*
X130255703Y-77121724D01*
X130400631Y-77106737D01*
X130423334Y-77096071D01*
X130361069Y-77031475D01*
X130241271Y-76945071D01*
X130765278Y-76945071D01*
X130771317Y-77023793D01*
X130906864Y-77009486D01*
X131165500Y-76913055D01*
X131355554Y-76820490D01*
X131402343Y-76752290D01*
X131353281Y-76702685D01*
X131121018Y-76626629D01*
X130926562Y-76715494D01*
X130879860Y-76768834D01*
X130765278Y-76945071D01*
X130241271Y-76945071D01*
X130227810Y-76935363D01*
X130073935Y-76856298D01*
X129947146Y-76881516D01*
X129825643Y-76966076D01*
X129619000Y-77124902D01*
X128686296Y-77124902D01*
X128610549Y-77095910D01*
X128114425Y-76767840D01*
X128679673Y-76767840D01*
X128756832Y-76840439D01*
X128900994Y-76909572D01*
X129150023Y-77009448D01*
X129279486Y-77035851D01*
X129319795Y-76993930D01*
X129319974Y-76980500D01*
X129254808Y-76832811D01*
X129117236Y-76688738D01*
X128978255Y-76621999D01*
X128974666Y-76621963D01*
X128801468Y-76666393D01*
X128731661Y-76702515D01*
X128679673Y-76767840D01*
X128114425Y-76767840D01*
X128072251Y-76739952D01*
X127686019Y-76364747D01*
X127438730Y-76028000D01*
X127766986Y-76028000D01*
X128015660Y-76288226D01*
X128176191Y-76440656D01*
X128260504Y-76471166D01*
X128292661Y-76410280D01*
X128291066Y-76213502D01*
X128274151Y-76150055D01*
X128231288Y-76115014D01*
X128501487Y-76115014D01*
X128522825Y-76227420D01*
X128628747Y-76408403D01*
X128807013Y-76442413D01*
X128876916Y-76408582D01*
X129283153Y-76408582D01*
X129318255Y-76571008D01*
X129368618Y-76656640D01*
X129482674Y-76803996D01*
X129582219Y-76823200D01*
X129694001Y-76761408D01*
X129842080Y-76622244D01*
X129887570Y-76535587D01*
X130181224Y-76535587D01*
X130292863Y-76692085D01*
X130358791Y-76743766D01*
X130504508Y-76826209D01*
X130605328Y-76791249D01*
X130695452Y-76685067D01*
X130794469Y-76518625D01*
X130816440Y-76409000D01*
X130723182Y-76334332D01*
X130691445Y-76332800D01*
X130533884Y-76344241D01*
X130381000Y-76353967D01*
X130211224Y-76411989D01*
X130181224Y-76535587D01*
X129887570Y-76535587D01*
X129898405Y-76514949D01*
X129848911Y-76407502D01*
X129644405Y-76343646D01*
X129390919Y-76333873D01*
X129283153Y-76408582D01*
X128876916Y-76408582D01*
X129020404Y-76339139D01*
X129106309Y-76259679D01*
X129101889Y-76243211D01*
X130972704Y-76243211D01*
X131034977Y-76317161D01*
X131064263Y-76339139D01*
X131292855Y-76445015D01*
X131466426Y-76400029D01*
X131500981Y-76337517D01*
X131778000Y-76337517D01*
X131778000Y-76567681D01*
X132038226Y-76319007D01*
X132190656Y-76158476D01*
X132221166Y-76074163D01*
X132160280Y-76042006D01*
X131927988Y-76053243D01*
X131799678Y-76195057D01*
X131778000Y-76337517D01*
X131500981Y-76337517D01*
X131561842Y-76227420D01*
X131581196Y-76010919D01*
X131497365Y-75928517D01*
X131310939Y-75980506D01*
X131195752Y-76046544D01*
X131020144Y-76166695D01*
X130972704Y-76243211D01*
X129101889Y-76243211D01*
X129086941Y-76187531D01*
X128943843Y-76081625D01*
X128888915Y-76046544D01*
X128657242Y-75934944D01*
X128527903Y-75957865D01*
X128501487Y-76115014D01*
X128231288Y-76115014D01*
X128163608Y-76059685D01*
X127997150Y-76028000D01*
X127766986Y-76028000D01*
X127438730Y-76028000D01*
X127292776Y-75829247D01*
X127045611Y-75247720D01*
X127010001Y-75039316D01*
X127319796Y-75039316D01*
X127325024Y-75133928D01*
X127385038Y-75324049D01*
X127416652Y-75403630D01*
X127511250Y-75599297D01*
X127580372Y-75651815D01*
X127610368Y-75623606D01*
X127892863Y-75623606D01*
X127970909Y-75769050D01*
X128031500Y-75800304D01*
X128272429Y-75845879D01*
X128398147Y-75819306D01*
X128422887Y-75791442D01*
X128408656Y-75683411D01*
X128321205Y-75500108D01*
X128291131Y-75450503D01*
X128162387Y-75277862D01*
X128064438Y-75238732D01*
X128000580Y-75274095D01*
X127901322Y-75434269D01*
X127892863Y-75623606D01*
X127610368Y-75623606D01*
X127631982Y-75603281D01*
X127703635Y-75420600D01*
X127712704Y-75349866D01*
X127657482Y-75230875D01*
X127530950Y-75109037D01*
X127394894Y-75033185D01*
X127319796Y-75039316D01*
X127010001Y-75039316D01*
X126961336Y-74754508D01*
X127508458Y-74754508D01*
X127543418Y-74855328D01*
X127649600Y-74945452D01*
X127841473Y-75052161D01*
X127968834Y-75044287D01*
X128001867Y-74941445D01*
X127990426Y-74783884D01*
X127980700Y-74631000D01*
X127922678Y-74461224D01*
X127799080Y-74431224D01*
X127642582Y-74542863D01*
X127590901Y-74608791D01*
X127508458Y-74754508D01*
X126961336Y-74754508D01*
X126933058Y-74589020D01*
X126923865Y-74313500D01*
X127207883Y-74313500D01*
X127209765Y-74715667D01*
X127368591Y-74509024D01*
X127467217Y-74355081D01*
X128137224Y-74355081D01*
X128225244Y-74857432D01*
X128438416Y-75316796D01*
X128787629Y-75731906D01*
X129226272Y-76018608D01*
X129725230Y-76169414D01*
X130255389Y-76176833D01*
X130787633Y-76033375D01*
X130941525Y-75960756D01*
X131318065Y-75687107D01*
X131669638Y-75687107D01*
X131673506Y-75815542D01*
X131810646Y-75844795D01*
X132010834Y-75805303D01*
X132158894Y-75693777D01*
X132202542Y-75510429D01*
X132132349Y-75323620D01*
X132105502Y-75296070D01*
X132394280Y-75296070D01*
X132404349Y-75473340D01*
X132462786Y-75644059D01*
X132526551Y-75664377D01*
X132612279Y-75529458D01*
X132671320Y-75395720D01*
X132765937Y-75136665D01*
X132769940Y-75015628D01*
X132678188Y-75024447D01*
X132508569Y-75137366D01*
X132394280Y-75296070D01*
X132105502Y-75296070D01*
X132084087Y-75274095D01*
X131986774Y-75238705D01*
X131882057Y-75322624D01*
X131793536Y-75450503D01*
X131669638Y-75687107D01*
X131318065Y-75687107D01*
X131377898Y-75643624D01*
X131698527Y-75226247D01*
X131803548Y-74962878D01*
X132075316Y-74962878D01*
X132130351Y-75081432D01*
X132268185Y-75056827D01*
X132435067Y-74945575D01*
X132563521Y-74827278D01*
X132564513Y-74722015D01*
X132493766Y-74608791D01*
X132331903Y-74447174D01*
X132199131Y-74450074D01*
X132110033Y-74614366D01*
X132094024Y-74694500D01*
X132075316Y-74962878D01*
X131803548Y-74962878D01*
X131892020Y-74741014D01*
X131945270Y-74236578D01*
X132612970Y-74236578D01*
X132618914Y-74362160D01*
X132685363Y-74477810D01*
X132789281Y-74620567D01*
X132846071Y-74673334D01*
X132864725Y-74597354D01*
X132875566Y-74404073D01*
X132876784Y-74271167D01*
X132874902Y-73869000D01*
X132716076Y-74075643D01*
X132612970Y-74236578D01*
X131945270Y-74236578D01*
X131946987Y-74220314D01*
X131867250Y-73780466D01*
X132080166Y-73780466D01*
X132093646Y-73894405D01*
X132167921Y-74098208D01*
X132291447Y-74144246D01*
X132446940Y-74030465D01*
X132511408Y-73944001D01*
X132578725Y-73809475D01*
X132534590Y-73712307D01*
X132406640Y-73618618D01*
X132209945Y-73529834D01*
X132102198Y-73582834D01*
X132080166Y-73780466D01*
X131867250Y-73780466D01*
X131852034Y-73696537D01*
X131792064Y-73542407D01*
X131618189Y-73149334D01*
X129915334Y-73149334D01*
X129915334Y-74334667D01*
X130211667Y-74334667D01*
X130407534Y-74355932D01*
X130505441Y-74408222D01*
X130508000Y-74419334D01*
X130434428Y-74478781D01*
X130257160Y-74503994D01*
X130254000Y-74504000D01*
X130058190Y-74550195D01*
X129999098Y-74674443D01*
X130076466Y-74855242D01*
X130260496Y-75046807D01*
X130578996Y-75232249D01*
X130890145Y-75248997D01*
X131189441Y-75097177D01*
X131276513Y-75018513D01*
X131480360Y-74712206D01*
X131523387Y-74380544D01*
X131404466Y-74052775D01*
X131318223Y-73937221D01*
X131166741Y-73787912D01*
X131062876Y-73764883D01*
X131006113Y-73804344D01*
X130895841Y-73860319D01*
X130763063Y-73784991D01*
X130745537Y-73769435D01*
X130641349Y-73652745D01*
X130665920Y-73552634D01*
X130732104Y-73474258D01*
X130891886Y-73339705D01*
X130991480Y-73344024D01*
X131016000Y-73439961D01*
X131086448Y-73561109D01*
X131183125Y-73614299D01*
X131443105Y-73777146D01*
X131614963Y-74044650D01*
X131690356Y-74372108D01*
X131660940Y-74714814D01*
X131518372Y-75028064D01*
X131460500Y-75100559D01*
X131162202Y-75327578D01*
X130815806Y-75426210D01*
X130469746Y-75389348D01*
X130251963Y-75277881D01*
X130058566Y-75142540D01*
X129960051Y-75115495D01*
X129917002Y-75201896D01*
X129899791Y-75323907D01*
X129805400Y-75513550D01*
X129604832Y-75621234D01*
X129340518Y-75646174D01*
X129054888Y-75587586D01*
X128790374Y-75444686D01*
X128683794Y-75346387D01*
X128553655Y-75087794D01*
X128554306Y-74927334D01*
X128730000Y-74927334D01*
X128804612Y-75181399D01*
X129014810Y-75354777D01*
X129340139Y-75432539D01*
X129426172Y-75435334D01*
X129746000Y-75435334D01*
X129746000Y-74419334D01*
X129426172Y-74419334D01*
X129077996Y-74473778D01*
X128840396Y-74627161D01*
X128733829Y-74864555D01*
X128730000Y-74927334D01*
X128554306Y-74927334D01*
X128554868Y-74788828D01*
X128684901Y-74512793D01*
X128718709Y-74473685D01*
X128838543Y-74329454D01*
X128843926Y-74239412D01*
X128766334Y-74160354D01*
X128573991Y-73906874D01*
X128535960Y-73665655D01*
X128730000Y-73665655D01*
X128805301Y-73913450D01*
X129015831Y-74084535D01*
X129338537Y-74162364D01*
X129426172Y-74165334D01*
X129746000Y-74165334D01*
X129746000Y-73657334D01*
X129740516Y-73374460D01*
X129714197Y-73220580D01*
X129652238Y-73155462D01*
X129555500Y-73139584D01*
X129150662Y-73166038D01*
X128880451Y-73293216D01*
X128745992Y-73520400D01*
X128730000Y-73665655D01*
X128535960Y-73665655D01*
X128528325Y-73617233D01*
X128625591Y-73333041D01*
X128862048Y-73095907D01*
X128862083Y-73095884D01*
X128980296Y-73034879D01*
X129135354Y-72994596D01*
X129359160Y-72972077D01*
X129683615Y-72964364D01*
X130140622Y-72968500D01*
X130220529Y-72969921D01*
X130707190Y-72972871D01*
X131068265Y-72962103D01*
X131288773Y-72938449D01*
X131354667Y-72907026D01*
X131342030Y-72892897D01*
X131682186Y-72892897D01*
X131759833Y-73076893D01*
X131796544Y-73138915D01*
X131916695Y-73314523D01*
X131993211Y-73361963D01*
X132067161Y-73299690D01*
X132089139Y-73270404D01*
X132116953Y-73213649D01*
X132376629Y-73213649D01*
X132465494Y-73408105D01*
X132518834Y-73454807D01*
X132688571Y-73555646D01*
X132784584Y-73556785D01*
X132794000Y-73527614D01*
X132764238Y-73427867D01*
X132690111Y-73234892D01*
X132663055Y-73169167D01*
X132570490Y-72979113D01*
X132502290Y-72932324D01*
X132452685Y-72981386D01*
X132376629Y-73213649D01*
X132116953Y-73213649D01*
X132181213Y-73082531D01*
X132201334Y-72972996D01*
X132129513Y-72855237D01*
X131965307Y-72770032D01*
X131785601Y-72745319D01*
X131684825Y-72785309D01*
X131682186Y-72892897D01*
X131342030Y-72892897D01*
X131284451Y-72828522D01*
X131101862Y-72708796D01*
X130888572Y-72595082D01*
X130366743Y-72419918D01*
X129861879Y-72395277D01*
X129390914Y-72502350D01*
X128970781Y-72722328D01*
X128618412Y-73036399D01*
X128350741Y-73425755D01*
X128184700Y-73871586D01*
X128137224Y-74355081D01*
X127467217Y-74355081D01*
X127471697Y-74348089D01*
X127465753Y-74222507D01*
X127399304Y-74106857D01*
X127295386Y-73964100D01*
X127238596Y-73911334D01*
X127219942Y-73987313D01*
X127209101Y-74180594D01*
X127207883Y-74313500D01*
X126923865Y-74313500D01*
X126923158Y-74292334D01*
X126954507Y-73862688D01*
X127520168Y-73862688D01*
X127590901Y-73975876D01*
X127751027Y-74133223D01*
X127888705Y-74148336D01*
X127971262Y-74023076D01*
X127980700Y-73953667D01*
X127993849Y-73750574D01*
X128001867Y-73643222D01*
X127958839Y-73533841D01*
X127822695Y-73538718D01*
X127649600Y-73639215D01*
X127521137Y-73757436D01*
X127520168Y-73862688D01*
X126954507Y-73862688D01*
X126971047Y-73636020D01*
X127003907Y-73518581D01*
X127305296Y-73518581D01*
X127366281Y-73528862D01*
X127502334Y-73472595D01*
X127658435Y-73357052D01*
X127712704Y-73241577D01*
X127672524Y-73072850D01*
X127879256Y-73072850D01*
X127957784Y-73271075D01*
X127988035Y-73304835D01*
X128089247Y-73346970D01*
X128205557Y-73263594D01*
X128355350Y-73039411D01*
X128397766Y-72963972D01*
X128427192Y-72815619D01*
X128318425Y-72750919D01*
X128098894Y-72774922D01*
X127930491Y-72887396D01*
X127879256Y-73072850D01*
X127672524Y-73072850D01*
X127667370Y-73051210D01*
X127631982Y-72981386D01*
X127567581Y-72931444D01*
X127495687Y-73009705D01*
X127421612Y-73169167D01*
X127326176Y-73407840D01*
X127305296Y-73518581D01*
X127003907Y-73518581D01*
X127127069Y-73078426D01*
X127409760Y-72574586D01*
X127425227Y-72556667D01*
X127766986Y-72556667D01*
X127997150Y-72556667D01*
X128069770Y-72540947D01*
X128501659Y-72540947D01*
X128521593Y-72646608D01*
X128566088Y-72690186D01*
X128643633Y-72677933D01*
X128794080Y-72595623D01*
X128964314Y-72488576D01*
X129091952Y-72377005D01*
X129087892Y-72347545D01*
X130988899Y-72347545D01*
X131072439Y-72452197D01*
X131203732Y-72543176D01*
X131431670Y-72651566D01*
X131558362Y-72625007D01*
X131582489Y-72464184D01*
X131561842Y-72357247D01*
X131448588Y-72184027D01*
X131417131Y-72174387D01*
X131792006Y-72174387D01*
X131803243Y-72406679D01*
X131945057Y-72534989D01*
X132087517Y-72556667D01*
X132317681Y-72556667D01*
X132069007Y-72296441D01*
X131908476Y-72144011D01*
X131824163Y-72113501D01*
X131792006Y-72174387D01*
X131417131Y-72174387D01*
X131264985Y-72127762D01*
X131073946Y-72200930D01*
X131024095Y-72250580D01*
X130988899Y-72347545D01*
X129087892Y-72347545D01*
X129077627Y-72273068D01*
X129059780Y-72249626D01*
X129009079Y-72217618D01*
X129280098Y-72217618D01*
X129380786Y-72249316D01*
X129569261Y-72247668D01*
X129768660Y-72218884D01*
X129902123Y-72169175D01*
X129904626Y-72167157D01*
X129906434Y-72141146D01*
X130194996Y-72141146D01*
X130344557Y-72230029D01*
X130402167Y-72241353D01*
X130649999Y-72264468D01*
X130777072Y-72233295D01*
X130818203Y-72170375D01*
X130789403Y-72051948D01*
X130695452Y-71899600D01*
X130577231Y-71771137D01*
X130471979Y-71770168D01*
X130358791Y-71840901D01*
X130198884Y-72003534D01*
X130194996Y-72141146D01*
X129906434Y-72141146D01*
X129911436Y-72069201D01*
X129825648Y-71928674D01*
X129686971Y-71808686D01*
X129674771Y-71801858D01*
X129537844Y-71764114D01*
X129424763Y-71848529D01*
X129370136Y-71925711D01*
X129285787Y-72100678D01*
X129280098Y-72217618D01*
X129009079Y-72217618D01*
X128881070Y-72136806D01*
X128688950Y-72152977D01*
X128548014Y-72286151D01*
X128524922Y-72348894D01*
X128501659Y-72540947D01*
X128069770Y-72540947D01*
X128183003Y-72516436D01*
X128274151Y-72434612D01*
X128300177Y-72243073D01*
X128292661Y-72174387D01*
X128251618Y-72110775D01*
X128157591Y-72158848D01*
X128015660Y-72296441D01*
X127766986Y-72556667D01*
X127425227Y-72556667D01*
X127833591Y-72083591D01*
X128125014Y-71832377D01*
X128682324Y-71832377D01*
X128731386Y-71881982D01*
X128961324Y-71958833D01*
X129143024Y-71875262D01*
X129222595Y-71752334D01*
X129280909Y-71608916D01*
X129264238Y-71554141D01*
X129145107Y-71580698D01*
X128919167Y-71671612D01*
X128729113Y-71764177D01*
X128682324Y-71832377D01*
X128125014Y-71832377D01*
X128328537Y-71656936D01*
X128681493Y-71459765D01*
X129619000Y-71459765D01*
X129825643Y-71618591D01*
X129986578Y-71721697D01*
X130112160Y-71715753D01*
X130227810Y-71649304D01*
X130317964Y-71583677D01*
X130794325Y-71583677D01*
X130805022Y-71685259D01*
X130861167Y-71786422D01*
X131033591Y-71941497D01*
X131250577Y-71934161D01*
X131353281Y-71881982D01*
X131401899Y-71817983D01*
X131323199Y-71745582D01*
X131153630Y-71666652D01*
X130906990Y-71578924D01*
X130794325Y-71583677D01*
X130317964Y-71583677D01*
X130370567Y-71545386D01*
X130423334Y-71488596D01*
X130347354Y-71469942D01*
X130154073Y-71459101D01*
X130021167Y-71457883D01*
X129619000Y-71459765D01*
X128681493Y-71459765D01*
X128832630Y-71375336D01*
X129390837Y-71220256D01*
X130042334Y-71173158D01*
X130698647Y-71221047D01*
D14*
X131210000Y-58571077D02*
X131210000Y-58053921D01*
X129790000Y-58571077D02*
X129790000Y-58053921D01*
X108145000Y-44790000D02*
X107990000Y-44790000D01*
X109405000Y-44790000D02*
X109595000Y-44790000D01*
X110855000Y-48210000D02*
X111010000Y-48210000D01*
X109405000Y-48210000D02*
X109595000Y-48210000D01*
X110855000Y-44790000D02*
X111010000Y-44790000D01*
X111010000Y-48210000D02*
X111010000Y-44790000D01*
X107990000Y-48500000D02*
X107990000Y-44790000D01*
X116741422Y-49710000D02*
X117258578Y-49710000D01*
X116741422Y-48290000D02*
X117258578Y-48290000D01*
D11*
X111110000Y-33220000D02*
X128890000Y-33220000D01*
X111110000Y-68780000D02*
X111110000Y-33220000D01*
X128890000Y-68780000D02*
X111110000Y-68780000D01*
X128890000Y-33220000D02*
X128890000Y-68780000D01*
X114920000Y-59890000D02*
X114920000Y-51000000D01*
X125080000Y-59890000D02*
X125080000Y-51000000D01*
X125080000Y-51000000D02*
X114920000Y-51000000D01*
X114920000Y-59890000D02*
X125080000Y-59890000D01*
X122540000Y-63700000D02*
X122540000Y-66240000D01*
X117460000Y-63700000D02*
X122540000Y-63700000D01*
X117460000Y-66240000D02*
X117460000Y-63700000D01*
X122540000Y-66240000D02*
X117460000Y-66240000D01*
X117460000Y-39570000D02*
X114920000Y-39570000D01*
X117460000Y-42110000D02*
X117460000Y-39570000D01*
X114920000Y-42110000D02*
X117460000Y-42110000D01*
X114920000Y-39570000D02*
X114920000Y-42110000D01*
X116190000Y-38300000D02*
X116190000Y-33220000D01*
X123810000Y-38300000D02*
X123810000Y-33220000D01*
X116190000Y-38300000D02*
X123810000Y-38300000D01*
X117460000Y-44650000D02*
X114920000Y-44650000D01*
X117460000Y-48460000D02*
X117460000Y-44650000D01*
X114920000Y-48460000D02*
X117460000Y-48460000D01*
X114920000Y-44650000D02*
X114920000Y-48460000D01*
X123810000Y-31950000D02*
X123810000Y-33220000D01*
X116190000Y-31950000D02*
X123810000Y-31950000D01*
X116190000Y-33220000D02*
X116190000Y-31950000D01*
D15*
X123400000Y-38600000D02*
G75*
G03X123400000Y-38600000I-400000J0D01*
G01*
X120000000Y-31200000D02*
X120800000Y-31200000D01*
X120800000Y-31200000D02*
X120800000Y-33200000D01*
X120000000Y-31200000D02*
X119200000Y-31200000D01*
X119200000Y-31200000D02*
X119200000Y-33200000D01*
X114500000Y-33200000D02*
X123500000Y-33200000D01*
X123500000Y-33200000D02*
X123500000Y-36800000D01*
X123500000Y-36800000D02*
X114500000Y-36800000D01*
X114500000Y-36800000D02*
X114500000Y-33200000D01*
D14*
X117560000Y-60800000D02*
X117560000Y-58350000D01*
X114340000Y-59000000D02*
X114340000Y-60800000D01*
X131460000Y-47410000D02*
X130130000Y-47410000D01*
X130130000Y-47410000D02*
X130130000Y-46080000D01*
X132730000Y-47410000D02*
X132730000Y-44810000D01*
X132730000Y-44810000D02*
X130130000Y-44810000D01*
X130130000Y-44810000D02*
X130130000Y-34590000D01*
X135330000Y-34590000D02*
X130130000Y-34590000D01*
X135330000Y-47410000D02*
X135330000Y-34590000D01*
X135330000Y-47410000D02*
X132730000Y-47410000D01*
X125008578Y-72040000D02*
X124491422Y-72040000D01*
X125008578Y-73460000D02*
X124491422Y-73460000D01*
X116321078Y-55210000D02*
X115803922Y-55210000D01*
X116321078Y-53790000D02*
X115803922Y-53790000D01*
X123790000Y-40803922D02*
X123790000Y-41321078D01*
X125210000Y-40803922D02*
X125210000Y-41321078D01*
X118290000Y-61803922D02*
X118290000Y-62321078D01*
X119710000Y-61803922D02*
X119710000Y-62321078D01*
X131696078Y-51290000D02*
X131178922Y-51290000D01*
X131696078Y-52710000D02*
X131178922Y-52710000D01*
X133500000Y-57670000D02*
X134830000Y-57670000D01*
X134830000Y-57670000D02*
X134830000Y-59000000D01*
X134830000Y-60270000D02*
X134830000Y-62870000D01*
X132170000Y-62870000D02*
X134830000Y-62870000D01*
X132170000Y-60270000D02*
X132170000Y-62870000D01*
X132170000Y-60270000D02*
X134830000Y-60270000D01*
X109000000Y-57670000D02*
X110330000Y-57670000D01*
X110330000Y-57670000D02*
X110330000Y-59000000D01*
X110330000Y-60270000D02*
X110330000Y-62870000D01*
X107670000Y-62870000D02*
X110330000Y-62870000D01*
X107670000Y-60270000D02*
X107670000Y-62870000D01*
X107670000Y-60270000D02*
X110330000Y-60270000D01*
X133500000Y-66670000D02*
X134830000Y-66670000D01*
X134830000Y-66670000D02*
X134830000Y-68000000D01*
X134830000Y-69270000D02*
X134830000Y-71870000D01*
X132170000Y-71870000D02*
X134830000Y-71870000D01*
X132170000Y-69270000D02*
X132170000Y-71870000D01*
X132170000Y-69270000D02*
X134830000Y-69270000D01*
X109500000Y-66670000D02*
X110830000Y-66670000D01*
X110830000Y-66670000D02*
X110830000Y-68000000D01*
X110830000Y-69270000D02*
X110830000Y-71870000D01*
X108170000Y-71870000D02*
X110830000Y-71870000D01*
X108170000Y-69270000D02*
X108170000Y-71870000D01*
X108170000Y-69270000D02*
X110830000Y-69270000D01*
D16*
X131150000Y-50200000D02*
X131450000Y-50000000D01*
X131150000Y-49800000D02*
X131150000Y-50200000D01*
X131450000Y-50000000D02*
X131150000Y-49800000D01*
X131450000Y-50200000D02*
X131450000Y-49800000D01*
D14*
X115303922Y-57710000D02*
X115821078Y-57710000D01*
X115303922Y-56290000D02*
X115821078Y-56290000D01*
X115803922Y-63710000D02*
X116321078Y-63710000D01*
X115803922Y-62290000D02*
X116321078Y-62290000D01*
D16*
X131700000Y-55300000D02*
X131400000Y-55500000D01*
X131700000Y-55700000D02*
X131700000Y-55300000D01*
X131400000Y-55500000D02*
X131700000Y-55700000D01*
X131400000Y-55300000D02*
X131400000Y-55700000D01*
D14*
X121290000Y-40803922D02*
X121290000Y-41321078D01*
X122710000Y-40803922D02*
X122710000Y-41321078D01*
D11*
X132130952Y-57452380D02*
X131797619Y-56976190D01*
X131559523Y-57452380D02*
X131559523Y-56452380D01*
X131940476Y-56452380D01*
X132035714Y-56500000D01*
X132083333Y-56547619D01*
X132130952Y-56642857D01*
X132130952Y-56785714D01*
X132083333Y-56880952D01*
X132035714Y-56928571D01*
X131940476Y-56976190D01*
X131559523Y-56976190D01*
X133083333Y-57452380D02*
X132511904Y-57452380D01*
X132797619Y-57452380D02*
X132797619Y-56452380D01*
X132702380Y-56595238D01*
X132607142Y-56690476D01*
X132511904Y-56738095D01*
X134035714Y-57452380D02*
X133464285Y-57452380D01*
X133750000Y-57452380D02*
X133750000Y-56452380D01*
X133654761Y-56595238D01*
X133559523Y-56690476D01*
X133464285Y-56738095D01*
X134892857Y-56785714D02*
X134892857Y-57452380D01*
X134654761Y-56404761D02*
X134416666Y-57119047D01*
X135035714Y-57119047D01*
X110452380Y-51852380D02*
X109452380Y-51852380D01*
X109452380Y-51661904D01*
X109500000Y-51547619D01*
X109595238Y-51471428D01*
X109690476Y-51433333D01*
X109880952Y-51395238D01*
X110023809Y-51395238D01*
X110214285Y-51433333D01*
X110309523Y-51471428D01*
X110404761Y-51547619D01*
X110452380Y-51661904D01*
X110452380Y-51852380D01*
X110452380Y-50633333D02*
X110452380Y-51090476D01*
X110452380Y-50861904D02*
X109452380Y-50861904D01*
X109595238Y-50938095D01*
X109690476Y-51014285D01*
X109738095Y-51090476D01*
X109452380Y-50138095D02*
X109452380Y-50061904D01*
X109500000Y-49985714D01*
X109547619Y-49947619D01*
X109642857Y-49909523D01*
X109833333Y-49871428D01*
X110071428Y-49871428D01*
X110261904Y-49909523D01*
X110357142Y-49947619D01*
X110404761Y-49985714D01*
X110452380Y-50061904D01*
X110452380Y-50138095D01*
X110404761Y-50214285D01*
X110357142Y-50252380D01*
X110261904Y-50290476D01*
X110071428Y-50328571D01*
X109833333Y-50328571D01*
X109642857Y-50290476D01*
X109547619Y-50252380D01*
X109500000Y-50214285D01*
X109452380Y-50138095D01*
X109785714Y-49185714D02*
X110452380Y-49185714D01*
X109404761Y-49376190D02*
X110119047Y-49566666D01*
X110119047Y-49071428D01*
X119880952Y-49357142D02*
X119833333Y-49404761D01*
X119690476Y-49452380D01*
X119595238Y-49452380D01*
X119452380Y-49404761D01*
X119357142Y-49309523D01*
X119309523Y-49214285D01*
X119261904Y-49023809D01*
X119261904Y-48880952D01*
X119309523Y-48690476D01*
X119357142Y-48595238D01*
X119452380Y-48500000D01*
X119595238Y-48452380D01*
X119690476Y-48452380D01*
X119833333Y-48500000D01*
X119880952Y-48547619D01*
X120833333Y-49452380D02*
X120261904Y-49452380D01*
X120547619Y-49452380D02*
X120547619Y-48452380D01*
X120452380Y-48595238D01*
X120357142Y-48690476D01*
X120261904Y-48738095D01*
X121452380Y-48452380D02*
X121547619Y-48452380D01*
X121642857Y-48500000D01*
X121690476Y-48547619D01*
X121738095Y-48642857D01*
X121785714Y-48833333D01*
X121785714Y-49071428D01*
X121738095Y-49261904D01*
X121690476Y-49357142D01*
X121642857Y-49404761D01*
X121547619Y-49452380D01*
X121452380Y-49452380D01*
X121357142Y-49404761D01*
X121309523Y-49357142D01*
X121261904Y-49261904D01*
X121214285Y-49071428D01*
X121214285Y-48833333D01*
X121261904Y-48642857D01*
X121309523Y-48547619D01*
X121357142Y-48500000D01*
X121452380Y-48452380D01*
X122119047Y-48452380D02*
X122738095Y-48452380D01*
X122404761Y-48833333D01*
X122547619Y-48833333D01*
X122642857Y-48880952D01*
X122690476Y-48928571D01*
X122738095Y-49023809D01*
X122738095Y-49261904D01*
X122690476Y-49357142D01*
X122642857Y-49404761D01*
X122547619Y-49452380D01*
X122261904Y-49452380D01*
X122166666Y-49404761D01*
X122119047Y-49357142D01*
X113452380Y-61714285D02*
X114261904Y-61714285D01*
X114357142Y-61666666D01*
X114404761Y-61619047D01*
X114452380Y-61523809D01*
X114452380Y-61333333D01*
X114404761Y-61238095D01*
X114357142Y-61190476D01*
X114261904Y-61142857D01*
X113452380Y-61142857D01*
X114452380Y-60142857D02*
X114452380Y-60714285D01*
X114452380Y-60428571D02*
X113452380Y-60428571D01*
X113595238Y-60523809D01*
X113690476Y-60619047D01*
X113738095Y-60714285D01*
X113452380Y-59523809D02*
X113452380Y-59428571D01*
X113500000Y-59333333D01*
X113547619Y-59285714D01*
X113642857Y-59238095D01*
X113833333Y-59190476D01*
X114071428Y-59190476D01*
X114261904Y-59238095D01*
X114357142Y-59285714D01*
X114404761Y-59333333D01*
X114452380Y-59428571D01*
X114452380Y-59523809D01*
X114404761Y-59619047D01*
X114357142Y-59666666D01*
X114261904Y-59714285D01*
X114071428Y-59761904D01*
X113833333Y-59761904D01*
X113642857Y-59714285D01*
X113547619Y-59666666D01*
X113500000Y-59619047D01*
X113452380Y-59523809D01*
X113785714Y-58333333D02*
X114452380Y-58333333D01*
X113404761Y-58571428D02*
X114119047Y-58809523D01*
X114119047Y-58190476D01*
D17*
X122861904Y-73895238D02*
X122480952Y-74161904D01*
X122861904Y-74352380D02*
X122061904Y-74352380D01*
X122061904Y-74047619D01*
X122100000Y-73971428D01*
X122138095Y-73933333D01*
X122214285Y-73895238D01*
X122328571Y-73895238D01*
X122404761Y-73933333D01*
X122442857Y-73971428D01*
X122480952Y-74047619D01*
X122480952Y-74352380D01*
X122861904Y-73133333D02*
X122861904Y-73590476D01*
X122861904Y-73361904D02*
X122061904Y-73361904D01*
X122176190Y-73438095D01*
X122252380Y-73514285D01*
X122290476Y-73590476D01*
X122061904Y-72638095D02*
X122061904Y-72561904D01*
X122100000Y-72485714D01*
X122138095Y-72447619D01*
X122214285Y-72409523D01*
X122366666Y-72371428D01*
X122557142Y-72371428D01*
X122709523Y-72409523D01*
X122785714Y-72447619D01*
X122823809Y-72485714D01*
X122861904Y-72561904D01*
X122861904Y-72638095D01*
X122823809Y-72714285D01*
X122785714Y-72752380D01*
X122709523Y-72790476D01*
X122557142Y-72828571D01*
X122366666Y-72828571D01*
X122214285Y-72790476D01*
X122138095Y-72752380D01*
X122100000Y-72714285D01*
X122061904Y-72638095D01*
X122404761Y-71914285D02*
X122366666Y-71990476D01*
X122328571Y-72028571D01*
X122252380Y-72066666D01*
X122214285Y-72066666D01*
X122138095Y-72028571D01*
X122100000Y-71990476D01*
X122061904Y-71914285D01*
X122061904Y-71761904D01*
X122100000Y-71685714D01*
X122138095Y-71647619D01*
X122214285Y-71609523D01*
X122252380Y-71609523D01*
X122328571Y-71647619D01*
X122366666Y-71685714D01*
X122404761Y-71761904D01*
X122404761Y-71914285D01*
X122442857Y-71990476D01*
X122480952Y-72028571D01*
X122557142Y-72066666D01*
X122709523Y-72066666D01*
X122785714Y-72028571D01*
X122823809Y-71990476D01*
X122861904Y-71914285D01*
X122861904Y-71761904D01*
X122823809Y-71685714D01*
X122785714Y-71647619D01*
X122709523Y-71609523D01*
X122557142Y-71609523D01*
X122480952Y-71647619D01*
X122442857Y-71685714D01*
X122404761Y-71761904D01*
D11*
X115880952Y-53452380D02*
X115547619Y-52976190D01*
X115309523Y-53452380D02*
X115309523Y-52452380D01*
X115690476Y-52452380D01*
X115785714Y-52500000D01*
X115833333Y-52547619D01*
X115880952Y-52642857D01*
X115880952Y-52785714D01*
X115833333Y-52880952D01*
X115785714Y-52928571D01*
X115690476Y-52976190D01*
X115309523Y-52976190D01*
X116833333Y-53452380D02*
X116261904Y-53452380D01*
X116547619Y-53452380D02*
X116547619Y-52452380D01*
X116452380Y-52595238D01*
X116357142Y-52690476D01*
X116261904Y-52738095D01*
X117452380Y-52452380D02*
X117547619Y-52452380D01*
X117642857Y-52500000D01*
X117690476Y-52547619D01*
X117738095Y-52642857D01*
X117785714Y-52833333D01*
X117785714Y-53071428D01*
X117738095Y-53261904D01*
X117690476Y-53357142D01*
X117642857Y-53404761D01*
X117547619Y-53452380D01*
X117452380Y-53452380D01*
X117357142Y-53404761D01*
X117309523Y-53357142D01*
X117261904Y-53261904D01*
X117214285Y-53071428D01*
X117214285Y-52833333D01*
X117261904Y-52642857D01*
X117309523Y-52547619D01*
X117357142Y-52500000D01*
X117452380Y-52452380D01*
X118642857Y-52452380D02*
X118452380Y-52452380D01*
X118357142Y-52500000D01*
X118309523Y-52547619D01*
X118214285Y-52690476D01*
X118166666Y-52880952D01*
X118166666Y-53261904D01*
X118214285Y-53357142D01*
X118261904Y-53404761D01*
X118357142Y-53452380D01*
X118547619Y-53452380D01*
X118642857Y-53404761D01*
X118690476Y-53357142D01*
X118738095Y-53261904D01*
X118738095Y-53023809D01*
X118690476Y-52928571D01*
X118642857Y-52880952D01*
X118547619Y-52833333D01*
X118357142Y-52833333D01*
X118261904Y-52880952D01*
X118214285Y-52928571D01*
X118166666Y-53023809D01*
X124952380Y-45869047D02*
X124476190Y-46202380D01*
X124952380Y-46440476D02*
X123952380Y-46440476D01*
X123952380Y-46059523D01*
X124000000Y-45964285D01*
X124047619Y-45916666D01*
X124142857Y-45869047D01*
X124285714Y-45869047D01*
X124380952Y-45916666D01*
X124428571Y-45964285D01*
X124476190Y-46059523D01*
X124476190Y-46440476D01*
X124952380Y-44916666D02*
X124952380Y-45488095D01*
X124952380Y-45202380D02*
X123952380Y-45202380D01*
X124095238Y-45297619D01*
X124190476Y-45392857D01*
X124238095Y-45488095D01*
X123952380Y-44297619D02*
X123952380Y-44202380D01*
X124000000Y-44107142D01*
X124047619Y-44059523D01*
X124142857Y-44011904D01*
X124333333Y-43964285D01*
X124571428Y-43964285D01*
X124761904Y-44011904D01*
X124857142Y-44059523D01*
X124904761Y-44107142D01*
X124952380Y-44202380D01*
X124952380Y-44297619D01*
X124904761Y-44392857D01*
X124857142Y-44440476D01*
X124761904Y-44488095D01*
X124571428Y-44535714D01*
X124333333Y-44535714D01*
X124142857Y-44488095D01*
X124047619Y-44440476D01*
X124000000Y-44392857D01*
X123952380Y-44297619D01*
X124285714Y-43107142D02*
X124952380Y-43107142D01*
X123904761Y-43345238D02*
X124619047Y-43583333D01*
X124619047Y-42964285D01*
X121102380Y-62869047D02*
X120626190Y-63202380D01*
X121102380Y-63440476D02*
X120102380Y-63440476D01*
X120102380Y-63059523D01*
X120150000Y-62964285D01*
X120197619Y-62916666D01*
X120292857Y-62869047D01*
X120435714Y-62869047D01*
X120530952Y-62916666D01*
X120578571Y-62964285D01*
X120626190Y-63059523D01*
X120626190Y-63440476D01*
X121102380Y-61916666D02*
X121102380Y-62488095D01*
X121102380Y-62202380D02*
X120102380Y-62202380D01*
X120245238Y-62297619D01*
X120340476Y-62392857D01*
X120388095Y-62488095D01*
X120102380Y-61297619D02*
X120102380Y-61202380D01*
X120150000Y-61107142D01*
X120197619Y-61059523D01*
X120292857Y-61011904D01*
X120483333Y-60964285D01*
X120721428Y-60964285D01*
X120911904Y-61011904D01*
X121007142Y-61059523D01*
X121054761Y-61107142D01*
X121102380Y-61202380D01*
X121102380Y-61297619D01*
X121054761Y-61392857D01*
X121007142Y-61440476D01*
X120911904Y-61488095D01*
X120721428Y-61535714D01*
X120483333Y-61535714D01*
X120292857Y-61488095D01*
X120197619Y-61440476D01*
X120150000Y-61392857D01*
X120102380Y-61297619D01*
X120102380Y-60630952D02*
X120102380Y-60011904D01*
X120483333Y-60345238D01*
X120483333Y-60202380D01*
X120530952Y-60107142D01*
X120578571Y-60059523D01*
X120673809Y-60011904D01*
X120911904Y-60011904D01*
X121007142Y-60059523D01*
X121054761Y-60107142D01*
X121102380Y-60202380D01*
X121102380Y-60488095D01*
X121054761Y-60583333D01*
X121007142Y-60630952D01*
X130318452Y-54102380D02*
X129985119Y-53626190D01*
X129747023Y-54102380D02*
X129747023Y-53102380D01*
X130127976Y-53102380D01*
X130223214Y-53150000D01*
X130270833Y-53197619D01*
X130318452Y-53292857D01*
X130318452Y-53435714D01*
X130270833Y-53530952D01*
X130223214Y-53578571D01*
X130127976Y-53626190D01*
X129747023Y-53626190D01*
X131270833Y-54102380D02*
X130699404Y-54102380D01*
X130985119Y-54102380D02*
X130985119Y-53102380D01*
X130889880Y-53245238D01*
X130794642Y-53340476D01*
X130699404Y-53388095D01*
X131889880Y-53102380D02*
X131985119Y-53102380D01*
X132080357Y-53150000D01*
X132127976Y-53197619D01*
X132175595Y-53292857D01*
X132223214Y-53483333D01*
X132223214Y-53721428D01*
X132175595Y-53911904D01*
X132127976Y-54007142D01*
X132080357Y-54054761D01*
X131985119Y-54102380D01*
X131889880Y-54102380D01*
X131794642Y-54054761D01*
X131747023Y-54007142D01*
X131699404Y-53911904D01*
X131651785Y-53721428D01*
X131651785Y-53483333D01*
X131699404Y-53292857D01*
X131747023Y-53197619D01*
X131794642Y-53150000D01*
X131889880Y-53102380D01*
X132604166Y-53197619D02*
X132651785Y-53150000D01*
X132747023Y-53102380D01*
X132985119Y-53102380D01*
X133080357Y-53150000D01*
X133127976Y-53197619D01*
X133175595Y-53292857D01*
X133175595Y-53388095D01*
X133127976Y-53530952D01*
X132556547Y-54102380D01*
X133175595Y-54102380D01*
X129407275Y-61547038D02*
X130114381Y-60839931D01*
X129845007Y-61580710D01*
X130585786Y-61311336D01*
X129878679Y-62018442D01*
X130316412Y-62456175D02*
X130282740Y-62355160D01*
X130282740Y-62287816D01*
X130316412Y-62186801D01*
X130518442Y-61984771D01*
X130619458Y-61951099D01*
X130686801Y-61951099D01*
X130787816Y-61984771D01*
X130888832Y-62085786D01*
X130922503Y-62186801D01*
X130922503Y-62254145D01*
X130888832Y-62355160D01*
X130686801Y-62557190D01*
X130585786Y-62590862D01*
X130518442Y-62590862D01*
X130417427Y-62557190D01*
X130316412Y-62456175D01*
X131225549Y-62422503D02*
X131494923Y-62691877D01*
X131562267Y-62287816D02*
X130956175Y-62893908D01*
X130922503Y-62994923D01*
X130956175Y-63095938D01*
X131023519Y-63163282D01*
X131360236Y-63500000D02*
X131326564Y-63398984D01*
X131326564Y-63331641D01*
X131360236Y-63230625D01*
X131562267Y-63028595D01*
X131663282Y-62994923D01*
X131730625Y-62994923D01*
X131831641Y-63028595D01*
X131932656Y-63129610D01*
X131966328Y-63230625D01*
X131966328Y-63297969D01*
X131932656Y-63398984D01*
X131730625Y-63601015D01*
X131629610Y-63634687D01*
X131562267Y-63634687D01*
X131461251Y-63601015D01*
X131360236Y-63500000D01*
X131898984Y-64038748D02*
X132370389Y-63567343D01*
X132235702Y-63702030D02*
X132336717Y-63668358D01*
X132404061Y-63668358D01*
X132505076Y-63702030D01*
X132572419Y-63769374D01*
X132101015Y-64375465D02*
X132639763Y-64914213D01*
X132875465Y-65015228D02*
X133582572Y-64308122D01*
X133750931Y-64476480D01*
X133818274Y-64611167D01*
X133818274Y-64745854D01*
X133784602Y-64846870D01*
X133683587Y-65015228D01*
X133582572Y-65116244D01*
X133414213Y-65217259D01*
X133313198Y-65250931D01*
X133178511Y-65250931D01*
X133043824Y-65183587D01*
X132875465Y-65015228D01*
X134053976Y-66059053D02*
X133986633Y-66059053D01*
X133851946Y-65991709D01*
X133784602Y-65924366D01*
X133717259Y-65789679D01*
X133717259Y-65654992D01*
X133750931Y-65553976D01*
X133851946Y-65385618D01*
X133952961Y-65284602D01*
X134121320Y-65183587D01*
X134222335Y-65149915D01*
X134357022Y-65149915D01*
X134491709Y-65217259D01*
X134559053Y-65284602D01*
X134626396Y-65419289D01*
X134626396Y-65486633D01*
X110178571Y-57071428D02*
X110226190Y-56928571D01*
X110273809Y-56880952D01*
X110369047Y-56833333D01*
X110511904Y-56833333D01*
X110607142Y-56880952D01*
X110654761Y-56928571D01*
X110702380Y-57023809D01*
X110702380Y-57404761D01*
X109702380Y-57404761D01*
X109702380Y-57071428D01*
X109750000Y-56976190D01*
X109797619Y-56928571D01*
X109892857Y-56880952D01*
X109988095Y-56880952D01*
X110083333Y-56928571D01*
X110130952Y-56976190D01*
X110178571Y-57071428D01*
X110178571Y-57404761D01*
X110702380Y-55976190D02*
X110178571Y-55976190D01*
X110083333Y-56023809D01*
X110035714Y-56119047D01*
X110035714Y-56309523D01*
X110083333Y-56404761D01*
X110654761Y-55976190D02*
X110702380Y-56071428D01*
X110702380Y-56309523D01*
X110654761Y-56404761D01*
X110559523Y-56452380D01*
X110464285Y-56452380D01*
X110369047Y-56404761D01*
X110321428Y-56309523D01*
X110321428Y-56071428D01*
X110273809Y-55976190D01*
X110035714Y-55642857D02*
X110035714Y-55261904D01*
X109702380Y-55500000D02*
X110559523Y-55500000D01*
X110654761Y-55452380D01*
X110702380Y-55357142D01*
X110702380Y-55261904D01*
X110035714Y-55071428D02*
X110035714Y-54690476D01*
X109702380Y-54928571D02*
X110559523Y-54928571D01*
X110654761Y-54880952D01*
X110702380Y-54785714D01*
X110702380Y-54690476D01*
X110654761Y-53976190D02*
X110702380Y-54071428D01*
X110702380Y-54261904D01*
X110654761Y-54357142D01*
X110559523Y-54404761D01*
X110178571Y-54404761D01*
X110083333Y-54357142D01*
X110035714Y-54261904D01*
X110035714Y-54071428D01*
X110083333Y-53976190D01*
X110178571Y-53928571D01*
X110273809Y-53928571D01*
X110369047Y-54404761D01*
X110702380Y-53500000D02*
X110035714Y-53500000D01*
X110226190Y-53500000D02*
X110130952Y-53452380D01*
X110083333Y-53404761D01*
X110035714Y-53309523D01*
X110035714Y-53214285D01*
X110035714Y-52976190D02*
X110702380Y-52738095D01*
X110035714Y-52500000D02*
X110702380Y-52738095D01*
X110940476Y-52833333D01*
X110988095Y-52880952D01*
X111035714Y-52976190D01*
X131952380Y-70559523D02*
X130952380Y-70559523D01*
X131666666Y-70226190D01*
X130952380Y-69892857D01*
X131952380Y-69892857D01*
X131952380Y-69273809D02*
X131904761Y-69369047D01*
X131857142Y-69416666D01*
X131761904Y-69464285D01*
X131476190Y-69464285D01*
X131380952Y-69416666D01*
X131333333Y-69369047D01*
X131285714Y-69273809D01*
X131285714Y-69130952D01*
X131333333Y-69035714D01*
X131380952Y-68988095D01*
X131476190Y-68940476D01*
X131761904Y-68940476D01*
X131857142Y-68988095D01*
X131904761Y-69035714D01*
X131952380Y-69130952D01*
X131952380Y-69273809D01*
X131285714Y-68654761D02*
X131285714Y-68273809D01*
X130952380Y-68511904D02*
X131809523Y-68511904D01*
X131904761Y-68464285D01*
X131952380Y-68369047D01*
X131952380Y-68273809D01*
X131952380Y-67797619D02*
X131904761Y-67892857D01*
X131857142Y-67940476D01*
X131761904Y-67988095D01*
X131476190Y-67988095D01*
X131380952Y-67940476D01*
X131333333Y-67892857D01*
X131285714Y-67797619D01*
X131285714Y-67654761D01*
X131333333Y-67559523D01*
X131380952Y-67511904D01*
X131476190Y-67464285D01*
X131761904Y-67464285D01*
X131857142Y-67511904D01*
X131904761Y-67559523D01*
X131952380Y-67654761D01*
X131952380Y-67797619D01*
X131952380Y-67035714D02*
X131285714Y-67035714D01*
X131476190Y-67035714D02*
X131380952Y-66988095D01*
X131333333Y-66940476D01*
X131285714Y-66845238D01*
X131285714Y-66750000D01*
X131047619Y-66464285D02*
X131000000Y-66416666D01*
X130952380Y-66321428D01*
X130952380Y-66083333D01*
X131000000Y-65988095D01*
X131047619Y-65940476D01*
X131142857Y-65892857D01*
X131238095Y-65892857D01*
X131380952Y-65940476D01*
X131952380Y-66511904D01*
X131952380Y-65892857D01*
X108690476Y-72952380D02*
X108690476Y-71952380D01*
X109023809Y-72666666D01*
X109357142Y-71952380D01*
X109357142Y-72952380D01*
X109976190Y-72952380D02*
X109880952Y-72904761D01*
X109833333Y-72857142D01*
X109785714Y-72761904D01*
X109785714Y-72476190D01*
X109833333Y-72380952D01*
X109880952Y-72333333D01*
X109976190Y-72285714D01*
X110119047Y-72285714D01*
X110214285Y-72333333D01*
X110261904Y-72380952D01*
X110309523Y-72476190D01*
X110309523Y-72761904D01*
X110261904Y-72857142D01*
X110214285Y-72904761D01*
X110119047Y-72952380D01*
X109976190Y-72952380D01*
X110595238Y-72285714D02*
X110976190Y-72285714D01*
X110738095Y-71952380D02*
X110738095Y-72809523D01*
X110785714Y-72904761D01*
X110880952Y-72952380D01*
X110976190Y-72952380D01*
X111452380Y-72952380D02*
X111357142Y-72904761D01*
X111309523Y-72857142D01*
X111261904Y-72761904D01*
X111261904Y-72476190D01*
X111309523Y-72380952D01*
X111357142Y-72333333D01*
X111452380Y-72285714D01*
X111595238Y-72285714D01*
X111690476Y-72333333D01*
X111738095Y-72380952D01*
X111785714Y-72476190D01*
X111785714Y-72761904D01*
X111738095Y-72857142D01*
X111690476Y-72904761D01*
X111595238Y-72952380D01*
X111452380Y-72952380D01*
X112214285Y-72952380D02*
X112214285Y-72285714D01*
X112214285Y-72476190D02*
X112261904Y-72380952D01*
X112309523Y-72333333D01*
X112404761Y-72285714D01*
X112500000Y-72285714D01*
X113357142Y-72952380D02*
X112785714Y-72952380D01*
X113071428Y-72952380D02*
X113071428Y-71952380D01*
X112976190Y-72095238D01*
X112880952Y-72190476D01*
X112785714Y-72238095D01*
X133147619Y-50361904D02*
X133147619Y-49561904D01*
X133338095Y-49561904D01*
X133452380Y-49600000D01*
X133528571Y-49676190D01*
X133566666Y-49752380D01*
X133604761Y-49904761D01*
X133604761Y-50019047D01*
X133566666Y-50171428D01*
X133528571Y-50247619D01*
X133452380Y-50323809D01*
X133338095Y-50361904D01*
X133147619Y-50361904D01*
X134366666Y-50361904D02*
X133909523Y-50361904D01*
X134138095Y-50361904D02*
X134138095Y-49561904D01*
X134061904Y-49676190D01*
X133985714Y-49752380D01*
X133909523Y-49790476D01*
X134861904Y-49561904D02*
X134938095Y-49561904D01*
X135014285Y-49600000D01*
X135052380Y-49638095D01*
X135090476Y-49714285D01*
X135128571Y-49866666D01*
X135128571Y-50057142D01*
X135090476Y-50209523D01*
X135052380Y-50285714D01*
X135014285Y-50323809D01*
X134938095Y-50361904D01*
X134861904Y-50361904D01*
X134785714Y-50323809D01*
X134747619Y-50285714D01*
X134709523Y-50209523D01*
X134671428Y-50057142D01*
X134671428Y-49866666D01*
X134709523Y-49714285D01*
X134747619Y-49638095D01*
X134785714Y-49600000D01*
X134861904Y-49561904D01*
X135433333Y-49638095D02*
X135471428Y-49600000D01*
X135547619Y-49561904D01*
X135738095Y-49561904D01*
X135814285Y-49600000D01*
X135852380Y-49638095D01*
X135890476Y-49714285D01*
X135890476Y-49790476D01*
X135852380Y-49904761D01*
X135395238Y-50361904D01*
X135890476Y-50361904D01*
X118130952Y-57607142D02*
X118083333Y-57654761D01*
X117940476Y-57702380D01*
X117845238Y-57702380D01*
X117702380Y-57654761D01*
X117607142Y-57559523D01*
X117559523Y-57464285D01*
X117511904Y-57273809D01*
X117511904Y-57130952D01*
X117559523Y-56940476D01*
X117607142Y-56845238D01*
X117702380Y-56750000D01*
X117845238Y-56702380D01*
X117940476Y-56702380D01*
X118083333Y-56750000D01*
X118130952Y-56797619D01*
X119083333Y-57702380D02*
X118511904Y-57702380D01*
X118797619Y-57702380D02*
X118797619Y-56702380D01*
X118702380Y-56845238D01*
X118607142Y-56940476D01*
X118511904Y-56988095D01*
X119702380Y-56702380D02*
X119797619Y-56702380D01*
X119892857Y-56750000D01*
X119940476Y-56797619D01*
X119988095Y-56892857D01*
X120035714Y-57083333D01*
X120035714Y-57321428D01*
X119988095Y-57511904D01*
X119940476Y-57607142D01*
X119892857Y-57654761D01*
X119797619Y-57702380D01*
X119702380Y-57702380D01*
X119607142Y-57654761D01*
X119559523Y-57607142D01*
X119511904Y-57511904D01*
X119464285Y-57321428D01*
X119464285Y-57083333D01*
X119511904Y-56892857D01*
X119559523Y-56797619D01*
X119607142Y-56750000D01*
X119702380Y-56702380D01*
X120416666Y-56797619D02*
X120464285Y-56750000D01*
X120559523Y-56702380D01*
X120797619Y-56702380D01*
X120892857Y-56750000D01*
X120940476Y-56797619D01*
X120988095Y-56892857D01*
X120988095Y-56988095D01*
X120940476Y-57130952D01*
X120369047Y-57702380D01*
X120988095Y-57702380D01*
X114130952Y-65107142D02*
X114083333Y-65154761D01*
X113940476Y-65202380D01*
X113845238Y-65202380D01*
X113702380Y-65154761D01*
X113607142Y-65059523D01*
X113559523Y-64964285D01*
X113511904Y-64773809D01*
X113511904Y-64630952D01*
X113559523Y-64440476D01*
X113607142Y-64345238D01*
X113702380Y-64250000D01*
X113845238Y-64202380D01*
X113940476Y-64202380D01*
X114083333Y-64250000D01*
X114130952Y-64297619D01*
X115083333Y-65202380D02*
X114511904Y-65202380D01*
X114797619Y-65202380D02*
X114797619Y-64202380D01*
X114702380Y-64345238D01*
X114607142Y-64440476D01*
X114511904Y-64488095D01*
X115702380Y-64202380D02*
X115797619Y-64202380D01*
X115892857Y-64250000D01*
X115940476Y-64297619D01*
X115988095Y-64392857D01*
X116035714Y-64583333D01*
X116035714Y-64821428D01*
X115988095Y-65011904D01*
X115940476Y-65107142D01*
X115892857Y-65154761D01*
X115797619Y-65202380D01*
X115702380Y-65202380D01*
X115607142Y-65154761D01*
X115559523Y-65107142D01*
X115511904Y-65011904D01*
X115464285Y-64821428D01*
X115464285Y-64583333D01*
X115511904Y-64392857D01*
X115559523Y-64297619D01*
X115607142Y-64250000D01*
X115702380Y-64202380D01*
X116988095Y-65202380D02*
X116416666Y-65202380D01*
X116702380Y-65202380D02*
X116702380Y-64202380D01*
X116607142Y-64345238D01*
X116511904Y-64440476D01*
X116416666Y-64488095D01*
X133147619Y-55861904D02*
X133147619Y-55061904D01*
X133338095Y-55061904D01*
X133452380Y-55100000D01*
X133528571Y-55176190D01*
X133566666Y-55252380D01*
X133604761Y-55404761D01*
X133604761Y-55519047D01*
X133566666Y-55671428D01*
X133528571Y-55747619D01*
X133452380Y-55823809D01*
X133338095Y-55861904D01*
X133147619Y-55861904D01*
X134366666Y-55861904D02*
X133909523Y-55861904D01*
X134138095Y-55861904D02*
X134138095Y-55061904D01*
X134061904Y-55176190D01*
X133985714Y-55252380D01*
X133909523Y-55290476D01*
X134861904Y-55061904D02*
X134938095Y-55061904D01*
X135014285Y-55100000D01*
X135052380Y-55138095D01*
X135090476Y-55214285D01*
X135128571Y-55366666D01*
X135128571Y-55557142D01*
X135090476Y-55709523D01*
X135052380Y-55785714D01*
X135014285Y-55823809D01*
X134938095Y-55861904D01*
X134861904Y-55861904D01*
X134785714Y-55823809D01*
X134747619Y-55785714D01*
X134709523Y-55709523D01*
X134671428Y-55557142D01*
X134671428Y-55366666D01*
X134709523Y-55214285D01*
X134747619Y-55138095D01*
X134785714Y-55100000D01*
X134861904Y-55061904D01*
X135890476Y-55861904D02*
X135433333Y-55861904D01*
X135661904Y-55861904D02*
X135661904Y-55061904D01*
X135585714Y-55176190D01*
X135509523Y-55252380D01*
X135433333Y-55290476D01*
X122452380Y-45869047D02*
X121976190Y-46202380D01*
X122452380Y-46440476D02*
X121452380Y-46440476D01*
X121452380Y-46059523D01*
X121500000Y-45964285D01*
X121547619Y-45916666D01*
X121642857Y-45869047D01*
X121785714Y-45869047D01*
X121880952Y-45916666D01*
X121928571Y-45964285D01*
X121976190Y-46059523D01*
X121976190Y-46440476D01*
X122452380Y-44916666D02*
X122452380Y-45488095D01*
X122452380Y-45202380D02*
X121452380Y-45202380D01*
X121595238Y-45297619D01*
X121690476Y-45392857D01*
X121738095Y-45488095D01*
X121452380Y-44297619D02*
X121452380Y-44202380D01*
X121500000Y-44107142D01*
X121547619Y-44059523D01*
X121642857Y-44011904D01*
X121833333Y-43964285D01*
X122071428Y-43964285D01*
X122261904Y-44011904D01*
X122357142Y-44059523D01*
X122404761Y-44107142D01*
X122452380Y-44202380D01*
X122452380Y-44297619D01*
X122404761Y-44392857D01*
X122357142Y-44440476D01*
X122261904Y-44488095D01*
X122071428Y-44535714D01*
X121833333Y-44535714D01*
X121642857Y-44488095D01*
X121547619Y-44440476D01*
X121500000Y-44392857D01*
X121452380Y-44297619D01*
X122452380Y-43011904D02*
X122452380Y-43583333D01*
X122452380Y-43297619D02*
X121452380Y-43297619D01*
X121595238Y-43392857D01*
X121690476Y-43488095D01*
X121738095Y-43583333D01*
M02*
