M48
; DRILL file {KiCad (5.1.0-0)} date Saturday, October 12, 2019 at 10:14:08 AM
; FORMAT={-:-/ absolute / metric / decimal}
; #@! TF.CreationDate,2019-10-12T10:14:08-07:00
; #@! TF.GenerationSoftware,Kicad,Pcbnew,(5.1.0-0)
; #@! TF.FileFunction,Plated,1,2,PTH
FMAT,2
METRIC
T1C0.330
T2C1.000
T3C1.100
%
G90
G05
T1
X108.5Y-43.0
X108.5Y-50.5
X108.645Y-46.5
X109.485Y-39.015
X115.0Y-34.0
X115.0Y-52.0
X115.95Y-58.8
X116.0Y-50.0
X116.5Y-36.5
X116.5Y-37.75
X116.5Y-57.0
X117.0Y-63.0
X117.5Y-35.0
X117.938Y-49.0
X118.0Y-54.5
X118.5Y-56.0
X119.5Y-33.75
X121.5Y-37.9
X121.5Y-39.0
X122.0Y-33.75
X123.25Y-55.0
X124.0Y-54.0
X126.0Y-44.5
X133.5Y-50.0
T2
X133.5Y-59.0
X133.5Y-61.54
X109.5Y-68.0
X131.46Y-35.92
X131.46Y-38.46
X131.46Y-41.0
X131.46Y-43.54
X134.0Y-35.92
X134.0Y-38.46
X134.0Y-41.0
X134.0Y-43.54
X134.0Y-46.08
X109.5Y-70.54
X131.46Y-46.08
X133.5Y-68.0
X133.5Y-70.54
X109.0Y-59.0
X109.0Y-61.54
T3
X112.38Y-70.48
X112.38Y-78.0
X114.92Y-70.48
X114.92Y-78.0
X117.46Y-70.48
X117.46Y-78.0
X120.0Y-70.48
X120.0Y-78.0
X122.54Y-70.48
X122.54Y-78.0
X125.08Y-70.48
X125.08Y-78.0
X127.62Y-70.48
X127.62Y-78.0
X112.38Y-34.49
X112.38Y-37.03
X112.38Y-39.57
X112.38Y-42.11
X112.38Y-44.65
X112.38Y-47.19
X112.38Y-49.73
X112.38Y-52.27
X112.38Y-54.81
X112.38Y-57.35
X112.38Y-59.89
X112.38Y-62.43
X112.38Y-64.97
X112.38Y-67.51
X114.92Y-67.51
X117.46Y-67.51
X120.0Y-67.51
X122.54Y-67.51
X125.08Y-37.03
X125.08Y-67.51
X127.62Y-34.49
X127.62Y-37.03
X127.62Y-39.57
X127.62Y-42.11
X127.62Y-44.65
X127.62Y-47.19
X127.62Y-49.73
X127.62Y-52.27
X127.62Y-54.81
X127.62Y-57.35
X127.62Y-59.89
X127.62Y-62.43
X127.62Y-64.97
X127.62Y-67.51
T0
M30
