G04 #@! TF.GenerationSoftware,KiCad,Pcbnew,(5.1.0-0)*
G04 #@! TF.CreationDate,2019-10-12T10:13:56-07:00*
G04 #@! TF.ProjectId,BB-Mainboard-0,42422d4d-6169-46e6-926f-6172642d302e,rev?*
G04 #@! TF.SameCoordinates,Original*
G04 #@! TF.FileFunction,Copper,L2,Bot*
G04 #@! TF.FilePolarity,Positive*
%FSLAX46Y46*%
G04 Gerber Fmt 4.6, Leading zero omitted, Abs format (unit mm)*
G04 Created by KiCad (PCBNEW (5.1.0-0)) date 2019-10-12 10:13:56*
%MOMM*%
%LPD*%
G04 APERTURE LIST*
%ADD10C,1.600000*%
%ADD11R,1.600000X1.600000*%
%ADD12R,0.900000X0.800000*%
%ADD13O,1.700000X1.700000*%
%ADD14R,1.700000X1.700000*%
%ADD15C,0.100000*%
%ADD16C,0.975000*%
%ADD17C,1.250000*%
%ADD18C,0.685800*%
%ADD19C,0.500000*%
%ADD20C,0.300000*%
%ADD21C,0.200000*%
%ADD22C,0.750000*%
%ADD23C,1.000000*%
%ADD24C,0.254000*%
G04 APERTURE END LIST*
D10*
X127620000Y-70480000D03*
X127620000Y-78000000D03*
X125080000Y-70480000D03*
X125080000Y-78000000D03*
X122540000Y-70480000D03*
X122540000Y-78000000D03*
X120000000Y-70480000D03*
X120000000Y-78000000D03*
X117460000Y-70480000D03*
X117460000Y-78000000D03*
X114920000Y-70480000D03*
X114920000Y-78000000D03*
X112380000Y-70480000D03*
X112380000Y-78000000D03*
D11*
X112380000Y-34490000D03*
D10*
X112380000Y-37030000D03*
X112380000Y-39570000D03*
X112380000Y-42110000D03*
X112380000Y-44650000D03*
X112380000Y-47190000D03*
X112380000Y-49730000D03*
X112380000Y-52270000D03*
X112380000Y-54810000D03*
X112380000Y-57350000D03*
X112380000Y-59890000D03*
X112380000Y-62430000D03*
X112380000Y-64970000D03*
X125080000Y-37030000D03*
X127620000Y-34490000D03*
X127620000Y-37030000D03*
X127620000Y-39570000D03*
X127620000Y-42110000D03*
X127620000Y-44650000D03*
X127620000Y-47190000D03*
X127620000Y-49730000D03*
X127620000Y-52270000D03*
X127620000Y-54810000D03*
X127620000Y-57350000D03*
X127620000Y-59890000D03*
X127620000Y-62430000D03*
X127620000Y-64970000D03*
X112380000Y-67510000D03*
X114920000Y-67510000D03*
X117460000Y-67510000D03*
X127620000Y-67510000D03*
X125080000Y-67510000D03*
X122540000Y-67510000D03*
X120000000Y-67510000D03*
D12*
X122450000Y-53000000D03*
X120450000Y-52050000D03*
X120450000Y-53950000D03*
X118000000Y-53000000D03*
X116000000Y-52050000D03*
X116000000Y-53950000D03*
D13*
X134000000Y-35920000D03*
X131460000Y-35920000D03*
X134000000Y-38460000D03*
X131460000Y-38460000D03*
X134000000Y-41000000D03*
X131460000Y-41000000D03*
X134000000Y-43540000D03*
X131460000Y-43540000D03*
X134000000Y-46080000D03*
D14*
X131460000Y-46080000D03*
D15*
G36*
X108767642Y-46801174D02*
G01*
X108791303Y-46804684D01*
X108814507Y-46810496D01*
X108837029Y-46818554D01*
X108858653Y-46828782D01*
X108879170Y-46841079D01*
X108898383Y-46855329D01*
X108916107Y-46871393D01*
X108932171Y-46889117D01*
X108946421Y-46908330D01*
X108958718Y-46928847D01*
X108968946Y-46950471D01*
X108977004Y-46972993D01*
X108982816Y-46996197D01*
X108986326Y-47019858D01*
X108987500Y-47043750D01*
X108987500Y-47956250D01*
X108986326Y-47980142D01*
X108982816Y-48003803D01*
X108977004Y-48027007D01*
X108968946Y-48049529D01*
X108958718Y-48071153D01*
X108946421Y-48091670D01*
X108932171Y-48110883D01*
X108916107Y-48128607D01*
X108898383Y-48144671D01*
X108879170Y-48158921D01*
X108858653Y-48171218D01*
X108837029Y-48181446D01*
X108814507Y-48189504D01*
X108791303Y-48195316D01*
X108767642Y-48198826D01*
X108743750Y-48200000D01*
X108256250Y-48200000D01*
X108232358Y-48198826D01*
X108208697Y-48195316D01*
X108185493Y-48189504D01*
X108162971Y-48181446D01*
X108141347Y-48171218D01*
X108120830Y-48158921D01*
X108101617Y-48144671D01*
X108083893Y-48128607D01*
X108067829Y-48110883D01*
X108053579Y-48091670D01*
X108041282Y-48071153D01*
X108031054Y-48049529D01*
X108022996Y-48027007D01*
X108017184Y-48003803D01*
X108013674Y-47980142D01*
X108012500Y-47956250D01*
X108012500Y-47043750D01*
X108013674Y-47019858D01*
X108017184Y-46996197D01*
X108022996Y-46972993D01*
X108031054Y-46950471D01*
X108041282Y-46928847D01*
X108053579Y-46908330D01*
X108067829Y-46889117D01*
X108083893Y-46871393D01*
X108101617Y-46855329D01*
X108120830Y-46841079D01*
X108141347Y-46828782D01*
X108162971Y-46818554D01*
X108185493Y-46810496D01*
X108208697Y-46804684D01*
X108232358Y-46801174D01*
X108256250Y-46800000D01*
X108743750Y-46800000D01*
X108767642Y-46801174D01*
X108767642Y-46801174D01*
G37*
D16*
X108500000Y-47500000D03*
D15*
G36*
X110642642Y-46801174D02*
G01*
X110666303Y-46804684D01*
X110689507Y-46810496D01*
X110712029Y-46818554D01*
X110733653Y-46828782D01*
X110754170Y-46841079D01*
X110773383Y-46855329D01*
X110791107Y-46871393D01*
X110807171Y-46889117D01*
X110821421Y-46908330D01*
X110833718Y-46928847D01*
X110843946Y-46950471D01*
X110852004Y-46972993D01*
X110857816Y-46996197D01*
X110861326Y-47019858D01*
X110862500Y-47043750D01*
X110862500Y-47956250D01*
X110861326Y-47980142D01*
X110857816Y-48003803D01*
X110852004Y-48027007D01*
X110843946Y-48049529D01*
X110833718Y-48071153D01*
X110821421Y-48091670D01*
X110807171Y-48110883D01*
X110791107Y-48128607D01*
X110773383Y-48144671D01*
X110754170Y-48158921D01*
X110733653Y-48171218D01*
X110712029Y-48181446D01*
X110689507Y-48189504D01*
X110666303Y-48195316D01*
X110642642Y-48198826D01*
X110618750Y-48200000D01*
X110131250Y-48200000D01*
X110107358Y-48198826D01*
X110083697Y-48195316D01*
X110060493Y-48189504D01*
X110037971Y-48181446D01*
X110016347Y-48171218D01*
X109995830Y-48158921D01*
X109976617Y-48144671D01*
X109958893Y-48128607D01*
X109942829Y-48110883D01*
X109928579Y-48091670D01*
X109916282Y-48071153D01*
X109906054Y-48049529D01*
X109897996Y-48027007D01*
X109892184Y-48003803D01*
X109888674Y-47980142D01*
X109887500Y-47956250D01*
X109887500Y-47043750D01*
X109888674Y-47019858D01*
X109892184Y-46996197D01*
X109897996Y-46972993D01*
X109906054Y-46950471D01*
X109916282Y-46928847D01*
X109928579Y-46908330D01*
X109942829Y-46889117D01*
X109958893Y-46871393D01*
X109976617Y-46855329D01*
X109995830Y-46841079D01*
X110016347Y-46828782D01*
X110037971Y-46818554D01*
X110060493Y-46810496D01*
X110083697Y-46804684D01*
X110107358Y-46801174D01*
X110131250Y-46800000D01*
X110618750Y-46800000D01*
X110642642Y-46801174D01*
X110642642Y-46801174D01*
G37*
D16*
X110375000Y-47500000D03*
D15*
G36*
X108767642Y-42301174D02*
G01*
X108791303Y-42304684D01*
X108814507Y-42310496D01*
X108837029Y-42318554D01*
X108858653Y-42328782D01*
X108879170Y-42341079D01*
X108898383Y-42355329D01*
X108916107Y-42371393D01*
X108932171Y-42389117D01*
X108946421Y-42408330D01*
X108958718Y-42428847D01*
X108968946Y-42450471D01*
X108977004Y-42472993D01*
X108982816Y-42496197D01*
X108986326Y-42519858D01*
X108987500Y-42543750D01*
X108987500Y-43456250D01*
X108986326Y-43480142D01*
X108982816Y-43503803D01*
X108977004Y-43527007D01*
X108968946Y-43549529D01*
X108958718Y-43571153D01*
X108946421Y-43591670D01*
X108932171Y-43610883D01*
X108916107Y-43628607D01*
X108898383Y-43644671D01*
X108879170Y-43658921D01*
X108858653Y-43671218D01*
X108837029Y-43681446D01*
X108814507Y-43689504D01*
X108791303Y-43695316D01*
X108767642Y-43698826D01*
X108743750Y-43700000D01*
X108256250Y-43700000D01*
X108232358Y-43698826D01*
X108208697Y-43695316D01*
X108185493Y-43689504D01*
X108162971Y-43681446D01*
X108141347Y-43671218D01*
X108120830Y-43658921D01*
X108101617Y-43644671D01*
X108083893Y-43628607D01*
X108067829Y-43610883D01*
X108053579Y-43591670D01*
X108041282Y-43571153D01*
X108031054Y-43549529D01*
X108022996Y-43527007D01*
X108017184Y-43503803D01*
X108013674Y-43480142D01*
X108012500Y-43456250D01*
X108012500Y-42543750D01*
X108013674Y-42519858D01*
X108017184Y-42496197D01*
X108022996Y-42472993D01*
X108031054Y-42450471D01*
X108041282Y-42428847D01*
X108053579Y-42408330D01*
X108067829Y-42389117D01*
X108083893Y-42371393D01*
X108101617Y-42355329D01*
X108120830Y-42341079D01*
X108141347Y-42328782D01*
X108162971Y-42318554D01*
X108185493Y-42310496D01*
X108208697Y-42304684D01*
X108232358Y-42301174D01*
X108256250Y-42300000D01*
X108743750Y-42300000D01*
X108767642Y-42301174D01*
X108767642Y-42301174D01*
G37*
D16*
X108500000Y-43000000D03*
D15*
G36*
X110642642Y-42301174D02*
G01*
X110666303Y-42304684D01*
X110689507Y-42310496D01*
X110712029Y-42318554D01*
X110733653Y-42328782D01*
X110754170Y-42341079D01*
X110773383Y-42355329D01*
X110791107Y-42371393D01*
X110807171Y-42389117D01*
X110821421Y-42408330D01*
X110833718Y-42428847D01*
X110843946Y-42450471D01*
X110852004Y-42472993D01*
X110857816Y-42496197D01*
X110861326Y-42519858D01*
X110862500Y-42543750D01*
X110862500Y-43456250D01*
X110861326Y-43480142D01*
X110857816Y-43503803D01*
X110852004Y-43527007D01*
X110843946Y-43549529D01*
X110833718Y-43571153D01*
X110821421Y-43591670D01*
X110807171Y-43610883D01*
X110791107Y-43628607D01*
X110773383Y-43644671D01*
X110754170Y-43658921D01*
X110733653Y-43671218D01*
X110712029Y-43681446D01*
X110689507Y-43689504D01*
X110666303Y-43695316D01*
X110642642Y-43698826D01*
X110618750Y-43700000D01*
X110131250Y-43700000D01*
X110107358Y-43698826D01*
X110083697Y-43695316D01*
X110060493Y-43689504D01*
X110037971Y-43681446D01*
X110016347Y-43671218D01*
X109995830Y-43658921D01*
X109976617Y-43644671D01*
X109958893Y-43628607D01*
X109942829Y-43610883D01*
X109928579Y-43591670D01*
X109916282Y-43571153D01*
X109906054Y-43549529D01*
X109897996Y-43527007D01*
X109892184Y-43503803D01*
X109888674Y-43480142D01*
X109887500Y-43456250D01*
X109887500Y-42543750D01*
X109888674Y-42519858D01*
X109892184Y-42496197D01*
X109897996Y-42472993D01*
X109906054Y-42450471D01*
X109916282Y-42428847D01*
X109928579Y-42408330D01*
X109942829Y-42389117D01*
X109958893Y-42371393D01*
X109976617Y-42355329D01*
X109995830Y-42341079D01*
X110016347Y-42328782D01*
X110037971Y-42318554D01*
X110060493Y-42310496D01*
X110083697Y-42304684D01*
X110107358Y-42301174D01*
X110131250Y-42300000D01*
X110618750Y-42300000D01*
X110642642Y-42301174D01*
X110642642Y-42301174D01*
G37*
D16*
X110375000Y-43000000D03*
D15*
G36*
X108767642Y-49801174D02*
G01*
X108791303Y-49804684D01*
X108814507Y-49810496D01*
X108837029Y-49818554D01*
X108858653Y-49828782D01*
X108879170Y-49841079D01*
X108898383Y-49855329D01*
X108916107Y-49871393D01*
X108932171Y-49889117D01*
X108946421Y-49908330D01*
X108958718Y-49928847D01*
X108968946Y-49950471D01*
X108977004Y-49972993D01*
X108982816Y-49996197D01*
X108986326Y-50019858D01*
X108987500Y-50043750D01*
X108987500Y-50956250D01*
X108986326Y-50980142D01*
X108982816Y-51003803D01*
X108977004Y-51027007D01*
X108968946Y-51049529D01*
X108958718Y-51071153D01*
X108946421Y-51091670D01*
X108932171Y-51110883D01*
X108916107Y-51128607D01*
X108898383Y-51144671D01*
X108879170Y-51158921D01*
X108858653Y-51171218D01*
X108837029Y-51181446D01*
X108814507Y-51189504D01*
X108791303Y-51195316D01*
X108767642Y-51198826D01*
X108743750Y-51200000D01*
X108256250Y-51200000D01*
X108232358Y-51198826D01*
X108208697Y-51195316D01*
X108185493Y-51189504D01*
X108162971Y-51181446D01*
X108141347Y-51171218D01*
X108120830Y-51158921D01*
X108101617Y-51144671D01*
X108083893Y-51128607D01*
X108067829Y-51110883D01*
X108053579Y-51091670D01*
X108041282Y-51071153D01*
X108031054Y-51049529D01*
X108022996Y-51027007D01*
X108017184Y-51003803D01*
X108013674Y-50980142D01*
X108012500Y-50956250D01*
X108012500Y-50043750D01*
X108013674Y-50019858D01*
X108017184Y-49996197D01*
X108022996Y-49972993D01*
X108031054Y-49950471D01*
X108041282Y-49928847D01*
X108053579Y-49908330D01*
X108067829Y-49889117D01*
X108083893Y-49871393D01*
X108101617Y-49855329D01*
X108120830Y-49841079D01*
X108141347Y-49828782D01*
X108162971Y-49818554D01*
X108185493Y-49810496D01*
X108208697Y-49804684D01*
X108232358Y-49801174D01*
X108256250Y-49800000D01*
X108743750Y-49800000D01*
X108767642Y-49801174D01*
X108767642Y-49801174D01*
G37*
D16*
X108500000Y-50500000D03*
D15*
G36*
X110642642Y-49801174D02*
G01*
X110666303Y-49804684D01*
X110689507Y-49810496D01*
X110712029Y-49818554D01*
X110733653Y-49828782D01*
X110754170Y-49841079D01*
X110773383Y-49855329D01*
X110791107Y-49871393D01*
X110807171Y-49889117D01*
X110821421Y-49908330D01*
X110833718Y-49928847D01*
X110843946Y-49950471D01*
X110852004Y-49972993D01*
X110857816Y-49996197D01*
X110861326Y-50019858D01*
X110862500Y-50043750D01*
X110862500Y-50956250D01*
X110861326Y-50980142D01*
X110857816Y-51003803D01*
X110852004Y-51027007D01*
X110843946Y-51049529D01*
X110833718Y-51071153D01*
X110821421Y-51091670D01*
X110807171Y-51110883D01*
X110791107Y-51128607D01*
X110773383Y-51144671D01*
X110754170Y-51158921D01*
X110733653Y-51171218D01*
X110712029Y-51181446D01*
X110689507Y-51189504D01*
X110666303Y-51195316D01*
X110642642Y-51198826D01*
X110618750Y-51200000D01*
X110131250Y-51200000D01*
X110107358Y-51198826D01*
X110083697Y-51195316D01*
X110060493Y-51189504D01*
X110037971Y-51181446D01*
X110016347Y-51171218D01*
X109995830Y-51158921D01*
X109976617Y-51144671D01*
X109958893Y-51128607D01*
X109942829Y-51110883D01*
X109928579Y-51091670D01*
X109916282Y-51071153D01*
X109906054Y-51049529D01*
X109897996Y-51027007D01*
X109892184Y-51003803D01*
X109888674Y-50980142D01*
X109887500Y-50956250D01*
X109887500Y-50043750D01*
X109888674Y-50019858D01*
X109892184Y-49996197D01*
X109897996Y-49972993D01*
X109906054Y-49950471D01*
X109916282Y-49928847D01*
X109928579Y-49908330D01*
X109942829Y-49889117D01*
X109958893Y-49871393D01*
X109976617Y-49855329D01*
X109995830Y-49841079D01*
X110016347Y-49828782D01*
X110037971Y-49818554D01*
X110060493Y-49810496D01*
X110083697Y-49804684D01*
X110107358Y-49801174D01*
X110131250Y-49800000D01*
X110618750Y-49800000D01*
X110642642Y-49801174D01*
X110642642Y-49801174D01*
G37*
D16*
X110375000Y-50500000D03*
D15*
G36*
X132642642Y-48051174D02*
G01*
X132666303Y-48054684D01*
X132689507Y-48060496D01*
X132712029Y-48068554D01*
X132733653Y-48078782D01*
X132754170Y-48091079D01*
X132773383Y-48105329D01*
X132791107Y-48121393D01*
X132807171Y-48139117D01*
X132821421Y-48158330D01*
X132833718Y-48178847D01*
X132843946Y-48200471D01*
X132852004Y-48222993D01*
X132857816Y-48246197D01*
X132861326Y-48269858D01*
X132862500Y-48293750D01*
X132862500Y-49206250D01*
X132861326Y-49230142D01*
X132857816Y-49253803D01*
X132852004Y-49277007D01*
X132843946Y-49299529D01*
X132833718Y-49321153D01*
X132821421Y-49341670D01*
X132807171Y-49360883D01*
X132791107Y-49378607D01*
X132773383Y-49394671D01*
X132754170Y-49408921D01*
X132733653Y-49421218D01*
X132712029Y-49431446D01*
X132689507Y-49439504D01*
X132666303Y-49445316D01*
X132642642Y-49448826D01*
X132618750Y-49450000D01*
X132131250Y-49450000D01*
X132107358Y-49448826D01*
X132083697Y-49445316D01*
X132060493Y-49439504D01*
X132037971Y-49431446D01*
X132016347Y-49421218D01*
X131995830Y-49408921D01*
X131976617Y-49394671D01*
X131958893Y-49378607D01*
X131942829Y-49360883D01*
X131928579Y-49341670D01*
X131916282Y-49321153D01*
X131906054Y-49299529D01*
X131897996Y-49277007D01*
X131892184Y-49253803D01*
X131888674Y-49230142D01*
X131887500Y-49206250D01*
X131887500Y-48293750D01*
X131888674Y-48269858D01*
X131892184Y-48246197D01*
X131897996Y-48222993D01*
X131906054Y-48200471D01*
X131916282Y-48178847D01*
X131928579Y-48158330D01*
X131942829Y-48139117D01*
X131958893Y-48121393D01*
X131976617Y-48105329D01*
X131995830Y-48091079D01*
X132016347Y-48078782D01*
X132037971Y-48068554D01*
X132060493Y-48060496D01*
X132083697Y-48054684D01*
X132107358Y-48051174D01*
X132131250Y-48050000D01*
X132618750Y-48050000D01*
X132642642Y-48051174D01*
X132642642Y-48051174D01*
G37*
D16*
X132375000Y-48750000D03*
D15*
G36*
X130767642Y-48051174D02*
G01*
X130791303Y-48054684D01*
X130814507Y-48060496D01*
X130837029Y-48068554D01*
X130858653Y-48078782D01*
X130879170Y-48091079D01*
X130898383Y-48105329D01*
X130916107Y-48121393D01*
X130932171Y-48139117D01*
X130946421Y-48158330D01*
X130958718Y-48178847D01*
X130968946Y-48200471D01*
X130977004Y-48222993D01*
X130982816Y-48246197D01*
X130986326Y-48269858D01*
X130987500Y-48293750D01*
X130987500Y-49206250D01*
X130986326Y-49230142D01*
X130982816Y-49253803D01*
X130977004Y-49277007D01*
X130968946Y-49299529D01*
X130958718Y-49321153D01*
X130946421Y-49341670D01*
X130932171Y-49360883D01*
X130916107Y-49378607D01*
X130898383Y-49394671D01*
X130879170Y-49408921D01*
X130858653Y-49421218D01*
X130837029Y-49431446D01*
X130814507Y-49439504D01*
X130791303Y-49445316D01*
X130767642Y-49448826D01*
X130743750Y-49450000D01*
X130256250Y-49450000D01*
X130232358Y-49448826D01*
X130208697Y-49445316D01*
X130185493Y-49439504D01*
X130162971Y-49431446D01*
X130141347Y-49421218D01*
X130120830Y-49408921D01*
X130101617Y-49394671D01*
X130083893Y-49378607D01*
X130067829Y-49360883D01*
X130053579Y-49341670D01*
X130041282Y-49321153D01*
X130031054Y-49299529D01*
X130022996Y-49277007D01*
X130017184Y-49253803D01*
X130013674Y-49230142D01*
X130012500Y-49206250D01*
X130012500Y-48293750D01*
X130013674Y-48269858D01*
X130017184Y-48246197D01*
X130022996Y-48222993D01*
X130031054Y-48200471D01*
X130041282Y-48178847D01*
X130053579Y-48158330D01*
X130067829Y-48139117D01*
X130083893Y-48121393D01*
X130101617Y-48105329D01*
X130120830Y-48091079D01*
X130141347Y-48078782D01*
X130162971Y-48068554D01*
X130185493Y-48060496D01*
X130208697Y-48054684D01*
X130232358Y-48051174D01*
X130256250Y-48050000D01*
X130743750Y-48050000D01*
X130767642Y-48051174D01*
X130767642Y-48051174D01*
G37*
D16*
X130500000Y-48750000D03*
D15*
G36*
X132642642Y-50551174D02*
G01*
X132666303Y-50554684D01*
X132689507Y-50560496D01*
X132712029Y-50568554D01*
X132733653Y-50578782D01*
X132754170Y-50591079D01*
X132773383Y-50605329D01*
X132791107Y-50621393D01*
X132807171Y-50639117D01*
X132821421Y-50658330D01*
X132833718Y-50678847D01*
X132843946Y-50700471D01*
X132852004Y-50722993D01*
X132857816Y-50746197D01*
X132861326Y-50769858D01*
X132862500Y-50793750D01*
X132862500Y-51706250D01*
X132861326Y-51730142D01*
X132857816Y-51753803D01*
X132852004Y-51777007D01*
X132843946Y-51799529D01*
X132833718Y-51821153D01*
X132821421Y-51841670D01*
X132807171Y-51860883D01*
X132791107Y-51878607D01*
X132773383Y-51894671D01*
X132754170Y-51908921D01*
X132733653Y-51921218D01*
X132712029Y-51931446D01*
X132689507Y-51939504D01*
X132666303Y-51945316D01*
X132642642Y-51948826D01*
X132618750Y-51950000D01*
X132131250Y-51950000D01*
X132107358Y-51948826D01*
X132083697Y-51945316D01*
X132060493Y-51939504D01*
X132037971Y-51931446D01*
X132016347Y-51921218D01*
X131995830Y-51908921D01*
X131976617Y-51894671D01*
X131958893Y-51878607D01*
X131942829Y-51860883D01*
X131928579Y-51841670D01*
X131916282Y-51821153D01*
X131906054Y-51799529D01*
X131897996Y-51777007D01*
X131892184Y-51753803D01*
X131888674Y-51730142D01*
X131887500Y-51706250D01*
X131887500Y-50793750D01*
X131888674Y-50769858D01*
X131892184Y-50746197D01*
X131897996Y-50722993D01*
X131906054Y-50700471D01*
X131916282Y-50678847D01*
X131928579Y-50658330D01*
X131942829Y-50639117D01*
X131958893Y-50621393D01*
X131976617Y-50605329D01*
X131995830Y-50591079D01*
X132016347Y-50578782D01*
X132037971Y-50568554D01*
X132060493Y-50560496D01*
X132083697Y-50554684D01*
X132107358Y-50551174D01*
X132131250Y-50550000D01*
X132618750Y-50550000D01*
X132642642Y-50551174D01*
X132642642Y-50551174D01*
G37*
D16*
X132375000Y-51250000D03*
D15*
G36*
X130767642Y-50551174D02*
G01*
X130791303Y-50554684D01*
X130814507Y-50560496D01*
X130837029Y-50568554D01*
X130858653Y-50578782D01*
X130879170Y-50591079D01*
X130898383Y-50605329D01*
X130916107Y-50621393D01*
X130932171Y-50639117D01*
X130946421Y-50658330D01*
X130958718Y-50678847D01*
X130968946Y-50700471D01*
X130977004Y-50722993D01*
X130982816Y-50746197D01*
X130986326Y-50769858D01*
X130987500Y-50793750D01*
X130987500Y-51706250D01*
X130986326Y-51730142D01*
X130982816Y-51753803D01*
X130977004Y-51777007D01*
X130968946Y-51799529D01*
X130958718Y-51821153D01*
X130946421Y-51841670D01*
X130932171Y-51860883D01*
X130916107Y-51878607D01*
X130898383Y-51894671D01*
X130879170Y-51908921D01*
X130858653Y-51921218D01*
X130837029Y-51931446D01*
X130814507Y-51939504D01*
X130791303Y-51945316D01*
X130767642Y-51948826D01*
X130743750Y-51950000D01*
X130256250Y-51950000D01*
X130232358Y-51948826D01*
X130208697Y-51945316D01*
X130185493Y-51939504D01*
X130162971Y-51931446D01*
X130141347Y-51921218D01*
X130120830Y-51908921D01*
X130101617Y-51894671D01*
X130083893Y-51878607D01*
X130067829Y-51860883D01*
X130053579Y-51841670D01*
X130041282Y-51821153D01*
X130031054Y-51799529D01*
X130022996Y-51777007D01*
X130017184Y-51753803D01*
X130013674Y-51730142D01*
X130012500Y-51706250D01*
X130012500Y-50793750D01*
X130013674Y-50769858D01*
X130017184Y-50746197D01*
X130022996Y-50722993D01*
X130031054Y-50700471D01*
X130041282Y-50678847D01*
X130053579Y-50658330D01*
X130067829Y-50639117D01*
X130083893Y-50621393D01*
X130101617Y-50605329D01*
X130120830Y-50591079D01*
X130141347Y-50578782D01*
X130162971Y-50568554D01*
X130185493Y-50560496D01*
X130208697Y-50554684D01*
X130232358Y-50551174D01*
X130256250Y-50550000D01*
X130743750Y-50550000D01*
X130767642Y-50551174D01*
X130767642Y-50551174D01*
G37*
D16*
X130500000Y-51250000D03*
D15*
G36*
X125649504Y-51976204D02*
G01*
X125673773Y-51979804D01*
X125697571Y-51985765D01*
X125720671Y-51994030D01*
X125742849Y-52004520D01*
X125763893Y-52017133D01*
X125783598Y-52031747D01*
X125801777Y-52048223D01*
X125818253Y-52066402D01*
X125832867Y-52086107D01*
X125845480Y-52107151D01*
X125855970Y-52129329D01*
X125864235Y-52152429D01*
X125870196Y-52176227D01*
X125873796Y-52200496D01*
X125875000Y-52225000D01*
X125875000Y-52975000D01*
X125873796Y-52999504D01*
X125870196Y-53023773D01*
X125864235Y-53047571D01*
X125855970Y-53070671D01*
X125845480Y-53092849D01*
X125832867Y-53113893D01*
X125818253Y-53133598D01*
X125801777Y-53151777D01*
X125783598Y-53168253D01*
X125763893Y-53182867D01*
X125742849Y-53195480D01*
X125720671Y-53205970D01*
X125697571Y-53214235D01*
X125673773Y-53220196D01*
X125649504Y-53223796D01*
X125625000Y-53225000D01*
X124375000Y-53225000D01*
X124350496Y-53223796D01*
X124326227Y-53220196D01*
X124302429Y-53214235D01*
X124279329Y-53205970D01*
X124257151Y-53195480D01*
X124236107Y-53182867D01*
X124216402Y-53168253D01*
X124198223Y-53151777D01*
X124181747Y-53133598D01*
X124167133Y-53113893D01*
X124154520Y-53092849D01*
X124144030Y-53070671D01*
X124135765Y-53047571D01*
X124129804Y-53023773D01*
X124126204Y-52999504D01*
X124125000Y-52975000D01*
X124125000Y-52225000D01*
X124126204Y-52200496D01*
X124129804Y-52176227D01*
X124135765Y-52152429D01*
X124144030Y-52129329D01*
X124154520Y-52107151D01*
X124167133Y-52086107D01*
X124181747Y-52066402D01*
X124198223Y-52048223D01*
X124216402Y-52031747D01*
X124236107Y-52017133D01*
X124257151Y-52004520D01*
X124279329Y-51994030D01*
X124302429Y-51985765D01*
X124326227Y-51979804D01*
X124350496Y-51976204D01*
X124375000Y-51975000D01*
X125625000Y-51975000D01*
X125649504Y-51976204D01*
X125649504Y-51976204D01*
G37*
D17*
X125000000Y-52600000D03*
D15*
G36*
X125649504Y-54776204D02*
G01*
X125673773Y-54779804D01*
X125697571Y-54785765D01*
X125720671Y-54794030D01*
X125742849Y-54804520D01*
X125763893Y-54817133D01*
X125783598Y-54831747D01*
X125801777Y-54848223D01*
X125818253Y-54866402D01*
X125832867Y-54886107D01*
X125845480Y-54907151D01*
X125855970Y-54929329D01*
X125864235Y-54952429D01*
X125870196Y-54976227D01*
X125873796Y-55000496D01*
X125875000Y-55025000D01*
X125875000Y-55775000D01*
X125873796Y-55799504D01*
X125870196Y-55823773D01*
X125864235Y-55847571D01*
X125855970Y-55870671D01*
X125845480Y-55892849D01*
X125832867Y-55913893D01*
X125818253Y-55933598D01*
X125801777Y-55951777D01*
X125783598Y-55968253D01*
X125763893Y-55982867D01*
X125742849Y-55995480D01*
X125720671Y-56005970D01*
X125697571Y-56014235D01*
X125673773Y-56020196D01*
X125649504Y-56023796D01*
X125625000Y-56025000D01*
X124375000Y-56025000D01*
X124350496Y-56023796D01*
X124326227Y-56020196D01*
X124302429Y-56014235D01*
X124279329Y-56005970D01*
X124257151Y-55995480D01*
X124236107Y-55982867D01*
X124216402Y-55968253D01*
X124198223Y-55951777D01*
X124181747Y-55933598D01*
X124167133Y-55913893D01*
X124154520Y-55892849D01*
X124144030Y-55870671D01*
X124135765Y-55847571D01*
X124129804Y-55823773D01*
X124126204Y-55799504D01*
X124125000Y-55775000D01*
X124125000Y-55025000D01*
X124126204Y-55000496D01*
X124129804Y-54976227D01*
X124135765Y-54952429D01*
X124144030Y-54929329D01*
X124154520Y-54907151D01*
X124167133Y-54886107D01*
X124181747Y-54866402D01*
X124198223Y-54848223D01*
X124216402Y-54831747D01*
X124236107Y-54817133D01*
X124257151Y-54804520D01*
X124279329Y-54794030D01*
X124302429Y-54785765D01*
X124326227Y-54779804D01*
X124350496Y-54776204D01*
X124375000Y-54775000D01*
X125625000Y-54775000D01*
X125649504Y-54776204D01*
X125649504Y-54776204D01*
G37*
D17*
X125000000Y-55400000D03*
D15*
G36*
X130980142Y-61489087D02*
G01*
X131003803Y-61492597D01*
X131027007Y-61498409D01*
X131049529Y-61506467D01*
X131071153Y-61516695D01*
X131091670Y-61528992D01*
X131110883Y-61543242D01*
X131128607Y-61559306D01*
X131144671Y-61577030D01*
X131158921Y-61596243D01*
X131171218Y-61616760D01*
X131181446Y-61638384D01*
X131189504Y-61660906D01*
X131195316Y-61684110D01*
X131198826Y-61707771D01*
X131200000Y-61731663D01*
X131200000Y-62219163D01*
X131198826Y-62243055D01*
X131195316Y-62266716D01*
X131189504Y-62289920D01*
X131181446Y-62312442D01*
X131171218Y-62334066D01*
X131158921Y-62354583D01*
X131144671Y-62373796D01*
X131128607Y-62391520D01*
X131110883Y-62407584D01*
X131091670Y-62421834D01*
X131071153Y-62434131D01*
X131049529Y-62444359D01*
X131027007Y-62452417D01*
X131003803Y-62458229D01*
X130980142Y-62461739D01*
X130956250Y-62462913D01*
X130043750Y-62462913D01*
X130019858Y-62461739D01*
X129996197Y-62458229D01*
X129972993Y-62452417D01*
X129950471Y-62444359D01*
X129928847Y-62434131D01*
X129908330Y-62421834D01*
X129889117Y-62407584D01*
X129871393Y-62391520D01*
X129855329Y-62373796D01*
X129841079Y-62354583D01*
X129828782Y-62334066D01*
X129818554Y-62312442D01*
X129810496Y-62289920D01*
X129804684Y-62266716D01*
X129801174Y-62243055D01*
X129800000Y-62219163D01*
X129800000Y-61731663D01*
X129801174Y-61707771D01*
X129804684Y-61684110D01*
X129810496Y-61660906D01*
X129818554Y-61638384D01*
X129828782Y-61616760D01*
X129841079Y-61596243D01*
X129855329Y-61577030D01*
X129871393Y-61559306D01*
X129889117Y-61543242D01*
X129908330Y-61528992D01*
X129928847Y-61516695D01*
X129950471Y-61506467D01*
X129972993Y-61498409D01*
X129996197Y-61492597D01*
X130019858Y-61489087D01*
X130043750Y-61487913D01*
X130956250Y-61487913D01*
X130980142Y-61489087D01*
X130980142Y-61489087D01*
G37*
D16*
X130500000Y-61975413D03*
D15*
G36*
X130980142Y-63364087D02*
G01*
X131003803Y-63367597D01*
X131027007Y-63373409D01*
X131049529Y-63381467D01*
X131071153Y-63391695D01*
X131091670Y-63403992D01*
X131110883Y-63418242D01*
X131128607Y-63434306D01*
X131144671Y-63452030D01*
X131158921Y-63471243D01*
X131171218Y-63491760D01*
X131181446Y-63513384D01*
X131189504Y-63535906D01*
X131195316Y-63559110D01*
X131198826Y-63582771D01*
X131200000Y-63606663D01*
X131200000Y-64094163D01*
X131198826Y-64118055D01*
X131195316Y-64141716D01*
X131189504Y-64164920D01*
X131181446Y-64187442D01*
X131171218Y-64209066D01*
X131158921Y-64229583D01*
X131144671Y-64248796D01*
X131128607Y-64266520D01*
X131110883Y-64282584D01*
X131091670Y-64296834D01*
X131071153Y-64309131D01*
X131049529Y-64319359D01*
X131027007Y-64327417D01*
X131003803Y-64333229D01*
X130980142Y-64336739D01*
X130956250Y-64337913D01*
X130043750Y-64337913D01*
X130019858Y-64336739D01*
X129996197Y-64333229D01*
X129972993Y-64327417D01*
X129950471Y-64319359D01*
X129928847Y-64309131D01*
X129908330Y-64296834D01*
X129889117Y-64282584D01*
X129871393Y-64266520D01*
X129855329Y-64248796D01*
X129841079Y-64229583D01*
X129828782Y-64209066D01*
X129818554Y-64187442D01*
X129810496Y-64164920D01*
X129804684Y-64141716D01*
X129801174Y-64118055D01*
X129800000Y-64094163D01*
X129800000Y-63606663D01*
X129801174Y-63582771D01*
X129804684Y-63559110D01*
X129810496Y-63535906D01*
X129818554Y-63513384D01*
X129828782Y-63491760D01*
X129841079Y-63471243D01*
X129855329Y-63452030D01*
X129871393Y-63434306D01*
X129889117Y-63418242D01*
X129908330Y-63403992D01*
X129928847Y-63391695D01*
X129950471Y-63381467D01*
X129972993Y-63373409D01*
X129996197Y-63367597D01*
X130019858Y-63364087D01*
X130043750Y-63362913D01*
X130956250Y-63362913D01*
X130980142Y-63364087D01*
X130980142Y-63364087D01*
G37*
D16*
X130500000Y-63850413D03*
D13*
X133500000Y-61540000D03*
D14*
X133500000Y-59000000D03*
D13*
X109000000Y-61540000D03*
D14*
X109000000Y-59000000D03*
D13*
X133500000Y-70540000D03*
D14*
X133500000Y-68000000D03*
D13*
X109500000Y-70540000D03*
D14*
X109500000Y-68000000D03*
D15*
G36*
X130980142Y-59701174D02*
G01*
X131003803Y-59704684D01*
X131027007Y-59710496D01*
X131049529Y-59718554D01*
X131071153Y-59728782D01*
X131091670Y-59741079D01*
X131110883Y-59755329D01*
X131128607Y-59771393D01*
X131144671Y-59789117D01*
X131158921Y-59808330D01*
X131171218Y-59828847D01*
X131181446Y-59850471D01*
X131189504Y-59872993D01*
X131195316Y-59896197D01*
X131198826Y-59919858D01*
X131200000Y-59943750D01*
X131200000Y-60431250D01*
X131198826Y-60455142D01*
X131195316Y-60478803D01*
X131189504Y-60502007D01*
X131181446Y-60524529D01*
X131171218Y-60546153D01*
X131158921Y-60566670D01*
X131144671Y-60585883D01*
X131128607Y-60603607D01*
X131110883Y-60619671D01*
X131091670Y-60633921D01*
X131071153Y-60646218D01*
X131049529Y-60656446D01*
X131027007Y-60664504D01*
X131003803Y-60670316D01*
X130980142Y-60673826D01*
X130956250Y-60675000D01*
X130043750Y-60675000D01*
X130019858Y-60673826D01*
X129996197Y-60670316D01*
X129972993Y-60664504D01*
X129950471Y-60656446D01*
X129928847Y-60646218D01*
X129908330Y-60633921D01*
X129889117Y-60619671D01*
X129871393Y-60603607D01*
X129855329Y-60585883D01*
X129841079Y-60566670D01*
X129828782Y-60546153D01*
X129818554Y-60524529D01*
X129810496Y-60502007D01*
X129804684Y-60478803D01*
X129801174Y-60455142D01*
X129800000Y-60431250D01*
X129800000Y-59943750D01*
X129801174Y-59919858D01*
X129804684Y-59896197D01*
X129810496Y-59872993D01*
X129818554Y-59850471D01*
X129828782Y-59828847D01*
X129841079Y-59808330D01*
X129855329Y-59789117D01*
X129871393Y-59771393D01*
X129889117Y-59755329D01*
X129908330Y-59741079D01*
X129928847Y-59728782D01*
X129950471Y-59718554D01*
X129972993Y-59710496D01*
X129996197Y-59704684D01*
X130019858Y-59701174D01*
X130043750Y-59700000D01*
X130956250Y-59700000D01*
X130980142Y-59701174D01*
X130980142Y-59701174D01*
G37*
D16*
X130500000Y-60187500D03*
D15*
G36*
X130980142Y-57826174D02*
G01*
X131003803Y-57829684D01*
X131027007Y-57835496D01*
X131049529Y-57843554D01*
X131071153Y-57853782D01*
X131091670Y-57866079D01*
X131110883Y-57880329D01*
X131128607Y-57896393D01*
X131144671Y-57914117D01*
X131158921Y-57933330D01*
X131171218Y-57953847D01*
X131181446Y-57975471D01*
X131189504Y-57997993D01*
X131195316Y-58021197D01*
X131198826Y-58044858D01*
X131200000Y-58068750D01*
X131200000Y-58556250D01*
X131198826Y-58580142D01*
X131195316Y-58603803D01*
X131189504Y-58627007D01*
X131181446Y-58649529D01*
X131171218Y-58671153D01*
X131158921Y-58691670D01*
X131144671Y-58710883D01*
X131128607Y-58728607D01*
X131110883Y-58744671D01*
X131091670Y-58758921D01*
X131071153Y-58771218D01*
X131049529Y-58781446D01*
X131027007Y-58789504D01*
X131003803Y-58795316D01*
X130980142Y-58798826D01*
X130956250Y-58800000D01*
X130043750Y-58800000D01*
X130019858Y-58798826D01*
X129996197Y-58795316D01*
X129972993Y-58789504D01*
X129950471Y-58781446D01*
X129928847Y-58771218D01*
X129908330Y-58758921D01*
X129889117Y-58744671D01*
X129871393Y-58728607D01*
X129855329Y-58710883D01*
X129841079Y-58691670D01*
X129828782Y-58671153D01*
X129818554Y-58649529D01*
X129810496Y-58627007D01*
X129804684Y-58603803D01*
X129801174Y-58580142D01*
X129800000Y-58556250D01*
X129800000Y-58068750D01*
X129801174Y-58044858D01*
X129804684Y-58021197D01*
X129810496Y-57997993D01*
X129818554Y-57975471D01*
X129828782Y-57953847D01*
X129841079Y-57933330D01*
X129855329Y-57914117D01*
X129871393Y-57896393D01*
X129889117Y-57880329D01*
X129908330Y-57866079D01*
X129928847Y-57853782D01*
X129950471Y-57843554D01*
X129972993Y-57835496D01*
X129996197Y-57829684D01*
X130019858Y-57826174D01*
X130043750Y-57825000D01*
X130956250Y-57825000D01*
X130980142Y-57826174D01*
X130980142Y-57826174D01*
G37*
D16*
X130500000Y-58312500D03*
D18*
X117937500Y-49000000D03*
X133500000Y-50000000D03*
X115950000Y-58800000D03*
X116500000Y-57000000D03*
X117000000Y-63000000D03*
X126000000Y-44500000D03*
X116500000Y-37750000D03*
X116500000Y-36500000D03*
X109485090Y-39014910D03*
X115000000Y-34000000D03*
X121500000Y-37900310D03*
X121500000Y-39000000D03*
X124000000Y-54000000D03*
X118500000Y-56000000D03*
X116000000Y-50000000D03*
X115000000Y-52000000D03*
X117500000Y-35000000D03*
X118000000Y-54500000D03*
X123250000Y-55000000D03*
X122000000Y-33750000D03*
X119500000Y-33750000D03*
X108500000Y-50500000D03*
X108500000Y-43000000D03*
X108645300Y-46500000D03*
D19*
X132747599Y-39747599D02*
X134000000Y-41000000D01*
X127620000Y-37030000D02*
X130337599Y-39747599D01*
X130337599Y-39747599D02*
X132747599Y-39747599D01*
X131189587Y-63850413D02*
X133500000Y-61540000D01*
X130500000Y-63850413D02*
X131189587Y-63850413D01*
X109849999Y-62389999D02*
X109889999Y-62389999D01*
X109000000Y-61540000D02*
X109849999Y-62389999D01*
X109889999Y-62389999D02*
X111250000Y-63750000D01*
X116250000Y-63750000D02*
X117000000Y-63000000D01*
X111250000Y-63750000D02*
X116250000Y-63750000D01*
X111907599Y-61092401D02*
X113657599Y-61092401D01*
X113657599Y-61092401D02*
X115950000Y-58800000D01*
X111460000Y-61540000D02*
X111907599Y-61092401D01*
X109000000Y-61540000D02*
X110790000Y-61540000D01*
X110790000Y-61540000D02*
X111460000Y-61540000D01*
X110790000Y-61540000D02*
X110790000Y-58960000D01*
X111197599Y-58552401D02*
X113197599Y-58552401D01*
X110790000Y-58960000D02*
X111197599Y-58552401D01*
D20*
X112380000Y-34490000D02*
X112380000Y-35380000D01*
X112380000Y-35380000D02*
X113000000Y-36000000D01*
X113000000Y-36000000D02*
X113500000Y-36000000D01*
D19*
X126000000Y-41950446D02*
X126000000Y-44500000D01*
X127042847Y-40907599D02*
X126000000Y-41950446D01*
X128197153Y-40907599D02*
X127042847Y-40907599D01*
X128289554Y-41000000D02*
X128197153Y-40907599D01*
X131460000Y-41000000D02*
X128289554Y-41000000D01*
D21*
X131460000Y-41000000D02*
X131500000Y-41000000D01*
X131500000Y-41000000D02*
X132750000Y-42250000D01*
X132750000Y-48375000D02*
X132375000Y-48750000D01*
X132750000Y-42250000D02*
X132750000Y-48375000D01*
X132375000Y-48750000D02*
X132375000Y-51250000D01*
D22*
X116500000Y-37750000D02*
X116500000Y-36500000D01*
X125080000Y-37030000D02*
X117030000Y-37030000D01*
X117030000Y-37030000D02*
X116500000Y-36500000D01*
D19*
X109000000Y-51613810D02*
X109485090Y-51128720D01*
X109000000Y-59000000D02*
X109000000Y-51613810D01*
X109485090Y-51128720D02*
X109485090Y-39014910D01*
X115000000Y-34000000D02*
X115000000Y-38000000D01*
X116000000Y-39000000D02*
X120400310Y-39000000D01*
X115000000Y-38000000D02*
X116000000Y-39000000D01*
X121500000Y-39000000D02*
X120400310Y-39000000D01*
X121500000Y-37900310D02*
X121500000Y-39000000D01*
X130500000Y-60187500D02*
X130500000Y-61975413D01*
X134000000Y-57650000D02*
X134000000Y-59000000D01*
X129957599Y-53607599D02*
X134000000Y-57650000D01*
X126792401Y-53607599D02*
X129957599Y-53607599D01*
X125000000Y-55400000D02*
X126792401Y-53607599D01*
X132812500Y-58312500D02*
X133500000Y-59000000D01*
X130500000Y-58312500D02*
X132812500Y-58312500D01*
D21*
X124000000Y-54000000D02*
X122250000Y-54000000D01*
X120250000Y-56000000D02*
X118500000Y-56000000D01*
X122250000Y-54000000D02*
X120250000Y-56000000D01*
D19*
X120450000Y-52050000D02*
X119050000Y-52050000D01*
X119050000Y-52050000D02*
X116000000Y-52050000D01*
X116000000Y-50000000D02*
X116000000Y-52050000D01*
X115950000Y-52000000D02*
X116000000Y-52050000D01*
X115000000Y-52000000D02*
X115950000Y-52000000D01*
D23*
X127110000Y-35000000D02*
X127620000Y-34490000D01*
X117500000Y-35000000D02*
X127110000Y-35000000D01*
D20*
X116550000Y-54500000D02*
X116000000Y-53950000D01*
X119900000Y-54500000D02*
X120450000Y-53950000D01*
X118500000Y-54500000D02*
X119900000Y-54500000D01*
X118500000Y-54500000D02*
X118000000Y-54500000D01*
X118000000Y-54500000D02*
X116550000Y-54500000D01*
D21*
X123250000Y-55000000D02*
X121500000Y-56750000D01*
X121500000Y-56750000D02*
X118000000Y-56750000D01*
X118000000Y-56750000D02*
X117750000Y-56500000D01*
X117750000Y-54750000D02*
X118000000Y-54500000D01*
X117750000Y-56500000D02*
X117750000Y-54750000D01*
D19*
X118000000Y-53000000D02*
X122450000Y-53000000D01*
X124600000Y-53000000D02*
X125000000Y-52600000D01*
X122450000Y-53000000D02*
X124600000Y-53000000D01*
D21*
X130500000Y-51250000D02*
X129750000Y-51250000D01*
X129750000Y-51250000D02*
X129250000Y-50750000D01*
X129250000Y-45750000D02*
X131460000Y-43540000D01*
X129250000Y-50750000D02*
X129250000Y-45750000D01*
X130500000Y-47040000D02*
X131460000Y-46080000D01*
X130500000Y-48750000D02*
X130500000Y-47040000D01*
D20*
X122000000Y-33750000D02*
X119500000Y-33750000D01*
X110610000Y-50500000D02*
X112380000Y-52270000D01*
X110375000Y-50500000D02*
X110610000Y-50500000D01*
X110730000Y-43000000D02*
X112380000Y-44650000D01*
X110375000Y-43000000D02*
X110730000Y-43000000D01*
X108645300Y-47354700D02*
X108500000Y-47500000D01*
X108645300Y-46500000D02*
X108645300Y-47354700D01*
X112070000Y-47500000D02*
X112380000Y-47190000D01*
X110375000Y-47500000D02*
X112070000Y-47500000D01*
D21*
X125080000Y-70480000D02*
X125520000Y-70480000D01*
D24*
G36*
X119275429Y-33009687D02*
G01*
X119135316Y-33067724D01*
X119009217Y-33151980D01*
X118901980Y-33259217D01*
X118817724Y-33385316D01*
X118759687Y-33525429D01*
X118730100Y-33674171D01*
X118730100Y-33825829D01*
X118759687Y-33974571D01*
X118800458Y-34073000D01*
X117454462Y-34073000D01*
X117318276Y-34086413D01*
X117143536Y-34139420D01*
X116982495Y-34225499D01*
X116841341Y-34341341D01*
X116725499Y-34482495D01*
X116639420Y-34643536D01*
X116586413Y-34818276D01*
X116568515Y-35000000D01*
X116586413Y-35181724D01*
X116639420Y-35356464D01*
X116725499Y-35517505D01*
X116841341Y-35658659D01*
X116982495Y-35774501D01*
X117143536Y-35860580D01*
X117318276Y-35913587D01*
X117454462Y-35927000D01*
X124536573Y-35927000D01*
X124498798Y-35942647D01*
X124297833Y-36076927D01*
X124146760Y-36228000D01*
X117362199Y-36228000D01*
X117094960Y-35960762D01*
X117069843Y-35930157D01*
X116947723Y-35829935D01*
X116808397Y-35755464D01*
X116657219Y-35709605D01*
X116500000Y-35694120D01*
X116356878Y-35708217D01*
X116342781Y-35709605D01*
X116238676Y-35741185D01*
X116191604Y-35755464D01*
X116052278Y-35829935D01*
X116052276Y-35829936D01*
X116052277Y-35829936D01*
X115930157Y-35930157D01*
X115829936Y-36052277D01*
X115755464Y-36191604D01*
X115709605Y-36342781D01*
X115694121Y-36500000D01*
X115698001Y-36539396D01*
X115698000Y-37740578D01*
X115677000Y-37719578D01*
X115677000Y-34372580D01*
X115682276Y-34364684D01*
X115740313Y-34224571D01*
X115769900Y-34075829D01*
X115769900Y-33924171D01*
X115740313Y-33775429D01*
X115682276Y-33635316D01*
X115598020Y-33509217D01*
X115490783Y-33401980D01*
X115364684Y-33317724D01*
X115224571Y-33259687D01*
X115075829Y-33230100D01*
X114924171Y-33230100D01*
X114775429Y-33259687D01*
X114635316Y-33317724D01*
X114509217Y-33401980D01*
X114401980Y-33509217D01*
X114317724Y-33635316D01*
X114259687Y-33775429D01*
X114230100Y-33924171D01*
X114230100Y-34075829D01*
X114259687Y-34224571D01*
X114317724Y-34364684D01*
X114323000Y-34372580D01*
X114323001Y-37966746D01*
X114319726Y-38000000D01*
X114332796Y-38132714D01*
X114371508Y-38260329D01*
X114434372Y-38377940D01*
X114497776Y-38455198D01*
X114497779Y-38455201D01*
X114518974Y-38481027D01*
X114544800Y-38502222D01*
X115497778Y-39455201D01*
X115518973Y-39481027D01*
X115544799Y-39502222D01*
X115544801Y-39502224D01*
X115622059Y-39565628D01*
X115739670Y-39628492D01*
X115867285Y-39667204D01*
X116000000Y-39680275D01*
X116033252Y-39677000D01*
X121127420Y-39677000D01*
X121135316Y-39682276D01*
X121275429Y-39740313D01*
X121424171Y-39769900D01*
X121575829Y-39769900D01*
X121724571Y-39740313D01*
X121864684Y-39682276D01*
X121990783Y-39598020D01*
X122098020Y-39490783D01*
X122182276Y-39364684D01*
X122240313Y-39224571D01*
X122269900Y-39075829D01*
X122269900Y-38924171D01*
X122240313Y-38775429D01*
X122182276Y-38635316D01*
X122177000Y-38627420D01*
X122177000Y-38272890D01*
X122182276Y-38264994D01*
X122240313Y-38124881D01*
X122269900Y-37976139D01*
X122269900Y-37832000D01*
X124146760Y-37832000D01*
X124297833Y-37983073D01*
X124498798Y-38117353D01*
X124722097Y-38209847D01*
X124959151Y-38257000D01*
X125200849Y-38257000D01*
X125437903Y-38209847D01*
X125661202Y-38117353D01*
X125862167Y-37983073D01*
X126033073Y-37812167D01*
X126167353Y-37611202D01*
X126240605Y-37434356D01*
X126316397Y-37646292D01*
X126383329Y-37771514D01*
X126627298Y-37843097D01*
X127440395Y-37030000D01*
X127799605Y-37030000D01*
X128612702Y-37843097D01*
X128856671Y-37771514D01*
X128977571Y-37516004D01*
X129046300Y-37241816D01*
X129060217Y-36959488D01*
X129018787Y-36679870D01*
X128923603Y-36413708D01*
X128856671Y-36288486D01*
X128612702Y-36216903D01*
X127799605Y-37030000D01*
X127440395Y-37030000D01*
X126627298Y-36216903D01*
X126383329Y-36288486D01*
X126262429Y-36543996D01*
X126241451Y-36627686D01*
X126167353Y-36448798D01*
X126033073Y-36247833D01*
X125862167Y-36076927D01*
X125661202Y-35942647D01*
X125623427Y-35927000D01*
X126839266Y-35927000D01*
X126806903Y-36037298D01*
X127620000Y-36850395D01*
X128433097Y-36037298D01*
X128361514Y-35793329D01*
X128106004Y-35672429D01*
X128022314Y-35651451D01*
X128201202Y-35577353D01*
X128402167Y-35443073D01*
X128573073Y-35272167D01*
X128707353Y-35071202D01*
X128799847Y-34847903D01*
X128847000Y-34610849D01*
X128847000Y-34369151D01*
X128799847Y-34132097D01*
X128707353Y-33908798D01*
X128573073Y-33707833D01*
X128402167Y-33536927D01*
X128201202Y-33402647D01*
X127977903Y-33310153D01*
X127740849Y-33263000D01*
X127499151Y-33263000D01*
X127262097Y-33310153D01*
X127038798Y-33402647D01*
X126837833Y-33536927D01*
X126666927Y-33707833D01*
X126532647Y-33908798D01*
X126464632Y-34073000D01*
X122699542Y-34073000D01*
X122740313Y-33974571D01*
X122769900Y-33825829D01*
X122769900Y-33674171D01*
X122740313Y-33525429D01*
X122682276Y-33385316D01*
X122598020Y-33259217D01*
X122490783Y-33151980D01*
X122364684Y-33067724D01*
X122224571Y-33009687D01*
X122185926Y-33002000D01*
X135498000Y-33002000D01*
X135498001Y-80498000D01*
X108002000Y-80498000D01*
X108002000Y-78992702D01*
X111566903Y-78992702D01*
X111638486Y-79236671D01*
X111893996Y-79357571D01*
X112168184Y-79426300D01*
X112450512Y-79440217D01*
X112730130Y-79398787D01*
X112996292Y-79303603D01*
X113121514Y-79236671D01*
X113193097Y-78992702D01*
X112380000Y-78179605D01*
X111566903Y-78992702D01*
X108002000Y-78992702D01*
X108002000Y-78070512D01*
X110939783Y-78070512D01*
X110981213Y-78350130D01*
X111076397Y-78616292D01*
X111143329Y-78741514D01*
X111387298Y-78813097D01*
X112200395Y-78000000D01*
X112559605Y-78000000D01*
X113372702Y-78813097D01*
X113616671Y-78741514D01*
X113737571Y-78486004D01*
X113758549Y-78402314D01*
X113832647Y-78581202D01*
X113966927Y-78782167D01*
X114137833Y-78953073D01*
X114338798Y-79087353D01*
X114562097Y-79179847D01*
X114799151Y-79227000D01*
X115040849Y-79227000D01*
X115277903Y-79179847D01*
X115501202Y-79087353D01*
X115702167Y-78953073D01*
X115873073Y-78782167D01*
X116007353Y-78581202D01*
X116099847Y-78357903D01*
X116147000Y-78120849D01*
X116147000Y-77879151D01*
X116233000Y-77879151D01*
X116233000Y-78120849D01*
X116280153Y-78357903D01*
X116372647Y-78581202D01*
X116506927Y-78782167D01*
X116677833Y-78953073D01*
X116878798Y-79087353D01*
X117102097Y-79179847D01*
X117339151Y-79227000D01*
X117580849Y-79227000D01*
X117817903Y-79179847D01*
X118041202Y-79087353D01*
X118242167Y-78953073D01*
X118413073Y-78782167D01*
X118547353Y-78581202D01*
X118639847Y-78357903D01*
X118687000Y-78120849D01*
X118687000Y-77879151D01*
X118773000Y-77879151D01*
X118773000Y-78120849D01*
X118820153Y-78357903D01*
X118912647Y-78581202D01*
X119046927Y-78782167D01*
X119217833Y-78953073D01*
X119418798Y-79087353D01*
X119642097Y-79179847D01*
X119879151Y-79227000D01*
X120120849Y-79227000D01*
X120357903Y-79179847D01*
X120581202Y-79087353D01*
X120782167Y-78953073D01*
X120953073Y-78782167D01*
X121087353Y-78581202D01*
X121179847Y-78357903D01*
X121227000Y-78120849D01*
X121227000Y-77879151D01*
X121313000Y-77879151D01*
X121313000Y-78120849D01*
X121360153Y-78357903D01*
X121452647Y-78581202D01*
X121586927Y-78782167D01*
X121757833Y-78953073D01*
X121958798Y-79087353D01*
X122182097Y-79179847D01*
X122419151Y-79227000D01*
X122660849Y-79227000D01*
X122897903Y-79179847D01*
X123121202Y-79087353D01*
X123322167Y-78953073D01*
X123493073Y-78782167D01*
X123627353Y-78581202D01*
X123719847Y-78357903D01*
X123767000Y-78120849D01*
X123767000Y-77879151D01*
X123853000Y-77879151D01*
X123853000Y-78120849D01*
X123900153Y-78357903D01*
X123992647Y-78581202D01*
X124126927Y-78782167D01*
X124297833Y-78953073D01*
X124498798Y-79087353D01*
X124722097Y-79179847D01*
X124959151Y-79227000D01*
X125200849Y-79227000D01*
X125437903Y-79179847D01*
X125661202Y-79087353D01*
X125862167Y-78953073D01*
X126033073Y-78782167D01*
X126167353Y-78581202D01*
X126259847Y-78357903D01*
X126307000Y-78120849D01*
X126307000Y-77879151D01*
X126393000Y-77879151D01*
X126393000Y-78120849D01*
X126440153Y-78357903D01*
X126532647Y-78581202D01*
X126666927Y-78782167D01*
X126837833Y-78953073D01*
X127038798Y-79087353D01*
X127262097Y-79179847D01*
X127499151Y-79227000D01*
X127740849Y-79227000D01*
X127977903Y-79179847D01*
X128201202Y-79087353D01*
X128402167Y-78953073D01*
X128573073Y-78782167D01*
X128707353Y-78581202D01*
X128799847Y-78357903D01*
X128847000Y-78120849D01*
X128847000Y-77879151D01*
X128841123Y-77849604D01*
X131473000Y-77849604D01*
X131473000Y-78150396D01*
X131531681Y-78445410D01*
X131646790Y-78723306D01*
X131813901Y-78973406D01*
X132026594Y-79186099D01*
X132276694Y-79353210D01*
X132554590Y-79468319D01*
X132849604Y-79527000D01*
X133150396Y-79527000D01*
X133445410Y-79468319D01*
X133723306Y-79353210D01*
X133973406Y-79186099D01*
X134186099Y-78973406D01*
X134353210Y-78723306D01*
X134468319Y-78445410D01*
X134527000Y-78150396D01*
X134527000Y-77849604D01*
X134468319Y-77554590D01*
X134353210Y-77276694D01*
X134186099Y-77026594D01*
X133973406Y-76813901D01*
X133723306Y-76646790D01*
X133445410Y-76531681D01*
X133150396Y-76473000D01*
X132849604Y-76473000D01*
X132554590Y-76531681D01*
X132276694Y-76646790D01*
X132026594Y-76813901D01*
X131813901Y-77026594D01*
X131646790Y-77276694D01*
X131531681Y-77554590D01*
X131473000Y-77849604D01*
X128841123Y-77849604D01*
X128799847Y-77642097D01*
X128707353Y-77418798D01*
X128573073Y-77217833D01*
X128402167Y-77046927D01*
X128201202Y-76912647D01*
X127977903Y-76820153D01*
X127740849Y-76773000D01*
X127499151Y-76773000D01*
X127262097Y-76820153D01*
X127038798Y-76912647D01*
X126837833Y-77046927D01*
X126666927Y-77217833D01*
X126532647Y-77418798D01*
X126440153Y-77642097D01*
X126393000Y-77879151D01*
X126307000Y-77879151D01*
X126259847Y-77642097D01*
X126167353Y-77418798D01*
X126033073Y-77217833D01*
X125862167Y-77046927D01*
X125661202Y-76912647D01*
X125437903Y-76820153D01*
X125200849Y-76773000D01*
X124959151Y-76773000D01*
X124722097Y-76820153D01*
X124498798Y-76912647D01*
X124297833Y-77046927D01*
X124126927Y-77217833D01*
X123992647Y-77418798D01*
X123900153Y-77642097D01*
X123853000Y-77879151D01*
X123767000Y-77879151D01*
X123719847Y-77642097D01*
X123627353Y-77418798D01*
X123493073Y-77217833D01*
X123322167Y-77046927D01*
X123121202Y-76912647D01*
X122897903Y-76820153D01*
X122660849Y-76773000D01*
X122419151Y-76773000D01*
X122182097Y-76820153D01*
X121958798Y-76912647D01*
X121757833Y-77046927D01*
X121586927Y-77217833D01*
X121452647Y-77418798D01*
X121360153Y-77642097D01*
X121313000Y-77879151D01*
X121227000Y-77879151D01*
X121179847Y-77642097D01*
X121087353Y-77418798D01*
X120953073Y-77217833D01*
X120782167Y-77046927D01*
X120581202Y-76912647D01*
X120357903Y-76820153D01*
X120120849Y-76773000D01*
X119879151Y-76773000D01*
X119642097Y-76820153D01*
X119418798Y-76912647D01*
X119217833Y-77046927D01*
X119046927Y-77217833D01*
X118912647Y-77418798D01*
X118820153Y-77642097D01*
X118773000Y-77879151D01*
X118687000Y-77879151D01*
X118639847Y-77642097D01*
X118547353Y-77418798D01*
X118413073Y-77217833D01*
X118242167Y-77046927D01*
X118041202Y-76912647D01*
X117817903Y-76820153D01*
X117580849Y-76773000D01*
X117339151Y-76773000D01*
X117102097Y-76820153D01*
X116878798Y-76912647D01*
X116677833Y-77046927D01*
X116506927Y-77217833D01*
X116372647Y-77418798D01*
X116280153Y-77642097D01*
X116233000Y-77879151D01*
X116147000Y-77879151D01*
X116099847Y-77642097D01*
X116007353Y-77418798D01*
X115873073Y-77217833D01*
X115702167Y-77046927D01*
X115501202Y-76912647D01*
X115277903Y-76820153D01*
X115040849Y-76773000D01*
X114799151Y-76773000D01*
X114562097Y-76820153D01*
X114338798Y-76912647D01*
X114137833Y-77046927D01*
X113966927Y-77217833D01*
X113832647Y-77418798D01*
X113759395Y-77595644D01*
X113683603Y-77383708D01*
X113616671Y-77258486D01*
X113372702Y-77186903D01*
X112559605Y-78000000D01*
X112200395Y-78000000D01*
X111387298Y-77186903D01*
X111143329Y-77258486D01*
X111022429Y-77513996D01*
X110953700Y-77788184D01*
X110939783Y-78070512D01*
X108002000Y-78070512D01*
X108002000Y-77007298D01*
X111566903Y-77007298D01*
X112380000Y-77820395D01*
X113193097Y-77007298D01*
X113121514Y-76763329D01*
X112866004Y-76642429D01*
X112591816Y-76573700D01*
X112309488Y-76559783D01*
X112029870Y-76601213D01*
X111763708Y-76696397D01*
X111638486Y-76763329D01*
X111566903Y-77007298D01*
X108002000Y-77007298D01*
X108002000Y-74849604D01*
X108473000Y-74849604D01*
X108473000Y-75150396D01*
X108531681Y-75445410D01*
X108646790Y-75723306D01*
X108813901Y-75973406D01*
X109026594Y-76186099D01*
X109276694Y-76353210D01*
X109554590Y-76468319D01*
X109849604Y-76527000D01*
X110150396Y-76527000D01*
X110445410Y-76468319D01*
X110723306Y-76353210D01*
X110973406Y-76186099D01*
X111186099Y-75973406D01*
X111353210Y-75723306D01*
X111468319Y-75445410D01*
X111527000Y-75150396D01*
X111527000Y-74849604D01*
X111468319Y-74554590D01*
X111353210Y-74276694D01*
X111186099Y-74026594D01*
X110973406Y-73813901D01*
X110723306Y-73646790D01*
X110445410Y-73531681D01*
X110150396Y-73473000D01*
X109849604Y-73473000D01*
X109554590Y-73531681D01*
X109276694Y-73646790D01*
X109026594Y-73813901D01*
X108813901Y-74026594D01*
X108646790Y-74276694D01*
X108531681Y-74554590D01*
X108473000Y-74849604D01*
X108002000Y-74849604D01*
X108002000Y-70540000D01*
X108216822Y-70540000D01*
X108241478Y-70790336D01*
X108314498Y-71031051D01*
X108433076Y-71252896D01*
X108592656Y-71447344D01*
X108787104Y-71606924D01*
X109008949Y-71725502D01*
X109249664Y-71798522D01*
X109437274Y-71817000D01*
X109562726Y-71817000D01*
X109750336Y-71798522D01*
X109991051Y-71725502D01*
X110212896Y-71606924D01*
X110376445Y-71472702D01*
X111566903Y-71472702D01*
X111638486Y-71716671D01*
X111893996Y-71837571D01*
X112168184Y-71906300D01*
X112450512Y-71920217D01*
X112730130Y-71878787D01*
X112996292Y-71783603D01*
X113121514Y-71716671D01*
X113193097Y-71472702D01*
X112380000Y-70659605D01*
X111566903Y-71472702D01*
X110376445Y-71472702D01*
X110407344Y-71447344D01*
X110566924Y-71252896D01*
X110685502Y-71031051D01*
X110758522Y-70790336D01*
X110782142Y-70550512D01*
X110939783Y-70550512D01*
X110981213Y-70830130D01*
X111076397Y-71096292D01*
X111143329Y-71221514D01*
X111387298Y-71293097D01*
X112200395Y-70480000D01*
X112559605Y-70480000D01*
X113372702Y-71293097D01*
X113616671Y-71221514D01*
X113737571Y-70966004D01*
X113758549Y-70882314D01*
X113832647Y-71061202D01*
X113966927Y-71262167D01*
X114137833Y-71433073D01*
X114338798Y-71567353D01*
X114562097Y-71659847D01*
X114799151Y-71707000D01*
X115040849Y-71707000D01*
X115277903Y-71659847D01*
X115501202Y-71567353D01*
X115702167Y-71433073D01*
X115873073Y-71262167D01*
X116007353Y-71061202D01*
X116099847Y-70837903D01*
X116147000Y-70600849D01*
X116147000Y-70359151D01*
X116233000Y-70359151D01*
X116233000Y-70600849D01*
X116280153Y-70837903D01*
X116372647Y-71061202D01*
X116506927Y-71262167D01*
X116677833Y-71433073D01*
X116878798Y-71567353D01*
X117102097Y-71659847D01*
X117339151Y-71707000D01*
X117580849Y-71707000D01*
X117817903Y-71659847D01*
X118041202Y-71567353D01*
X118242167Y-71433073D01*
X118413073Y-71262167D01*
X118547353Y-71061202D01*
X118639847Y-70837903D01*
X118687000Y-70600849D01*
X118687000Y-70359151D01*
X118773000Y-70359151D01*
X118773000Y-70600849D01*
X118820153Y-70837903D01*
X118912647Y-71061202D01*
X119046927Y-71262167D01*
X119217833Y-71433073D01*
X119418798Y-71567353D01*
X119642097Y-71659847D01*
X119879151Y-71707000D01*
X120120849Y-71707000D01*
X120357903Y-71659847D01*
X120581202Y-71567353D01*
X120782167Y-71433073D01*
X120953073Y-71262167D01*
X121087353Y-71061202D01*
X121179847Y-70837903D01*
X121227000Y-70600849D01*
X121227000Y-70359151D01*
X121313000Y-70359151D01*
X121313000Y-70600849D01*
X121360153Y-70837903D01*
X121452647Y-71061202D01*
X121586927Y-71262167D01*
X121757833Y-71433073D01*
X121958798Y-71567353D01*
X122182097Y-71659847D01*
X122419151Y-71707000D01*
X122660849Y-71707000D01*
X122897903Y-71659847D01*
X123121202Y-71567353D01*
X123322167Y-71433073D01*
X123493073Y-71262167D01*
X123627353Y-71061202D01*
X123719847Y-70837903D01*
X123767000Y-70600849D01*
X123767000Y-70359151D01*
X123853000Y-70359151D01*
X123853000Y-70600849D01*
X123900153Y-70837903D01*
X123992647Y-71061202D01*
X124126927Y-71262167D01*
X124297833Y-71433073D01*
X124498798Y-71567353D01*
X124722097Y-71659847D01*
X124959151Y-71707000D01*
X125200849Y-71707000D01*
X125437903Y-71659847D01*
X125661202Y-71567353D01*
X125862167Y-71433073D01*
X126033073Y-71262167D01*
X126167353Y-71061202D01*
X126259847Y-70837903D01*
X126307000Y-70600849D01*
X126307000Y-70359151D01*
X126393000Y-70359151D01*
X126393000Y-70600849D01*
X126440153Y-70837903D01*
X126532647Y-71061202D01*
X126666927Y-71262167D01*
X126837833Y-71433073D01*
X127038798Y-71567353D01*
X127262097Y-71659847D01*
X127499151Y-71707000D01*
X127740849Y-71707000D01*
X127977903Y-71659847D01*
X128201202Y-71567353D01*
X128402167Y-71433073D01*
X128573073Y-71262167D01*
X128707353Y-71061202D01*
X128799847Y-70837903D01*
X128847000Y-70600849D01*
X128847000Y-70540000D01*
X132216822Y-70540000D01*
X132241478Y-70790336D01*
X132314498Y-71031051D01*
X132433076Y-71252896D01*
X132592656Y-71447344D01*
X132787104Y-71606924D01*
X133008949Y-71725502D01*
X133249664Y-71798522D01*
X133437274Y-71817000D01*
X133562726Y-71817000D01*
X133750336Y-71798522D01*
X133991051Y-71725502D01*
X134212896Y-71606924D01*
X134407344Y-71447344D01*
X134566924Y-71252896D01*
X134685502Y-71031051D01*
X134758522Y-70790336D01*
X134783178Y-70540000D01*
X134758522Y-70289664D01*
X134685502Y-70048949D01*
X134566924Y-69827104D01*
X134407344Y-69632656D01*
X134212896Y-69473076D01*
X133991051Y-69354498D01*
X133750336Y-69281478D01*
X133725847Y-69279066D01*
X134350000Y-69279066D01*
X134433707Y-69270822D01*
X134514196Y-69246405D01*
X134588376Y-69206755D01*
X134653395Y-69153395D01*
X134706755Y-69088376D01*
X134746405Y-69014196D01*
X134770822Y-68933707D01*
X134779066Y-68850000D01*
X134779066Y-67150000D01*
X134770822Y-67066293D01*
X134746405Y-66985804D01*
X134706755Y-66911624D01*
X134653395Y-66846605D01*
X134588376Y-66793245D01*
X134514196Y-66753595D01*
X134433707Y-66729178D01*
X134350000Y-66720934D01*
X132650000Y-66720934D01*
X132566293Y-66729178D01*
X132485804Y-66753595D01*
X132411624Y-66793245D01*
X132346605Y-66846605D01*
X132293245Y-66911624D01*
X132253595Y-66985804D01*
X132229178Y-67066293D01*
X132220934Y-67150000D01*
X132220934Y-68850000D01*
X132229178Y-68933707D01*
X132253595Y-69014196D01*
X132293245Y-69088376D01*
X132346605Y-69153395D01*
X132411624Y-69206755D01*
X132485804Y-69246405D01*
X132566293Y-69270822D01*
X132650000Y-69279066D01*
X133274153Y-69279066D01*
X133249664Y-69281478D01*
X133008949Y-69354498D01*
X132787104Y-69473076D01*
X132592656Y-69632656D01*
X132433076Y-69827104D01*
X132314498Y-70048949D01*
X132241478Y-70289664D01*
X132216822Y-70540000D01*
X128847000Y-70540000D01*
X128847000Y-70359151D01*
X128799847Y-70122097D01*
X128707353Y-69898798D01*
X128573073Y-69697833D01*
X128402167Y-69526927D01*
X128201202Y-69392647D01*
X127977903Y-69300153D01*
X127740849Y-69253000D01*
X127499151Y-69253000D01*
X127262097Y-69300153D01*
X127038798Y-69392647D01*
X126837833Y-69526927D01*
X126666927Y-69697833D01*
X126532647Y-69898798D01*
X126440153Y-70122097D01*
X126393000Y-70359151D01*
X126307000Y-70359151D01*
X126259847Y-70122097D01*
X126167353Y-69898798D01*
X126033073Y-69697833D01*
X125862167Y-69526927D01*
X125661202Y-69392647D01*
X125437903Y-69300153D01*
X125200849Y-69253000D01*
X124959151Y-69253000D01*
X124722097Y-69300153D01*
X124498798Y-69392647D01*
X124297833Y-69526927D01*
X124126927Y-69697833D01*
X123992647Y-69898798D01*
X123900153Y-70122097D01*
X123853000Y-70359151D01*
X123767000Y-70359151D01*
X123719847Y-70122097D01*
X123627353Y-69898798D01*
X123493073Y-69697833D01*
X123322167Y-69526927D01*
X123121202Y-69392647D01*
X122897903Y-69300153D01*
X122660849Y-69253000D01*
X122419151Y-69253000D01*
X122182097Y-69300153D01*
X121958798Y-69392647D01*
X121757833Y-69526927D01*
X121586927Y-69697833D01*
X121452647Y-69898798D01*
X121360153Y-70122097D01*
X121313000Y-70359151D01*
X121227000Y-70359151D01*
X121179847Y-70122097D01*
X121087353Y-69898798D01*
X120953073Y-69697833D01*
X120782167Y-69526927D01*
X120581202Y-69392647D01*
X120357903Y-69300153D01*
X120120849Y-69253000D01*
X119879151Y-69253000D01*
X119642097Y-69300153D01*
X119418798Y-69392647D01*
X119217833Y-69526927D01*
X119046927Y-69697833D01*
X118912647Y-69898798D01*
X118820153Y-70122097D01*
X118773000Y-70359151D01*
X118687000Y-70359151D01*
X118639847Y-70122097D01*
X118547353Y-69898798D01*
X118413073Y-69697833D01*
X118242167Y-69526927D01*
X118041202Y-69392647D01*
X117817903Y-69300153D01*
X117580849Y-69253000D01*
X117339151Y-69253000D01*
X117102097Y-69300153D01*
X116878798Y-69392647D01*
X116677833Y-69526927D01*
X116506927Y-69697833D01*
X116372647Y-69898798D01*
X116280153Y-70122097D01*
X116233000Y-70359151D01*
X116147000Y-70359151D01*
X116099847Y-70122097D01*
X116007353Y-69898798D01*
X115873073Y-69697833D01*
X115702167Y-69526927D01*
X115501202Y-69392647D01*
X115277903Y-69300153D01*
X115040849Y-69253000D01*
X114799151Y-69253000D01*
X114562097Y-69300153D01*
X114338798Y-69392647D01*
X114137833Y-69526927D01*
X113966927Y-69697833D01*
X113832647Y-69898798D01*
X113759395Y-70075644D01*
X113683603Y-69863708D01*
X113616671Y-69738486D01*
X113372702Y-69666903D01*
X112559605Y-70480000D01*
X112200395Y-70480000D01*
X111387298Y-69666903D01*
X111143329Y-69738486D01*
X111022429Y-69993996D01*
X110953700Y-70268184D01*
X110939783Y-70550512D01*
X110782142Y-70550512D01*
X110783178Y-70540000D01*
X110758522Y-70289664D01*
X110685502Y-70048949D01*
X110566924Y-69827104D01*
X110407344Y-69632656D01*
X110230226Y-69487298D01*
X111566903Y-69487298D01*
X112380000Y-70300395D01*
X113193097Y-69487298D01*
X113121514Y-69243329D01*
X112866004Y-69122429D01*
X112591816Y-69053700D01*
X112309488Y-69039783D01*
X112029870Y-69081213D01*
X111763708Y-69176397D01*
X111638486Y-69243329D01*
X111566903Y-69487298D01*
X110230226Y-69487298D01*
X110212896Y-69473076D01*
X109991051Y-69354498D01*
X109750336Y-69281478D01*
X109725847Y-69279066D01*
X110350000Y-69279066D01*
X110433707Y-69270822D01*
X110514196Y-69246405D01*
X110588376Y-69206755D01*
X110653395Y-69153395D01*
X110706755Y-69088376D01*
X110746405Y-69014196D01*
X110770822Y-68933707D01*
X110779066Y-68850000D01*
X110779066Y-67389151D01*
X111153000Y-67389151D01*
X111153000Y-67630849D01*
X111200153Y-67867903D01*
X111292647Y-68091202D01*
X111426927Y-68292167D01*
X111597833Y-68463073D01*
X111798798Y-68597353D01*
X112022097Y-68689847D01*
X112259151Y-68737000D01*
X112500849Y-68737000D01*
X112737903Y-68689847D01*
X112961202Y-68597353D01*
X113162167Y-68463073D01*
X113333073Y-68292167D01*
X113467353Y-68091202D01*
X113559847Y-67867903D01*
X113607000Y-67630849D01*
X113607000Y-67389151D01*
X113693000Y-67389151D01*
X113693000Y-67630849D01*
X113740153Y-67867903D01*
X113832647Y-68091202D01*
X113966927Y-68292167D01*
X114137833Y-68463073D01*
X114338798Y-68597353D01*
X114562097Y-68689847D01*
X114799151Y-68737000D01*
X115040849Y-68737000D01*
X115277903Y-68689847D01*
X115501202Y-68597353D01*
X115702167Y-68463073D01*
X115873073Y-68292167D01*
X116007353Y-68091202D01*
X116099847Y-67867903D01*
X116147000Y-67630849D01*
X116147000Y-67389151D01*
X116233000Y-67389151D01*
X116233000Y-67630849D01*
X116280153Y-67867903D01*
X116372647Y-68091202D01*
X116506927Y-68292167D01*
X116677833Y-68463073D01*
X116878798Y-68597353D01*
X117102097Y-68689847D01*
X117339151Y-68737000D01*
X117580849Y-68737000D01*
X117817903Y-68689847D01*
X118041202Y-68597353D01*
X118182857Y-68502702D01*
X119186903Y-68502702D01*
X119258486Y-68746671D01*
X119513996Y-68867571D01*
X119788184Y-68936300D01*
X120070512Y-68950217D01*
X120350130Y-68908787D01*
X120616292Y-68813603D01*
X120741514Y-68746671D01*
X120813097Y-68502702D01*
X120000000Y-67689605D01*
X119186903Y-68502702D01*
X118182857Y-68502702D01*
X118242167Y-68463073D01*
X118413073Y-68292167D01*
X118547353Y-68091202D01*
X118620605Y-67914356D01*
X118696397Y-68126292D01*
X118763329Y-68251514D01*
X119007298Y-68323097D01*
X119820395Y-67510000D01*
X120179605Y-67510000D01*
X120992702Y-68323097D01*
X121236671Y-68251514D01*
X121357571Y-67996004D01*
X121378549Y-67912314D01*
X121452647Y-68091202D01*
X121586927Y-68292167D01*
X121757833Y-68463073D01*
X121958798Y-68597353D01*
X122182097Y-68689847D01*
X122419151Y-68737000D01*
X122660849Y-68737000D01*
X122897903Y-68689847D01*
X123121202Y-68597353D01*
X123322167Y-68463073D01*
X123493073Y-68292167D01*
X123627353Y-68091202D01*
X123719847Y-67867903D01*
X123767000Y-67630849D01*
X123767000Y-67389151D01*
X123853000Y-67389151D01*
X123853000Y-67630849D01*
X123900153Y-67867903D01*
X123992647Y-68091202D01*
X124126927Y-68292167D01*
X124297833Y-68463073D01*
X124498798Y-68597353D01*
X124722097Y-68689847D01*
X124959151Y-68737000D01*
X125200849Y-68737000D01*
X125437903Y-68689847D01*
X125661202Y-68597353D01*
X125862167Y-68463073D01*
X126033073Y-68292167D01*
X126167353Y-68091202D01*
X126259847Y-67867903D01*
X126307000Y-67630849D01*
X126307000Y-67389151D01*
X126393000Y-67389151D01*
X126393000Y-67630849D01*
X126440153Y-67867903D01*
X126532647Y-68091202D01*
X126666927Y-68292167D01*
X126837833Y-68463073D01*
X127038798Y-68597353D01*
X127262097Y-68689847D01*
X127499151Y-68737000D01*
X127740849Y-68737000D01*
X127977903Y-68689847D01*
X128201202Y-68597353D01*
X128402167Y-68463073D01*
X128573073Y-68292167D01*
X128707353Y-68091202D01*
X128799847Y-67867903D01*
X128847000Y-67630849D01*
X128847000Y-67389151D01*
X128799847Y-67152097D01*
X128707353Y-66928798D01*
X128573073Y-66727833D01*
X128402167Y-66556927D01*
X128201202Y-66422647D01*
X127977903Y-66330153D01*
X127740849Y-66283000D01*
X127499151Y-66283000D01*
X127262097Y-66330153D01*
X127038798Y-66422647D01*
X126837833Y-66556927D01*
X126666927Y-66727833D01*
X126532647Y-66928798D01*
X126440153Y-67152097D01*
X126393000Y-67389151D01*
X126307000Y-67389151D01*
X126259847Y-67152097D01*
X126167353Y-66928798D01*
X126033073Y-66727833D01*
X125862167Y-66556927D01*
X125661202Y-66422647D01*
X125437903Y-66330153D01*
X125200849Y-66283000D01*
X124959151Y-66283000D01*
X124722097Y-66330153D01*
X124498798Y-66422647D01*
X124297833Y-66556927D01*
X124126927Y-66727833D01*
X123992647Y-66928798D01*
X123900153Y-67152097D01*
X123853000Y-67389151D01*
X123767000Y-67389151D01*
X123719847Y-67152097D01*
X123627353Y-66928798D01*
X123493073Y-66727833D01*
X123322167Y-66556927D01*
X123121202Y-66422647D01*
X122897903Y-66330153D01*
X122660849Y-66283000D01*
X122419151Y-66283000D01*
X122182097Y-66330153D01*
X121958798Y-66422647D01*
X121757833Y-66556927D01*
X121586927Y-66727833D01*
X121452647Y-66928798D01*
X121379395Y-67105644D01*
X121303603Y-66893708D01*
X121236671Y-66768486D01*
X120992702Y-66696903D01*
X120179605Y-67510000D01*
X119820395Y-67510000D01*
X119007298Y-66696903D01*
X118763329Y-66768486D01*
X118642429Y-67023996D01*
X118621451Y-67107686D01*
X118547353Y-66928798D01*
X118413073Y-66727833D01*
X118242167Y-66556927D01*
X118182858Y-66517298D01*
X119186903Y-66517298D01*
X120000000Y-67330395D01*
X120813097Y-66517298D01*
X120741514Y-66273329D01*
X120486004Y-66152429D01*
X120211816Y-66083700D01*
X119929488Y-66069783D01*
X119649870Y-66111213D01*
X119383708Y-66206397D01*
X119258486Y-66273329D01*
X119186903Y-66517298D01*
X118182858Y-66517298D01*
X118041202Y-66422647D01*
X117817903Y-66330153D01*
X117580849Y-66283000D01*
X117339151Y-66283000D01*
X117102097Y-66330153D01*
X116878798Y-66422647D01*
X116677833Y-66556927D01*
X116506927Y-66727833D01*
X116372647Y-66928798D01*
X116280153Y-67152097D01*
X116233000Y-67389151D01*
X116147000Y-67389151D01*
X116099847Y-67152097D01*
X116007353Y-66928798D01*
X115873073Y-66727833D01*
X115702167Y-66556927D01*
X115501202Y-66422647D01*
X115277903Y-66330153D01*
X115040849Y-66283000D01*
X114799151Y-66283000D01*
X114562097Y-66330153D01*
X114338798Y-66422647D01*
X114137833Y-66556927D01*
X113966927Y-66727833D01*
X113832647Y-66928798D01*
X113740153Y-67152097D01*
X113693000Y-67389151D01*
X113607000Y-67389151D01*
X113559847Y-67152097D01*
X113467353Y-66928798D01*
X113333073Y-66727833D01*
X113162167Y-66556927D01*
X112961202Y-66422647D01*
X112737903Y-66330153D01*
X112500849Y-66283000D01*
X112259151Y-66283000D01*
X112022097Y-66330153D01*
X111798798Y-66422647D01*
X111597833Y-66556927D01*
X111426927Y-66727833D01*
X111292647Y-66928798D01*
X111200153Y-67152097D01*
X111153000Y-67389151D01*
X110779066Y-67389151D01*
X110779066Y-67150000D01*
X110770822Y-67066293D01*
X110746405Y-66985804D01*
X110706755Y-66911624D01*
X110653395Y-66846605D01*
X110588376Y-66793245D01*
X110514196Y-66753595D01*
X110433707Y-66729178D01*
X110350000Y-66720934D01*
X108650000Y-66720934D01*
X108566293Y-66729178D01*
X108485804Y-66753595D01*
X108411624Y-66793245D01*
X108346605Y-66846605D01*
X108293245Y-66911624D01*
X108253595Y-66985804D01*
X108229178Y-67066293D01*
X108220934Y-67150000D01*
X108220934Y-68850000D01*
X108229178Y-68933707D01*
X108253595Y-69014196D01*
X108293245Y-69088376D01*
X108346605Y-69153395D01*
X108411624Y-69206755D01*
X108485804Y-69246405D01*
X108566293Y-69270822D01*
X108650000Y-69279066D01*
X109274153Y-69279066D01*
X109249664Y-69281478D01*
X109008949Y-69354498D01*
X108787104Y-69473076D01*
X108592656Y-69632656D01*
X108433076Y-69827104D01*
X108314498Y-70048949D01*
X108241478Y-70289664D01*
X108216822Y-70540000D01*
X108002000Y-70540000D01*
X108002000Y-64849151D01*
X111153000Y-64849151D01*
X111153000Y-65090849D01*
X111200153Y-65327903D01*
X111292647Y-65551202D01*
X111426927Y-65752167D01*
X111597833Y-65923073D01*
X111798798Y-66057353D01*
X112022097Y-66149847D01*
X112259151Y-66197000D01*
X112500849Y-66197000D01*
X112737903Y-66149847D01*
X112961202Y-66057353D01*
X113162167Y-65923073D01*
X113333073Y-65752167D01*
X113467353Y-65551202D01*
X113559847Y-65327903D01*
X113607000Y-65090849D01*
X113607000Y-64849151D01*
X126393000Y-64849151D01*
X126393000Y-65090849D01*
X126440153Y-65327903D01*
X126532647Y-65551202D01*
X126666927Y-65752167D01*
X126837833Y-65923073D01*
X127038798Y-66057353D01*
X127262097Y-66149847D01*
X127499151Y-66197000D01*
X127740849Y-66197000D01*
X127977903Y-66149847D01*
X128201202Y-66057353D01*
X128402167Y-65923073D01*
X128573073Y-65752167D01*
X128707353Y-65551202D01*
X128799847Y-65327903D01*
X128847000Y-65090849D01*
X128847000Y-64849151D01*
X128799847Y-64612097D01*
X128707353Y-64388798D01*
X128673353Y-64337913D01*
X129161928Y-64337913D01*
X129174188Y-64462395D01*
X129210498Y-64582093D01*
X129269463Y-64692407D01*
X129348815Y-64789098D01*
X129445506Y-64868450D01*
X129555820Y-64927415D01*
X129675518Y-64963725D01*
X129800000Y-64975985D01*
X130214250Y-64972913D01*
X130373000Y-64814163D01*
X130373000Y-63977413D01*
X130627000Y-63977413D01*
X130627000Y-64814163D01*
X130785750Y-64972913D01*
X131200000Y-64975985D01*
X131324482Y-64963725D01*
X131444180Y-64927415D01*
X131554494Y-64868450D01*
X131651185Y-64789098D01*
X131730537Y-64692407D01*
X131789502Y-64582093D01*
X131825812Y-64462395D01*
X131838072Y-64337913D01*
X131835000Y-64136163D01*
X131676250Y-63977413D01*
X130627000Y-63977413D01*
X130373000Y-63977413D01*
X129323750Y-63977413D01*
X129165000Y-64136163D01*
X129161928Y-64337913D01*
X128673353Y-64337913D01*
X128573073Y-64187833D01*
X128402167Y-64016927D01*
X128201202Y-63882647D01*
X127977903Y-63790153D01*
X127740849Y-63743000D01*
X127499151Y-63743000D01*
X127262097Y-63790153D01*
X127038798Y-63882647D01*
X126837833Y-64016927D01*
X126666927Y-64187833D01*
X126532647Y-64388798D01*
X126440153Y-64612097D01*
X126393000Y-64849151D01*
X113607000Y-64849151D01*
X113559847Y-64612097D01*
X113467353Y-64388798D01*
X113333073Y-64187833D01*
X113162167Y-64016927D01*
X112961202Y-63882647D01*
X112737903Y-63790153D01*
X112500849Y-63743000D01*
X112259151Y-63743000D01*
X112022097Y-63790153D01*
X111798798Y-63882647D01*
X111597833Y-64016927D01*
X111426927Y-64187833D01*
X111292647Y-64388798D01*
X111200153Y-64612097D01*
X111153000Y-64849151D01*
X108002000Y-64849151D01*
X108002000Y-62630036D01*
X108118645Y-62735178D01*
X108368748Y-62884157D01*
X108643109Y-62981481D01*
X108873000Y-62860814D01*
X108873000Y-61667000D01*
X109127000Y-61667000D01*
X109127000Y-62860814D01*
X109356891Y-62981481D01*
X109631252Y-62884157D01*
X109881355Y-62735178D01*
X110097588Y-62540269D01*
X110269976Y-62309151D01*
X111153000Y-62309151D01*
X111153000Y-62550849D01*
X111200153Y-62787903D01*
X111292647Y-63011202D01*
X111426927Y-63212167D01*
X111597833Y-63383073D01*
X111798798Y-63517353D01*
X112022097Y-63609847D01*
X112259151Y-63657000D01*
X112500849Y-63657000D01*
X112737903Y-63609847D01*
X112961202Y-63517353D01*
X113162167Y-63383073D01*
X113333073Y-63212167D01*
X113467353Y-63011202D01*
X113559847Y-62787903D01*
X113607000Y-62550849D01*
X113607000Y-62309151D01*
X126393000Y-62309151D01*
X126393000Y-62550849D01*
X126440153Y-62787903D01*
X126532647Y-63011202D01*
X126666927Y-63212167D01*
X126837833Y-63383073D01*
X127038798Y-63517353D01*
X127262097Y-63609847D01*
X127499151Y-63657000D01*
X127740849Y-63657000D01*
X127977903Y-63609847D01*
X128201202Y-63517353D01*
X128402167Y-63383073D01*
X128422327Y-63362913D01*
X129161928Y-63362913D01*
X129165000Y-63564663D01*
X129323750Y-63723413D01*
X130373000Y-63723413D01*
X130373000Y-63703413D01*
X130627000Y-63703413D01*
X130627000Y-63723413D01*
X131676250Y-63723413D01*
X131835000Y-63564663D01*
X131838072Y-63362913D01*
X131825812Y-63238431D01*
X131789502Y-63118733D01*
X131730537Y-63008419D01*
X131651185Y-62911728D01*
X131554494Y-62832376D01*
X131444180Y-62773411D01*
X131365455Y-62749530D01*
X131432003Y-62694916D01*
X131515676Y-62592960D01*
X131577851Y-62476639D01*
X131616138Y-62350423D01*
X131629066Y-62219163D01*
X131629066Y-61896890D01*
X132058524Y-61896890D01*
X132103175Y-62044099D01*
X132228359Y-62306920D01*
X132402412Y-62540269D01*
X132618645Y-62735178D01*
X132868748Y-62884157D01*
X133143109Y-62981481D01*
X133373000Y-62860814D01*
X133373000Y-61667000D01*
X133627000Y-61667000D01*
X133627000Y-62860814D01*
X133856891Y-62981481D01*
X134131252Y-62884157D01*
X134381355Y-62735178D01*
X134597588Y-62540269D01*
X134771641Y-62306920D01*
X134896825Y-62044099D01*
X134941476Y-61896890D01*
X134820155Y-61667000D01*
X133627000Y-61667000D01*
X133373000Y-61667000D01*
X132179845Y-61667000D01*
X132058524Y-61896890D01*
X131629066Y-61896890D01*
X131629066Y-61731663D01*
X131616138Y-61600403D01*
X131577851Y-61474187D01*
X131515676Y-61357866D01*
X131432003Y-61255910D01*
X131330047Y-61172237D01*
X131213726Y-61110062D01*
X131177000Y-61098921D01*
X131177000Y-61063992D01*
X131213726Y-61052851D01*
X131330047Y-60990676D01*
X131432003Y-60907003D01*
X131515676Y-60805047D01*
X131577851Y-60688726D01*
X131616138Y-60562510D01*
X131629066Y-60431250D01*
X131629066Y-59943750D01*
X131616138Y-59812490D01*
X131577851Y-59686274D01*
X131515676Y-59569953D01*
X131432003Y-59467997D01*
X131330047Y-59384324D01*
X131213726Y-59322149D01*
X131087510Y-59283862D01*
X130956250Y-59270934D01*
X130043750Y-59270934D01*
X129912490Y-59283862D01*
X129786274Y-59322149D01*
X129669953Y-59384324D01*
X129567997Y-59467997D01*
X129484324Y-59569953D01*
X129422149Y-59686274D01*
X129383862Y-59812490D01*
X129370934Y-59943750D01*
X129370934Y-60431250D01*
X129383862Y-60562510D01*
X129422149Y-60688726D01*
X129484324Y-60805047D01*
X129567997Y-60907003D01*
X129669953Y-60990676D01*
X129786274Y-61052851D01*
X129823000Y-61063992D01*
X129823001Y-61098921D01*
X129786274Y-61110062D01*
X129669953Y-61172237D01*
X129567997Y-61255910D01*
X129484324Y-61357866D01*
X129422149Y-61474187D01*
X129383862Y-61600403D01*
X129370934Y-61731663D01*
X129370934Y-62219163D01*
X129383862Y-62350423D01*
X129422149Y-62476639D01*
X129484324Y-62592960D01*
X129567997Y-62694916D01*
X129634545Y-62749530D01*
X129555820Y-62773411D01*
X129445506Y-62832376D01*
X129348815Y-62911728D01*
X129269463Y-63008419D01*
X129210498Y-63118733D01*
X129174188Y-63238431D01*
X129161928Y-63362913D01*
X128422327Y-63362913D01*
X128573073Y-63212167D01*
X128707353Y-63011202D01*
X128799847Y-62787903D01*
X128847000Y-62550849D01*
X128847000Y-62309151D01*
X128799847Y-62072097D01*
X128707353Y-61848798D01*
X128573073Y-61647833D01*
X128402167Y-61476927D01*
X128201202Y-61342647D01*
X127977903Y-61250153D01*
X127740849Y-61203000D01*
X127499151Y-61203000D01*
X127262097Y-61250153D01*
X127038798Y-61342647D01*
X126837833Y-61476927D01*
X126666927Y-61647833D01*
X126532647Y-61848798D01*
X126440153Y-62072097D01*
X126393000Y-62309151D01*
X113607000Y-62309151D01*
X113559847Y-62072097D01*
X113467353Y-61848798D01*
X113333073Y-61647833D01*
X113162167Y-61476927D01*
X112961202Y-61342647D01*
X112737903Y-61250153D01*
X112500849Y-61203000D01*
X112259151Y-61203000D01*
X112022097Y-61250153D01*
X111798798Y-61342647D01*
X111597833Y-61476927D01*
X111426927Y-61647833D01*
X111292647Y-61848798D01*
X111200153Y-62072097D01*
X111153000Y-62309151D01*
X110269976Y-62309151D01*
X110271641Y-62306920D01*
X110396825Y-62044099D01*
X110441476Y-61896890D01*
X110320155Y-61667000D01*
X109127000Y-61667000D01*
X108873000Y-61667000D01*
X108853000Y-61667000D01*
X108853000Y-61413000D01*
X108873000Y-61413000D01*
X108873000Y-61393000D01*
X109127000Y-61393000D01*
X109127000Y-61413000D01*
X110320155Y-61413000D01*
X110441476Y-61183110D01*
X110396825Y-61035901D01*
X110271641Y-60773080D01*
X110097588Y-60539731D01*
X109881355Y-60344822D01*
X109770965Y-60279066D01*
X109850000Y-60279066D01*
X109933707Y-60270822D01*
X110014196Y-60246405D01*
X110088376Y-60206755D01*
X110153395Y-60153395D01*
X110206755Y-60088376D01*
X110246405Y-60014196D01*
X110270822Y-59933707D01*
X110279066Y-59850000D01*
X110279066Y-59769151D01*
X111153000Y-59769151D01*
X111153000Y-60010849D01*
X111200153Y-60247903D01*
X111292647Y-60471202D01*
X111426927Y-60672167D01*
X111597833Y-60843073D01*
X111798798Y-60977353D01*
X112022097Y-61069847D01*
X112259151Y-61117000D01*
X112500849Y-61117000D01*
X112737903Y-61069847D01*
X112961202Y-60977353D01*
X113162167Y-60843073D01*
X113333073Y-60672167D01*
X113467353Y-60471202D01*
X113559847Y-60247903D01*
X113607000Y-60010849D01*
X113607000Y-59769151D01*
X126393000Y-59769151D01*
X126393000Y-60010849D01*
X126440153Y-60247903D01*
X126532647Y-60471202D01*
X126666927Y-60672167D01*
X126837833Y-60843073D01*
X127038798Y-60977353D01*
X127262097Y-61069847D01*
X127499151Y-61117000D01*
X127740849Y-61117000D01*
X127977903Y-61069847D01*
X128201202Y-60977353D01*
X128402167Y-60843073D01*
X128573073Y-60672167D01*
X128707353Y-60471202D01*
X128799847Y-60247903D01*
X128847000Y-60010849D01*
X128847000Y-59769151D01*
X128799847Y-59532097D01*
X128707353Y-59308798D01*
X128573073Y-59107833D01*
X128402167Y-58936927D01*
X128201202Y-58802647D01*
X127977903Y-58710153D01*
X127740849Y-58663000D01*
X127499151Y-58663000D01*
X127262097Y-58710153D01*
X127038798Y-58802647D01*
X126837833Y-58936927D01*
X126666927Y-59107833D01*
X126532647Y-59308798D01*
X126440153Y-59532097D01*
X126393000Y-59769151D01*
X113607000Y-59769151D01*
X113559847Y-59532097D01*
X113467353Y-59308798D01*
X113333073Y-59107833D01*
X113162167Y-58936927D01*
X112961202Y-58802647D01*
X112737903Y-58710153D01*
X112500849Y-58663000D01*
X112259151Y-58663000D01*
X112022097Y-58710153D01*
X111798798Y-58802647D01*
X111597833Y-58936927D01*
X111426927Y-59107833D01*
X111292647Y-59308798D01*
X111200153Y-59532097D01*
X111153000Y-59769151D01*
X110279066Y-59769151D01*
X110279066Y-58150000D01*
X110270822Y-58066293D01*
X110246405Y-57985804D01*
X110206755Y-57911624D01*
X110153395Y-57846605D01*
X110088376Y-57793245D01*
X110014196Y-57753595D01*
X109933707Y-57729178D01*
X109850000Y-57720934D01*
X109677000Y-57720934D01*
X109677000Y-57229151D01*
X111153000Y-57229151D01*
X111153000Y-57470849D01*
X111200153Y-57707903D01*
X111292647Y-57931202D01*
X111426927Y-58132167D01*
X111597833Y-58303073D01*
X111798798Y-58437353D01*
X112022097Y-58529847D01*
X112259151Y-58577000D01*
X112500849Y-58577000D01*
X112737903Y-58529847D01*
X112961202Y-58437353D01*
X113162167Y-58303073D01*
X113333073Y-58132167D01*
X113467353Y-57931202D01*
X113559847Y-57707903D01*
X113607000Y-57470849D01*
X113607000Y-57229151D01*
X113559847Y-56992097D01*
X113467353Y-56768798D01*
X113333073Y-56567833D01*
X113162167Y-56396927D01*
X112961202Y-56262647D01*
X112737903Y-56170153D01*
X112500849Y-56123000D01*
X112259151Y-56123000D01*
X112022097Y-56170153D01*
X111798798Y-56262647D01*
X111597833Y-56396927D01*
X111426927Y-56567833D01*
X111292647Y-56768798D01*
X111200153Y-56992097D01*
X111153000Y-57229151D01*
X109677000Y-57229151D01*
X109677000Y-54689151D01*
X111153000Y-54689151D01*
X111153000Y-54930849D01*
X111200153Y-55167903D01*
X111292647Y-55391202D01*
X111426927Y-55592167D01*
X111597833Y-55763073D01*
X111798798Y-55897353D01*
X112022097Y-55989847D01*
X112259151Y-56037000D01*
X112500849Y-56037000D01*
X112737903Y-55989847D01*
X112961202Y-55897353D01*
X113162167Y-55763073D01*
X113333073Y-55592167D01*
X113467353Y-55391202D01*
X113559847Y-55167903D01*
X113607000Y-54930849D01*
X113607000Y-54689151D01*
X113559847Y-54452097D01*
X113467353Y-54228798D01*
X113333073Y-54027833D01*
X113162167Y-53856927D01*
X112961202Y-53722647D01*
X112737903Y-53630153D01*
X112500849Y-53583000D01*
X112259151Y-53583000D01*
X112022097Y-53630153D01*
X111798798Y-53722647D01*
X111597833Y-53856927D01*
X111426927Y-54027833D01*
X111292647Y-54228798D01*
X111200153Y-54452097D01*
X111153000Y-54689151D01*
X109677000Y-54689151D01*
X109677000Y-51894232D01*
X109940295Y-51630938D01*
X109966116Y-51609747D01*
X109968669Y-51606637D01*
X109999990Y-51616138D01*
X110131250Y-51629066D01*
X110618750Y-51629066D01*
X110750010Y-51616138D01*
X110872868Y-51578870D01*
X111201894Y-51907895D01*
X111200153Y-51912097D01*
X111153000Y-52149151D01*
X111153000Y-52390849D01*
X111200153Y-52627903D01*
X111292647Y-52851202D01*
X111426927Y-53052167D01*
X111597833Y-53223073D01*
X111798798Y-53357353D01*
X112022097Y-53449847D01*
X112259151Y-53497000D01*
X112500849Y-53497000D01*
X112737903Y-53449847D01*
X112961202Y-53357353D01*
X113162167Y-53223073D01*
X113333073Y-53052167D01*
X113467353Y-52851202D01*
X113559847Y-52627903D01*
X113607000Y-52390849D01*
X113607000Y-52149151D01*
X113562249Y-51924171D01*
X114230100Y-51924171D01*
X114230100Y-52075829D01*
X114259687Y-52224571D01*
X114317724Y-52364684D01*
X114401980Y-52490783D01*
X114509217Y-52598020D01*
X114635316Y-52682276D01*
X114775429Y-52740313D01*
X114924171Y-52769900D01*
X115075829Y-52769900D01*
X115224571Y-52740313D01*
X115233003Y-52736821D01*
X115246605Y-52753395D01*
X115311624Y-52806755D01*
X115385804Y-52846405D01*
X115466293Y-52870822D01*
X115550000Y-52879066D01*
X116450000Y-52879066D01*
X116533707Y-52870822D01*
X116614196Y-52846405D01*
X116688376Y-52806755D01*
X116753395Y-52753395D01*
X116775057Y-52727000D01*
X117120934Y-52727000D01*
X117120934Y-53400000D01*
X117129178Y-53483707D01*
X117153595Y-53564196D01*
X117193245Y-53638376D01*
X117246605Y-53703395D01*
X117311624Y-53756755D01*
X117385804Y-53796405D01*
X117466293Y-53820822D01*
X117550000Y-53829066D01*
X117618341Y-53829066D01*
X117509217Y-53901980D01*
X117488197Y-53923000D01*
X116879066Y-53923000D01*
X116879066Y-53550000D01*
X116870822Y-53466293D01*
X116846405Y-53385804D01*
X116806755Y-53311624D01*
X116753395Y-53246605D01*
X116688376Y-53193245D01*
X116614196Y-53153595D01*
X116533707Y-53129178D01*
X116450000Y-53120934D01*
X115550000Y-53120934D01*
X115466293Y-53129178D01*
X115385804Y-53153595D01*
X115311624Y-53193245D01*
X115246605Y-53246605D01*
X115193245Y-53311624D01*
X115153595Y-53385804D01*
X115129178Y-53466293D01*
X115120934Y-53550000D01*
X115120934Y-54350000D01*
X115129178Y-54433707D01*
X115153595Y-54514196D01*
X115193245Y-54588376D01*
X115246605Y-54653395D01*
X115311624Y-54706755D01*
X115385804Y-54746405D01*
X115466293Y-54770822D01*
X115550000Y-54779066D01*
X116013065Y-54779066D01*
X116121961Y-54887962D01*
X116140026Y-54909974D01*
X116227885Y-54982079D01*
X116328124Y-55035657D01*
X116436888Y-55068650D01*
X116521664Y-55077000D01*
X116521670Y-55077000D01*
X116549999Y-55079790D01*
X116578328Y-55077000D01*
X117223001Y-55077000D01*
X117223000Y-56474119D01*
X117220451Y-56500000D01*
X117223000Y-56525880D01*
X117230626Y-56603309D01*
X117260761Y-56702649D01*
X117309696Y-56794202D01*
X117375552Y-56874448D01*
X117395666Y-56890955D01*
X117609045Y-57104334D01*
X117625552Y-57124448D01*
X117705798Y-57190304D01*
X117797350Y-57239239D01*
X117896690Y-57269374D01*
X117974119Y-57277000D01*
X117974121Y-57277000D01*
X117999999Y-57279549D01*
X118025877Y-57277000D01*
X121474119Y-57277000D01*
X121500000Y-57279549D01*
X121525881Y-57277000D01*
X121603310Y-57269374D01*
X121702650Y-57239239D01*
X121721523Y-57229151D01*
X126393000Y-57229151D01*
X126393000Y-57470849D01*
X126440153Y-57707903D01*
X126532647Y-57931202D01*
X126666927Y-58132167D01*
X126837833Y-58303073D01*
X127038798Y-58437353D01*
X127262097Y-58529847D01*
X127499151Y-58577000D01*
X127740849Y-58577000D01*
X127977903Y-58529847D01*
X128201202Y-58437353D01*
X128402167Y-58303073D01*
X128573073Y-58132167D01*
X128707353Y-57931202D01*
X128799847Y-57707903D01*
X128847000Y-57470849D01*
X128847000Y-57229151D01*
X128799847Y-56992097D01*
X128707353Y-56768798D01*
X128573073Y-56567833D01*
X128402167Y-56396927D01*
X128201202Y-56262647D01*
X127977903Y-56170153D01*
X127740849Y-56123000D01*
X127499151Y-56123000D01*
X127262097Y-56170153D01*
X127038798Y-56262647D01*
X126837833Y-56396927D01*
X126666927Y-56567833D01*
X126532647Y-56768798D01*
X126440153Y-56992097D01*
X126393000Y-57229151D01*
X121721523Y-57229151D01*
X121794202Y-57190304D01*
X121874448Y-57124448D01*
X121890955Y-57104334D01*
X123225391Y-55769900D01*
X123325829Y-55769900D01*
X123474571Y-55740313D01*
X123614684Y-55682276D01*
X123695934Y-55627987D01*
X123695934Y-55775000D01*
X123708982Y-55907479D01*
X123747625Y-56034867D01*
X123810377Y-56152269D01*
X123894828Y-56255172D01*
X123997731Y-56339623D01*
X124115133Y-56402375D01*
X124242521Y-56441018D01*
X124375000Y-56454066D01*
X125625000Y-56454066D01*
X125757479Y-56441018D01*
X125884867Y-56402375D01*
X126002269Y-56339623D01*
X126105172Y-56255172D01*
X126189623Y-56152269D01*
X126252375Y-56034867D01*
X126291018Y-55907479D01*
X126304066Y-55775000D01*
X126304066Y-55053356D01*
X126398570Y-54958852D01*
X126440153Y-55167903D01*
X126532647Y-55391202D01*
X126666927Y-55592167D01*
X126837833Y-55763073D01*
X127038798Y-55897353D01*
X127262097Y-55989847D01*
X127499151Y-56037000D01*
X127740849Y-56037000D01*
X127977903Y-55989847D01*
X128201202Y-55897353D01*
X128402167Y-55763073D01*
X128573073Y-55592167D01*
X128707353Y-55391202D01*
X128799847Y-55167903D01*
X128847000Y-54930849D01*
X128847000Y-54689151D01*
X128799847Y-54452097D01*
X128730467Y-54284599D01*
X129677177Y-54284599D01*
X133080899Y-57688321D01*
X133072830Y-57684008D01*
X132945215Y-57645296D01*
X132845752Y-57635500D01*
X132845745Y-57635500D01*
X132812500Y-57632226D01*
X132779255Y-57635500D01*
X131466884Y-57635500D01*
X131432003Y-57592997D01*
X131330047Y-57509324D01*
X131213726Y-57447149D01*
X131087510Y-57408862D01*
X130956250Y-57395934D01*
X130043750Y-57395934D01*
X129912490Y-57408862D01*
X129786274Y-57447149D01*
X129669953Y-57509324D01*
X129567997Y-57592997D01*
X129484324Y-57694953D01*
X129422149Y-57811274D01*
X129383862Y-57937490D01*
X129370934Y-58068750D01*
X129370934Y-58556250D01*
X129383862Y-58687510D01*
X129422149Y-58813726D01*
X129484324Y-58930047D01*
X129567997Y-59032003D01*
X129669953Y-59115676D01*
X129786274Y-59177851D01*
X129912490Y-59216138D01*
X130043750Y-59229066D01*
X130956250Y-59229066D01*
X131087510Y-59216138D01*
X131213726Y-59177851D01*
X131330047Y-59115676D01*
X131432003Y-59032003D01*
X131466884Y-58989500D01*
X132220934Y-58989500D01*
X132220934Y-59850000D01*
X132229178Y-59933707D01*
X132253595Y-60014196D01*
X132293245Y-60088376D01*
X132346605Y-60153395D01*
X132411624Y-60206755D01*
X132485804Y-60246405D01*
X132566293Y-60270822D01*
X132650000Y-60279066D01*
X132729035Y-60279066D01*
X132618645Y-60344822D01*
X132402412Y-60539731D01*
X132228359Y-60773080D01*
X132103175Y-61035901D01*
X132058524Y-61183110D01*
X132179845Y-61413000D01*
X133373000Y-61413000D01*
X133373000Y-61393000D01*
X133627000Y-61393000D01*
X133627000Y-61413000D01*
X134820155Y-61413000D01*
X134941476Y-61183110D01*
X134896825Y-61035901D01*
X134771641Y-60773080D01*
X134597588Y-60539731D01*
X134381355Y-60344822D01*
X134270965Y-60279066D01*
X134350000Y-60279066D01*
X134433707Y-60270822D01*
X134514196Y-60246405D01*
X134588376Y-60206755D01*
X134653395Y-60153395D01*
X134706755Y-60088376D01*
X134746405Y-60014196D01*
X134770822Y-59933707D01*
X134779066Y-59850000D01*
X134779066Y-58150000D01*
X134770822Y-58066293D01*
X134746405Y-57985804D01*
X134706755Y-57911624D01*
X134677000Y-57875368D01*
X134677000Y-57683241D01*
X134680274Y-57649999D01*
X134677000Y-57616757D01*
X134677000Y-57616748D01*
X134667204Y-57517285D01*
X134628492Y-57389670D01*
X134565628Y-57272059D01*
X134481026Y-57168973D01*
X134455200Y-57147778D01*
X130459825Y-53152403D01*
X130438626Y-53126572D01*
X130335540Y-53041971D01*
X130217929Y-52979107D01*
X130090314Y-52940395D01*
X129990851Y-52930599D01*
X129990844Y-52930599D01*
X129957599Y-52927325D01*
X129924354Y-52930599D01*
X128654302Y-52930599D01*
X128707353Y-52851202D01*
X128799847Y-52627903D01*
X128847000Y-52390849D01*
X128847000Y-52149151D01*
X128799847Y-51912097D01*
X128707353Y-51688798D01*
X128573073Y-51487833D01*
X128402167Y-51316927D01*
X128201202Y-51182647D01*
X127977903Y-51090153D01*
X127740849Y-51043000D01*
X127499151Y-51043000D01*
X127262097Y-51090153D01*
X127038798Y-51182647D01*
X126837833Y-51316927D01*
X126666927Y-51487833D01*
X126532647Y-51688798D01*
X126440153Y-51912097D01*
X126393000Y-52149151D01*
X126393000Y-52390849D01*
X126440153Y-52627903D01*
X126532647Y-52851202D01*
X126603610Y-52957406D01*
X126532071Y-52979107D01*
X126414460Y-53041971D01*
X126311374Y-53126572D01*
X126290179Y-53152398D01*
X126271824Y-53170753D01*
X126291018Y-53107479D01*
X126304066Y-52975000D01*
X126304066Y-52225000D01*
X126291018Y-52092521D01*
X126252375Y-51965133D01*
X126189623Y-51847731D01*
X126105172Y-51744828D01*
X126002269Y-51660377D01*
X125884867Y-51597625D01*
X125757479Y-51558982D01*
X125625000Y-51545934D01*
X124375000Y-51545934D01*
X124242521Y-51558982D01*
X124115133Y-51597625D01*
X123997731Y-51660377D01*
X123894828Y-51744828D01*
X123810377Y-51847731D01*
X123747625Y-51965133D01*
X123708982Y-52092521D01*
X123695934Y-52225000D01*
X123695934Y-52323000D01*
X123225057Y-52323000D01*
X123203395Y-52296605D01*
X123138376Y-52243245D01*
X123064196Y-52203595D01*
X122983707Y-52179178D01*
X122900000Y-52170934D01*
X122000000Y-52170934D01*
X121916293Y-52179178D01*
X121835804Y-52203595D01*
X121761624Y-52243245D01*
X121696605Y-52296605D01*
X121674943Y-52323000D01*
X121329066Y-52323000D01*
X121329066Y-51650000D01*
X121320822Y-51566293D01*
X121296405Y-51485804D01*
X121256755Y-51411624D01*
X121203395Y-51346605D01*
X121138376Y-51293245D01*
X121064196Y-51253595D01*
X120983707Y-51229178D01*
X120900000Y-51220934D01*
X120000000Y-51220934D01*
X119916293Y-51229178D01*
X119835804Y-51253595D01*
X119761624Y-51293245D01*
X119696605Y-51346605D01*
X119674943Y-51373000D01*
X116775057Y-51373000D01*
X116753395Y-51346605D01*
X116688376Y-51293245D01*
X116677000Y-51287164D01*
X116677000Y-50372580D01*
X116682276Y-50364684D01*
X116740313Y-50224571D01*
X116769900Y-50075829D01*
X116769900Y-49924171D01*
X116740313Y-49775429D01*
X116682276Y-49635316D01*
X116598020Y-49509217D01*
X116490783Y-49401980D01*
X116364684Y-49317724D01*
X116224571Y-49259687D01*
X116075829Y-49230100D01*
X115924171Y-49230100D01*
X115775429Y-49259687D01*
X115635316Y-49317724D01*
X115509217Y-49401980D01*
X115401980Y-49509217D01*
X115317724Y-49635316D01*
X115259687Y-49775429D01*
X115230100Y-49924171D01*
X115230100Y-50075829D01*
X115259687Y-50224571D01*
X115317724Y-50364684D01*
X115323000Y-50372580D01*
X115323001Y-51287164D01*
X115311624Y-51293245D01*
X115309599Y-51294907D01*
X115224571Y-51259687D01*
X115075829Y-51230100D01*
X114924171Y-51230100D01*
X114775429Y-51259687D01*
X114635316Y-51317724D01*
X114509217Y-51401980D01*
X114401980Y-51509217D01*
X114317724Y-51635316D01*
X114259687Y-51775429D01*
X114230100Y-51924171D01*
X113562249Y-51924171D01*
X113559847Y-51912097D01*
X113467353Y-51688798D01*
X113333073Y-51487833D01*
X113162167Y-51316927D01*
X112961202Y-51182647D01*
X112737903Y-51090153D01*
X112500849Y-51043000D01*
X112259151Y-51043000D01*
X112022097Y-51090153D01*
X112017895Y-51091894D01*
X111631710Y-50705709D01*
X111798798Y-50817353D01*
X112022097Y-50909847D01*
X112259151Y-50957000D01*
X112500849Y-50957000D01*
X112737903Y-50909847D01*
X112961202Y-50817353D01*
X113162167Y-50683073D01*
X113333073Y-50512167D01*
X113467353Y-50311202D01*
X113559847Y-50087903D01*
X113607000Y-49850849D01*
X113607000Y-49609151D01*
X113559847Y-49372097D01*
X113467353Y-49148798D01*
X113333073Y-48947833D01*
X113162167Y-48776927D01*
X112961202Y-48642647D01*
X112737903Y-48550153D01*
X112500849Y-48503000D01*
X112259151Y-48503000D01*
X112022097Y-48550153D01*
X111798798Y-48642647D01*
X111597833Y-48776927D01*
X111426927Y-48947833D01*
X111292647Y-49148798D01*
X111200153Y-49372097D01*
X111153000Y-49609151D01*
X111153000Y-49639276D01*
X111094503Y-49567997D01*
X110992547Y-49484324D01*
X110876226Y-49422149D01*
X110750010Y-49383862D01*
X110618750Y-49370934D01*
X110162090Y-49370934D01*
X110162090Y-48629066D01*
X110618750Y-48629066D01*
X110750010Y-48616138D01*
X110876226Y-48577851D01*
X110992547Y-48515676D01*
X111094503Y-48432003D01*
X111178176Y-48330047D01*
X111240351Y-48213726D01*
X111278638Y-48087510D01*
X111279673Y-48077000D01*
X111531760Y-48077000D01*
X111597833Y-48143073D01*
X111798798Y-48277353D01*
X112022097Y-48369847D01*
X112259151Y-48417000D01*
X112500849Y-48417000D01*
X112737903Y-48369847D01*
X112961202Y-48277353D01*
X113162167Y-48143073D01*
X113333073Y-47972167D01*
X113467353Y-47771202D01*
X113559847Y-47547903D01*
X113607000Y-47310849D01*
X113607000Y-47069151D01*
X113559847Y-46832097D01*
X113467353Y-46608798D01*
X113333073Y-46407833D01*
X113162167Y-46236927D01*
X112961202Y-46102647D01*
X112737903Y-46010153D01*
X112500849Y-45963000D01*
X112259151Y-45963000D01*
X112022097Y-46010153D01*
X111798798Y-46102647D01*
X111597833Y-46236927D01*
X111426927Y-46407833D01*
X111292647Y-46608798D01*
X111228397Y-46763910D01*
X111178176Y-46669953D01*
X111094503Y-46567997D01*
X110992547Y-46484324D01*
X110876226Y-46422149D01*
X110750010Y-46383862D01*
X110618750Y-46370934D01*
X110162090Y-46370934D01*
X110162090Y-44129066D01*
X110618750Y-44129066D01*
X110750010Y-44116138D01*
X110876226Y-44077851D01*
X110951575Y-44037576D01*
X111201894Y-44287895D01*
X111200153Y-44292097D01*
X111153000Y-44529151D01*
X111153000Y-44770849D01*
X111200153Y-45007903D01*
X111292647Y-45231202D01*
X111426927Y-45432167D01*
X111597833Y-45603073D01*
X111798798Y-45737353D01*
X112022097Y-45829847D01*
X112259151Y-45877000D01*
X112500849Y-45877000D01*
X112737903Y-45829847D01*
X112961202Y-45737353D01*
X113162167Y-45603073D01*
X113333073Y-45432167D01*
X113467353Y-45231202D01*
X113559847Y-45007903D01*
X113607000Y-44770849D01*
X113607000Y-44529151D01*
X113586119Y-44424171D01*
X125230100Y-44424171D01*
X125230100Y-44575829D01*
X125259687Y-44724571D01*
X125317724Y-44864684D01*
X125401980Y-44990783D01*
X125509217Y-45098020D01*
X125635316Y-45182276D01*
X125775429Y-45240313D01*
X125924171Y-45269900D01*
X126075829Y-45269900D01*
X126224571Y-45240313D01*
X126364684Y-45182276D01*
X126480364Y-45104981D01*
X126532647Y-45231202D01*
X126666927Y-45432167D01*
X126837833Y-45603073D01*
X127038798Y-45737353D01*
X127262097Y-45829847D01*
X127499151Y-45877000D01*
X127740849Y-45877000D01*
X127977903Y-45829847D01*
X128201202Y-45737353D01*
X128402167Y-45603073D01*
X128573073Y-45432167D01*
X128707353Y-45231202D01*
X128799847Y-45007903D01*
X128847000Y-44770849D01*
X128847000Y-44529151D01*
X128799847Y-44292097D01*
X128707353Y-44068798D01*
X128573073Y-43867833D01*
X128402167Y-43696927D01*
X128201202Y-43562647D01*
X127977903Y-43470153D01*
X127740849Y-43423000D01*
X127499151Y-43423000D01*
X127262097Y-43470153D01*
X127038798Y-43562647D01*
X126837833Y-43696927D01*
X126677000Y-43857760D01*
X126677000Y-42902240D01*
X126837833Y-43063073D01*
X127038798Y-43197353D01*
X127262097Y-43289847D01*
X127499151Y-43337000D01*
X127740849Y-43337000D01*
X127977903Y-43289847D01*
X128201202Y-43197353D01*
X128402167Y-43063073D01*
X128573073Y-42892167D01*
X128707353Y-42691202D01*
X128799847Y-42467903D01*
X128847000Y-42230849D01*
X128847000Y-41989151D01*
X128799847Y-41752097D01*
X128768741Y-41677000D01*
X130373889Y-41677000D01*
X130393076Y-41712896D01*
X130552656Y-41907344D01*
X130747104Y-42066924D01*
X130968949Y-42185502D01*
X131209664Y-42258522D01*
X131326202Y-42270000D01*
X131209664Y-42281478D01*
X130968949Y-42354498D01*
X130747104Y-42473076D01*
X130552656Y-42632656D01*
X130393076Y-42827104D01*
X130274498Y-43048949D01*
X130201478Y-43289664D01*
X130176822Y-43540000D01*
X130201478Y-43790336D01*
X130262666Y-43992045D01*
X128895662Y-45359049D01*
X128875553Y-45375552D01*
X128818061Y-45445606D01*
X128809696Y-45455799D01*
X128760761Y-45547351D01*
X128730626Y-45646691D01*
X128720451Y-45750000D01*
X128723001Y-45775891D01*
X128723001Y-46646575D01*
X128707353Y-46608798D01*
X128573073Y-46407833D01*
X128402167Y-46236927D01*
X128201202Y-46102647D01*
X127977903Y-46010153D01*
X127740849Y-45963000D01*
X127499151Y-45963000D01*
X127262097Y-46010153D01*
X127038798Y-46102647D01*
X126837833Y-46236927D01*
X126666927Y-46407833D01*
X126532647Y-46608798D01*
X126440153Y-46832097D01*
X126393000Y-47069151D01*
X126393000Y-47310849D01*
X126440153Y-47547903D01*
X126532647Y-47771202D01*
X126666927Y-47972167D01*
X126837833Y-48143073D01*
X127038798Y-48277353D01*
X127262097Y-48369847D01*
X127499151Y-48417000D01*
X127740849Y-48417000D01*
X127977903Y-48369847D01*
X128201202Y-48277353D01*
X128402167Y-48143073D01*
X128573073Y-47972167D01*
X128707353Y-47771202D01*
X128723001Y-47733426D01*
X128723000Y-49186574D01*
X128707353Y-49148798D01*
X128573073Y-48947833D01*
X128402167Y-48776927D01*
X128201202Y-48642647D01*
X127977903Y-48550153D01*
X127740849Y-48503000D01*
X127499151Y-48503000D01*
X127262097Y-48550153D01*
X127038798Y-48642647D01*
X126837833Y-48776927D01*
X126666927Y-48947833D01*
X126532647Y-49148798D01*
X126440153Y-49372097D01*
X126393000Y-49609151D01*
X126393000Y-49850849D01*
X126440153Y-50087903D01*
X126532647Y-50311202D01*
X126666927Y-50512167D01*
X126837833Y-50683073D01*
X127038798Y-50817353D01*
X127262097Y-50909847D01*
X127499151Y-50957000D01*
X127740849Y-50957000D01*
X127977903Y-50909847D01*
X128201202Y-50817353D01*
X128402167Y-50683073D01*
X128573073Y-50512167D01*
X128707353Y-50311202D01*
X128723000Y-50273427D01*
X128723000Y-50724119D01*
X128720451Y-50750000D01*
X128723000Y-50775880D01*
X128730626Y-50853309D01*
X128760761Y-50952649D01*
X128809696Y-51044202D01*
X128875552Y-51124448D01*
X128895666Y-51140955D01*
X129359053Y-51604344D01*
X129375552Y-51624448D01*
X129455798Y-51690304D01*
X129547350Y-51739239D01*
X129587895Y-51751538D01*
X129596362Y-51837510D01*
X129634649Y-51963726D01*
X129696824Y-52080047D01*
X129780497Y-52182003D01*
X129882453Y-52265676D01*
X129998774Y-52327851D01*
X130124990Y-52366138D01*
X130256250Y-52379066D01*
X130743750Y-52379066D01*
X130875010Y-52366138D01*
X131001226Y-52327851D01*
X131117547Y-52265676D01*
X131219503Y-52182003D01*
X131303176Y-52080047D01*
X131365351Y-51963726D01*
X131403638Y-51837510D01*
X131416566Y-51706250D01*
X131416566Y-50793750D01*
X131403638Y-50662490D01*
X131365351Y-50536274D01*
X131303176Y-50419953D01*
X131219503Y-50317997D01*
X131117547Y-50234324D01*
X131001226Y-50172149D01*
X130875010Y-50133862D01*
X130743750Y-50120934D01*
X130256250Y-50120934D01*
X130124990Y-50133862D01*
X129998774Y-50172149D01*
X129882453Y-50234324D01*
X129780497Y-50317997D01*
X129777000Y-50322258D01*
X129777000Y-49677742D01*
X129780497Y-49682003D01*
X129882453Y-49765676D01*
X129998774Y-49827851D01*
X130124990Y-49866138D01*
X130256250Y-49879066D01*
X130743750Y-49879066D01*
X130875010Y-49866138D01*
X131001226Y-49827851D01*
X131117547Y-49765676D01*
X131219503Y-49682003D01*
X131303176Y-49580047D01*
X131365351Y-49463726D01*
X131403638Y-49337510D01*
X131416566Y-49206250D01*
X131416566Y-48293750D01*
X131403638Y-48162490D01*
X131365351Y-48036274D01*
X131303176Y-47919953D01*
X131219503Y-47817997D01*
X131117547Y-47734324D01*
X131027000Y-47685926D01*
X131027000Y-47359066D01*
X132223001Y-47359066D01*
X132223001Y-47620934D01*
X132131250Y-47620934D01*
X131999990Y-47633862D01*
X131873774Y-47672149D01*
X131757453Y-47734324D01*
X131655497Y-47817997D01*
X131571824Y-47919953D01*
X131509649Y-48036274D01*
X131471362Y-48162490D01*
X131458434Y-48293750D01*
X131458434Y-49206250D01*
X131471362Y-49337510D01*
X131509649Y-49463726D01*
X131571824Y-49580047D01*
X131655497Y-49682003D01*
X131757453Y-49765676D01*
X131848000Y-49814075D01*
X131848001Y-50185925D01*
X131757453Y-50234324D01*
X131655497Y-50317997D01*
X131571824Y-50419953D01*
X131509649Y-50536274D01*
X131471362Y-50662490D01*
X131458434Y-50793750D01*
X131458434Y-51706250D01*
X131471362Y-51837510D01*
X131509649Y-51963726D01*
X131571824Y-52080047D01*
X131655497Y-52182003D01*
X131757453Y-52265676D01*
X131873774Y-52327851D01*
X131999990Y-52366138D01*
X132131250Y-52379066D01*
X132618750Y-52379066D01*
X132750010Y-52366138D01*
X132876226Y-52327851D01*
X132992547Y-52265676D01*
X133094503Y-52182003D01*
X133178176Y-52080047D01*
X133240351Y-51963726D01*
X133278638Y-51837510D01*
X133291566Y-51706250D01*
X133291566Y-50793750D01*
X133278638Y-50662490D01*
X133240351Y-50536274D01*
X133178176Y-50419953D01*
X133094503Y-50317997D01*
X132992547Y-50234324D01*
X132902000Y-50185926D01*
X132902000Y-49814074D01*
X132992547Y-49765676D01*
X133094503Y-49682003D01*
X133178176Y-49580047D01*
X133240351Y-49463726D01*
X133278638Y-49337510D01*
X133291566Y-49206250D01*
X133291566Y-48293750D01*
X133278638Y-48162490D01*
X133277000Y-48157090D01*
X133277000Y-47138632D01*
X133287104Y-47146924D01*
X133508949Y-47265502D01*
X133749664Y-47338522D01*
X133937274Y-47357000D01*
X134062726Y-47357000D01*
X134250336Y-47338522D01*
X134491051Y-47265502D01*
X134712896Y-47146924D01*
X134907344Y-46987344D01*
X135066924Y-46792896D01*
X135185502Y-46571051D01*
X135258522Y-46330336D01*
X135283178Y-46080000D01*
X135258522Y-45829664D01*
X135185502Y-45588949D01*
X135066924Y-45367104D01*
X134907344Y-45172656D01*
X134712896Y-45013076D01*
X134491051Y-44894498D01*
X134250336Y-44821478D01*
X134133798Y-44810000D01*
X134250336Y-44798522D01*
X134491051Y-44725502D01*
X134712896Y-44606924D01*
X134907344Y-44447344D01*
X135066924Y-44252896D01*
X135185502Y-44031051D01*
X135258522Y-43790336D01*
X135283178Y-43540000D01*
X135258522Y-43289664D01*
X135185502Y-43048949D01*
X135066924Y-42827104D01*
X134907344Y-42632656D01*
X134712896Y-42473076D01*
X134535350Y-42378176D01*
X134631252Y-42344157D01*
X134881355Y-42195178D01*
X135097588Y-42000269D01*
X135271641Y-41766920D01*
X135396825Y-41504099D01*
X135441476Y-41356890D01*
X135320155Y-41127000D01*
X134127000Y-41127000D01*
X134127000Y-41147000D01*
X133873000Y-41147000D01*
X133873000Y-41127000D01*
X133853000Y-41127000D01*
X133853000Y-40873000D01*
X133873000Y-40873000D01*
X133873000Y-40853000D01*
X134127000Y-40853000D01*
X134127000Y-40873000D01*
X135320155Y-40873000D01*
X135441476Y-40643110D01*
X135396825Y-40495901D01*
X135271641Y-40233080D01*
X135097588Y-39999731D01*
X134881355Y-39804822D01*
X134631252Y-39655843D01*
X134535350Y-39621824D01*
X134712896Y-39526924D01*
X134907344Y-39367344D01*
X135066924Y-39172896D01*
X135185502Y-38951051D01*
X135258522Y-38710336D01*
X135283178Y-38460000D01*
X135258522Y-38209664D01*
X135185502Y-37968949D01*
X135066924Y-37747104D01*
X134907344Y-37552656D01*
X134712896Y-37393076D01*
X134491051Y-37274498D01*
X134250336Y-37201478D01*
X134133798Y-37190000D01*
X134250336Y-37178522D01*
X134491051Y-37105502D01*
X134712896Y-36986924D01*
X134907344Y-36827344D01*
X135066924Y-36632896D01*
X135185502Y-36411051D01*
X135258522Y-36170336D01*
X135283178Y-35920000D01*
X135258522Y-35669664D01*
X135185502Y-35428949D01*
X135066924Y-35207104D01*
X134907344Y-35012656D01*
X134712896Y-34853076D01*
X134491051Y-34734498D01*
X134250336Y-34661478D01*
X134062726Y-34643000D01*
X133937274Y-34643000D01*
X133749664Y-34661478D01*
X133508949Y-34734498D01*
X133287104Y-34853076D01*
X133092656Y-35012656D01*
X132933076Y-35207104D01*
X132814498Y-35428949D01*
X132741478Y-35669664D01*
X132730000Y-35786202D01*
X132718522Y-35669664D01*
X132645502Y-35428949D01*
X132526924Y-35207104D01*
X132367344Y-35012656D01*
X132172896Y-34853076D01*
X131951051Y-34734498D01*
X131710336Y-34661478D01*
X131522726Y-34643000D01*
X131397274Y-34643000D01*
X131209664Y-34661478D01*
X130968949Y-34734498D01*
X130747104Y-34853076D01*
X130552656Y-35012656D01*
X130393076Y-35207104D01*
X130274498Y-35428949D01*
X130201478Y-35669664D01*
X130176822Y-35920000D01*
X130201478Y-36170336D01*
X130274498Y-36411051D01*
X130393076Y-36632896D01*
X130552656Y-36827344D01*
X130747104Y-36986924D01*
X130968949Y-37105502D01*
X131209664Y-37178522D01*
X131326202Y-37190000D01*
X131209664Y-37201478D01*
X130968949Y-37274498D01*
X130747104Y-37393076D01*
X130552656Y-37552656D01*
X130393076Y-37747104D01*
X130274498Y-37968949D01*
X130201478Y-38209664D01*
X130176822Y-38460000D01*
X130201478Y-38710336D01*
X130274498Y-38951051D01*
X130393076Y-39172896D01*
X130552656Y-39367344D01*
X130747104Y-39526924D01*
X130968949Y-39645502D01*
X131209664Y-39718522D01*
X131326202Y-39730000D01*
X131209664Y-39741478D01*
X130968949Y-39814498D01*
X130747104Y-39933076D01*
X130552656Y-40092656D01*
X130393076Y-40287104D01*
X130373889Y-40323000D01*
X128592562Y-40323000D01*
X128707353Y-40151202D01*
X128799847Y-39927903D01*
X128847000Y-39690849D01*
X128847000Y-39449151D01*
X128799847Y-39212097D01*
X128707353Y-38988798D01*
X128573073Y-38787833D01*
X128402167Y-38616927D01*
X128201202Y-38482647D01*
X128024356Y-38409395D01*
X128236292Y-38333603D01*
X128361514Y-38266671D01*
X128433097Y-38022702D01*
X127620000Y-37209605D01*
X126806903Y-38022702D01*
X126878486Y-38266671D01*
X127133996Y-38387571D01*
X127217686Y-38408549D01*
X127038798Y-38482647D01*
X126837833Y-38616927D01*
X126666927Y-38787833D01*
X126532647Y-38988798D01*
X126440153Y-39212097D01*
X126393000Y-39449151D01*
X126393000Y-39690849D01*
X126440153Y-39927903D01*
X126532647Y-40151202D01*
X126661811Y-40344511D01*
X126561820Y-40426572D01*
X126540621Y-40452403D01*
X125544800Y-41448224D01*
X125518973Y-41469420D01*
X125497778Y-41495246D01*
X125497776Y-41495248D01*
X125471718Y-41527000D01*
X125434372Y-41572506D01*
X125371508Y-41690117D01*
X125332796Y-41817732D01*
X125323000Y-41917195D01*
X125323000Y-41917201D01*
X125319726Y-41950446D01*
X125323000Y-41983691D01*
X125323001Y-44127419D01*
X125317724Y-44135316D01*
X125259687Y-44275429D01*
X125230100Y-44424171D01*
X113586119Y-44424171D01*
X113559847Y-44292097D01*
X113467353Y-44068798D01*
X113333073Y-43867833D01*
X113162167Y-43696927D01*
X112961202Y-43562647D01*
X112737903Y-43470153D01*
X112500849Y-43423000D01*
X112259151Y-43423000D01*
X112022097Y-43470153D01*
X112017895Y-43471894D01*
X111631709Y-43085708D01*
X111798798Y-43197353D01*
X112022097Y-43289847D01*
X112259151Y-43337000D01*
X112500849Y-43337000D01*
X112737903Y-43289847D01*
X112961202Y-43197353D01*
X113162167Y-43063073D01*
X113333073Y-42892167D01*
X113467353Y-42691202D01*
X113559847Y-42467903D01*
X113607000Y-42230849D01*
X113607000Y-41989151D01*
X113559847Y-41752097D01*
X113467353Y-41528798D01*
X113333073Y-41327833D01*
X113162167Y-41156927D01*
X112961202Y-41022647D01*
X112737903Y-40930153D01*
X112500849Y-40883000D01*
X112259151Y-40883000D01*
X112022097Y-40930153D01*
X111798798Y-41022647D01*
X111597833Y-41156927D01*
X111426927Y-41327833D01*
X111292647Y-41528798D01*
X111200153Y-41752097D01*
X111153000Y-41989151D01*
X111153000Y-42139276D01*
X111094503Y-42067997D01*
X110992547Y-41984324D01*
X110876226Y-41922149D01*
X110750010Y-41883862D01*
X110618750Y-41870934D01*
X110162090Y-41870934D01*
X110162090Y-39449151D01*
X111153000Y-39449151D01*
X111153000Y-39690849D01*
X111200153Y-39927903D01*
X111292647Y-40151202D01*
X111426927Y-40352167D01*
X111597833Y-40523073D01*
X111798798Y-40657353D01*
X112022097Y-40749847D01*
X112259151Y-40797000D01*
X112500849Y-40797000D01*
X112737903Y-40749847D01*
X112961202Y-40657353D01*
X113162167Y-40523073D01*
X113333073Y-40352167D01*
X113467353Y-40151202D01*
X113559847Y-39927903D01*
X113607000Y-39690849D01*
X113607000Y-39449151D01*
X113559847Y-39212097D01*
X113467353Y-38988798D01*
X113333073Y-38787833D01*
X113162167Y-38616927D01*
X112961202Y-38482647D01*
X112737903Y-38390153D01*
X112500849Y-38343000D01*
X112259151Y-38343000D01*
X112022097Y-38390153D01*
X111798798Y-38482647D01*
X111597833Y-38616927D01*
X111426927Y-38787833D01*
X111292647Y-38988798D01*
X111200153Y-39212097D01*
X111153000Y-39449151D01*
X110162090Y-39449151D01*
X110162090Y-39387490D01*
X110167366Y-39379594D01*
X110225403Y-39239481D01*
X110254990Y-39090739D01*
X110254990Y-38939081D01*
X110225403Y-38790339D01*
X110167366Y-38650226D01*
X110083110Y-38524127D01*
X109975873Y-38416890D01*
X109849774Y-38332634D01*
X109709661Y-38274597D01*
X109560919Y-38245010D01*
X109409261Y-38245010D01*
X109260519Y-38274597D01*
X109120406Y-38332634D01*
X108994307Y-38416890D01*
X108887070Y-38524127D01*
X108802814Y-38650226D01*
X108744777Y-38790339D01*
X108715190Y-38939081D01*
X108715190Y-39090739D01*
X108744777Y-39239481D01*
X108802814Y-39379594D01*
X108808091Y-39387492D01*
X108808091Y-41877271D01*
X108743750Y-41870934D01*
X108256250Y-41870934D01*
X108124990Y-41883862D01*
X108002000Y-41921170D01*
X108002000Y-35161505D01*
X108026594Y-35186099D01*
X108276694Y-35353210D01*
X108554590Y-35468319D01*
X108849604Y-35527000D01*
X109150396Y-35527000D01*
X109445410Y-35468319D01*
X109723306Y-35353210D01*
X109817906Y-35290000D01*
X110941928Y-35290000D01*
X110954188Y-35414482D01*
X110990498Y-35534180D01*
X111049463Y-35644494D01*
X111128815Y-35741185D01*
X111225506Y-35820537D01*
X111335820Y-35879502D01*
X111455518Y-35915812D01*
X111580000Y-35928072D01*
X111837701Y-35926533D01*
X111798798Y-35942647D01*
X111597833Y-36076927D01*
X111426927Y-36247833D01*
X111292647Y-36448798D01*
X111200153Y-36672097D01*
X111153000Y-36909151D01*
X111153000Y-37150849D01*
X111200153Y-37387903D01*
X111292647Y-37611202D01*
X111426927Y-37812167D01*
X111597833Y-37983073D01*
X111798798Y-38117353D01*
X112022097Y-38209847D01*
X112259151Y-38257000D01*
X112500849Y-38257000D01*
X112737903Y-38209847D01*
X112961202Y-38117353D01*
X113162167Y-37983073D01*
X113333073Y-37812167D01*
X113467353Y-37611202D01*
X113559847Y-37387903D01*
X113607000Y-37150849D01*
X113607000Y-36909151D01*
X113559847Y-36672097D01*
X113467353Y-36448798D01*
X113333073Y-36247833D01*
X113162167Y-36076927D01*
X112961202Y-35942647D01*
X112922299Y-35926533D01*
X113180000Y-35928072D01*
X113304482Y-35915812D01*
X113424180Y-35879502D01*
X113534494Y-35820537D01*
X113631185Y-35741185D01*
X113710537Y-35644494D01*
X113769502Y-35534180D01*
X113805812Y-35414482D01*
X113818072Y-35290000D01*
X113815000Y-34775750D01*
X113656250Y-34617000D01*
X112507000Y-34617000D01*
X112507000Y-34637000D01*
X112253000Y-34637000D01*
X112253000Y-34617000D01*
X111103750Y-34617000D01*
X110945000Y-34775750D01*
X110941928Y-35290000D01*
X109817906Y-35290000D01*
X109973406Y-35186099D01*
X110186099Y-34973406D01*
X110353210Y-34723306D01*
X110468319Y-34445410D01*
X110527000Y-34150396D01*
X110527000Y-33849604D01*
X110495254Y-33690000D01*
X110941928Y-33690000D01*
X110945000Y-34204250D01*
X111103750Y-34363000D01*
X112253000Y-34363000D01*
X112253000Y-33213750D01*
X112507000Y-33213750D01*
X112507000Y-34363000D01*
X113656250Y-34363000D01*
X113815000Y-34204250D01*
X113818072Y-33690000D01*
X113805812Y-33565518D01*
X113769502Y-33445820D01*
X113710537Y-33335506D01*
X113631185Y-33238815D01*
X113534494Y-33159463D01*
X113424180Y-33100498D01*
X113304482Y-33064188D01*
X113180000Y-33051928D01*
X112665750Y-33055000D01*
X112507000Y-33213750D01*
X112253000Y-33213750D01*
X112094250Y-33055000D01*
X111580000Y-33051928D01*
X111455518Y-33064188D01*
X111335820Y-33100498D01*
X111225506Y-33159463D01*
X111128815Y-33238815D01*
X111049463Y-33335506D01*
X110990498Y-33445820D01*
X110954188Y-33565518D01*
X110941928Y-33690000D01*
X110495254Y-33690000D01*
X110468319Y-33554590D01*
X110353210Y-33276694D01*
X110186099Y-33026594D01*
X110161505Y-33002000D01*
X119314074Y-33002000D01*
X119275429Y-33009687D01*
X119275429Y-33009687D01*
G37*
X119275429Y-33009687D02*
X119135316Y-33067724D01*
X119009217Y-33151980D01*
X118901980Y-33259217D01*
X118817724Y-33385316D01*
X118759687Y-33525429D01*
X118730100Y-33674171D01*
X118730100Y-33825829D01*
X118759687Y-33974571D01*
X118800458Y-34073000D01*
X117454462Y-34073000D01*
X117318276Y-34086413D01*
X117143536Y-34139420D01*
X116982495Y-34225499D01*
X116841341Y-34341341D01*
X116725499Y-34482495D01*
X116639420Y-34643536D01*
X116586413Y-34818276D01*
X116568515Y-35000000D01*
X116586413Y-35181724D01*
X116639420Y-35356464D01*
X116725499Y-35517505D01*
X116841341Y-35658659D01*
X116982495Y-35774501D01*
X117143536Y-35860580D01*
X117318276Y-35913587D01*
X117454462Y-35927000D01*
X124536573Y-35927000D01*
X124498798Y-35942647D01*
X124297833Y-36076927D01*
X124146760Y-36228000D01*
X117362199Y-36228000D01*
X117094960Y-35960762D01*
X117069843Y-35930157D01*
X116947723Y-35829935D01*
X116808397Y-35755464D01*
X116657219Y-35709605D01*
X116500000Y-35694120D01*
X116356878Y-35708217D01*
X116342781Y-35709605D01*
X116238676Y-35741185D01*
X116191604Y-35755464D01*
X116052278Y-35829935D01*
X116052276Y-35829936D01*
X116052277Y-35829936D01*
X115930157Y-35930157D01*
X115829936Y-36052277D01*
X115755464Y-36191604D01*
X115709605Y-36342781D01*
X115694121Y-36500000D01*
X115698001Y-36539396D01*
X115698000Y-37740578D01*
X115677000Y-37719578D01*
X115677000Y-34372580D01*
X115682276Y-34364684D01*
X115740313Y-34224571D01*
X115769900Y-34075829D01*
X115769900Y-33924171D01*
X115740313Y-33775429D01*
X115682276Y-33635316D01*
X115598020Y-33509217D01*
X115490783Y-33401980D01*
X115364684Y-33317724D01*
X115224571Y-33259687D01*
X115075829Y-33230100D01*
X114924171Y-33230100D01*
X114775429Y-33259687D01*
X114635316Y-33317724D01*
X114509217Y-33401980D01*
X114401980Y-33509217D01*
X114317724Y-33635316D01*
X114259687Y-33775429D01*
X114230100Y-33924171D01*
X114230100Y-34075829D01*
X114259687Y-34224571D01*
X114317724Y-34364684D01*
X114323000Y-34372580D01*
X114323001Y-37966746D01*
X114319726Y-38000000D01*
X114332796Y-38132714D01*
X114371508Y-38260329D01*
X114434372Y-38377940D01*
X114497776Y-38455198D01*
X114497779Y-38455201D01*
X114518974Y-38481027D01*
X114544800Y-38502222D01*
X115497778Y-39455201D01*
X115518973Y-39481027D01*
X115544799Y-39502222D01*
X115544801Y-39502224D01*
X115622059Y-39565628D01*
X115739670Y-39628492D01*
X115867285Y-39667204D01*
X116000000Y-39680275D01*
X116033252Y-39677000D01*
X121127420Y-39677000D01*
X121135316Y-39682276D01*
X121275429Y-39740313D01*
X121424171Y-39769900D01*
X121575829Y-39769900D01*
X121724571Y-39740313D01*
X121864684Y-39682276D01*
X121990783Y-39598020D01*
X122098020Y-39490783D01*
X122182276Y-39364684D01*
X122240313Y-39224571D01*
X122269900Y-39075829D01*
X122269900Y-38924171D01*
X122240313Y-38775429D01*
X122182276Y-38635316D01*
X122177000Y-38627420D01*
X122177000Y-38272890D01*
X122182276Y-38264994D01*
X122240313Y-38124881D01*
X122269900Y-37976139D01*
X122269900Y-37832000D01*
X124146760Y-37832000D01*
X124297833Y-37983073D01*
X124498798Y-38117353D01*
X124722097Y-38209847D01*
X124959151Y-38257000D01*
X125200849Y-38257000D01*
X125437903Y-38209847D01*
X125661202Y-38117353D01*
X125862167Y-37983073D01*
X126033073Y-37812167D01*
X126167353Y-37611202D01*
X126240605Y-37434356D01*
X126316397Y-37646292D01*
X126383329Y-37771514D01*
X126627298Y-37843097D01*
X127440395Y-37030000D01*
X127799605Y-37030000D01*
X128612702Y-37843097D01*
X128856671Y-37771514D01*
X128977571Y-37516004D01*
X129046300Y-37241816D01*
X129060217Y-36959488D01*
X129018787Y-36679870D01*
X128923603Y-36413708D01*
X128856671Y-36288486D01*
X128612702Y-36216903D01*
X127799605Y-37030000D01*
X127440395Y-37030000D01*
X126627298Y-36216903D01*
X126383329Y-36288486D01*
X126262429Y-36543996D01*
X126241451Y-36627686D01*
X126167353Y-36448798D01*
X126033073Y-36247833D01*
X125862167Y-36076927D01*
X125661202Y-35942647D01*
X125623427Y-35927000D01*
X126839266Y-35927000D01*
X126806903Y-36037298D01*
X127620000Y-36850395D01*
X128433097Y-36037298D01*
X128361514Y-35793329D01*
X128106004Y-35672429D01*
X128022314Y-35651451D01*
X128201202Y-35577353D01*
X128402167Y-35443073D01*
X128573073Y-35272167D01*
X128707353Y-35071202D01*
X128799847Y-34847903D01*
X128847000Y-34610849D01*
X128847000Y-34369151D01*
X128799847Y-34132097D01*
X128707353Y-33908798D01*
X128573073Y-33707833D01*
X128402167Y-33536927D01*
X128201202Y-33402647D01*
X127977903Y-33310153D01*
X127740849Y-33263000D01*
X127499151Y-33263000D01*
X127262097Y-33310153D01*
X127038798Y-33402647D01*
X126837833Y-33536927D01*
X126666927Y-33707833D01*
X126532647Y-33908798D01*
X126464632Y-34073000D01*
X122699542Y-34073000D01*
X122740313Y-33974571D01*
X122769900Y-33825829D01*
X122769900Y-33674171D01*
X122740313Y-33525429D01*
X122682276Y-33385316D01*
X122598020Y-33259217D01*
X122490783Y-33151980D01*
X122364684Y-33067724D01*
X122224571Y-33009687D01*
X122185926Y-33002000D01*
X135498000Y-33002000D01*
X135498001Y-80498000D01*
X108002000Y-80498000D01*
X108002000Y-78992702D01*
X111566903Y-78992702D01*
X111638486Y-79236671D01*
X111893996Y-79357571D01*
X112168184Y-79426300D01*
X112450512Y-79440217D01*
X112730130Y-79398787D01*
X112996292Y-79303603D01*
X113121514Y-79236671D01*
X113193097Y-78992702D01*
X112380000Y-78179605D01*
X111566903Y-78992702D01*
X108002000Y-78992702D01*
X108002000Y-78070512D01*
X110939783Y-78070512D01*
X110981213Y-78350130D01*
X111076397Y-78616292D01*
X111143329Y-78741514D01*
X111387298Y-78813097D01*
X112200395Y-78000000D01*
X112559605Y-78000000D01*
X113372702Y-78813097D01*
X113616671Y-78741514D01*
X113737571Y-78486004D01*
X113758549Y-78402314D01*
X113832647Y-78581202D01*
X113966927Y-78782167D01*
X114137833Y-78953073D01*
X114338798Y-79087353D01*
X114562097Y-79179847D01*
X114799151Y-79227000D01*
X115040849Y-79227000D01*
X115277903Y-79179847D01*
X115501202Y-79087353D01*
X115702167Y-78953073D01*
X115873073Y-78782167D01*
X116007353Y-78581202D01*
X116099847Y-78357903D01*
X116147000Y-78120849D01*
X116147000Y-77879151D01*
X116233000Y-77879151D01*
X116233000Y-78120849D01*
X116280153Y-78357903D01*
X116372647Y-78581202D01*
X116506927Y-78782167D01*
X116677833Y-78953073D01*
X116878798Y-79087353D01*
X117102097Y-79179847D01*
X117339151Y-79227000D01*
X117580849Y-79227000D01*
X117817903Y-79179847D01*
X118041202Y-79087353D01*
X118242167Y-78953073D01*
X118413073Y-78782167D01*
X118547353Y-78581202D01*
X118639847Y-78357903D01*
X118687000Y-78120849D01*
X118687000Y-77879151D01*
X118773000Y-77879151D01*
X118773000Y-78120849D01*
X118820153Y-78357903D01*
X118912647Y-78581202D01*
X119046927Y-78782167D01*
X119217833Y-78953073D01*
X119418798Y-79087353D01*
X119642097Y-79179847D01*
X119879151Y-79227000D01*
X120120849Y-79227000D01*
X120357903Y-79179847D01*
X120581202Y-79087353D01*
X120782167Y-78953073D01*
X120953073Y-78782167D01*
X121087353Y-78581202D01*
X121179847Y-78357903D01*
X121227000Y-78120849D01*
X121227000Y-77879151D01*
X121313000Y-77879151D01*
X121313000Y-78120849D01*
X121360153Y-78357903D01*
X121452647Y-78581202D01*
X121586927Y-78782167D01*
X121757833Y-78953073D01*
X121958798Y-79087353D01*
X122182097Y-79179847D01*
X122419151Y-79227000D01*
X122660849Y-79227000D01*
X122897903Y-79179847D01*
X123121202Y-79087353D01*
X123322167Y-78953073D01*
X123493073Y-78782167D01*
X123627353Y-78581202D01*
X123719847Y-78357903D01*
X123767000Y-78120849D01*
X123767000Y-77879151D01*
X123853000Y-77879151D01*
X123853000Y-78120849D01*
X123900153Y-78357903D01*
X123992647Y-78581202D01*
X124126927Y-78782167D01*
X124297833Y-78953073D01*
X124498798Y-79087353D01*
X124722097Y-79179847D01*
X124959151Y-79227000D01*
X125200849Y-79227000D01*
X125437903Y-79179847D01*
X125661202Y-79087353D01*
X125862167Y-78953073D01*
X126033073Y-78782167D01*
X126167353Y-78581202D01*
X126259847Y-78357903D01*
X126307000Y-78120849D01*
X126307000Y-77879151D01*
X126393000Y-77879151D01*
X126393000Y-78120849D01*
X126440153Y-78357903D01*
X126532647Y-78581202D01*
X126666927Y-78782167D01*
X126837833Y-78953073D01*
X127038798Y-79087353D01*
X127262097Y-79179847D01*
X127499151Y-79227000D01*
X127740849Y-79227000D01*
X127977903Y-79179847D01*
X128201202Y-79087353D01*
X128402167Y-78953073D01*
X128573073Y-78782167D01*
X128707353Y-78581202D01*
X128799847Y-78357903D01*
X128847000Y-78120849D01*
X128847000Y-77879151D01*
X128841123Y-77849604D01*
X131473000Y-77849604D01*
X131473000Y-78150396D01*
X131531681Y-78445410D01*
X131646790Y-78723306D01*
X131813901Y-78973406D01*
X132026594Y-79186099D01*
X132276694Y-79353210D01*
X132554590Y-79468319D01*
X132849604Y-79527000D01*
X133150396Y-79527000D01*
X133445410Y-79468319D01*
X133723306Y-79353210D01*
X133973406Y-79186099D01*
X134186099Y-78973406D01*
X134353210Y-78723306D01*
X134468319Y-78445410D01*
X134527000Y-78150396D01*
X134527000Y-77849604D01*
X134468319Y-77554590D01*
X134353210Y-77276694D01*
X134186099Y-77026594D01*
X133973406Y-76813901D01*
X133723306Y-76646790D01*
X133445410Y-76531681D01*
X133150396Y-76473000D01*
X132849604Y-76473000D01*
X132554590Y-76531681D01*
X132276694Y-76646790D01*
X132026594Y-76813901D01*
X131813901Y-77026594D01*
X131646790Y-77276694D01*
X131531681Y-77554590D01*
X131473000Y-77849604D01*
X128841123Y-77849604D01*
X128799847Y-77642097D01*
X128707353Y-77418798D01*
X128573073Y-77217833D01*
X128402167Y-77046927D01*
X128201202Y-76912647D01*
X127977903Y-76820153D01*
X127740849Y-76773000D01*
X127499151Y-76773000D01*
X127262097Y-76820153D01*
X127038798Y-76912647D01*
X126837833Y-77046927D01*
X126666927Y-77217833D01*
X126532647Y-77418798D01*
X126440153Y-77642097D01*
X126393000Y-77879151D01*
X126307000Y-77879151D01*
X126259847Y-77642097D01*
X126167353Y-77418798D01*
X126033073Y-77217833D01*
X125862167Y-77046927D01*
X125661202Y-76912647D01*
X125437903Y-76820153D01*
X125200849Y-76773000D01*
X124959151Y-76773000D01*
X124722097Y-76820153D01*
X124498798Y-76912647D01*
X124297833Y-77046927D01*
X124126927Y-77217833D01*
X123992647Y-77418798D01*
X123900153Y-77642097D01*
X123853000Y-77879151D01*
X123767000Y-77879151D01*
X123719847Y-77642097D01*
X123627353Y-77418798D01*
X123493073Y-77217833D01*
X123322167Y-77046927D01*
X123121202Y-76912647D01*
X122897903Y-76820153D01*
X122660849Y-76773000D01*
X122419151Y-76773000D01*
X122182097Y-76820153D01*
X121958798Y-76912647D01*
X121757833Y-77046927D01*
X121586927Y-77217833D01*
X121452647Y-77418798D01*
X121360153Y-77642097D01*
X121313000Y-77879151D01*
X121227000Y-77879151D01*
X121179847Y-77642097D01*
X121087353Y-77418798D01*
X120953073Y-77217833D01*
X120782167Y-77046927D01*
X120581202Y-76912647D01*
X120357903Y-76820153D01*
X120120849Y-76773000D01*
X119879151Y-76773000D01*
X119642097Y-76820153D01*
X119418798Y-76912647D01*
X119217833Y-77046927D01*
X119046927Y-77217833D01*
X118912647Y-77418798D01*
X118820153Y-77642097D01*
X118773000Y-77879151D01*
X118687000Y-77879151D01*
X118639847Y-77642097D01*
X118547353Y-77418798D01*
X118413073Y-77217833D01*
X118242167Y-77046927D01*
X118041202Y-76912647D01*
X117817903Y-76820153D01*
X117580849Y-76773000D01*
X117339151Y-76773000D01*
X117102097Y-76820153D01*
X116878798Y-76912647D01*
X116677833Y-77046927D01*
X116506927Y-77217833D01*
X116372647Y-77418798D01*
X116280153Y-77642097D01*
X116233000Y-77879151D01*
X116147000Y-77879151D01*
X116099847Y-77642097D01*
X116007353Y-77418798D01*
X115873073Y-77217833D01*
X115702167Y-77046927D01*
X115501202Y-76912647D01*
X115277903Y-76820153D01*
X115040849Y-76773000D01*
X114799151Y-76773000D01*
X114562097Y-76820153D01*
X114338798Y-76912647D01*
X114137833Y-77046927D01*
X113966927Y-77217833D01*
X113832647Y-77418798D01*
X113759395Y-77595644D01*
X113683603Y-77383708D01*
X113616671Y-77258486D01*
X113372702Y-77186903D01*
X112559605Y-78000000D01*
X112200395Y-78000000D01*
X111387298Y-77186903D01*
X111143329Y-77258486D01*
X111022429Y-77513996D01*
X110953700Y-77788184D01*
X110939783Y-78070512D01*
X108002000Y-78070512D01*
X108002000Y-77007298D01*
X111566903Y-77007298D01*
X112380000Y-77820395D01*
X113193097Y-77007298D01*
X113121514Y-76763329D01*
X112866004Y-76642429D01*
X112591816Y-76573700D01*
X112309488Y-76559783D01*
X112029870Y-76601213D01*
X111763708Y-76696397D01*
X111638486Y-76763329D01*
X111566903Y-77007298D01*
X108002000Y-77007298D01*
X108002000Y-74849604D01*
X108473000Y-74849604D01*
X108473000Y-75150396D01*
X108531681Y-75445410D01*
X108646790Y-75723306D01*
X108813901Y-75973406D01*
X109026594Y-76186099D01*
X109276694Y-76353210D01*
X109554590Y-76468319D01*
X109849604Y-76527000D01*
X110150396Y-76527000D01*
X110445410Y-76468319D01*
X110723306Y-76353210D01*
X110973406Y-76186099D01*
X111186099Y-75973406D01*
X111353210Y-75723306D01*
X111468319Y-75445410D01*
X111527000Y-75150396D01*
X111527000Y-74849604D01*
X111468319Y-74554590D01*
X111353210Y-74276694D01*
X111186099Y-74026594D01*
X110973406Y-73813901D01*
X110723306Y-73646790D01*
X110445410Y-73531681D01*
X110150396Y-73473000D01*
X109849604Y-73473000D01*
X109554590Y-73531681D01*
X109276694Y-73646790D01*
X109026594Y-73813901D01*
X108813901Y-74026594D01*
X108646790Y-74276694D01*
X108531681Y-74554590D01*
X108473000Y-74849604D01*
X108002000Y-74849604D01*
X108002000Y-70540000D01*
X108216822Y-70540000D01*
X108241478Y-70790336D01*
X108314498Y-71031051D01*
X108433076Y-71252896D01*
X108592656Y-71447344D01*
X108787104Y-71606924D01*
X109008949Y-71725502D01*
X109249664Y-71798522D01*
X109437274Y-71817000D01*
X109562726Y-71817000D01*
X109750336Y-71798522D01*
X109991051Y-71725502D01*
X110212896Y-71606924D01*
X110376445Y-71472702D01*
X111566903Y-71472702D01*
X111638486Y-71716671D01*
X111893996Y-71837571D01*
X112168184Y-71906300D01*
X112450512Y-71920217D01*
X112730130Y-71878787D01*
X112996292Y-71783603D01*
X113121514Y-71716671D01*
X113193097Y-71472702D01*
X112380000Y-70659605D01*
X111566903Y-71472702D01*
X110376445Y-71472702D01*
X110407344Y-71447344D01*
X110566924Y-71252896D01*
X110685502Y-71031051D01*
X110758522Y-70790336D01*
X110782142Y-70550512D01*
X110939783Y-70550512D01*
X110981213Y-70830130D01*
X111076397Y-71096292D01*
X111143329Y-71221514D01*
X111387298Y-71293097D01*
X112200395Y-70480000D01*
X112559605Y-70480000D01*
X113372702Y-71293097D01*
X113616671Y-71221514D01*
X113737571Y-70966004D01*
X113758549Y-70882314D01*
X113832647Y-71061202D01*
X113966927Y-71262167D01*
X114137833Y-71433073D01*
X114338798Y-71567353D01*
X114562097Y-71659847D01*
X114799151Y-71707000D01*
X115040849Y-71707000D01*
X115277903Y-71659847D01*
X115501202Y-71567353D01*
X115702167Y-71433073D01*
X115873073Y-71262167D01*
X116007353Y-71061202D01*
X116099847Y-70837903D01*
X116147000Y-70600849D01*
X116147000Y-70359151D01*
X116233000Y-70359151D01*
X116233000Y-70600849D01*
X116280153Y-70837903D01*
X116372647Y-71061202D01*
X116506927Y-71262167D01*
X116677833Y-71433073D01*
X116878798Y-71567353D01*
X117102097Y-71659847D01*
X117339151Y-71707000D01*
X117580849Y-71707000D01*
X117817903Y-71659847D01*
X118041202Y-71567353D01*
X118242167Y-71433073D01*
X118413073Y-71262167D01*
X118547353Y-71061202D01*
X118639847Y-70837903D01*
X118687000Y-70600849D01*
X118687000Y-70359151D01*
X118773000Y-70359151D01*
X118773000Y-70600849D01*
X118820153Y-70837903D01*
X118912647Y-71061202D01*
X119046927Y-71262167D01*
X119217833Y-71433073D01*
X119418798Y-71567353D01*
X119642097Y-71659847D01*
X119879151Y-71707000D01*
X120120849Y-71707000D01*
X120357903Y-71659847D01*
X120581202Y-71567353D01*
X120782167Y-71433073D01*
X120953073Y-71262167D01*
X121087353Y-71061202D01*
X121179847Y-70837903D01*
X121227000Y-70600849D01*
X121227000Y-70359151D01*
X121313000Y-70359151D01*
X121313000Y-70600849D01*
X121360153Y-70837903D01*
X121452647Y-71061202D01*
X121586927Y-71262167D01*
X121757833Y-71433073D01*
X121958798Y-71567353D01*
X122182097Y-71659847D01*
X122419151Y-71707000D01*
X122660849Y-71707000D01*
X122897903Y-71659847D01*
X123121202Y-71567353D01*
X123322167Y-71433073D01*
X123493073Y-71262167D01*
X123627353Y-71061202D01*
X123719847Y-70837903D01*
X123767000Y-70600849D01*
X123767000Y-70359151D01*
X123853000Y-70359151D01*
X123853000Y-70600849D01*
X123900153Y-70837903D01*
X123992647Y-71061202D01*
X124126927Y-71262167D01*
X124297833Y-71433073D01*
X124498798Y-71567353D01*
X124722097Y-71659847D01*
X124959151Y-71707000D01*
X125200849Y-71707000D01*
X125437903Y-71659847D01*
X125661202Y-71567353D01*
X125862167Y-71433073D01*
X126033073Y-71262167D01*
X126167353Y-71061202D01*
X126259847Y-70837903D01*
X126307000Y-70600849D01*
X126307000Y-70359151D01*
X126393000Y-70359151D01*
X126393000Y-70600849D01*
X126440153Y-70837903D01*
X126532647Y-71061202D01*
X126666927Y-71262167D01*
X126837833Y-71433073D01*
X127038798Y-71567353D01*
X127262097Y-71659847D01*
X127499151Y-71707000D01*
X127740849Y-71707000D01*
X127977903Y-71659847D01*
X128201202Y-71567353D01*
X128402167Y-71433073D01*
X128573073Y-71262167D01*
X128707353Y-71061202D01*
X128799847Y-70837903D01*
X128847000Y-70600849D01*
X128847000Y-70540000D01*
X132216822Y-70540000D01*
X132241478Y-70790336D01*
X132314498Y-71031051D01*
X132433076Y-71252896D01*
X132592656Y-71447344D01*
X132787104Y-71606924D01*
X133008949Y-71725502D01*
X133249664Y-71798522D01*
X133437274Y-71817000D01*
X133562726Y-71817000D01*
X133750336Y-71798522D01*
X133991051Y-71725502D01*
X134212896Y-71606924D01*
X134407344Y-71447344D01*
X134566924Y-71252896D01*
X134685502Y-71031051D01*
X134758522Y-70790336D01*
X134783178Y-70540000D01*
X134758522Y-70289664D01*
X134685502Y-70048949D01*
X134566924Y-69827104D01*
X134407344Y-69632656D01*
X134212896Y-69473076D01*
X133991051Y-69354498D01*
X133750336Y-69281478D01*
X133725847Y-69279066D01*
X134350000Y-69279066D01*
X134433707Y-69270822D01*
X134514196Y-69246405D01*
X134588376Y-69206755D01*
X134653395Y-69153395D01*
X134706755Y-69088376D01*
X134746405Y-69014196D01*
X134770822Y-68933707D01*
X134779066Y-68850000D01*
X134779066Y-67150000D01*
X134770822Y-67066293D01*
X134746405Y-66985804D01*
X134706755Y-66911624D01*
X134653395Y-66846605D01*
X134588376Y-66793245D01*
X134514196Y-66753595D01*
X134433707Y-66729178D01*
X134350000Y-66720934D01*
X132650000Y-66720934D01*
X132566293Y-66729178D01*
X132485804Y-66753595D01*
X132411624Y-66793245D01*
X132346605Y-66846605D01*
X132293245Y-66911624D01*
X132253595Y-66985804D01*
X132229178Y-67066293D01*
X132220934Y-67150000D01*
X132220934Y-68850000D01*
X132229178Y-68933707D01*
X132253595Y-69014196D01*
X132293245Y-69088376D01*
X132346605Y-69153395D01*
X132411624Y-69206755D01*
X132485804Y-69246405D01*
X132566293Y-69270822D01*
X132650000Y-69279066D01*
X133274153Y-69279066D01*
X133249664Y-69281478D01*
X133008949Y-69354498D01*
X132787104Y-69473076D01*
X132592656Y-69632656D01*
X132433076Y-69827104D01*
X132314498Y-70048949D01*
X132241478Y-70289664D01*
X132216822Y-70540000D01*
X128847000Y-70540000D01*
X128847000Y-70359151D01*
X128799847Y-70122097D01*
X128707353Y-69898798D01*
X128573073Y-69697833D01*
X128402167Y-69526927D01*
X128201202Y-69392647D01*
X127977903Y-69300153D01*
X127740849Y-69253000D01*
X127499151Y-69253000D01*
X127262097Y-69300153D01*
X127038798Y-69392647D01*
X126837833Y-69526927D01*
X126666927Y-69697833D01*
X126532647Y-69898798D01*
X126440153Y-70122097D01*
X126393000Y-70359151D01*
X126307000Y-70359151D01*
X126259847Y-70122097D01*
X126167353Y-69898798D01*
X126033073Y-69697833D01*
X125862167Y-69526927D01*
X125661202Y-69392647D01*
X125437903Y-69300153D01*
X125200849Y-69253000D01*
X124959151Y-69253000D01*
X124722097Y-69300153D01*
X124498798Y-69392647D01*
X124297833Y-69526927D01*
X124126927Y-69697833D01*
X123992647Y-69898798D01*
X123900153Y-70122097D01*
X123853000Y-70359151D01*
X123767000Y-70359151D01*
X123719847Y-70122097D01*
X123627353Y-69898798D01*
X123493073Y-69697833D01*
X123322167Y-69526927D01*
X123121202Y-69392647D01*
X122897903Y-69300153D01*
X122660849Y-69253000D01*
X122419151Y-69253000D01*
X122182097Y-69300153D01*
X121958798Y-69392647D01*
X121757833Y-69526927D01*
X121586927Y-69697833D01*
X121452647Y-69898798D01*
X121360153Y-70122097D01*
X121313000Y-70359151D01*
X121227000Y-70359151D01*
X121179847Y-70122097D01*
X121087353Y-69898798D01*
X120953073Y-69697833D01*
X120782167Y-69526927D01*
X120581202Y-69392647D01*
X120357903Y-69300153D01*
X120120849Y-69253000D01*
X119879151Y-69253000D01*
X119642097Y-69300153D01*
X119418798Y-69392647D01*
X119217833Y-69526927D01*
X119046927Y-69697833D01*
X118912647Y-69898798D01*
X118820153Y-70122097D01*
X118773000Y-70359151D01*
X118687000Y-70359151D01*
X118639847Y-70122097D01*
X118547353Y-69898798D01*
X118413073Y-69697833D01*
X118242167Y-69526927D01*
X118041202Y-69392647D01*
X117817903Y-69300153D01*
X117580849Y-69253000D01*
X117339151Y-69253000D01*
X117102097Y-69300153D01*
X116878798Y-69392647D01*
X116677833Y-69526927D01*
X116506927Y-69697833D01*
X116372647Y-69898798D01*
X116280153Y-70122097D01*
X116233000Y-70359151D01*
X116147000Y-70359151D01*
X116099847Y-70122097D01*
X116007353Y-69898798D01*
X115873073Y-69697833D01*
X115702167Y-69526927D01*
X115501202Y-69392647D01*
X115277903Y-69300153D01*
X115040849Y-69253000D01*
X114799151Y-69253000D01*
X114562097Y-69300153D01*
X114338798Y-69392647D01*
X114137833Y-69526927D01*
X113966927Y-69697833D01*
X113832647Y-69898798D01*
X113759395Y-70075644D01*
X113683603Y-69863708D01*
X113616671Y-69738486D01*
X113372702Y-69666903D01*
X112559605Y-70480000D01*
X112200395Y-70480000D01*
X111387298Y-69666903D01*
X111143329Y-69738486D01*
X111022429Y-69993996D01*
X110953700Y-70268184D01*
X110939783Y-70550512D01*
X110782142Y-70550512D01*
X110783178Y-70540000D01*
X110758522Y-70289664D01*
X110685502Y-70048949D01*
X110566924Y-69827104D01*
X110407344Y-69632656D01*
X110230226Y-69487298D01*
X111566903Y-69487298D01*
X112380000Y-70300395D01*
X113193097Y-69487298D01*
X113121514Y-69243329D01*
X112866004Y-69122429D01*
X112591816Y-69053700D01*
X112309488Y-69039783D01*
X112029870Y-69081213D01*
X111763708Y-69176397D01*
X111638486Y-69243329D01*
X111566903Y-69487298D01*
X110230226Y-69487298D01*
X110212896Y-69473076D01*
X109991051Y-69354498D01*
X109750336Y-69281478D01*
X109725847Y-69279066D01*
X110350000Y-69279066D01*
X110433707Y-69270822D01*
X110514196Y-69246405D01*
X110588376Y-69206755D01*
X110653395Y-69153395D01*
X110706755Y-69088376D01*
X110746405Y-69014196D01*
X110770822Y-68933707D01*
X110779066Y-68850000D01*
X110779066Y-67389151D01*
X111153000Y-67389151D01*
X111153000Y-67630849D01*
X111200153Y-67867903D01*
X111292647Y-68091202D01*
X111426927Y-68292167D01*
X111597833Y-68463073D01*
X111798798Y-68597353D01*
X112022097Y-68689847D01*
X112259151Y-68737000D01*
X112500849Y-68737000D01*
X112737903Y-68689847D01*
X112961202Y-68597353D01*
X113162167Y-68463073D01*
X113333073Y-68292167D01*
X113467353Y-68091202D01*
X113559847Y-67867903D01*
X113607000Y-67630849D01*
X113607000Y-67389151D01*
X113693000Y-67389151D01*
X113693000Y-67630849D01*
X113740153Y-67867903D01*
X113832647Y-68091202D01*
X113966927Y-68292167D01*
X114137833Y-68463073D01*
X114338798Y-68597353D01*
X114562097Y-68689847D01*
X114799151Y-68737000D01*
X115040849Y-68737000D01*
X115277903Y-68689847D01*
X115501202Y-68597353D01*
X115702167Y-68463073D01*
X115873073Y-68292167D01*
X116007353Y-68091202D01*
X116099847Y-67867903D01*
X116147000Y-67630849D01*
X116147000Y-67389151D01*
X116233000Y-67389151D01*
X116233000Y-67630849D01*
X116280153Y-67867903D01*
X116372647Y-68091202D01*
X116506927Y-68292167D01*
X116677833Y-68463073D01*
X116878798Y-68597353D01*
X117102097Y-68689847D01*
X117339151Y-68737000D01*
X117580849Y-68737000D01*
X117817903Y-68689847D01*
X118041202Y-68597353D01*
X118182857Y-68502702D01*
X119186903Y-68502702D01*
X119258486Y-68746671D01*
X119513996Y-68867571D01*
X119788184Y-68936300D01*
X120070512Y-68950217D01*
X120350130Y-68908787D01*
X120616292Y-68813603D01*
X120741514Y-68746671D01*
X120813097Y-68502702D01*
X120000000Y-67689605D01*
X119186903Y-68502702D01*
X118182857Y-68502702D01*
X118242167Y-68463073D01*
X118413073Y-68292167D01*
X118547353Y-68091202D01*
X118620605Y-67914356D01*
X118696397Y-68126292D01*
X118763329Y-68251514D01*
X119007298Y-68323097D01*
X119820395Y-67510000D01*
X120179605Y-67510000D01*
X120992702Y-68323097D01*
X121236671Y-68251514D01*
X121357571Y-67996004D01*
X121378549Y-67912314D01*
X121452647Y-68091202D01*
X121586927Y-68292167D01*
X121757833Y-68463073D01*
X121958798Y-68597353D01*
X122182097Y-68689847D01*
X122419151Y-68737000D01*
X122660849Y-68737000D01*
X122897903Y-68689847D01*
X123121202Y-68597353D01*
X123322167Y-68463073D01*
X123493073Y-68292167D01*
X123627353Y-68091202D01*
X123719847Y-67867903D01*
X123767000Y-67630849D01*
X123767000Y-67389151D01*
X123853000Y-67389151D01*
X123853000Y-67630849D01*
X123900153Y-67867903D01*
X123992647Y-68091202D01*
X124126927Y-68292167D01*
X124297833Y-68463073D01*
X124498798Y-68597353D01*
X124722097Y-68689847D01*
X124959151Y-68737000D01*
X125200849Y-68737000D01*
X125437903Y-68689847D01*
X125661202Y-68597353D01*
X125862167Y-68463073D01*
X126033073Y-68292167D01*
X126167353Y-68091202D01*
X126259847Y-67867903D01*
X126307000Y-67630849D01*
X126307000Y-67389151D01*
X126393000Y-67389151D01*
X126393000Y-67630849D01*
X126440153Y-67867903D01*
X126532647Y-68091202D01*
X126666927Y-68292167D01*
X126837833Y-68463073D01*
X127038798Y-68597353D01*
X127262097Y-68689847D01*
X127499151Y-68737000D01*
X127740849Y-68737000D01*
X127977903Y-68689847D01*
X128201202Y-68597353D01*
X128402167Y-68463073D01*
X128573073Y-68292167D01*
X128707353Y-68091202D01*
X128799847Y-67867903D01*
X128847000Y-67630849D01*
X128847000Y-67389151D01*
X128799847Y-67152097D01*
X128707353Y-66928798D01*
X128573073Y-66727833D01*
X128402167Y-66556927D01*
X128201202Y-66422647D01*
X127977903Y-66330153D01*
X127740849Y-66283000D01*
X127499151Y-66283000D01*
X127262097Y-66330153D01*
X127038798Y-66422647D01*
X126837833Y-66556927D01*
X126666927Y-66727833D01*
X126532647Y-66928798D01*
X126440153Y-67152097D01*
X126393000Y-67389151D01*
X126307000Y-67389151D01*
X126259847Y-67152097D01*
X126167353Y-66928798D01*
X126033073Y-66727833D01*
X125862167Y-66556927D01*
X125661202Y-66422647D01*
X125437903Y-66330153D01*
X125200849Y-66283000D01*
X124959151Y-66283000D01*
X124722097Y-66330153D01*
X124498798Y-66422647D01*
X124297833Y-66556927D01*
X124126927Y-66727833D01*
X123992647Y-66928798D01*
X123900153Y-67152097D01*
X123853000Y-67389151D01*
X123767000Y-67389151D01*
X123719847Y-67152097D01*
X123627353Y-66928798D01*
X123493073Y-66727833D01*
X123322167Y-66556927D01*
X123121202Y-66422647D01*
X122897903Y-66330153D01*
X122660849Y-66283000D01*
X122419151Y-66283000D01*
X122182097Y-66330153D01*
X121958798Y-66422647D01*
X121757833Y-66556927D01*
X121586927Y-66727833D01*
X121452647Y-66928798D01*
X121379395Y-67105644D01*
X121303603Y-66893708D01*
X121236671Y-66768486D01*
X120992702Y-66696903D01*
X120179605Y-67510000D01*
X119820395Y-67510000D01*
X119007298Y-66696903D01*
X118763329Y-66768486D01*
X118642429Y-67023996D01*
X118621451Y-67107686D01*
X118547353Y-66928798D01*
X118413073Y-66727833D01*
X118242167Y-66556927D01*
X118182858Y-66517298D01*
X119186903Y-66517298D01*
X120000000Y-67330395D01*
X120813097Y-66517298D01*
X120741514Y-66273329D01*
X120486004Y-66152429D01*
X120211816Y-66083700D01*
X119929488Y-66069783D01*
X119649870Y-66111213D01*
X119383708Y-66206397D01*
X119258486Y-66273329D01*
X119186903Y-66517298D01*
X118182858Y-66517298D01*
X118041202Y-66422647D01*
X117817903Y-66330153D01*
X117580849Y-66283000D01*
X117339151Y-66283000D01*
X117102097Y-66330153D01*
X116878798Y-66422647D01*
X116677833Y-66556927D01*
X116506927Y-66727833D01*
X116372647Y-66928798D01*
X116280153Y-67152097D01*
X116233000Y-67389151D01*
X116147000Y-67389151D01*
X116099847Y-67152097D01*
X116007353Y-66928798D01*
X115873073Y-66727833D01*
X115702167Y-66556927D01*
X115501202Y-66422647D01*
X115277903Y-66330153D01*
X115040849Y-66283000D01*
X114799151Y-66283000D01*
X114562097Y-66330153D01*
X114338798Y-66422647D01*
X114137833Y-66556927D01*
X113966927Y-66727833D01*
X113832647Y-66928798D01*
X113740153Y-67152097D01*
X113693000Y-67389151D01*
X113607000Y-67389151D01*
X113559847Y-67152097D01*
X113467353Y-66928798D01*
X113333073Y-66727833D01*
X113162167Y-66556927D01*
X112961202Y-66422647D01*
X112737903Y-66330153D01*
X112500849Y-66283000D01*
X112259151Y-66283000D01*
X112022097Y-66330153D01*
X111798798Y-66422647D01*
X111597833Y-66556927D01*
X111426927Y-66727833D01*
X111292647Y-66928798D01*
X111200153Y-67152097D01*
X111153000Y-67389151D01*
X110779066Y-67389151D01*
X110779066Y-67150000D01*
X110770822Y-67066293D01*
X110746405Y-66985804D01*
X110706755Y-66911624D01*
X110653395Y-66846605D01*
X110588376Y-66793245D01*
X110514196Y-66753595D01*
X110433707Y-66729178D01*
X110350000Y-66720934D01*
X108650000Y-66720934D01*
X108566293Y-66729178D01*
X108485804Y-66753595D01*
X108411624Y-66793245D01*
X108346605Y-66846605D01*
X108293245Y-66911624D01*
X108253595Y-66985804D01*
X108229178Y-67066293D01*
X108220934Y-67150000D01*
X108220934Y-68850000D01*
X108229178Y-68933707D01*
X108253595Y-69014196D01*
X108293245Y-69088376D01*
X108346605Y-69153395D01*
X108411624Y-69206755D01*
X108485804Y-69246405D01*
X108566293Y-69270822D01*
X108650000Y-69279066D01*
X109274153Y-69279066D01*
X109249664Y-69281478D01*
X109008949Y-69354498D01*
X108787104Y-69473076D01*
X108592656Y-69632656D01*
X108433076Y-69827104D01*
X108314498Y-70048949D01*
X108241478Y-70289664D01*
X108216822Y-70540000D01*
X108002000Y-70540000D01*
X108002000Y-64849151D01*
X111153000Y-64849151D01*
X111153000Y-65090849D01*
X111200153Y-65327903D01*
X111292647Y-65551202D01*
X111426927Y-65752167D01*
X111597833Y-65923073D01*
X111798798Y-66057353D01*
X112022097Y-66149847D01*
X112259151Y-66197000D01*
X112500849Y-66197000D01*
X112737903Y-66149847D01*
X112961202Y-66057353D01*
X113162167Y-65923073D01*
X113333073Y-65752167D01*
X113467353Y-65551202D01*
X113559847Y-65327903D01*
X113607000Y-65090849D01*
X113607000Y-64849151D01*
X126393000Y-64849151D01*
X126393000Y-65090849D01*
X126440153Y-65327903D01*
X126532647Y-65551202D01*
X126666927Y-65752167D01*
X126837833Y-65923073D01*
X127038798Y-66057353D01*
X127262097Y-66149847D01*
X127499151Y-66197000D01*
X127740849Y-66197000D01*
X127977903Y-66149847D01*
X128201202Y-66057353D01*
X128402167Y-65923073D01*
X128573073Y-65752167D01*
X128707353Y-65551202D01*
X128799847Y-65327903D01*
X128847000Y-65090849D01*
X128847000Y-64849151D01*
X128799847Y-64612097D01*
X128707353Y-64388798D01*
X128673353Y-64337913D01*
X129161928Y-64337913D01*
X129174188Y-64462395D01*
X129210498Y-64582093D01*
X129269463Y-64692407D01*
X129348815Y-64789098D01*
X129445506Y-64868450D01*
X129555820Y-64927415D01*
X129675518Y-64963725D01*
X129800000Y-64975985D01*
X130214250Y-64972913D01*
X130373000Y-64814163D01*
X130373000Y-63977413D01*
X130627000Y-63977413D01*
X130627000Y-64814163D01*
X130785750Y-64972913D01*
X131200000Y-64975985D01*
X131324482Y-64963725D01*
X131444180Y-64927415D01*
X131554494Y-64868450D01*
X131651185Y-64789098D01*
X131730537Y-64692407D01*
X131789502Y-64582093D01*
X131825812Y-64462395D01*
X131838072Y-64337913D01*
X131835000Y-64136163D01*
X131676250Y-63977413D01*
X130627000Y-63977413D01*
X130373000Y-63977413D01*
X129323750Y-63977413D01*
X129165000Y-64136163D01*
X129161928Y-64337913D01*
X128673353Y-64337913D01*
X128573073Y-64187833D01*
X128402167Y-64016927D01*
X128201202Y-63882647D01*
X127977903Y-63790153D01*
X127740849Y-63743000D01*
X127499151Y-63743000D01*
X127262097Y-63790153D01*
X127038798Y-63882647D01*
X126837833Y-64016927D01*
X126666927Y-64187833D01*
X126532647Y-64388798D01*
X126440153Y-64612097D01*
X126393000Y-64849151D01*
X113607000Y-64849151D01*
X113559847Y-64612097D01*
X113467353Y-64388798D01*
X113333073Y-64187833D01*
X113162167Y-64016927D01*
X112961202Y-63882647D01*
X112737903Y-63790153D01*
X112500849Y-63743000D01*
X112259151Y-63743000D01*
X112022097Y-63790153D01*
X111798798Y-63882647D01*
X111597833Y-64016927D01*
X111426927Y-64187833D01*
X111292647Y-64388798D01*
X111200153Y-64612097D01*
X111153000Y-64849151D01*
X108002000Y-64849151D01*
X108002000Y-62630036D01*
X108118645Y-62735178D01*
X108368748Y-62884157D01*
X108643109Y-62981481D01*
X108873000Y-62860814D01*
X108873000Y-61667000D01*
X109127000Y-61667000D01*
X109127000Y-62860814D01*
X109356891Y-62981481D01*
X109631252Y-62884157D01*
X109881355Y-62735178D01*
X110097588Y-62540269D01*
X110269976Y-62309151D01*
X111153000Y-62309151D01*
X111153000Y-62550849D01*
X111200153Y-62787903D01*
X111292647Y-63011202D01*
X111426927Y-63212167D01*
X111597833Y-63383073D01*
X111798798Y-63517353D01*
X112022097Y-63609847D01*
X112259151Y-63657000D01*
X112500849Y-63657000D01*
X112737903Y-63609847D01*
X112961202Y-63517353D01*
X113162167Y-63383073D01*
X113333073Y-63212167D01*
X113467353Y-63011202D01*
X113559847Y-62787903D01*
X113607000Y-62550849D01*
X113607000Y-62309151D01*
X126393000Y-62309151D01*
X126393000Y-62550849D01*
X126440153Y-62787903D01*
X126532647Y-63011202D01*
X126666927Y-63212167D01*
X126837833Y-63383073D01*
X127038798Y-63517353D01*
X127262097Y-63609847D01*
X127499151Y-63657000D01*
X127740849Y-63657000D01*
X127977903Y-63609847D01*
X128201202Y-63517353D01*
X128402167Y-63383073D01*
X128422327Y-63362913D01*
X129161928Y-63362913D01*
X129165000Y-63564663D01*
X129323750Y-63723413D01*
X130373000Y-63723413D01*
X130373000Y-63703413D01*
X130627000Y-63703413D01*
X130627000Y-63723413D01*
X131676250Y-63723413D01*
X131835000Y-63564663D01*
X131838072Y-63362913D01*
X131825812Y-63238431D01*
X131789502Y-63118733D01*
X131730537Y-63008419D01*
X131651185Y-62911728D01*
X131554494Y-62832376D01*
X131444180Y-62773411D01*
X131365455Y-62749530D01*
X131432003Y-62694916D01*
X131515676Y-62592960D01*
X131577851Y-62476639D01*
X131616138Y-62350423D01*
X131629066Y-62219163D01*
X131629066Y-61896890D01*
X132058524Y-61896890D01*
X132103175Y-62044099D01*
X132228359Y-62306920D01*
X132402412Y-62540269D01*
X132618645Y-62735178D01*
X132868748Y-62884157D01*
X133143109Y-62981481D01*
X133373000Y-62860814D01*
X133373000Y-61667000D01*
X133627000Y-61667000D01*
X133627000Y-62860814D01*
X133856891Y-62981481D01*
X134131252Y-62884157D01*
X134381355Y-62735178D01*
X134597588Y-62540269D01*
X134771641Y-62306920D01*
X134896825Y-62044099D01*
X134941476Y-61896890D01*
X134820155Y-61667000D01*
X133627000Y-61667000D01*
X133373000Y-61667000D01*
X132179845Y-61667000D01*
X132058524Y-61896890D01*
X131629066Y-61896890D01*
X131629066Y-61731663D01*
X131616138Y-61600403D01*
X131577851Y-61474187D01*
X131515676Y-61357866D01*
X131432003Y-61255910D01*
X131330047Y-61172237D01*
X131213726Y-61110062D01*
X131177000Y-61098921D01*
X131177000Y-61063992D01*
X131213726Y-61052851D01*
X131330047Y-60990676D01*
X131432003Y-60907003D01*
X131515676Y-60805047D01*
X131577851Y-60688726D01*
X131616138Y-60562510D01*
X131629066Y-60431250D01*
X131629066Y-59943750D01*
X131616138Y-59812490D01*
X131577851Y-59686274D01*
X131515676Y-59569953D01*
X131432003Y-59467997D01*
X131330047Y-59384324D01*
X131213726Y-59322149D01*
X131087510Y-59283862D01*
X130956250Y-59270934D01*
X130043750Y-59270934D01*
X129912490Y-59283862D01*
X129786274Y-59322149D01*
X129669953Y-59384324D01*
X129567997Y-59467997D01*
X129484324Y-59569953D01*
X129422149Y-59686274D01*
X129383862Y-59812490D01*
X129370934Y-59943750D01*
X129370934Y-60431250D01*
X129383862Y-60562510D01*
X129422149Y-60688726D01*
X129484324Y-60805047D01*
X129567997Y-60907003D01*
X129669953Y-60990676D01*
X129786274Y-61052851D01*
X129823000Y-61063992D01*
X129823001Y-61098921D01*
X129786274Y-61110062D01*
X129669953Y-61172237D01*
X129567997Y-61255910D01*
X129484324Y-61357866D01*
X129422149Y-61474187D01*
X129383862Y-61600403D01*
X129370934Y-61731663D01*
X129370934Y-62219163D01*
X129383862Y-62350423D01*
X129422149Y-62476639D01*
X129484324Y-62592960D01*
X129567997Y-62694916D01*
X129634545Y-62749530D01*
X129555820Y-62773411D01*
X129445506Y-62832376D01*
X129348815Y-62911728D01*
X129269463Y-63008419D01*
X129210498Y-63118733D01*
X129174188Y-63238431D01*
X129161928Y-63362913D01*
X128422327Y-63362913D01*
X128573073Y-63212167D01*
X128707353Y-63011202D01*
X128799847Y-62787903D01*
X128847000Y-62550849D01*
X128847000Y-62309151D01*
X128799847Y-62072097D01*
X128707353Y-61848798D01*
X128573073Y-61647833D01*
X128402167Y-61476927D01*
X128201202Y-61342647D01*
X127977903Y-61250153D01*
X127740849Y-61203000D01*
X127499151Y-61203000D01*
X127262097Y-61250153D01*
X127038798Y-61342647D01*
X126837833Y-61476927D01*
X126666927Y-61647833D01*
X126532647Y-61848798D01*
X126440153Y-62072097D01*
X126393000Y-62309151D01*
X113607000Y-62309151D01*
X113559847Y-62072097D01*
X113467353Y-61848798D01*
X113333073Y-61647833D01*
X113162167Y-61476927D01*
X112961202Y-61342647D01*
X112737903Y-61250153D01*
X112500849Y-61203000D01*
X112259151Y-61203000D01*
X112022097Y-61250153D01*
X111798798Y-61342647D01*
X111597833Y-61476927D01*
X111426927Y-61647833D01*
X111292647Y-61848798D01*
X111200153Y-62072097D01*
X111153000Y-62309151D01*
X110269976Y-62309151D01*
X110271641Y-62306920D01*
X110396825Y-62044099D01*
X110441476Y-61896890D01*
X110320155Y-61667000D01*
X109127000Y-61667000D01*
X108873000Y-61667000D01*
X108853000Y-61667000D01*
X108853000Y-61413000D01*
X108873000Y-61413000D01*
X108873000Y-61393000D01*
X109127000Y-61393000D01*
X109127000Y-61413000D01*
X110320155Y-61413000D01*
X110441476Y-61183110D01*
X110396825Y-61035901D01*
X110271641Y-60773080D01*
X110097588Y-60539731D01*
X109881355Y-60344822D01*
X109770965Y-60279066D01*
X109850000Y-60279066D01*
X109933707Y-60270822D01*
X110014196Y-60246405D01*
X110088376Y-60206755D01*
X110153395Y-60153395D01*
X110206755Y-60088376D01*
X110246405Y-60014196D01*
X110270822Y-59933707D01*
X110279066Y-59850000D01*
X110279066Y-59769151D01*
X111153000Y-59769151D01*
X111153000Y-60010849D01*
X111200153Y-60247903D01*
X111292647Y-60471202D01*
X111426927Y-60672167D01*
X111597833Y-60843073D01*
X111798798Y-60977353D01*
X112022097Y-61069847D01*
X112259151Y-61117000D01*
X112500849Y-61117000D01*
X112737903Y-61069847D01*
X112961202Y-60977353D01*
X113162167Y-60843073D01*
X113333073Y-60672167D01*
X113467353Y-60471202D01*
X113559847Y-60247903D01*
X113607000Y-60010849D01*
X113607000Y-59769151D01*
X126393000Y-59769151D01*
X126393000Y-60010849D01*
X126440153Y-60247903D01*
X126532647Y-60471202D01*
X126666927Y-60672167D01*
X126837833Y-60843073D01*
X127038798Y-60977353D01*
X127262097Y-61069847D01*
X127499151Y-61117000D01*
X127740849Y-61117000D01*
X127977903Y-61069847D01*
X128201202Y-60977353D01*
X128402167Y-60843073D01*
X128573073Y-60672167D01*
X128707353Y-60471202D01*
X128799847Y-60247903D01*
X128847000Y-60010849D01*
X128847000Y-59769151D01*
X128799847Y-59532097D01*
X128707353Y-59308798D01*
X128573073Y-59107833D01*
X128402167Y-58936927D01*
X128201202Y-58802647D01*
X127977903Y-58710153D01*
X127740849Y-58663000D01*
X127499151Y-58663000D01*
X127262097Y-58710153D01*
X127038798Y-58802647D01*
X126837833Y-58936927D01*
X126666927Y-59107833D01*
X126532647Y-59308798D01*
X126440153Y-59532097D01*
X126393000Y-59769151D01*
X113607000Y-59769151D01*
X113559847Y-59532097D01*
X113467353Y-59308798D01*
X113333073Y-59107833D01*
X113162167Y-58936927D01*
X112961202Y-58802647D01*
X112737903Y-58710153D01*
X112500849Y-58663000D01*
X112259151Y-58663000D01*
X112022097Y-58710153D01*
X111798798Y-58802647D01*
X111597833Y-58936927D01*
X111426927Y-59107833D01*
X111292647Y-59308798D01*
X111200153Y-59532097D01*
X111153000Y-59769151D01*
X110279066Y-59769151D01*
X110279066Y-58150000D01*
X110270822Y-58066293D01*
X110246405Y-57985804D01*
X110206755Y-57911624D01*
X110153395Y-57846605D01*
X110088376Y-57793245D01*
X110014196Y-57753595D01*
X109933707Y-57729178D01*
X109850000Y-57720934D01*
X109677000Y-57720934D01*
X109677000Y-57229151D01*
X111153000Y-57229151D01*
X111153000Y-57470849D01*
X111200153Y-57707903D01*
X111292647Y-57931202D01*
X111426927Y-58132167D01*
X111597833Y-58303073D01*
X111798798Y-58437353D01*
X112022097Y-58529847D01*
X112259151Y-58577000D01*
X112500849Y-58577000D01*
X112737903Y-58529847D01*
X112961202Y-58437353D01*
X113162167Y-58303073D01*
X113333073Y-58132167D01*
X113467353Y-57931202D01*
X113559847Y-57707903D01*
X113607000Y-57470849D01*
X113607000Y-57229151D01*
X113559847Y-56992097D01*
X113467353Y-56768798D01*
X113333073Y-56567833D01*
X113162167Y-56396927D01*
X112961202Y-56262647D01*
X112737903Y-56170153D01*
X112500849Y-56123000D01*
X112259151Y-56123000D01*
X112022097Y-56170153D01*
X111798798Y-56262647D01*
X111597833Y-56396927D01*
X111426927Y-56567833D01*
X111292647Y-56768798D01*
X111200153Y-56992097D01*
X111153000Y-57229151D01*
X109677000Y-57229151D01*
X109677000Y-54689151D01*
X111153000Y-54689151D01*
X111153000Y-54930849D01*
X111200153Y-55167903D01*
X111292647Y-55391202D01*
X111426927Y-55592167D01*
X111597833Y-55763073D01*
X111798798Y-55897353D01*
X112022097Y-55989847D01*
X112259151Y-56037000D01*
X112500849Y-56037000D01*
X112737903Y-55989847D01*
X112961202Y-55897353D01*
X113162167Y-55763073D01*
X113333073Y-55592167D01*
X113467353Y-55391202D01*
X113559847Y-55167903D01*
X113607000Y-54930849D01*
X113607000Y-54689151D01*
X113559847Y-54452097D01*
X113467353Y-54228798D01*
X113333073Y-54027833D01*
X113162167Y-53856927D01*
X112961202Y-53722647D01*
X112737903Y-53630153D01*
X112500849Y-53583000D01*
X112259151Y-53583000D01*
X112022097Y-53630153D01*
X111798798Y-53722647D01*
X111597833Y-53856927D01*
X111426927Y-54027833D01*
X111292647Y-54228798D01*
X111200153Y-54452097D01*
X111153000Y-54689151D01*
X109677000Y-54689151D01*
X109677000Y-51894232D01*
X109940295Y-51630938D01*
X109966116Y-51609747D01*
X109968669Y-51606637D01*
X109999990Y-51616138D01*
X110131250Y-51629066D01*
X110618750Y-51629066D01*
X110750010Y-51616138D01*
X110872868Y-51578870D01*
X111201894Y-51907895D01*
X111200153Y-51912097D01*
X111153000Y-52149151D01*
X111153000Y-52390849D01*
X111200153Y-52627903D01*
X111292647Y-52851202D01*
X111426927Y-53052167D01*
X111597833Y-53223073D01*
X111798798Y-53357353D01*
X112022097Y-53449847D01*
X112259151Y-53497000D01*
X112500849Y-53497000D01*
X112737903Y-53449847D01*
X112961202Y-53357353D01*
X113162167Y-53223073D01*
X113333073Y-53052167D01*
X113467353Y-52851202D01*
X113559847Y-52627903D01*
X113607000Y-52390849D01*
X113607000Y-52149151D01*
X113562249Y-51924171D01*
X114230100Y-51924171D01*
X114230100Y-52075829D01*
X114259687Y-52224571D01*
X114317724Y-52364684D01*
X114401980Y-52490783D01*
X114509217Y-52598020D01*
X114635316Y-52682276D01*
X114775429Y-52740313D01*
X114924171Y-52769900D01*
X115075829Y-52769900D01*
X115224571Y-52740313D01*
X115233003Y-52736821D01*
X115246605Y-52753395D01*
X115311624Y-52806755D01*
X115385804Y-52846405D01*
X115466293Y-52870822D01*
X115550000Y-52879066D01*
X116450000Y-52879066D01*
X116533707Y-52870822D01*
X116614196Y-52846405D01*
X116688376Y-52806755D01*
X116753395Y-52753395D01*
X116775057Y-52727000D01*
X117120934Y-52727000D01*
X117120934Y-53400000D01*
X117129178Y-53483707D01*
X117153595Y-53564196D01*
X117193245Y-53638376D01*
X117246605Y-53703395D01*
X117311624Y-53756755D01*
X117385804Y-53796405D01*
X117466293Y-53820822D01*
X117550000Y-53829066D01*
X117618341Y-53829066D01*
X117509217Y-53901980D01*
X117488197Y-53923000D01*
X116879066Y-53923000D01*
X116879066Y-53550000D01*
X116870822Y-53466293D01*
X116846405Y-53385804D01*
X116806755Y-53311624D01*
X116753395Y-53246605D01*
X116688376Y-53193245D01*
X116614196Y-53153595D01*
X116533707Y-53129178D01*
X116450000Y-53120934D01*
X115550000Y-53120934D01*
X115466293Y-53129178D01*
X115385804Y-53153595D01*
X115311624Y-53193245D01*
X115246605Y-53246605D01*
X115193245Y-53311624D01*
X115153595Y-53385804D01*
X115129178Y-53466293D01*
X115120934Y-53550000D01*
X115120934Y-54350000D01*
X115129178Y-54433707D01*
X115153595Y-54514196D01*
X115193245Y-54588376D01*
X115246605Y-54653395D01*
X115311624Y-54706755D01*
X115385804Y-54746405D01*
X115466293Y-54770822D01*
X115550000Y-54779066D01*
X116013065Y-54779066D01*
X116121961Y-54887962D01*
X116140026Y-54909974D01*
X116227885Y-54982079D01*
X116328124Y-55035657D01*
X116436888Y-55068650D01*
X116521664Y-55077000D01*
X116521670Y-55077000D01*
X116549999Y-55079790D01*
X116578328Y-55077000D01*
X117223001Y-55077000D01*
X117223000Y-56474119D01*
X117220451Y-56500000D01*
X117223000Y-56525880D01*
X117230626Y-56603309D01*
X117260761Y-56702649D01*
X117309696Y-56794202D01*
X117375552Y-56874448D01*
X117395666Y-56890955D01*
X117609045Y-57104334D01*
X117625552Y-57124448D01*
X117705798Y-57190304D01*
X117797350Y-57239239D01*
X117896690Y-57269374D01*
X117974119Y-57277000D01*
X117974121Y-57277000D01*
X117999999Y-57279549D01*
X118025877Y-57277000D01*
X121474119Y-57277000D01*
X121500000Y-57279549D01*
X121525881Y-57277000D01*
X121603310Y-57269374D01*
X121702650Y-57239239D01*
X121721523Y-57229151D01*
X126393000Y-57229151D01*
X126393000Y-57470849D01*
X126440153Y-57707903D01*
X126532647Y-57931202D01*
X126666927Y-58132167D01*
X126837833Y-58303073D01*
X127038798Y-58437353D01*
X127262097Y-58529847D01*
X127499151Y-58577000D01*
X127740849Y-58577000D01*
X127977903Y-58529847D01*
X128201202Y-58437353D01*
X128402167Y-58303073D01*
X128573073Y-58132167D01*
X128707353Y-57931202D01*
X128799847Y-57707903D01*
X128847000Y-57470849D01*
X128847000Y-57229151D01*
X128799847Y-56992097D01*
X128707353Y-56768798D01*
X128573073Y-56567833D01*
X128402167Y-56396927D01*
X128201202Y-56262647D01*
X127977903Y-56170153D01*
X127740849Y-56123000D01*
X127499151Y-56123000D01*
X127262097Y-56170153D01*
X127038798Y-56262647D01*
X126837833Y-56396927D01*
X126666927Y-56567833D01*
X126532647Y-56768798D01*
X126440153Y-56992097D01*
X126393000Y-57229151D01*
X121721523Y-57229151D01*
X121794202Y-57190304D01*
X121874448Y-57124448D01*
X121890955Y-57104334D01*
X123225391Y-55769900D01*
X123325829Y-55769900D01*
X123474571Y-55740313D01*
X123614684Y-55682276D01*
X123695934Y-55627987D01*
X123695934Y-55775000D01*
X123708982Y-55907479D01*
X123747625Y-56034867D01*
X123810377Y-56152269D01*
X123894828Y-56255172D01*
X123997731Y-56339623D01*
X124115133Y-56402375D01*
X124242521Y-56441018D01*
X124375000Y-56454066D01*
X125625000Y-56454066D01*
X125757479Y-56441018D01*
X125884867Y-56402375D01*
X126002269Y-56339623D01*
X126105172Y-56255172D01*
X126189623Y-56152269D01*
X126252375Y-56034867D01*
X126291018Y-55907479D01*
X126304066Y-55775000D01*
X126304066Y-55053356D01*
X126398570Y-54958852D01*
X126440153Y-55167903D01*
X126532647Y-55391202D01*
X126666927Y-55592167D01*
X126837833Y-55763073D01*
X127038798Y-55897353D01*
X127262097Y-55989847D01*
X127499151Y-56037000D01*
X127740849Y-56037000D01*
X127977903Y-55989847D01*
X128201202Y-55897353D01*
X128402167Y-55763073D01*
X128573073Y-55592167D01*
X128707353Y-55391202D01*
X128799847Y-55167903D01*
X128847000Y-54930849D01*
X128847000Y-54689151D01*
X128799847Y-54452097D01*
X128730467Y-54284599D01*
X129677177Y-54284599D01*
X133080899Y-57688321D01*
X133072830Y-57684008D01*
X132945215Y-57645296D01*
X132845752Y-57635500D01*
X132845745Y-57635500D01*
X132812500Y-57632226D01*
X132779255Y-57635500D01*
X131466884Y-57635500D01*
X131432003Y-57592997D01*
X131330047Y-57509324D01*
X131213726Y-57447149D01*
X131087510Y-57408862D01*
X130956250Y-57395934D01*
X130043750Y-57395934D01*
X129912490Y-57408862D01*
X129786274Y-57447149D01*
X129669953Y-57509324D01*
X129567997Y-57592997D01*
X129484324Y-57694953D01*
X129422149Y-57811274D01*
X129383862Y-57937490D01*
X129370934Y-58068750D01*
X129370934Y-58556250D01*
X129383862Y-58687510D01*
X129422149Y-58813726D01*
X129484324Y-58930047D01*
X129567997Y-59032003D01*
X129669953Y-59115676D01*
X129786274Y-59177851D01*
X129912490Y-59216138D01*
X130043750Y-59229066D01*
X130956250Y-59229066D01*
X131087510Y-59216138D01*
X131213726Y-59177851D01*
X131330047Y-59115676D01*
X131432003Y-59032003D01*
X131466884Y-58989500D01*
X132220934Y-58989500D01*
X132220934Y-59850000D01*
X132229178Y-59933707D01*
X132253595Y-60014196D01*
X132293245Y-60088376D01*
X132346605Y-60153395D01*
X132411624Y-60206755D01*
X132485804Y-60246405D01*
X132566293Y-60270822D01*
X132650000Y-60279066D01*
X132729035Y-60279066D01*
X132618645Y-60344822D01*
X132402412Y-60539731D01*
X132228359Y-60773080D01*
X132103175Y-61035901D01*
X132058524Y-61183110D01*
X132179845Y-61413000D01*
X133373000Y-61413000D01*
X133373000Y-61393000D01*
X133627000Y-61393000D01*
X133627000Y-61413000D01*
X134820155Y-61413000D01*
X134941476Y-61183110D01*
X134896825Y-61035901D01*
X134771641Y-60773080D01*
X134597588Y-60539731D01*
X134381355Y-60344822D01*
X134270965Y-60279066D01*
X134350000Y-60279066D01*
X134433707Y-60270822D01*
X134514196Y-60246405D01*
X134588376Y-60206755D01*
X134653395Y-60153395D01*
X134706755Y-60088376D01*
X134746405Y-60014196D01*
X134770822Y-59933707D01*
X134779066Y-59850000D01*
X134779066Y-58150000D01*
X134770822Y-58066293D01*
X134746405Y-57985804D01*
X134706755Y-57911624D01*
X134677000Y-57875368D01*
X134677000Y-57683241D01*
X134680274Y-57649999D01*
X134677000Y-57616757D01*
X134677000Y-57616748D01*
X134667204Y-57517285D01*
X134628492Y-57389670D01*
X134565628Y-57272059D01*
X134481026Y-57168973D01*
X134455200Y-57147778D01*
X130459825Y-53152403D01*
X130438626Y-53126572D01*
X130335540Y-53041971D01*
X130217929Y-52979107D01*
X130090314Y-52940395D01*
X129990851Y-52930599D01*
X129990844Y-52930599D01*
X129957599Y-52927325D01*
X129924354Y-52930599D01*
X128654302Y-52930599D01*
X128707353Y-52851202D01*
X128799847Y-52627903D01*
X128847000Y-52390849D01*
X128847000Y-52149151D01*
X128799847Y-51912097D01*
X128707353Y-51688798D01*
X128573073Y-51487833D01*
X128402167Y-51316927D01*
X128201202Y-51182647D01*
X127977903Y-51090153D01*
X127740849Y-51043000D01*
X127499151Y-51043000D01*
X127262097Y-51090153D01*
X127038798Y-51182647D01*
X126837833Y-51316927D01*
X126666927Y-51487833D01*
X126532647Y-51688798D01*
X126440153Y-51912097D01*
X126393000Y-52149151D01*
X126393000Y-52390849D01*
X126440153Y-52627903D01*
X126532647Y-52851202D01*
X126603610Y-52957406D01*
X126532071Y-52979107D01*
X126414460Y-53041971D01*
X126311374Y-53126572D01*
X126290179Y-53152398D01*
X126271824Y-53170753D01*
X126291018Y-53107479D01*
X126304066Y-52975000D01*
X126304066Y-52225000D01*
X126291018Y-52092521D01*
X126252375Y-51965133D01*
X126189623Y-51847731D01*
X126105172Y-51744828D01*
X126002269Y-51660377D01*
X125884867Y-51597625D01*
X125757479Y-51558982D01*
X125625000Y-51545934D01*
X124375000Y-51545934D01*
X124242521Y-51558982D01*
X124115133Y-51597625D01*
X123997731Y-51660377D01*
X123894828Y-51744828D01*
X123810377Y-51847731D01*
X123747625Y-51965133D01*
X123708982Y-52092521D01*
X123695934Y-52225000D01*
X123695934Y-52323000D01*
X123225057Y-52323000D01*
X123203395Y-52296605D01*
X123138376Y-52243245D01*
X123064196Y-52203595D01*
X122983707Y-52179178D01*
X122900000Y-52170934D01*
X122000000Y-52170934D01*
X121916293Y-52179178D01*
X121835804Y-52203595D01*
X121761624Y-52243245D01*
X121696605Y-52296605D01*
X121674943Y-52323000D01*
X121329066Y-52323000D01*
X121329066Y-51650000D01*
X121320822Y-51566293D01*
X121296405Y-51485804D01*
X121256755Y-51411624D01*
X121203395Y-51346605D01*
X121138376Y-51293245D01*
X121064196Y-51253595D01*
X120983707Y-51229178D01*
X120900000Y-51220934D01*
X120000000Y-51220934D01*
X119916293Y-51229178D01*
X119835804Y-51253595D01*
X119761624Y-51293245D01*
X119696605Y-51346605D01*
X119674943Y-51373000D01*
X116775057Y-51373000D01*
X116753395Y-51346605D01*
X116688376Y-51293245D01*
X116677000Y-51287164D01*
X116677000Y-50372580D01*
X116682276Y-50364684D01*
X116740313Y-50224571D01*
X116769900Y-50075829D01*
X116769900Y-49924171D01*
X116740313Y-49775429D01*
X116682276Y-49635316D01*
X116598020Y-49509217D01*
X116490783Y-49401980D01*
X116364684Y-49317724D01*
X116224571Y-49259687D01*
X116075829Y-49230100D01*
X115924171Y-49230100D01*
X115775429Y-49259687D01*
X115635316Y-49317724D01*
X115509217Y-49401980D01*
X115401980Y-49509217D01*
X115317724Y-49635316D01*
X115259687Y-49775429D01*
X115230100Y-49924171D01*
X115230100Y-50075829D01*
X115259687Y-50224571D01*
X115317724Y-50364684D01*
X115323000Y-50372580D01*
X115323001Y-51287164D01*
X115311624Y-51293245D01*
X115309599Y-51294907D01*
X115224571Y-51259687D01*
X115075829Y-51230100D01*
X114924171Y-51230100D01*
X114775429Y-51259687D01*
X114635316Y-51317724D01*
X114509217Y-51401980D01*
X114401980Y-51509217D01*
X114317724Y-51635316D01*
X114259687Y-51775429D01*
X114230100Y-51924171D01*
X113562249Y-51924171D01*
X113559847Y-51912097D01*
X113467353Y-51688798D01*
X113333073Y-51487833D01*
X113162167Y-51316927D01*
X112961202Y-51182647D01*
X112737903Y-51090153D01*
X112500849Y-51043000D01*
X112259151Y-51043000D01*
X112022097Y-51090153D01*
X112017895Y-51091894D01*
X111631710Y-50705709D01*
X111798798Y-50817353D01*
X112022097Y-50909847D01*
X112259151Y-50957000D01*
X112500849Y-50957000D01*
X112737903Y-50909847D01*
X112961202Y-50817353D01*
X113162167Y-50683073D01*
X113333073Y-50512167D01*
X113467353Y-50311202D01*
X113559847Y-50087903D01*
X113607000Y-49850849D01*
X113607000Y-49609151D01*
X113559847Y-49372097D01*
X113467353Y-49148798D01*
X113333073Y-48947833D01*
X113162167Y-48776927D01*
X112961202Y-48642647D01*
X112737903Y-48550153D01*
X112500849Y-48503000D01*
X112259151Y-48503000D01*
X112022097Y-48550153D01*
X111798798Y-48642647D01*
X111597833Y-48776927D01*
X111426927Y-48947833D01*
X111292647Y-49148798D01*
X111200153Y-49372097D01*
X111153000Y-49609151D01*
X111153000Y-49639276D01*
X111094503Y-49567997D01*
X110992547Y-49484324D01*
X110876226Y-49422149D01*
X110750010Y-49383862D01*
X110618750Y-49370934D01*
X110162090Y-49370934D01*
X110162090Y-48629066D01*
X110618750Y-48629066D01*
X110750010Y-48616138D01*
X110876226Y-48577851D01*
X110992547Y-48515676D01*
X111094503Y-48432003D01*
X111178176Y-48330047D01*
X111240351Y-48213726D01*
X111278638Y-48087510D01*
X111279673Y-48077000D01*
X111531760Y-48077000D01*
X111597833Y-48143073D01*
X111798798Y-48277353D01*
X112022097Y-48369847D01*
X112259151Y-48417000D01*
X112500849Y-48417000D01*
X112737903Y-48369847D01*
X112961202Y-48277353D01*
X113162167Y-48143073D01*
X113333073Y-47972167D01*
X113467353Y-47771202D01*
X113559847Y-47547903D01*
X113607000Y-47310849D01*
X113607000Y-47069151D01*
X113559847Y-46832097D01*
X113467353Y-46608798D01*
X113333073Y-46407833D01*
X113162167Y-46236927D01*
X112961202Y-46102647D01*
X112737903Y-46010153D01*
X112500849Y-45963000D01*
X112259151Y-45963000D01*
X112022097Y-46010153D01*
X111798798Y-46102647D01*
X111597833Y-46236927D01*
X111426927Y-46407833D01*
X111292647Y-46608798D01*
X111228397Y-46763910D01*
X111178176Y-46669953D01*
X111094503Y-46567997D01*
X110992547Y-46484324D01*
X110876226Y-46422149D01*
X110750010Y-46383862D01*
X110618750Y-46370934D01*
X110162090Y-46370934D01*
X110162090Y-44129066D01*
X110618750Y-44129066D01*
X110750010Y-44116138D01*
X110876226Y-44077851D01*
X110951575Y-44037576D01*
X111201894Y-44287895D01*
X111200153Y-44292097D01*
X111153000Y-44529151D01*
X111153000Y-44770849D01*
X111200153Y-45007903D01*
X111292647Y-45231202D01*
X111426927Y-45432167D01*
X111597833Y-45603073D01*
X111798798Y-45737353D01*
X112022097Y-45829847D01*
X112259151Y-45877000D01*
X112500849Y-45877000D01*
X112737903Y-45829847D01*
X112961202Y-45737353D01*
X113162167Y-45603073D01*
X113333073Y-45432167D01*
X113467353Y-45231202D01*
X113559847Y-45007903D01*
X113607000Y-44770849D01*
X113607000Y-44529151D01*
X113586119Y-44424171D01*
X125230100Y-44424171D01*
X125230100Y-44575829D01*
X125259687Y-44724571D01*
X125317724Y-44864684D01*
X125401980Y-44990783D01*
X125509217Y-45098020D01*
X125635316Y-45182276D01*
X125775429Y-45240313D01*
X125924171Y-45269900D01*
X126075829Y-45269900D01*
X126224571Y-45240313D01*
X126364684Y-45182276D01*
X126480364Y-45104981D01*
X126532647Y-45231202D01*
X126666927Y-45432167D01*
X126837833Y-45603073D01*
X127038798Y-45737353D01*
X127262097Y-45829847D01*
X127499151Y-45877000D01*
X127740849Y-45877000D01*
X127977903Y-45829847D01*
X128201202Y-45737353D01*
X128402167Y-45603073D01*
X128573073Y-45432167D01*
X128707353Y-45231202D01*
X128799847Y-45007903D01*
X128847000Y-44770849D01*
X128847000Y-44529151D01*
X128799847Y-44292097D01*
X128707353Y-44068798D01*
X128573073Y-43867833D01*
X128402167Y-43696927D01*
X128201202Y-43562647D01*
X127977903Y-43470153D01*
X127740849Y-43423000D01*
X127499151Y-43423000D01*
X127262097Y-43470153D01*
X127038798Y-43562647D01*
X126837833Y-43696927D01*
X126677000Y-43857760D01*
X126677000Y-42902240D01*
X126837833Y-43063073D01*
X127038798Y-43197353D01*
X127262097Y-43289847D01*
X127499151Y-43337000D01*
X127740849Y-43337000D01*
X127977903Y-43289847D01*
X128201202Y-43197353D01*
X128402167Y-43063073D01*
X128573073Y-42892167D01*
X128707353Y-42691202D01*
X128799847Y-42467903D01*
X128847000Y-42230849D01*
X128847000Y-41989151D01*
X128799847Y-41752097D01*
X128768741Y-41677000D01*
X130373889Y-41677000D01*
X130393076Y-41712896D01*
X130552656Y-41907344D01*
X130747104Y-42066924D01*
X130968949Y-42185502D01*
X131209664Y-42258522D01*
X131326202Y-42270000D01*
X131209664Y-42281478D01*
X130968949Y-42354498D01*
X130747104Y-42473076D01*
X130552656Y-42632656D01*
X130393076Y-42827104D01*
X130274498Y-43048949D01*
X130201478Y-43289664D01*
X130176822Y-43540000D01*
X130201478Y-43790336D01*
X130262666Y-43992045D01*
X128895662Y-45359049D01*
X128875553Y-45375552D01*
X128818061Y-45445606D01*
X128809696Y-45455799D01*
X128760761Y-45547351D01*
X128730626Y-45646691D01*
X128720451Y-45750000D01*
X128723001Y-45775891D01*
X128723001Y-46646575D01*
X128707353Y-46608798D01*
X128573073Y-46407833D01*
X128402167Y-46236927D01*
X128201202Y-46102647D01*
X127977903Y-46010153D01*
X127740849Y-45963000D01*
X127499151Y-45963000D01*
X127262097Y-46010153D01*
X127038798Y-46102647D01*
X126837833Y-46236927D01*
X126666927Y-46407833D01*
X126532647Y-46608798D01*
X126440153Y-46832097D01*
X126393000Y-47069151D01*
X126393000Y-47310849D01*
X126440153Y-47547903D01*
X126532647Y-47771202D01*
X126666927Y-47972167D01*
X126837833Y-48143073D01*
X127038798Y-48277353D01*
X127262097Y-48369847D01*
X127499151Y-48417000D01*
X127740849Y-48417000D01*
X127977903Y-48369847D01*
X128201202Y-48277353D01*
X128402167Y-48143073D01*
X128573073Y-47972167D01*
X128707353Y-47771202D01*
X128723001Y-47733426D01*
X128723000Y-49186574D01*
X128707353Y-49148798D01*
X128573073Y-48947833D01*
X128402167Y-48776927D01*
X128201202Y-48642647D01*
X127977903Y-48550153D01*
X127740849Y-48503000D01*
X127499151Y-48503000D01*
X127262097Y-48550153D01*
X127038798Y-48642647D01*
X126837833Y-48776927D01*
X126666927Y-48947833D01*
X126532647Y-49148798D01*
X126440153Y-49372097D01*
X126393000Y-49609151D01*
X126393000Y-49850849D01*
X126440153Y-50087903D01*
X126532647Y-50311202D01*
X126666927Y-50512167D01*
X126837833Y-50683073D01*
X127038798Y-50817353D01*
X127262097Y-50909847D01*
X127499151Y-50957000D01*
X127740849Y-50957000D01*
X127977903Y-50909847D01*
X128201202Y-50817353D01*
X128402167Y-50683073D01*
X128573073Y-50512167D01*
X128707353Y-50311202D01*
X128723000Y-50273427D01*
X128723000Y-50724119D01*
X128720451Y-50750000D01*
X128723000Y-50775880D01*
X128730626Y-50853309D01*
X128760761Y-50952649D01*
X128809696Y-51044202D01*
X128875552Y-51124448D01*
X128895666Y-51140955D01*
X129359053Y-51604344D01*
X129375552Y-51624448D01*
X129455798Y-51690304D01*
X129547350Y-51739239D01*
X129587895Y-51751538D01*
X129596362Y-51837510D01*
X129634649Y-51963726D01*
X129696824Y-52080047D01*
X129780497Y-52182003D01*
X129882453Y-52265676D01*
X129998774Y-52327851D01*
X130124990Y-52366138D01*
X130256250Y-52379066D01*
X130743750Y-52379066D01*
X130875010Y-52366138D01*
X131001226Y-52327851D01*
X131117547Y-52265676D01*
X131219503Y-52182003D01*
X131303176Y-52080047D01*
X131365351Y-51963726D01*
X131403638Y-51837510D01*
X131416566Y-51706250D01*
X131416566Y-50793750D01*
X131403638Y-50662490D01*
X131365351Y-50536274D01*
X131303176Y-50419953D01*
X131219503Y-50317997D01*
X131117547Y-50234324D01*
X131001226Y-50172149D01*
X130875010Y-50133862D01*
X130743750Y-50120934D01*
X130256250Y-50120934D01*
X130124990Y-50133862D01*
X129998774Y-50172149D01*
X129882453Y-50234324D01*
X129780497Y-50317997D01*
X129777000Y-50322258D01*
X129777000Y-49677742D01*
X129780497Y-49682003D01*
X129882453Y-49765676D01*
X129998774Y-49827851D01*
X130124990Y-49866138D01*
X130256250Y-49879066D01*
X130743750Y-49879066D01*
X130875010Y-49866138D01*
X131001226Y-49827851D01*
X131117547Y-49765676D01*
X131219503Y-49682003D01*
X131303176Y-49580047D01*
X131365351Y-49463726D01*
X131403638Y-49337510D01*
X131416566Y-49206250D01*
X131416566Y-48293750D01*
X131403638Y-48162490D01*
X131365351Y-48036274D01*
X131303176Y-47919953D01*
X131219503Y-47817997D01*
X131117547Y-47734324D01*
X131027000Y-47685926D01*
X131027000Y-47359066D01*
X132223001Y-47359066D01*
X132223001Y-47620934D01*
X132131250Y-47620934D01*
X131999990Y-47633862D01*
X131873774Y-47672149D01*
X131757453Y-47734324D01*
X131655497Y-47817997D01*
X131571824Y-47919953D01*
X131509649Y-48036274D01*
X131471362Y-48162490D01*
X131458434Y-48293750D01*
X131458434Y-49206250D01*
X131471362Y-49337510D01*
X131509649Y-49463726D01*
X131571824Y-49580047D01*
X131655497Y-49682003D01*
X131757453Y-49765676D01*
X131848000Y-49814075D01*
X131848001Y-50185925D01*
X131757453Y-50234324D01*
X131655497Y-50317997D01*
X131571824Y-50419953D01*
X131509649Y-50536274D01*
X131471362Y-50662490D01*
X131458434Y-50793750D01*
X131458434Y-51706250D01*
X131471362Y-51837510D01*
X131509649Y-51963726D01*
X131571824Y-52080047D01*
X131655497Y-52182003D01*
X131757453Y-52265676D01*
X131873774Y-52327851D01*
X131999990Y-52366138D01*
X132131250Y-52379066D01*
X132618750Y-52379066D01*
X132750010Y-52366138D01*
X132876226Y-52327851D01*
X132992547Y-52265676D01*
X133094503Y-52182003D01*
X133178176Y-52080047D01*
X133240351Y-51963726D01*
X133278638Y-51837510D01*
X133291566Y-51706250D01*
X133291566Y-50793750D01*
X133278638Y-50662490D01*
X133240351Y-50536274D01*
X133178176Y-50419953D01*
X133094503Y-50317997D01*
X132992547Y-50234324D01*
X132902000Y-50185926D01*
X132902000Y-49814074D01*
X132992547Y-49765676D01*
X133094503Y-49682003D01*
X133178176Y-49580047D01*
X133240351Y-49463726D01*
X133278638Y-49337510D01*
X133291566Y-49206250D01*
X133291566Y-48293750D01*
X133278638Y-48162490D01*
X133277000Y-48157090D01*
X133277000Y-47138632D01*
X133287104Y-47146924D01*
X133508949Y-47265502D01*
X133749664Y-47338522D01*
X133937274Y-47357000D01*
X134062726Y-47357000D01*
X134250336Y-47338522D01*
X134491051Y-47265502D01*
X134712896Y-47146924D01*
X134907344Y-46987344D01*
X135066924Y-46792896D01*
X135185502Y-46571051D01*
X135258522Y-46330336D01*
X135283178Y-46080000D01*
X135258522Y-45829664D01*
X135185502Y-45588949D01*
X135066924Y-45367104D01*
X134907344Y-45172656D01*
X134712896Y-45013076D01*
X134491051Y-44894498D01*
X134250336Y-44821478D01*
X134133798Y-44810000D01*
X134250336Y-44798522D01*
X134491051Y-44725502D01*
X134712896Y-44606924D01*
X134907344Y-44447344D01*
X135066924Y-44252896D01*
X135185502Y-44031051D01*
X135258522Y-43790336D01*
X135283178Y-43540000D01*
X135258522Y-43289664D01*
X135185502Y-43048949D01*
X135066924Y-42827104D01*
X134907344Y-42632656D01*
X134712896Y-42473076D01*
X134535350Y-42378176D01*
X134631252Y-42344157D01*
X134881355Y-42195178D01*
X135097588Y-42000269D01*
X135271641Y-41766920D01*
X135396825Y-41504099D01*
X135441476Y-41356890D01*
X135320155Y-41127000D01*
X134127000Y-41127000D01*
X134127000Y-41147000D01*
X133873000Y-41147000D01*
X133873000Y-41127000D01*
X133853000Y-41127000D01*
X133853000Y-40873000D01*
X133873000Y-40873000D01*
X133873000Y-40853000D01*
X134127000Y-40853000D01*
X134127000Y-40873000D01*
X135320155Y-40873000D01*
X135441476Y-40643110D01*
X135396825Y-40495901D01*
X135271641Y-40233080D01*
X135097588Y-39999731D01*
X134881355Y-39804822D01*
X134631252Y-39655843D01*
X134535350Y-39621824D01*
X134712896Y-39526924D01*
X134907344Y-39367344D01*
X135066924Y-39172896D01*
X135185502Y-38951051D01*
X135258522Y-38710336D01*
X135283178Y-38460000D01*
X135258522Y-38209664D01*
X135185502Y-37968949D01*
X135066924Y-37747104D01*
X134907344Y-37552656D01*
X134712896Y-37393076D01*
X134491051Y-37274498D01*
X134250336Y-37201478D01*
X134133798Y-37190000D01*
X134250336Y-37178522D01*
X134491051Y-37105502D01*
X134712896Y-36986924D01*
X134907344Y-36827344D01*
X135066924Y-36632896D01*
X135185502Y-36411051D01*
X135258522Y-36170336D01*
X135283178Y-35920000D01*
X135258522Y-35669664D01*
X135185502Y-35428949D01*
X135066924Y-35207104D01*
X134907344Y-35012656D01*
X134712896Y-34853076D01*
X134491051Y-34734498D01*
X134250336Y-34661478D01*
X134062726Y-34643000D01*
X133937274Y-34643000D01*
X133749664Y-34661478D01*
X133508949Y-34734498D01*
X133287104Y-34853076D01*
X133092656Y-35012656D01*
X132933076Y-35207104D01*
X132814498Y-35428949D01*
X132741478Y-35669664D01*
X132730000Y-35786202D01*
X132718522Y-35669664D01*
X132645502Y-35428949D01*
X132526924Y-35207104D01*
X132367344Y-35012656D01*
X132172896Y-34853076D01*
X131951051Y-34734498D01*
X131710336Y-34661478D01*
X131522726Y-34643000D01*
X131397274Y-34643000D01*
X131209664Y-34661478D01*
X130968949Y-34734498D01*
X130747104Y-34853076D01*
X130552656Y-35012656D01*
X130393076Y-35207104D01*
X130274498Y-35428949D01*
X130201478Y-35669664D01*
X130176822Y-35920000D01*
X130201478Y-36170336D01*
X130274498Y-36411051D01*
X130393076Y-36632896D01*
X130552656Y-36827344D01*
X130747104Y-36986924D01*
X130968949Y-37105502D01*
X131209664Y-37178522D01*
X131326202Y-37190000D01*
X131209664Y-37201478D01*
X130968949Y-37274498D01*
X130747104Y-37393076D01*
X130552656Y-37552656D01*
X130393076Y-37747104D01*
X130274498Y-37968949D01*
X130201478Y-38209664D01*
X130176822Y-38460000D01*
X130201478Y-38710336D01*
X130274498Y-38951051D01*
X130393076Y-39172896D01*
X130552656Y-39367344D01*
X130747104Y-39526924D01*
X130968949Y-39645502D01*
X131209664Y-39718522D01*
X131326202Y-39730000D01*
X131209664Y-39741478D01*
X130968949Y-39814498D01*
X130747104Y-39933076D01*
X130552656Y-40092656D01*
X130393076Y-40287104D01*
X130373889Y-40323000D01*
X128592562Y-40323000D01*
X128707353Y-40151202D01*
X128799847Y-39927903D01*
X128847000Y-39690849D01*
X128847000Y-39449151D01*
X128799847Y-39212097D01*
X128707353Y-38988798D01*
X128573073Y-38787833D01*
X128402167Y-38616927D01*
X128201202Y-38482647D01*
X128024356Y-38409395D01*
X128236292Y-38333603D01*
X128361514Y-38266671D01*
X128433097Y-38022702D01*
X127620000Y-37209605D01*
X126806903Y-38022702D01*
X126878486Y-38266671D01*
X127133996Y-38387571D01*
X127217686Y-38408549D01*
X127038798Y-38482647D01*
X126837833Y-38616927D01*
X126666927Y-38787833D01*
X126532647Y-38988798D01*
X126440153Y-39212097D01*
X126393000Y-39449151D01*
X126393000Y-39690849D01*
X126440153Y-39927903D01*
X126532647Y-40151202D01*
X126661811Y-40344511D01*
X126561820Y-40426572D01*
X126540621Y-40452403D01*
X125544800Y-41448224D01*
X125518973Y-41469420D01*
X125497778Y-41495246D01*
X125497776Y-41495248D01*
X125471718Y-41527000D01*
X125434372Y-41572506D01*
X125371508Y-41690117D01*
X125332796Y-41817732D01*
X125323000Y-41917195D01*
X125323000Y-41917201D01*
X125319726Y-41950446D01*
X125323000Y-41983691D01*
X125323001Y-44127419D01*
X125317724Y-44135316D01*
X125259687Y-44275429D01*
X125230100Y-44424171D01*
X113586119Y-44424171D01*
X113559847Y-44292097D01*
X113467353Y-44068798D01*
X113333073Y-43867833D01*
X113162167Y-43696927D01*
X112961202Y-43562647D01*
X112737903Y-43470153D01*
X112500849Y-43423000D01*
X112259151Y-43423000D01*
X112022097Y-43470153D01*
X112017895Y-43471894D01*
X111631709Y-43085708D01*
X111798798Y-43197353D01*
X112022097Y-43289847D01*
X112259151Y-43337000D01*
X112500849Y-43337000D01*
X112737903Y-43289847D01*
X112961202Y-43197353D01*
X113162167Y-43063073D01*
X113333073Y-42892167D01*
X113467353Y-42691202D01*
X113559847Y-42467903D01*
X113607000Y-42230849D01*
X113607000Y-41989151D01*
X113559847Y-41752097D01*
X113467353Y-41528798D01*
X113333073Y-41327833D01*
X113162167Y-41156927D01*
X112961202Y-41022647D01*
X112737903Y-40930153D01*
X112500849Y-40883000D01*
X112259151Y-40883000D01*
X112022097Y-40930153D01*
X111798798Y-41022647D01*
X111597833Y-41156927D01*
X111426927Y-41327833D01*
X111292647Y-41528798D01*
X111200153Y-41752097D01*
X111153000Y-41989151D01*
X111153000Y-42139276D01*
X111094503Y-42067997D01*
X110992547Y-41984324D01*
X110876226Y-41922149D01*
X110750010Y-41883862D01*
X110618750Y-41870934D01*
X110162090Y-41870934D01*
X110162090Y-39449151D01*
X111153000Y-39449151D01*
X111153000Y-39690849D01*
X111200153Y-39927903D01*
X111292647Y-40151202D01*
X111426927Y-40352167D01*
X111597833Y-40523073D01*
X111798798Y-40657353D01*
X112022097Y-40749847D01*
X112259151Y-40797000D01*
X112500849Y-40797000D01*
X112737903Y-40749847D01*
X112961202Y-40657353D01*
X113162167Y-40523073D01*
X113333073Y-40352167D01*
X113467353Y-40151202D01*
X113559847Y-39927903D01*
X113607000Y-39690849D01*
X113607000Y-39449151D01*
X113559847Y-39212097D01*
X113467353Y-38988798D01*
X113333073Y-38787833D01*
X113162167Y-38616927D01*
X112961202Y-38482647D01*
X112737903Y-38390153D01*
X112500849Y-38343000D01*
X112259151Y-38343000D01*
X112022097Y-38390153D01*
X111798798Y-38482647D01*
X111597833Y-38616927D01*
X111426927Y-38787833D01*
X111292647Y-38988798D01*
X111200153Y-39212097D01*
X111153000Y-39449151D01*
X110162090Y-39449151D01*
X110162090Y-39387490D01*
X110167366Y-39379594D01*
X110225403Y-39239481D01*
X110254990Y-39090739D01*
X110254990Y-38939081D01*
X110225403Y-38790339D01*
X110167366Y-38650226D01*
X110083110Y-38524127D01*
X109975873Y-38416890D01*
X109849774Y-38332634D01*
X109709661Y-38274597D01*
X109560919Y-38245010D01*
X109409261Y-38245010D01*
X109260519Y-38274597D01*
X109120406Y-38332634D01*
X108994307Y-38416890D01*
X108887070Y-38524127D01*
X108802814Y-38650226D01*
X108744777Y-38790339D01*
X108715190Y-38939081D01*
X108715190Y-39090739D01*
X108744777Y-39239481D01*
X108802814Y-39379594D01*
X108808091Y-39387492D01*
X108808091Y-41877271D01*
X108743750Y-41870934D01*
X108256250Y-41870934D01*
X108124990Y-41883862D01*
X108002000Y-41921170D01*
X108002000Y-35161505D01*
X108026594Y-35186099D01*
X108276694Y-35353210D01*
X108554590Y-35468319D01*
X108849604Y-35527000D01*
X109150396Y-35527000D01*
X109445410Y-35468319D01*
X109723306Y-35353210D01*
X109817906Y-35290000D01*
X110941928Y-35290000D01*
X110954188Y-35414482D01*
X110990498Y-35534180D01*
X111049463Y-35644494D01*
X111128815Y-35741185D01*
X111225506Y-35820537D01*
X111335820Y-35879502D01*
X111455518Y-35915812D01*
X111580000Y-35928072D01*
X111837701Y-35926533D01*
X111798798Y-35942647D01*
X111597833Y-36076927D01*
X111426927Y-36247833D01*
X111292647Y-36448798D01*
X111200153Y-36672097D01*
X111153000Y-36909151D01*
X111153000Y-37150849D01*
X111200153Y-37387903D01*
X111292647Y-37611202D01*
X111426927Y-37812167D01*
X111597833Y-37983073D01*
X111798798Y-38117353D01*
X112022097Y-38209847D01*
X112259151Y-38257000D01*
X112500849Y-38257000D01*
X112737903Y-38209847D01*
X112961202Y-38117353D01*
X113162167Y-37983073D01*
X113333073Y-37812167D01*
X113467353Y-37611202D01*
X113559847Y-37387903D01*
X113607000Y-37150849D01*
X113607000Y-36909151D01*
X113559847Y-36672097D01*
X113467353Y-36448798D01*
X113333073Y-36247833D01*
X113162167Y-36076927D01*
X112961202Y-35942647D01*
X112922299Y-35926533D01*
X113180000Y-35928072D01*
X113304482Y-35915812D01*
X113424180Y-35879502D01*
X113534494Y-35820537D01*
X113631185Y-35741185D01*
X113710537Y-35644494D01*
X113769502Y-35534180D01*
X113805812Y-35414482D01*
X113818072Y-35290000D01*
X113815000Y-34775750D01*
X113656250Y-34617000D01*
X112507000Y-34617000D01*
X112507000Y-34637000D01*
X112253000Y-34637000D01*
X112253000Y-34617000D01*
X111103750Y-34617000D01*
X110945000Y-34775750D01*
X110941928Y-35290000D01*
X109817906Y-35290000D01*
X109973406Y-35186099D01*
X110186099Y-34973406D01*
X110353210Y-34723306D01*
X110468319Y-34445410D01*
X110527000Y-34150396D01*
X110527000Y-33849604D01*
X110495254Y-33690000D01*
X110941928Y-33690000D01*
X110945000Y-34204250D01*
X111103750Y-34363000D01*
X112253000Y-34363000D01*
X112253000Y-33213750D01*
X112507000Y-33213750D01*
X112507000Y-34363000D01*
X113656250Y-34363000D01*
X113815000Y-34204250D01*
X113818072Y-33690000D01*
X113805812Y-33565518D01*
X113769502Y-33445820D01*
X113710537Y-33335506D01*
X113631185Y-33238815D01*
X113534494Y-33159463D01*
X113424180Y-33100498D01*
X113304482Y-33064188D01*
X113180000Y-33051928D01*
X112665750Y-33055000D01*
X112507000Y-33213750D01*
X112253000Y-33213750D01*
X112094250Y-33055000D01*
X111580000Y-33051928D01*
X111455518Y-33064188D01*
X111335820Y-33100498D01*
X111225506Y-33159463D01*
X111128815Y-33238815D01*
X111049463Y-33335506D01*
X110990498Y-33445820D01*
X110954188Y-33565518D01*
X110941928Y-33690000D01*
X110495254Y-33690000D01*
X110468319Y-33554590D01*
X110353210Y-33276694D01*
X110186099Y-33026594D01*
X110161505Y-33002000D01*
X119314074Y-33002000D01*
X119275429Y-33009687D01*
G36*
X132741478Y-38710336D02*
G01*
X132814498Y-38951051D01*
X132933076Y-39172896D01*
X133092656Y-39367344D01*
X133287104Y-39526924D01*
X133464650Y-39621824D01*
X133368748Y-39655843D01*
X133118645Y-39804822D01*
X132902412Y-39999731D01*
X132728359Y-40233080D01*
X132619834Y-40460927D01*
X132526924Y-40287104D01*
X132367344Y-40092656D01*
X132172896Y-39933076D01*
X131951051Y-39814498D01*
X131710336Y-39741478D01*
X131593798Y-39730000D01*
X131710336Y-39718522D01*
X131951051Y-39645502D01*
X132172896Y-39526924D01*
X132367344Y-39367344D01*
X132526924Y-39172896D01*
X132645502Y-38951051D01*
X132718522Y-38710336D01*
X132730000Y-38593798D01*
X132741478Y-38710336D01*
X132741478Y-38710336D01*
G37*
X132741478Y-38710336D02*
X132814498Y-38951051D01*
X132933076Y-39172896D01*
X133092656Y-39367344D01*
X133287104Y-39526924D01*
X133464650Y-39621824D01*
X133368748Y-39655843D01*
X133118645Y-39804822D01*
X132902412Y-39999731D01*
X132728359Y-40233080D01*
X132619834Y-40460927D01*
X132526924Y-40287104D01*
X132367344Y-40092656D01*
X132172896Y-39933076D01*
X131951051Y-39814498D01*
X131710336Y-39741478D01*
X131593798Y-39730000D01*
X131710336Y-39718522D01*
X131951051Y-39645502D01*
X132172896Y-39526924D01*
X132367344Y-39367344D01*
X132526924Y-39172896D01*
X132645502Y-38951051D01*
X132718522Y-38710336D01*
X132730000Y-38593798D01*
X132741478Y-38710336D01*
M02*
