G04 #@! TF.GenerationSoftware,KiCad,Pcbnew,(5.1.0-0)*
G04 #@! TF.CreationDate,2019-10-12T10:13:56-07:00*
G04 #@! TF.ProjectId,BB-Mainboard-0,42422d4d-6169-46e6-926f-6172642d302e,rev?*
G04 #@! TF.SameCoordinates,Original*
G04 #@! TF.FileFunction,Legend,Bot*
G04 #@! TF.FilePolarity,Positive*
%FSLAX46Y46*%
G04 Gerber Fmt 4.6, Leading zero omitted, Abs format (unit mm)*
G04 Created by KiCad (PCBNEW (5.1.0-0)) date 2019-10-12 10:13:56*
%MOMM*%
%LPD*%
G04 APERTURE LIST*
%ADD10C,0.150000*%
%ADD11C,0.120000*%
G04 APERTURE END LIST*
D10*
X115416666Y-37202380D02*
X115226190Y-37202380D01*
X115130952Y-37250000D01*
X115035714Y-37345238D01*
X114988095Y-37535714D01*
X114988095Y-37869047D01*
X115035714Y-38059523D01*
X115130952Y-38154761D01*
X115226190Y-38202380D01*
X115416666Y-38202380D01*
X115511904Y-38154761D01*
X115607142Y-38059523D01*
X115654761Y-37869047D01*
X115654761Y-37535714D01*
X115607142Y-37345238D01*
X115511904Y-37250000D01*
X115416666Y-37202380D01*
X114702380Y-37535714D02*
X114321428Y-37535714D01*
X114559523Y-38202380D02*
X114559523Y-37345238D01*
X114511904Y-37250000D01*
X114416666Y-37202380D01*
X114321428Y-37202380D01*
X114130952Y-37535714D02*
X113750000Y-37535714D01*
X113988095Y-38202380D02*
X113988095Y-37345238D01*
X113940476Y-37250000D01*
X113845238Y-37202380D01*
X113750000Y-37202380D01*
D11*
X111130000Y-72570001D02*
X111130000Y-69230001D01*
X111490000Y-72570001D02*
X111130000Y-72570001D01*
X111490000Y-75910000D02*
X111490000Y-72570001D01*
X111130000Y-75910000D02*
X111490000Y-75910000D01*
X111130000Y-79250000D02*
X111130000Y-75910000D01*
X128870000Y-79249999D02*
X111130000Y-79250000D01*
X128870000Y-69230000D02*
X128870000Y-79249999D01*
X111130000Y-69230001D02*
X128870000Y-69230000D01*
X122210000Y-51420000D02*
X120750000Y-51420000D01*
X122210000Y-54580000D02*
X120050000Y-54580000D01*
X122210000Y-54580000D02*
X122210000Y-53650000D01*
X122210000Y-51420000D02*
X122210000Y-52350000D01*
X117760000Y-51420000D02*
X116300000Y-51420000D01*
X117760000Y-54580000D02*
X115600000Y-54580000D01*
X117760000Y-54580000D02*
X117760000Y-53650000D01*
X117760000Y-51420000D02*
X117760000Y-52350000D01*
X109696078Y-48210000D02*
X109178922Y-48210000D01*
X109696078Y-46790000D02*
X109178922Y-46790000D01*
X109696078Y-43710000D02*
X109178922Y-43710000D01*
X109696078Y-42290000D02*
X109178922Y-42290000D01*
X109696078Y-51210000D02*
X109178922Y-51210000D01*
X109696078Y-49790000D02*
X109178922Y-49790000D01*
X131178922Y-48040000D02*
X131696078Y-48040000D01*
X131178922Y-49460000D02*
X131696078Y-49460000D01*
X131178922Y-50540000D02*
X131696078Y-50540000D01*
X131178922Y-51960000D02*
X131696078Y-51960000D01*
X124090000Y-54602064D02*
X124090000Y-53397936D01*
X125910000Y-54602064D02*
X125910000Y-53397936D01*
X129790000Y-63171491D02*
X129790000Y-62654335D01*
X131210000Y-63171491D02*
X131210000Y-62654335D01*
X131460000Y-57565000D02*
X131460000Y-60250000D01*
X129540000Y-57565000D02*
X131460000Y-57565000D01*
X129540000Y-60250000D02*
X129540000Y-57565000D01*
D10*
X114714285Y-79452380D02*
X114714285Y-80261904D01*
X114666666Y-80357142D01*
X114619047Y-80404761D01*
X114523809Y-80452380D01*
X114333333Y-80452380D01*
X114238095Y-80404761D01*
X114190476Y-80357142D01*
X114142857Y-80261904D01*
X114142857Y-79452380D01*
X113142857Y-80452380D02*
X113714285Y-80452380D01*
X113428571Y-80452380D02*
X113428571Y-79452380D01*
X113523809Y-79595238D01*
X113619047Y-79690476D01*
X113714285Y-79738095D01*
X112523809Y-79452380D02*
X112428571Y-79452380D01*
X112333333Y-79500000D01*
X112285714Y-79547619D01*
X112238095Y-79642857D01*
X112190476Y-79833333D01*
X112190476Y-80071428D01*
X112238095Y-80261904D01*
X112285714Y-80357142D01*
X112333333Y-80404761D01*
X112428571Y-80452380D01*
X112523809Y-80452380D01*
X112619047Y-80404761D01*
X112666666Y-80357142D01*
X112714285Y-80261904D01*
X112761904Y-80071428D01*
X112761904Y-79833333D01*
X112714285Y-79642857D01*
X112666666Y-79547619D01*
X112619047Y-79500000D01*
X112523809Y-79452380D01*
X111857142Y-79452380D02*
X111238095Y-79452380D01*
X111571428Y-79833333D01*
X111428571Y-79833333D01*
X111333333Y-79880952D01*
X111285714Y-79928571D01*
X111238095Y-80023809D01*
X111238095Y-80261904D01*
X111285714Y-80357142D01*
X111333333Y-80404761D01*
X111428571Y-80452380D01*
X111714285Y-80452380D01*
X111809523Y-80404761D01*
X111857142Y-80357142D01*
X112880000Y-75001904D02*
X112927619Y-75097142D01*
X112927619Y-75240000D01*
X112880000Y-75382857D01*
X112784761Y-75478095D01*
X112689523Y-75525714D01*
X112499047Y-75573333D01*
X112356190Y-75573333D01*
X112165714Y-75525714D01*
X112070476Y-75478095D01*
X111975238Y-75382857D01*
X111927619Y-75240000D01*
X111927619Y-75144761D01*
X111975238Y-75001904D01*
X112022857Y-74954285D01*
X112356190Y-74954285D01*
X112356190Y-75144761D01*
X111927619Y-74525714D02*
X112927619Y-74525714D01*
X111927619Y-73954285D01*
X112927619Y-73954285D01*
X111927619Y-73478095D02*
X112927619Y-73478095D01*
X112927619Y-73240000D01*
X112880000Y-73097142D01*
X112784761Y-73001904D01*
X112689523Y-72954285D01*
X112499047Y-72906666D01*
X112356190Y-72906666D01*
X112165714Y-72954285D01*
X112070476Y-73001904D01*
X111975238Y-73097142D01*
X111927619Y-73240000D01*
X111927619Y-73478095D01*
X126880952Y-74644761D02*
X126738095Y-74692380D01*
X126500000Y-74692380D01*
X126404761Y-74644761D01*
X126357142Y-74597142D01*
X126309523Y-74501904D01*
X126309523Y-74406666D01*
X126357142Y-74311428D01*
X126404761Y-74263809D01*
X126500000Y-74216190D01*
X126690476Y-74168571D01*
X126785714Y-74120952D01*
X126833333Y-74073333D01*
X126880952Y-73978095D01*
X126880952Y-73882857D01*
X126833333Y-73787619D01*
X126785714Y-73740000D01*
X126690476Y-73692380D01*
X126452380Y-73692380D01*
X126309523Y-73740000D01*
X125880952Y-74692380D02*
X125880952Y-74025714D01*
X125880952Y-74120952D02*
X125833333Y-74073333D01*
X125738095Y-74025714D01*
X125595238Y-74025714D01*
X125500000Y-74073333D01*
X125452380Y-74168571D01*
X125452380Y-74692380D01*
X125452380Y-74168571D02*
X125404761Y-74073333D01*
X125309523Y-74025714D01*
X125166666Y-74025714D01*
X125071428Y-74073333D01*
X125023809Y-74168571D01*
X125023809Y-74692380D01*
X124404761Y-74692380D02*
X124500000Y-74644761D01*
X124547619Y-74597142D01*
X124595238Y-74501904D01*
X124595238Y-74216190D01*
X124547619Y-74120952D01*
X124500000Y-74073333D01*
X124404761Y-74025714D01*
X124261904Y-74025714D01*
X124166666Y-74073333D01*
X124119047Y-74120952D01*
X124071428Y-74216190D01*
X124071428Y-74501904D01*
X124119047Y-74597142D01*
X124166666Y-74644761D01*
X124261904Y-74692380D01*
X124404761Y-74692380D01*
X123500000Y-74692380D02*
X123595238Y-74644761D01*
X123642857Y-74597142D01*
X123690476Y-74501904D01*
X123690476Y-74216190D01*
X123642857Y-74120952D01*
X123595238Y-74073333D01*
X123500000Y-74025714D01*
X123357142Y-74025714D01*
X123261904Y-74073333D01*
X123214285Y-74120952D01*
X123166666Y-74216190D01*
X123166666Y-74501904D01*
X123214285Y-74597142D01*
X123261904Y-74644761D01*
X123357142Y-74692380D01*
X123500000Y-74692380D01*
X122880952Y-74025714D02*
X122500000Y-74025714D01*
X122738095Y-73692380D02*
X122738095Y-74549523D01*
X122690476Y-74644761D01*
X122595238Y-74692380D01*
X122500000Y-74692380D01*
X122166666Y-74692380D02*
X122166666Y-73692380D01*
X121738095Y-74692380D02*
X121738095Y-74168571D01*
X121785714Y-74073333D01*
X121880952Y-74025714D01*
X122023809Y-74025714D01*
X122119047Y-74073333D01*
X122166666Y-74120952D01*
X120547619Y-74644761D02*
X120404761Y-74692380D01*
X120166666Y-74692380D01*
X120071428Y-74644761D01*
X120023809Y-74597142D01*
X119976190Y-74501904D01*
X119976190Y-74406666D01*
X120023809Y-74311428D01*
X120071428Y-74263809D01*
X120166666Y-74216190D01*
X120357142Y-74168571D01*
X120452380Y-74120952D01*
X120500000Y-74073333D01*
X120547619Y-73978095D01*
X120547619Y-73882857D01*
X120500000Y-73787619D01*
X120452380Y-73740000D01*
X120357142Y-73692380D01*
X120119047Y-73692380D01*
X119976190Y-73740000D01*
X119547619Y-74692380D02*
X119547619Y-74025714D01*
X119547619Y-73692380D02*
X119595238Y-73740000D01*
X119547619Y-73787619D01*
X119500000Y-73740000D01*
X119547619Y-73692380D01*
X119547619Y-73787619D01*
X118642857Y-74692380D02*
X118642857Y-73692380D01*
X118642857Y-74644761D02*
X118738095Y-74692380D01*
X118928571Y-74692380D01*
X119023809Y-74644761D01*
X119071428Y-74597142D01*
X119119047Y-74501904D01*
X119119047Y-74216190D01*
X119071428Y-74120952D01*
X119023809Y-74073333D01*
X118928571Y-74025714D01*
X118738095Y-74025714D01*
X118642857Y-74073333D01*
X117785714Y-74644761D02*
X117880952Y-74692380D01*
X118071428Y-74692380D01*
X118166666Y-74644761D01*
X118214285Y-74549523D01*
X118214285Y-74168571D01*
X118166666Y-74073333D01*
X118071428Y-74025714D01*
X117880952Y-74025714D01*
X117785714Y-74073333D01*
X117738095Y-74168571D01*
X117738095Y-74263809D01*
X118214285Y-74359047D01*
X116547619Y-74692380D02*
X116547619Y-73692380D01*
X116309523Y-73692380D01*
X116166666Y-73740000D01*
X116071428Y-73835238D01*
X116023809Y-73930476D01*
X115976190Y-74120952D01*
X115976190Y-74263809D01*
X116023809Y-74454285D01*
X116071428Y-74549523D01*
X116166666Y-74644761D01*
X116309523Y-74692380D01*
X116547619Y-74692380D01*
X115404761Y-74692380D02*
X115500000Y-74644761D01*
X115547619Y-74597142D01*
X115595238Y-74501904D01*
X115595238Y-74216190D01*
X115547619Y-74120952D01*
X115500000Y-74073333D01*
X115404761Y-74025714D01*
X115261904Y-74025714D01*
X115166666Y-74073333D01*
X115119047Y-74120952D01*
X115071428Y-74216190D01*
X115071428Y-74501904D01*
X115119047Y-74597142D01*
X115166666Y-74644761D01*
X115261904Y-74692380D01*
X115404761Y-74692380D01*
X114738095Y-74025714D02*
X114547619Y-74692380D01*
X114357142Y-74216190D01*
X114166666Y-74692380D01*
X113976190Y-74025714D01*
X113595238Y-74025714D02*
X113595238Y-74692380D01*
X113595238Y-74120952D02*
X113547619Y-74073333D01*
X113452380Y-74025714D01*
X113309523Y-74025714D01*
X113214285Y-74073333D01*
X113166666Y-74168571D01*
X113166666Y-74692380D01*
X122497619Y-56047619D02*
X122592857Y-56000000D01*
X122688095Y-55904761D01*
X122830952Y-55761904D01*
X122926190Y-55714285D01*
X123021428Y-55714285D01*
X122973809Y-55952380D02*
X123069047Y-55904761D01*
X123164285Y-55809523D01*
X123211904Y-55619047D01*
X123211904Y-55285714D01*
X123164285Y-55095238D01*
X123069047Y-55000000D01*
X122973809Y-54952380D01*
X122783333Y-54952380D01*
X122688095Y-55000000D01*
X122592857Y-55095238D01*
X122545238Y-55285714D01*
X122545238Y-55619047D01*
X122592857Y-55809523D01*
X122688095Y-55904761D01*
X122783333Y-55952380D01*
X122973809Y-55952380D01*
X121592857Y-55952380D02*
X122164285Y-55952380D01*
X121878571Y-55952380D02*
X121878571Y-54952380D01*
X121973809Y-55095238D01*
X122069047Y-55190476D01*
X122164285Y-55238095D01*
X120973809Y-54952380D02*
X120878571Y-54952380D01*
X120783333Y-55000000D01*
X120735714Y-55047619D01*
X120688095Y-55142857D01*
X120640476Y-55333333D01*
X120640476Y-55571428D01*
X120688095Y-55761904D01*
X120735714Y-55857142D01*
X120783333Y-55904761D01*
X120878571Y-55952380D01*
X120973809Y-55952380D01*
X121069047Y-55904761D01*
X121116666Y-55857142D01*
X121164285Y-55761904D01*
X121211904Y-55571428D01*
X121211904Y-55333333D01*
X121164285Y-55142857D01*
X121116666Y-55047619D01*
X121069047Y-55000000D01*
X120973809Y-54952380D01*
X120259523Y-55047619D02*
X120211904Y-55000000D01*
X120116666Y-54952380D01*
X119878571Y-54952380D01*
X119783333Y-55000000D01*
X119735714Y-55047619D01*
X119688095Y-55142857D01*
X119688095Y-55238095D01*
X119735714Y-55380952D01*
X120307142Y-55952380D01*
X119688095Y-55952380D01*
X118047619Y-56047619D02*
X118142857Y-56000000D01*
X118238095Y-55904761D01*
X118380952Y-55761904D01*
X118476190Y-55714285D01*
X118571428Y-55714285D01*
X118523809Y-55952380D02*
X118619047Y-55904761D01*
X118714285Y-55809523D01*
X118761904Y-55619047D01*
X118761904Y-55285714D01*
X118714285Y-55095238D01*
X118619047Y-55000000D01*
X118523809Y-54952380D01*
X118333333Y-54952380D01*
X118238095Y-55000000D01*
X118142857Y-55095238D01*
X118095238Y-55285714D01*
X118095238Y-55619047D01*
X118142857Y-55809523D01*
X118238095Y-55904761D01*
X118333333Y-55952380D01*
X118523809Y-55952380D01*
X117142857Y-55952380D02*
X117714285Y-55952380D01*
X117428571Y-55952380D02*
X117428571Y-54952380D01*
X117523809Y-55095238D01*
X117619047Y-55190476D01*
X117714285Y-55238095D01*
X116523809Y-54952380D02*
X116428571Y-54952380D01*
X116333333Y-55000000D01*
X116285714Y-55047619D01*
X116238095Y-55142857D01*
X116190476Y-55333333D01*
X116190476Y-55571428D01*
X116238095Y-55761904D01*
X116285714Y-55857142D01*
X116333333Y-55904761D01*
X116428571Y-55952380D01*
X116523809Y-55952380D01*
X116619047Y-55904761D01*
X116666666Y-55857142D01*
X116714285Y-55761904D01*
X116761904Y-55571428D01*
X116761904Y-55333333D01*
X116714285Y-55142857D01*
X116666666Y-55047619D01*
X116619047Y-55000000D01*
X116523809Y-54952380D01*
X115238095Y-55952380D02*
X115809523Y-55952380D01*
X115523809Y-55952380D02*
X115523809Y-54952380D01*
X115619047Y-55095238D01*
X115714285Y-55190476D01*
X115809523Y-55238095D01*
X110556547Y-46302380D02*
X110889880Y-45826190D01*
X111127976Y-46302380D02*
X111127976Y-45302380D01*
X110747023Y-45302380D01*
X110651785Y-45350000D01*
X110604166Y-45397619D01*
X110556547Y-45492857D01*
X110556547Y-45635714D01*
X110604166Y-45730952D01*
X110651785Y-45778571D01*
X110747023Y-45826190D01*
X111127976Y-45826190D01*
X109604166Y-46302380D02*
X110175595Y-46302380D01*
X109889880Y-46302380D02*
X109889880Y-45302380D01*
X109985119Y-45445238D01*
X110080357Y-45540476D01*
X110175595Y-45588095D01*
X108651785Y-46302380D02*
X109223214Y-46302380D01*
X108937500Y-46302380D02*
X108937500Y-45302380D01*
X109032738Y-45445238D01*
X109127976Y-45540476D01*
X109223214Y-45588095D01*
X108318452Y-45302380D02*
X107699404Y-45302380D01*
X108032738Y-45683333D01*
X107889880Y-45683333D01*
X107794642Y-45730952D01*
X107747023Y-45778571D01*
X107699404Y-45873809D01*
X107699404Y-46111904D01*
X107747023Y-46207142D01*
X107794642Y-46254761D01*
X107889880Y-46302380D01*
X108175595Y-46302380D01*
X108270833Y-46254761D01*
X108318452Y-46207142D01*
X110556547Y-41802380D02*
X110889880Y-41326190D01*
X111127976Y-41802380D02*
X111127976Y-40802380D01*
X110747023Y-40802380D01*
X110651785Y-40850000D01*
X110604166Y-40897619D01*
X110556547Y-40992857D01*
X110556547Y-41135714D01*
X110604166Y-41230952D01*
X110651785Y-41278571D01*
X110747023Y-41326190D01*
X111127976Y-41326190D01*
X109604166Y-41802380D02*
X110175595Y-41802380D01*
X109889880Y-41802380D02*
X109889880Y-40802380D01*
X109985119Y-40945238D01*
X110080357Y-41040476D01*
X110175595Y-41088095D01*
X108651785Y-41802380D02*
X109223214Y-41802380D01*
X108937500Y-41802380D02*
X108937500Y-40802380D01*
X109032738Y-40945238D01*
X109127976Y-41040476D01*
X109223214Y-41088095D01*
X108270833Y-40897619D02*
X108223214Y-40850000D01*
X108127976Y-40802380D01*
X107889880Y-40802380D01*
X107794642Y-40850000D01*
X107747023Y-40897619D01*
X107699404Y-40992857D01*
X107699404Y-41088095D01*
X107747023Y-41230952D01*
X108318452Y-41802380D01*
X107699404Y-41802380D01*
X110556547Y-49302380D02*
X110889880Y-48826190D01*
X111127976Y-49302380D02*
X111127976Y-48302380D01*
X110747023Y-48302380D01*
X110651785Y-48350000D01*
X110604166Y-48397619D01*
X110556547Y-48492857D01*
X110556547Y-48635714D01*
X110604166Y-48730952D01*
X110651785Y-48778571D01*
X110747023Y-48826190D01*
X111127976Y-48826190D01*
X109604166Y-49302380D02*
X110175595Y-49302380D01*
X109889880Y-49302380D02*
X109889880Y-48302380D01*
X109985119Y-48445238D01*
X110080357Y-48540476D01*
X110175595Y-48588095D01*
X108651785Y-49302380D02*
X109223214Y-49302380D01*
X108937500Y-49302380D02*
X108937500Y-48302380D01*
X109032738Y-48445238D01*
X109127976Y-48540476D01*
X109223214Y-48588095D01*
X107699404Y-49302380D02*
X108270833Y-49302380D01*
X107985119Y-49302380D02*
X107985119Y-48302380D01*
X108080357Y-48445238D01*
X108175595Y-48540476D01*
X108270833Y-48588095D01*
X134952380Y-48380952D02*
X134476190Y-48047619D01*
X134952380Y-47809523D02*
X133952380Y-47809523D01*
X133952380Y-48190476D01*
X134000000Y-48285714D01*
X134047619Y-48333333D01*
X134142857Y-48380952D01*
X134285714Y-48380952D01*
X134380952Y-48333333D01*
X134428571Y-48285714D01*
X134476190Y-48190476D01*
X134476190Y-47809523D01*
X134952380Y-49333333D02*
X134952380Y-48761904D01*
X134952380Y-49047619D02*
X133952380Y-49047619D01*
X134095238Y-48952380D01*
X134190476Y-48857142D01*
X134238095Y-48761904D01*
X134952380Y-50285714D02*
X134952380Y-49714285D01*
X134952380Y-50000000D02*
X133952380Y-50000000D01*
X134095238Y-49904761D01*
X134190476Y-49809523D01*
X134238095Y-49714285D01*
X133952380Y-50904761D02*
X133952380Y-51000000D01*
X134000000Y-51095238D01*
X134047619Y-51142857D01*
X134142857Y-51190476D01*
X134333333Y-51238095D01*
X134571428Y-51238095D01*
X134761904Y-51190476D01*
X134857142Y-51142857D01*
X134904761Y-51095238D01*
X134952380Y-51000000D01*
X134952380Y-50904761D01*
X134904761Y-50809523D01*
X134857142Y-50761904D01*
X134761904Y-50714285D01*
X134571428Y-50666666D01*
X134333333Y-50666666D01*
X134142857Y-50714285D01*
X134047619Y-50761904D01*
X134000000Y-50809523D01*
X133952380Y-50904761D01*
X132556547Y-53352380D02*
X132889880Y-52876190D01*
X133127976Y-53352380D02*
X133127976Y-52352380D01*
X132747023Y-52352380D01*
X132651785Y-52400000D01*
X132604166Y-52447619D01*
X132556547Y-52542857D01*
X132556547Y-52685714D01*
X132604166Y-52780952D01*
X132651785Y-52828571D01*
X132747023Y-52876190D01*
X133127976Y-52876190D01*
X131604166Y-53352380D02*
X132175595Y-53352380D01*
X131889880Y-53352380D02*
X131889880Y-52352380D01*
X131985119Y-52495238D01*
X132080357Y-52590476D01*
X132175595Y-52638095D01*
X130985119Y-52352380D02*
X130889880Y-52352380D01*
X130794642Y-52400000D01*
X130747023Y-52447619D01*
X130699404Y-52542857D01*
X130651785Y-52733333D01*
X130651785Y-52971428D01*
X130699404Y-53161904D01*
X130747023Y-53257142D01*
X130794642Y-53304761D01*
X130889880Y-53352380D01*
X130985119Y-53352380D01*
X131080357Y-53304761D01*
X131127976Y-53257142D01*
X131175595Y-53161904D01*
X131223214Y-52971428D01*
X131223214Y-52733333D01*
X131175595Y-52542857D01*
X131127976Y-52447619D01*
X131080357Y-52400000D01*
X130985119Y-52352380D01*
X130175595Y-53352380D02*
X129985119Y-53352380D01*
X129889880Y-53304761D01*
X129842261Y-53257142D01*
X129747023Y-53114285D01*
X129699404Y-52923809D01*
X129699404Y-52542857D01*
X129747023Y-52447619D01*
X129794642Y-52400000D01*
X129889880Y-52352380D01*
X130080357Y-52352380D01*
X130175595Y-52400000D01*
X130223214Y-52447619D01*
X130270833Y-52542857D01*
X130270833Y-52780952D01*
X130223214Y-52876190D01*
X130175595Y-52923809D01*
X130080357Y-52971428D01*
X129889880Y-52971428D01*
X129794642Y-52923809D01*
X129747023Y-52876190D01*
X129699404Y-52780952D01*
X125452380Y-56880952D02*
X124976190Y-56547619D01*
X125452380Y-56309523D02*
X124452380Y-56309523D01*
X124452380Y-56690476D01*
X124500000Y-56785714D01*
X124547619Y-56833333D01*
X124642857Y-56880952D01*
X124785714Y-56880952D01*
X124880952Y-56833333D01*
X124928571Y-56785714D01*
X124976190Y-56690476D01*
X124976190Y-56309523D01*
X125452380Y-57833333D02*
X125452380Y-57261904D01*
X125452380Y-57547619D02*
X124452380Y-57547619D01*
X124595238Y-57452380D01*
X124690476Y-57357142D01*
X124738095Y-57261904D01*
X124452380Y-58452380D02*
X124452380Y-58547619D01*
X124500000Y-58642857D01*
X124547619Y-58690476D01*
X124642857Y-58738095D01*
X124833333Y-58785714D01*
X125071428Y-58785714D01*
X125261904Y-58738095D01*
X125357142Y-58690476D01*
X125404761Y-58642857D01*
X125452380Y-58547619D01*
X125452380Y-58452380D01*
X125404761Y-58357142D01*
X125357142Y-58309523D01*
X125261904Y-58261904D01*
X125071428Y-58214285D01*
X124833333Y-58214285D01*
X124642857Y-58261904D01*
X124547619Y-58309523D01*
X124500000Y-58357142D01*
X124452380Y-58452380D01*
X124452380Y-59119047D02*
X124452380Y-59785714D01*
X125452380Y-59357142D01*
X132602380Y-63380952D02*
X132126190Y-63047619D01*
X132602380Y-62809523D02*
X131602380Y-62809523D01*
X131602380Y-63190476D01*
X131650000Y-63285714D01*
X131697619Y-63333333D01*
X131792857Y-63380952D01*
X131935714Y-63380952D01*
X132030952Y-63333333D01*
X132078571Y-63285714D01*
X132126190Y-63190476D01*
X132126190Y-62809523D01*
X132602380Y-64333333D02*
X132602380Y-63761904D01*
X132602380Y-64047619D02*
X131602380Y-64047619D01*
X131745238Y-63952380D01*
X131840476Y-63857142D01*
X131888095Y-63761904D01*
X131602380Y-64952380D02*
X131602380Y-65047619D01*
X131650000Y-65142857D01*
X131697619Y-65190476D01*
X131792857Y-65238095D01*
X131983333Y-65285714D01*
X132221428Y-65285714D01*
X132411904Y-65238095D01*
X132507142Y-65190476D01*
X132554761Y-65142857D01*
X132602380Y-65047619D01*
X132602380Y-64952380D01*
X132554761Y-64857142D01*
X132507142Y-64809523D01*
X132411904Y-64761904D01*
X132221428Y-64714285D01*
X131983333Y-64714285D01*
X131792857Y-64761904D01*
X131697619Y-64809523D01*
X131650000Y-64857142D01*
X131602380Y-64952380D01*
X131602380Y-66190476D02*
X131602380Y-65714285D01*
X132078571Y-65666666D01*
X132030952Y-65714285D01*
X131983333Y-65809523D01*
X131983333Y-66047619D01*
X132030952Y-66142857D01*
X132078571Y-66190476D01*
X132173809Y-66238095D01*
X132411904Y-66238095D01*
X132507142Y-66190476D01*
X132554761Y-66142857D01*
X132602380Y-66047619D01*
X132602380Y-65809523D01*
X132554761Y-65714285D01*
X132507142Y-65666666D01*
X132690476Y-57452380D02*
X132690476Y-56452380D01*
X132452380Y-56452380D01*
X132309523Y-56500000D01*
X132214285Y-56595238D01*
X132166666Y-56690476D01*
X132119047Y-56880952D01*
X132119047Y-57023809D01*
X132166666Y-57214285D01*
X132214285Y-57309523D01*
X132309523Y-57404761D01*
X132452380Y-57452380D01*
X132690476Y-57452380D01*
X131166666Y-57452380D02*
X131738095Y-57452380D01*
X131452380Y-57452380D02*
X131452380Y-56452380D01*
X131547619Y-56595238D01*
X131642857Y-56690476D01*
X131738095Y-56738095D01*
X130547619Y-56452380D02*
X130452380Y-56452380D01*
X130357142Y-56500000D01*
X130309523Y-56547619D01*
X130261904Y-56642857D01*
X130214285Y-56833333D01*
X130214285Y-57071428D01*
X130261904Y-57261904D01*
X130309523Y-57357142D01*
X130357142Y-57404761D01*
X130452380Y-57452380D01*
X130547619Y-57452380D01*
X130642857Y-57404761D01*
X130690476Y-57357142D01*
X130738095Y-57261904D01*
X130785714Y-57071428D01*
X130785714Y-56833333D01*
X130738095Y-56642857D01*
X130690476Y-56547619D01*
X130642857Y-56500000D01*
X130547619Y-56452380D01*
X129880952Y-56452380D02*
X129261904Y-56452380D01*
X129595238Y-56833333D01*
X129452380Y-56833333D01*
X129357142Y-56880952D01*
X129309523Y-56928571D01*
X129261904Y-57023809D01*
X129261904Y-57261904D01*
X129309523Y-57357142D01*
X129357142Y-57404761D01*
X129452380Y-57452380D01*
X129738095Y-57452380D01*
X129833333Y-57404761D01*
X129880952Y-57357142D01*
M02*
